<svg width="1440" height="1434" viewBox="0 0 1440 1434" fill="none" xmlns="http://www.w3.org/2000/svg">
<path d="M0 0H1440V1340.73L0 1434V0Z" fill="#010C0C"/>
<mask id="mask0_206_89" style="mask-type:alpha" maskUnits="userSpaceOnUse" x="0" y="0" width="1440" height="1434">
<path d="M0 0H1440V1340.73L0 1434V0Z" fill="#010C0C"/>
</mask>
<g mask="url(#mask0_206_89)">
<mask id="mask1_206_89" style="mask-type:alpha" maskUnits="userSpaceOnUse" x="-284" y="-241" width="1137" height="1491">
<path d="M272.923 842.026C-471.103 566.154 -466.652 134.647 284.168 -121.753C1034.99 -378.153 1041.27 -200.859 298.722 273.577C-443.825 748.014 -448.784 1179.83 287.477 1237.36C1023.74 1294.88 1016.95 1117.9 272.923 842.026Z" stroke="#404040" stroke-width="2" stroke-miterlimit="10"/>
<path d="M273.664 817.089C-345.636 557.491 -341.067 163.682 283.816 -62.0822C908.699 -287.847 914.903 -126.593 297.161 298.32C-320.582 723.233 -325.15 1117.04 287.009 1177.49C899.168 1237.94 893.276 1077.19 273.664 817.089Z" stroke="#404040" stroke-width="2" stroke-miterlimit="10"/>
<path d="M275.225 792.346C-230.978 550.583 -226.8 194.786 284.283 -2.21701C795.367 -199.22 801.298 -53.1854 296.223 324.077C-208.852 701.339 -212.522 1056.82 287.164 1118.64C786.851 1180.46 781.427 1034.11 275.225 792.346Z" stroke="#404040" stroke-width="2" stroke-miterlimit="10"/>
<path d="M275.966 767.408C-128.263 544.728 -124.788 226.434 284.439 57.1401C693.353 -112.661 698.191 17.9577 295.169 348.506C-107.853 679.054 -111.64 996.841 286.696 1058.77C685.033 1120.71 680.701 989.776 275.966 767.408Z" stroke="#404040" stroke-width="2" stroke-miterlimit="10"/>
<path d="M277.526 742.666C-36.3574 540.631 -33.2727 260.348 284.906 117.006C603.085 -26.3356 607.026 88.0487 294.427 373.444C-18.1721 658.84 -21.7641 939.434 287.047 999.104C595.858 1058.77 591.098 944.195 277.526 742.666Z" stroke="#404040" stroke-width="2" stroke-miterlimit="10"/>
<path d="M278.268 717.729C43.4119 538.406 46.1062 296.134 284.555 176.676C523.004 57.2183 526.671 156.383 292.671 399.006C58.3582 641.122 55.6639 883.393 286.384 940.058C517.105 996.723 513.125 897.051 278.268 717.729Z" stroke="#404040" stroke-width="2" stroke-miterlimit="10"/>
<path d="M279.519 692.478C111.748 536.922 114.559 332.349 285.22 235.721C455.881 139.094 458.456 222.843 291.619 423.435C124.782 624.027 122.479 828.288 285.918 880.192C449.358 932.096 446.783 848.347 279.519 692.478Z" stroke="#404040" stroke-width="2" stroke-miterlimit="10"/>
<path d="M280.573 668.049C169.077 538.015 171.186 370.946 284.868 295.392C398.551 219.838 400.853 288.367 290.565 447.866C179.77 607.676 178.169 774.433 286.27 820.522C394.372 866.611 392.069 798.082 280.573 668.049Z" stroke="#404040" stroke-width="2" stroke-miterlimit="10"/>
<path d="M281.821 642.8C215.477 539.538 216.688 410.792 285.023 354.751C353.669 299.217 355.386 352.019 289.315 473.116C223.243 594.213 222.033 722.959 286.113 761.165C350.193 799.371 348.164 746.062 281.821 642.8Z" stroke="#404040" stroke-width="2" stroke-miterlimit="10"/>
<path d="M282.878 618.368C249.55 543.751 250.565 452.197 284.986 414.927C319.407 377.657 321.046 414.42 288.069 498.364C255.091 582.308 254.271 673.043 285.96 701.805C317.649 730.567 316.205 692.985 282.878 618.368Z" stroke="#404040" stroke-width="2" stroke-miterlimit="10"/>
<path d="M284.127 593.118C272.693 548.394 273.317 494.851 285.65 473.972C297.982 453.094 298.84 474.948 287.523 522.481C276.205 570.015 275.58 623.558 286 641.627C296.42 659.696 295.561 637.841 284.127 593.118Z" stroke="#404040" stroke-width="2" stroke-miterlimit="10"/>
</mask>
<g mask="url(#mask1_206_89)">
<rect x="1554.59" y="1215.16" width="2345.24" height="2345.24" transform="rotate(150 1554.59 1215.16)" fill="url(#paint0_linear_206_89)"/>
</g>
<g opacity="0.3">
<mask id="mask2_206_89" style="mask-type:alpha" maskUnits="userSpaceOnUse" x="915" y="12" width="1699" height="1620">
<path d="M2613 821.69C2613 900.689 2372.03 940.406 2348.9 1011.55C2324.89 1085.31 2495.57 1259.02 2450.61 1320.12C2405.65 1382.1 2187.38 1273.42 2125.39 1318.38C2063.84 1362.9 2100.51 1604.26 2026.73 1628.26C1955.58 1651.4 1843.39 1435.79 1764.37 1435.79C1685.36 1435.79 1573.17 1651.4 1502.02 1628.26C1428.24 1604.26 1464.47 1362.9 1403.36 1318.38C1341.37 1273.42 1123.54 1382.1 1078.14 1320.12C1033.61 1259.02 1203.86 1085.31 1180.29 1011.55C1157.15 940.406 916.184 900.252 916.184 821.69C916.184 742.691 1157.15 702.974 1180.29 631.831C1204.3 558.07 1033.61 384.36 1078.58 323.256C1123.54 261.279 1341.81 369.957 1403.79 325.002C1465.35 280.483 1428.68 39.1221 1502.45 15.117C1573.61 -8.01526 1685.8 207.595 1764.81 207.595C1843.82 207.595 1956.01 -8.01526 2027.17 15.117C2100.94 39.1221 2064.71 280.483 2125.83 325.002C2187.81 369.957 2406.08 261.279 2451.04 323.256C2495.57 384.796 2325.32 558.07 2349.33 631.831C2372.03 702.974 2613 742.691 2613 821.69Z" stroke="#DFDFDF" stroke-width="2" stroke-miterlimit="10"/>
<path d="M2538.79 821.69C2538.79 893.706 2319.21 929.932 2297.82 994.964C2275.99 1062.18 2431.4 1220.61 2390.8 1276.48C2349.77 1333.22 2150.71 1233.71 2093.96 1275.17C2038.08 1315.76 2071.26 1536.17 2003.6 1557.99C1938.55 1578.94 1836.4 1382.1 1764.37 1382.1C1692.35 1382.1 1590.2 1578.94 1525.15 1557.99C1457.93 1536.17 1491.1 1316.2 1434.79 1275.17C1378.04 1234.14 1178.98 1333.22 1137.94 1276.48C1097.35 1220.61 1252.75 1062.18 1230.93 994.964C1209.97 929.932 989.959 893.706 989.959 821.69C989.959 749.675 1209.54 713.449 1230.93 648.417C1252.75 581.202 1097.35 422.768 1137.94 366.902C1178.98 310.162 1378.04 409.675 1434.79 368.211C1490.67 327.621 1457.49 107.21 1525.15 85.3867C1590.2 64.4368 1692.35 261.279 1764.37 261.279C1836.4 261.279 1938.55 64.4368 2003.6 85.3867C2070.82 107.21 2037.65 327.184 2093.96 368.211C2150.71 409.238 2349.77 310.162 2390.8 366.902C2431.4 422.768 2275.99 581.202 2297.82 648.417C2318.78 713.449 2538.79 749.675 2538.79 821.69Z" stroke="#DFDFDF" stroke-width="2" stroke-miterlimit="10"/>
<path d="M2464.14 821.69C2464.14 886.722 2265.52 919.456 2246.31 978.378C2226.67 1039.05 2367.23 1182.2 2330.13 1232.83C2293.02 1283.9 2113.17 1194.42 2061.66 1231.52C2011.02 1268.19 2041.14 1467.21 1980.02 1487.29C1921.53 1506.49 1828.98 1328.42 1763.94 1328.42C1698.89 1328.42 1606.35 1506.49 1547.85 1487.29C1487.17 1467.65 1516.86 1268.62 1466.22 1231.52C1415.15 1194.42 1235.29 1283.9 1197.75 1232.83C1161.08 1182.2 1301.65 1039.05 1281.57 978.378C1262.36 919.893 1063.73 886.722 1063.73 821.69C1063.73 756.658 1262.36 723.923 1281.57 665.002C1302.52 604.334 1161.52 461.176 1198.62 410.111C1235.73 359.045 1415.58 448.519 1467.09 411.42C1517.73 374.758 1487.61 175.733 1548.73 155.656C1607.22 136.452 1699.77 314.527 1764.81 314.527C1829.86 314.527 1922.4 136.452 1980.9 155.656C2041.58 175.297 2011.89 374.321 2062.53 411.42C2113.6 448.519 2293.46 359.045 2331 410.111C2367.67 460.74 2227.1 603.898 2247.18 664.565C2265.52 723.487 2464.14 756.658 2464.14 821.69Z" stroke="#DFDFDF" stroke-width="2" stroke-miterlimit="10"/>
<path d="M2389.93 821.691C2389.93 879.739 2212.26 908.982 2195.23 961.793C2177.77 1016.35 2303.06 1144.23 2270.32 1189.19C2237.14 1235.02 2076.06 1154.71 2030.66 1187.88C1985.26 1220.61 2012.33 1398.69 1957.76 1416.15C1905.37 1433.17 1822.87 1274.3 1764.37 1274.3C1706.31 1274.3 1623.37 1433.17 1570.99 1416.15C1516.42 1398.69 1543.49 1220.61 1498.09 1187.88C1452.25 1154.71 1291.6 1235.02 1258.43 1189.19C1225.69 1143.8 1350.97 1015.91 1333.51 961.793C1316.49 909.418 1138.82 880.176 1138.82 821.691C1138.82 763.642 1316.49 734.399 1333.51 681.588C1350.97 627.031 1225.69 499.149 1258.43 454.194C1291.6 408.366 1452.69 488.674 1498.09 455.503C1543.49 422.769 1516.42 244.694 1570.99 227.236C1623.37 210.214 1705.88 369.084 1764.37 369.084C1822.43 369.084 1905.37 210.214 1957.76 227.236C2012.33 244.694 1985.26 422.769 2030.66 455.503C2076.5 488.674 2237.14 408.366 2270.32 454.194C2303.06 499.585 2177.77 627.467 2195.23 681.588C2212.26 733.963 2389.93 763.642 2389.93 821.691Z" stroke="#DFDFDF" stroke-width="2" stroke-miterlimit="10"/>
<path d="M2315.72 821.69C2315.72 872.756 2159.44 898.943 2144.16 945.208C2128.44 993.218 2239.32 1105.82 2210.51 1145.54C2181.26 1185.7 2039.39 1114.99 1999.23 1144.67C1959.5 1173.47 1983.08 1330.16 1935.06 1345.88C1888.79 1360.72 1815.88 1220.61 1764.81 1220.61C1713.73 1220.61 1640.83 1360.72 1594.56 1345.88C1546.54 1330.16 1570.11 1173.47 1530.39 1144.67C1490.23 1115.43 1348.35 1186.13 1319.11 1145.54C1290.29 1105.82 1400.74 992.782 1385.46 945.208C1370.62 898.943 1213.9 873.192 1213.9 821.69C1213.9 770.625 1370.18 744.437 1385.46 698.173C1401.17 650.162 1290.29 537.556 1319.11 497.839C1348.35 457.685 1490.23 528.391 1530.39 498.712C1570.11 469.906 1546.54 313.217 1594.56 297.505C1640.83 282.665 1713.73 422.768 1764.81 422.768C1815.88 422.768 1888.79 282.665 1935.06 297.505C1983.08 313.217 1959.5 469.906 1999.23 498.712C2039.39 527.954 2181.26 457.248 2210.51 497.839C2239.32 537.556 2128.88 650.599 2144.16 698.173C2159 744.437 2315.72 770.188 2315.72 821.69Z" stroke="#DFDFDF" stroke-width="2" stroke-miterlimit="10"/>
<path d="M2241.07 821.69C2241.07 866.209 2105.74 888.468 2092.65 928.185C2079.12 969.649 2175.15 1066.98 2149.83 1101.46C2124.52 1136.38 2001.85 1075.27 1966.93 1100.59C1932.44 1125.9 1952.96 1261.2 1911.49 1274.73C1871.32 1287.83 1808.46 1166.49 1764.37 1166.49C1719.85 1166.49 1656.99 1287.83 1617.26 1274.73C1575.79 1261.2 1596.31 1125.9 1561.82 1100.59C1526.9 1075.27 1404.23 1136.38 1378.91 1101.46C1353.59 1066.98 1449.63 969.649 1436.1 928.185C1423 888.031 1287.68 865.772 1287.68 821.69C1287.68 777.171 1423 754.912 1436.1 715.194C1449.63 673.731 1353.59 576.401 1378.91 541.921C1404.23 507.004 1526.9 568.108 1561.82 542.794C1596.31 517.479 1575.79 382.177 1617.26 368.647C1657.42 355.554 1720.28 476.889 1764.37 476.889C1808.9 476.889 1871.76 355.554 1911.49 368.647C1952.96 382.177 1932.44 517.479 1966.93 542.794C2001.85 568.108 2124.52 507.004 2149.83 541.921C2175.15 576.401 2079.12 673.731 2092.65 715.194C2105.74 754.912 2241.07 777.171 2241.07 821.69Z" stroke="#DFDFDF" stroke-width="2" stroke-miterlimit="10"/>
<path d="M2166.86 821.69C2166.86 859.225 2052.48 877.993 2041.57 911.6C2030.22 946.517 2110.98 1029.01 2090.03 1057.81C2068.64 1087.06 1965.18 1035.55 1935.93 1056.94C1906.68 1078.33 1924.14 1192.68 1889.22 1204.03C1855.61 1214.94 1802.35 1112.81 1764.81 1112.81C1727.27 1112.81 1674.44 1214.94 1640.39 1204.03C1605.47 1192.68 1622.5 1078.33 1593.69 1056.94C1564.44 1035.55 1460.98 1087.06 1439.59 1057.81C1418.2 1028.57 1499.39 946.517 1488.04 911.6C1477.13 877.993 1362.76 858.789 1362.76 821.69C1362.76 784.155 1477.13 765.387 1488.04 731.78C1499.39 696.863 1418.63 614.373 1439.59 585.567C1460.98 556.324 1564.44 607.826 1593.69 586.44C1622.93 565.053 1605.47 450.701 1640.39 439.354C1674.01 428.442 1727.27 530.573 1764.81 530.573C1802.35 530.573 1855.17 428.442 1889.22 439.354C1924.14 450.701 1907.12 565.053 1935.93 586.44C1965.18 607.826 2068.64 556.324 2090.03 585.567C2111.42 614.809 2030.22 696.863 2041.57 731.78C2052.48 765.387 2166.86 784.155 2166.86 821.69Z" stroke="#DFDFDF" stroke-width="2" stroke-miterlimit="10"/>
<path d="M2092.21 821.691C2092.21 852.243 1999.23 867.519 1990.06 895.015C1980.89 923.385 2046.81 990.6 2029.35 1014.17C2011.89 1038.17 1927.64 996.274 1903.63 1013.73C1880.05 1031.19 1894.02 1124.16 1865.65 1133.32C1838.15 1142.05 1794.93 1058.69 1764.37 1058.69C1733.81 1058.69 1690.6 1142.05 1663.1 1133.32C1634.72 1124.16 1648.69 1030.75 1625.12 1013.73C1601.11 996.274 1516.86 1038.17 1499.39 1014.17C1481.93 990.6 1547.85 923.385 1538.68 895.015C1529.95 867.519 1436.53 852.243 1436.53 821.691C1436.53 791.139 1529.52 775.863 1538.68 748.366C1547.85 719.996 1481.93 652.782 1499.39 629.213C1516.86 605.208 1601.11 647.108 1625.12 629.649C1648.69 612.191 1634.72 519.226 1663.1 510.06C1690.6 501.331 1733.81 584.694 1764.37 584.694C1794.93 584.694 1838.15 501.331 1865.65 510.06C1894.02 519.226 1880.05 612.628 1903.63 629.649C1927.64 647.108 2011.89 605.208 2029.35 629.213C2046.81 652.782 1980.89 719.996 1990.06 748.366C1999.23 775.863 2092.21 791.139 2092.21 821.691Z" stroke="#DFDFDF" stroke-width="2" stroke-miterlimit="10"/>
</mask>
<g mask="url(#mask2_206_89)">
<rect x="1043.01" y="-176.823" width="1461.38" height="1340.49" fill="url(#paint1_linear_206_89)" fill-opacity="0.32"/>
</g>
</g>
</g>
<defs>
<linearGradient id="paint0_linear_206_89" x1="2475.85" y1="2078.32" x2="2807.84" y2="2850.19" gradientUnits="userSpaceOnUse">
<stop stop-color="#051717" stop-opacity="0"/>
<stop offset="1" stop-color="#033535"/>
</linearGradient>
<linearGradient id="paint1_linear_206_89" x1="1140.59" y1="60.1262" x2="1507.52" y2="434.628" gradientUnits="userSpaceOnUse">
<stop stop-color="#0D2222"/>
<stop offset="1" stop-color="#259D55"/>
</linearGradient>
</defs>
</svg>
