<svg width="139" height="32" viewBox="0 0 139 32" fill="none" xmlns="http://www.w3.org/2000/svg">
<g clip-path="url(#clip0_195_21422)">
<mask id="mask0_195_21422" style="mask-type:luminance" maskUnits="userSpaceOnUse" x="0" y="0" width="138" height="32">
<path d="M137.682 0H0.521484V32H137.682V0Z" fill="white"/>
</mask>
<g mask="url(#mask0_195_21422)">
<path d="M43.2953 5.60913C44.9094 5.60913 46.0393 6.77937 46.0393 8.15137C46.0393 8.91809 45.7569 9.52337 45.1919 9.92689C46.0797 10.2901 46.685 11.0164 46.685 12.106C46.685 13.6394 45.434 14.8096 43.6988 14.8096H40.1074V5.60913H43.2953ZM43.2146 6.98113H41.6409V9.483H43.2146C44.0217 9.483 44.5462 8.95841 44.5462 8.23206C44.5462 7.54609 44.0217 6.98113 43.2146 6.98113ZM43.6585 10.7743H41.6409V13.4376H43.6585C44.627 13.4376 45.1919 12.8727 45.1919 12.106C45.1919 11.3393 44.5866 10.7743 43.6585 10.7743Z" fill="white"/>
<path d="M54.0712 11.9445H48.9059C48.9462 12.469 49.1076 12.8726 49.4708 13.1954C49.834 13.5183 50.3182 13.72 50.8428 13.72C51.5691 13.72 52.1745 13.4375 52.4973 12.7919H53.9901C53.7886 13.4375 53.4254 13.9621 52.8604 14.3657C52.2955 14.7692 51.6095 14.971 50.8025 14.971C48.9058 14.971 47.4531 13.5183 47.4531 11.5813C47.4531 9.64434 48.8251 8.19165 50.8025 8.19165C52.699 8.19165 54.0712 9.60397 54.0712 11.6216V11.9445ZM52.5376 10.9357C52.3358 9.9268 51.6095 9.40221 50.7621 9.40221C49.834 9.40221 49.1076 9.96717 48.9462 10.9357H52.5376Z" fill="white"/>
<path d="M55.8449 9.60403H54.4727V8.31272H55.8449V6.49683H57.2572V8.31272H58.75V9.60403H57.2572V12.5095C57.2572 13.3165 57.5799 13.599 58.3468 13.599C58.6289 13.599 58.9116 13.5586 59.1132 13.4779V14.7693C58.8311 14.8499 58.4679 14.9306 58.0641 14.9306C56.7324 14.9306 55.8449 14.1639 55.8449 12.7516V9.60403ZM60.5255 9.60403H59.4364V8.31272H60.5255V6.49683H61.9383V8.31272H63.7943V9.60403H61.9383V12.5095C61.9383 13.3165 62.2609 13.599 63.0273 13.599C63.31 13.599 63.5927 13.5586 63.7943 13.4779V14.7693C63.5116 14.8499 63.1484 14.9306 62.7452 14.9306C61.4135 14.9306 60.5255 14.1639 60.5255 12.7516V9.60403Z" fill="white"/>
<path d="M71.059 11.9445H65.8937C65.9342 12.469 66.0958 12.8726 66.459 13.1954C66.8222 13.5183 67.3065 13.72 67.8307 13.72C68.5571 13.72 69.1625 13.4375 69.4851 12.7919H70.9785C70.7769 13.4375 70.4137 13.9621 69.8483 14.3657C69.2835 14.7692 68.5977 14.971 67.7907 14.971C65.8937 14.971 64.4414 13.5183 64.4414 11.5813C64.4414 9.64434 65.8131 8.19165 67.7907 8.19165C69.6873 8.19165 71.059 9.60397 71.059 11.6216V11.9445ZM69.5257 10.9357C69.3241 9.9268 68.5977 9.40221 67.7502 9.40221C66.8222 9.40221 66.0958 9.96717 65.9342 10.9357H69.5257Z" fill="white"/>
<path d="M73.7619 8.31271V9.48295C74.004 8.75661 74.7304 8.27234 75.4973 8.27234C75.6989 8.27234 75.9005 8.27234 76.0621 8.31271V9.76541C75.82 9.68471 75.5779 9.64439 75.3357 9.64439C74.4483 9.64439 73.7619 10.3707 73.7619 11.6217V14.8096H72.3496V8.31271H73.7619Z" fill="white"/>
<path d="M78.4844 7.06182V5.60913H85.3846V7.06182H82.6812V14.85H81.1884V7.06182H78.4844Z" fill="white"/>
<path d="M88.1692 8.19165C90.0657 8.19165 91.559 9.68472 91.559 11.5813C91.559 13.4779 90.0657 14.971 88.1692 14.971C86.2726 14.971 84.7793 13.4779 84.7793 11.5813C84.7793 9.68472 86.2321 8.19165 88.1692 8.19165ZM88.1692 9.52328C86.999 9.52328 86.1921 10.4514 86.1921 11.5813C86.1921 12.7112 86.999 13.6393 88.1692 13.6393C89.2993 13.6393 90.1062 12.7112 90.1062 11.5813C90.1062 10.4514 89.2993 9.52328 88.1692 9.52328Z" fill="white"/>
<path d="M102.534 14.8499H101.121V11.1778C101.121 10.1286 100.718 9.48296 99.951 9.48296C99.023 9.48296 98.4177 10.29 98.4177 11.6216V14.8096H96.9649V11.1374C96.9649 10.0882 96.5617 9.44258 95.7947 9.44258C94.8667 9.44258 94.2209 10.2496 94.2209 11.5813V14.7692H92.8086V8.31272H94.2209V9.20045C94.5841 8.59517 95.2299 8.19165 96.0774 8.19165C97.0459 8.19165 97.7318 8.67586 98.095 9.48296C98.4582 8.67586 99.3057 8.19165 100.193 8.19165C101.646 8.19165 102.534 9.24082 102.534 10.9357V14.8499Z" fill="white"/>
<path d="M107.094 8.19165C108.991 8.19165 110.484 9.68472 110.484 11.5813C110.484 13.4779 108.991 14.971 107.094 14.971C105.198 14.971 103.705 13.4779 103.705 11.5813C103.705 9.68472 105.198 8.19165 107.094 8.19165ZM107.094 9.52328C105.924 9.52328 105.117 10.4514 105.117 11.5813C105.117 12.7112 105.924 13.6393 107.094 13.6393C108.225 13.6393 109.031 12.7112 109.031 11.5813C109.031 10.4514 108.265 9.52328 107.094 9.52328Z" fill="white"/>
<path d="M113.188 8.31271V9.48295C113.43 8.75661 114.156 8.27234 114.923 8.27234C115.125 8.27234 115.326 8.27234 115.488 8.31271V9.76541C115.246 9.68471 115.004 9.64439 114.762 9.64439C113.874 9.64439 113.188 10.3707 113.188 11.6217V14.8096H111.775V8.31271H113.188Z" fill="white"/>
<path d="M117.949 8.31271V9.48295C118.192 8.75661 118.918 8.27234 119.685 8.27234C119.886 8.27234 120.089 8.27234 120.25 8.31271V9.76541C120.008 9.68471 119.765 9.64439 119.523 9.64439C118.636 9.64439 117.949 10.3707 117.949 11.6217V14.8096H116.537V8.31271H117.949Z" fill="white"/>
<path d="M123.962 8.19165C125.858 8.19165 127.351 9.68472 127.351 11.5813C127.351 13.4779 125.858 14.971 123.962 14.971C122.065 14.971 120.572 13.4779 120.572 11.5813C120.572 9.68472 122.065 8.19165 123.962 8.19165ZM123.962 9.52328C122.791 9.52328 121.985 10.4514 121.985 11.5813C121.985 12.7112 122.791 13.6393 123.962 13.6393C125.092 13.6393 125.899 12.7112 125.899 11.5813C125.899 10.4514 125.092 9.52328 123.962 9.52328Z" fill="white"/>
<path d="M137.681 8.31274L135.462 14.85H134.13L132.677 10.6129L131.265 14.85H129.933L127.754 8.31274H129.247L130.66 12.7919L132.153 8.31274H133.242L134.735 12.7919L136.148 8.31274H137.681Z" fill="white"/>
<path d="M47.8563 17.0289L43.8613 26.2698H43.0542L39.0996 17.0289H40.1892L43.4577 24.6557L46.7667 17.0289H47.8563Z" fill="white"/>
<path d="M53.9495 23.2837H48.5825C48.5825 24.6154 49.672 25.5435 50.8826 25.5435C51.851 25.5435 52.4967 25.1399 52.9002 24.3329H53.8283C53.5055 25.5435 52.4563 26.3909 50.8826 26.3909C49.0263 26.3909 47.6543 24.9382 47.6543 23.0012C47.6543 21.1046 48.9456 19.6116 50.9229 19.6116C52.8195 19.6116 53.9495 21.1046 53.9495 22.8802C53.9495 23.082 53.9495 23.203 53.9495 23.2837ZM53.0213 22.4766C52.8195 21.1854 52.0124 20.459 50.8826 20.459C49.793 20.459 48.8649 21.1046 48.6632 22.4766H53.0213Z" fill="white"/>
<path d="M56.3694 19.773V20.8626C56.8137 20.0555 57.6206 19.652 58.5081 19.652C59.9209 19.652 60.9699 20.6205 60.9699 22.2346V26.3102H60.0419V22.3557C60.0419 21.2257 59.3961 20.4994 58.387 20.4994C57.2574 20.4994 56.3694 21.4679 56.3694 23.0416V26.2699H55.4414V19.773H56.3694Z" fill="white"/>
<path d="M63.3107 20.6203H61.8984V19.7729H63.3107V17.957H64.2387V19.7729H66.1358V20.6203H64.2387V24.3732C64.2387 25.1802 64.6019 25.4627 65.3283 25.4627C65.5704 25.4627 65.9336 25.4224 66.1358 25.3013V26.1084C65.8531 26.2294 65.5304 26.2698 65.1672 26.2698C64.0776 26.2698 63.3107 25.6241 63.3107 24.4136V20.6203Z" fill="white"/>
<path d="M71.745 25.1804C71.3013 25.9874 70.5349 26.3909 69.6874 26.3909C68.3152 26.3909 67.3066 25.3821 67.3066 23.8084V19.7731H68.2346V23.7276C68.2346 24.8172 68.8805 25.5839 69.8085 25.5839C70.8981 25.5839 71.745 24.575 71.745 23.0417V19.8134H72.6736V26.3102H71.745V25.1804Z" fill="white"/>
<path d="M75.6194 19.773V21.1046C75.8615 20.2168 76.6685 19.6923 77.5159 19.6923C77.6775 19.6923 77.8391 19.6923 78.0002 19.7326V20.7011C77.8391 20.6204 77.637 20.6204 77.4354 20.6204C76.5879 20.6204 75.6194 21.4275 75.6194 23.0012V26.2698H74.6914V19.773H75.6194Z" fill="white"/>
<path d="M84.6973 23.2837H79.3303C79.3303 24.6154 80.4199 25.5435 81.6306 25.5435C82.5991 25.5435 83.2445 25.1399 83.6482 24.3329H84.5762C84.2535 25.5435 83.2045 26.3909 81.6306 26.3909C79.7741 26.3909 78.4023 24.9382 78.4023 23.0012C78.4023 21.1046 79.6935 19.6116 81.6706 19.6116C83.5677 19.6116 84.6973 21.1046 84.6973 22.8802C84.6973 23.082 84.6973 23.203 84.6973 23.2837ZM83.7287 22.4766C83.5271 21.1854 82.7202 20.459 81.5901 20.459C80.5005 20.459 79.5725 21.1046 79.3709 22.4766H83.7287Z" fill="white"/>
<path d="M86.5139 24.454C86.675 25.261 87.3614 25.5839 88.1683 25.5839C88.9753 25.5839 89.5401 25.2207 89.5401 24.6154C89.5401 24.0505 89.1769 23.6873 88.3699 23.4451L87.5225 23.2434C86.4334 22.9609 85.8281 22.2749 85.8281 21.3468C85.8281 20.2976 86.7155 19.652 87.9667 19.652C89.2979 19.652 90.1454 20.4187 90.2265 21.4679H89.3385C89.1369 20.8626 88.6121 20.4591 87.9667 20.4591C87.2803 20.4591 86.7561 20.8222 86.7561 21.3468C86.7561 21.8714 87.0382 22.1942 87.8051 22.396L88.8142 22.6381C89.8633 22.8802 90.4281 23.6066 90.4281 24.5347C90.4281 25.7856 89.5001 26.391 88.1278 26.391C87.4419 26.391 86.8366 26.2295 86.3523 25.8664C85.8681 25.5436 85.6259 25.0593 85.5859 24.4136H86.5139V24.454Z" fill="white"/>
<path d="M27.8405 4.68096C27.2352 4.07566 26.5896 3.51072 25.8632 3.02648C23.2403 1.12989 20.012 0 16.5416 0C12.9906 0 9.72196 1.12989 7.09903 3.10719C6.45338 3.59142 5.80774 4.11602 5.2428 4.72131C2.33737 7.5864 0.521484 11.5813 0.521484 15.9798C0.521484 19.4502 1.61102 22.6381 3.46726 25.261C3.50761 25.3014 3.50761 25.3418 3.54796 25.3821C4.0322 26.0681 4.59715 26.7138 5.20244 27.319L10.4887 22.0328C9.8834 21.4275 9.35882 20.7415 8.9553 19.9748C8.9553 19.9345 8.91492 19.8941 8.91492 19.8941C8.30964 18.7238 7.98682 17.3922 7.98682 16.0202C7.98682 14.8499 8.22895 13.7201 8.67279 12.6709C9.11668 11.662 9.72196 10.7339 10.4887 9.9672C11.094 9.36192 11.7396 8.87771 12.5063 8.47413C12.7485 8.35307 12.9906 8.23205 13.2327 8.15131C14.2415 7.70747 15.3714 7.46533 16.5416 7.46533C17.954 7.46533 19.2856 7.82848 20.4963 8.43381C21.263 8.83733 21.9893 9.36192 22.5946 9.9672C23.3613 10.7339 24.007 11.662 24.4105 12.6709C24.8544 13.6797 25.0965 14.8096 25.0965 15.9798C25.0965 16.7062 25.0158 17.3922 24.8544 18.0782C24.693 18.7642 24.4509 19.3695 24.128 19.9748C23.7245 20.7415 23.1999 21.4275 22.635 22.0328L27.9212 27.319C28.5265 26.7138 29.0511 26.0681 29.5757 25.3821C31.4723 22.7591 32.6022 19.5309 32.6022 16.0202C32.5215 11.5813 30.746 7.5864 27.8405 4.68096Z" fill="white"/>
<path d="M27.8414 27.3191C28.4467 26.7138 29.0117 26.0681 29.4959 25.3822L24.0886 19.9749L16.5425 12.4288L3.54883 25.3822C4.03307 26.0681 4.59801 26.7138 5.20331 27.3191C5.60684 27.7227 6.05075 28.0858 6.49459 28.449C9.23864 30.6684 12.7494 32 16.5425 32C20.3357 32 23.8464 30.6684 26.5904 28.449C26.6712 28.3683 26.7519 28.2876 26.8326 28.2472C26.994 28.1262 27.1554 27.9647 27.3168 27.8033C27.5186 27.6419 27.68 27.4805 27.8414 27.3191ZM16.5425 24.5751C14.8073 24.5751 13.1932 24.0505 11.8212 23.1628L16.5425 18.4414L21.2638 23.1628C19.8918 24.0505 18.2777 24.5751 16.5425 24.5751Z" fill="#FF3333"/>
</g>
</g>
<defs>
<clipPath id="clip0_195_21422">
<rect width="137.6" height="32" fill="white" transform="translate(0.521484)"/>
</clipPath>
</defs>
</svg>
