<svg width="251" height="10" viewBox="0 0 251 10" fill="none" xmlns="http://www.w3.org/2000/svg">
<path d="M6 10L12 0H0L6 10Z" fill="#1E7777"/>
<path d="M18.5781 10L24.5781 0H12.5781L18.5781 10Z" fill="#1E7777"/>
<path d="M31.1582 10L37.1582 0H25.1582L31.1582 10Z" fill="#1E7777"/>
<path d="M43.7363 10L49.7363 0H37.7363L43.7363 10Z" fill="#1E7777"/>
<path d="M56.3164 10L62.3164 0H50.3164L56.3164 10Z" fill="#1E7777"/>
<path d="M68.8945 10L74.8945 0H62.8945L68.8945 10Z" fill="#1E7777"/>
<path d="M81.4746 10L87.4746 0H75.4746L81.4746 10Z" fill="#1E7777"/>
<path d="M94.0527 10L100.053 0H88.0527L94.0527 10Z" fill="#1E7777"/>
<path d="M106.631 10L112.631 0H100.631L106.631 10Z" fill="#1E7777"/>
<path d="M119.211 10L125.211 0H113.211L119.211 10Z" fill="#1E7777"/>
<path d="M131.789 10L137.789 0H125.789L131.789 10Z" fill="#1E7777"/>
<path d="M144.369 10L150.369 0H138.369L144.369 10Z" fill="#1E7777"/>
<path d="M156.947 10L162.947 0H150.947L156.947 10Z" fill="#1E7777"/>
<path d="M169.525 10L175.525 0H163.525L169.525 10Z" fill="#1E7777"/>
<path d="M182.105 10L188.105 0H176.105L182.105 10Z" fill="#1E7777"/>
<path d="M194.684 10L200.684 0H188.684L194.684 10Z" fill="#1E7777"/>
<path d="M207.264 10L213.264 0H201.264L207.264 10Z" fill="#1E7777"/>
<path d="M219.842 10L225.842 0H213.842L219.842 10Z" fill="#1E7777"/>
<path d="M232.422 10L238.422 0H226.422L232.422 10Z" fill="#1E7777"/>
<path d="M245 10L251 0H239L245 10Z" fill="#1E7777"/>
</svg>
