<svg width="251" height="10" viewBox="0 0 251 10" fill="none" xmlns="http://www.w3.org/2000/svg">
<path d="M6 0L12 10H0L6 0Z" fill="#1E5151"/>
<path d="M18.5781 0L24.5781 10H12.5781L18.5781 0Z" fill="#1E5151"/>
<path d="M31.1582 0L37.1582 10H25.1582L31.1582 0Z" fill="#1E5151"/>
<path d="M43.7363 0L49.7363 10H37.7363L43.7363 0Z" fill="#1E5151"/>
<path d="M56.3164 0L62.3164 10H50.3164L56.3164 0Z" fill="#1E5151"/>
<path d="M68.8945 0L74.8945 10H62.8945L68.8945 0Z" fill="#1E5151"/>
<path d="M81.4746 0L87.4746 10H75.4746L81.4746 0Z" fill="#1E5151"/>
<path d="M94.0527 0L100.053 10H88.0527L94.0527 0Z" fill="#1E5151"/>
<path d="M106.631 0L112.631 10H100.631L106.631 0Z" fill="#1E5151"/>
<path d="M119.211 0L125.211 10H113.211L119.211 0Z" fill="#1E5151"/>
<path d="M131.789 0L137.789 10H125.789L131.789 0Z" fill="#1E5151"/>
<path d="M144.369 0L150.369 10H138.369L144.369 0Z" fill="#1E5151"/>
<path d="M156.947 0L162.947 10H150.947L156.947 0Z" fill="#1E5151"/>
<path d="M169.525 0L175.525 10H163.525L169.525 0Z" fill="#1E5151"/>
<path d="M182.105 0L188.105 10H176.105L182.105 0Z" fill="#1E5151"/>
<path d="M194.684 0L200.684 10H188.684L194.684 0Z" fill="#1E5151"/>
<path d="M207.264 0L213.264 10H201.264L207.264 0Z" fill="#1E5151"/>
<path d="M219.842 0L225.842 10H213.842L219.842 0Z" fill="#1E5151"/>
<path d="M232.422 0L238.422 10H226.422L232.422 0Z" fill="#1E5151"/>
<path d="M245 0L251 10H239L245 0Z" fill="#1E5151"/>
</svg>
