<svg width="98" height="72" viewBox="0 0 98 72" fill="none" xmlns="http://www.w3.org/2000/svg">
<path d="M9.898 26.001H4.13V26.4728H6V36.0788C6 38.9922 5.221 39.7792 3.429 39.7792C2.338 39.7792 2.104 38.9134 2.104 38.5194C2.104 37.4961 2.026 36.788 1.09 36.788C0.155 36.788 0 37.7325 0 38.0477C0 39.3862 0.623 40.4095 3.195 40.4095C6.313 40.4095 7.949 39.3862 7.949 35.8434V26.4718H9.82V26.001H9.898ZM10.678 38.2043C10.366 38.2043 10.054 38.2851 9.898 38.5194C9.664 38.7558 9.586 38.9922 9.586 39.3074C9.586 39.6206 9.664 39.858 9.898 40.0954C10.132 40.3307 10.366 40.4085 10.678 40.4085C10.989 40.4085 11.223 40.3297 11.457 40.0954C11.691 39.859 11.769 39.6206 11.769 39.3074C11.769 38.9922 11.691 38.7558 11.457 38.5194C11.223 38.2831 10.989 38.2043 10.677 38.2043H10.678ZM23.46 38.2043C23.148 38.2043 22.914 38.2851 22.68 38.5194C22.447 38.7558 22.369 38.9922 22.369 39.3074C22.369 39.6206 22.447 39.858 22.68 40.0954C22.914 40.3307 23.148 40.4085 23.46 40.4085C23.772 40.4085 24.083 40.3297 24.24 40.0954C24.473 39.858 24.551 39.6206 24.551 39.3074C24.551 38.9922 24.473 38.7558 24.239 38.5194C24.005 38.2831 23.772 38.2043 23.459 38.2043H23.46ZM19.406 26.001H13.794V26.4728H15.431V37.4971C15.431 38.3629 15.353 38.5982 15.275 38.8346C15.197 39.1508 14.963 39.3084 14.573 39.466C14.34 39.5448 13.95 39.6226 13.404 39.6226V40.0954H19.484V39.6226C18.938 39.6226 18.549 39.5448 18.314 39.466C17.925 39.3084 17.691 39.072 17.614 38.8356C17.5099 38.5591 17.4567 38.2657 17.457 37.9699V34.1887H18.938C23.303 34.1887 24.55 32.4572 24.55 30.0944C24.55 27.6537 23.849 26.001 19.406 26.001ZM18.626 33.6381H17.457V26.5516H18.471C21.822 26.5516 22.601 27.9689 22.601 30.1731C22.601 32.4562 21.277 33.6381 18.626 33.6381ZM42.555 38.7558C42.4522 38.4517 42.3995 38.1326 42.399 37.8113V26.4728H43.879V26.001H40.296C40.218 26.1586 36.01 36.7092 36.01 36.7092L35.932 36.789C35.854 36.789 35.854 36.789 35.854 36.7102C35.854 36.7102 31.334 26.0798 31.334 26.001H27.356V26.4738H29.071V38.4417C29.071 38.6791 28.993 38.9154 28.837 39.1508C28.681 39.3872 28.447 39.5448 28.213 39.6226C28.057 39.7034 27.746 39.7034 27.433 39.7034V40.1742H31.331V39.7014C31.019 39.7014 30.863 39.6226 30.63 39.6226C30.318 39.5438 30.162 39.3862 30.006 39.1498C29.85 38.9922 29.772 38.7558 29.772 38.4417L29.694 37.4173V27.9679H29.928C29.928 27.9679 34.994 39.9357 35.072 40.0933H35.462L40.294 28.0477H40.45V37.8113C40.45 38.2053 40.372 38.5194 40.294 38.8346C40.216 39.1498 39.983 39.3074 39.671 39.465C39.3445 39.5744 39.002 39.6273 38.658 39.6216V40.0944H44.114V39.6216C43.7697 39.6274 43.4269 39.5745 43.1 39.465C42.867 39.3074 42.633 39.071 42.555 38.7558ZM49.959 29.7802C46.997 29.7802 45.205 31.7481 45.205 35.1343C45.205 40.1731 49.102 40.4883 49.881 40.4883C51.518 40.4883 54.636 39.465 54.636 35.0565C54.636 31.5915 52.609 29.7802 49.959 29.7802ZM49.881 39.858C47.699 39.858 47.309 38.7568 47.309 35.2131C47.309 32.4572 47.465 30.4095 49.881 30.4095C52.453 30.4095 52.453 32.535 52.453 35.0544C52.453 38.5982 51.83 39.858 49.881 39.858ZM62.275 29.9378C60.559 29.9378 59.937 30.9611 59.468 32.0632H59.312C59.312 32.0632 59.079 30.4883 59.001 30.0944H55.571V30.6459H57.441V37.5749C57.441 38.2831 57.364 38.7568 57.209 39.07C57.052 39.3862 56.584 39.6216 55.883 39.6216H55.571V40.2519H61.339V39.6216H61.027C60.247 39.6216 59.937 39.465 59.779 39.1498C59.624 38.8346 59.546 38.3619 59.546 37.6537V33.8745C59.546 32.6926 60.481 31.2763 61.573 31.2763C62.742 31.2763 62.663 33.0078 63.989 32.2996C64.613 31.9056 64.457 29.9378 62.275 29.9378ZM84.955 39.07C84.331 39.07 84.176 38.7568 84.098 38.1265V32.6148C84.098 31.6693 83.941 31.1187 83.397 30.5661C82.851 30.0156 81.837 29.7782 80.357 29.7782C78.954 29.7782 77.941 30.0156 77.239 30.5661C76.616 31.0399 76.305 31.5117 76.305 32.2208C76.305 32.534 76.383 32.7714 76.538 32.8502C76.694 33.0078 76.928 33.0866 77.161 33.0866C77.706 33.0866 78.019 32.7734 78.174 32.0632C78.254 31.5117 78.408 31.1975 78.643 30.8813C78.953 30.5681 79.423 30.4095 79.967 30.4095C80.669 30.4095 81.214 30.5661 81.448 30.9601C81.682 31.3541 81.838 31.8269 81.838 32.4552V34.1099C80.044 34.2675 75.68 34.6605 75.914 37.9679C75.992 39.2276 77.084 40.4085 78.564 40.4085C80.201 40.4085 81.213 39.465 81.914 38.7548C81.993 39.464 82.694 40.3307 83.864 40.3307C85.188 40.3307 85.968 39.7004 86.047 38.0467H85.735C85.735 38.677 85.345 39.071 84.955 39.071V39.07ZM81.994 37.9689V38.0477L81.916 38.1265C80.981 38.9932 80.202 39.3084 79.656 39.3084C78.253 39.3084 78.019 38.1265 78.019 37.5759C78.019 35.6868 80.591 34.7413 81.994 34.7413V37.9689ZM96.647 38.9922C96.491 38.678 96.257 38.2043 96.257 37.4971V32.929C96.257 32.2996 96.179 31.6693 95.945 31.2763C95.711 30.8035 95.322 30.4883 94.932 30.2519C94.464 30.0156 93.997 29.9378 93.452 29.9378C91.425 29.9378 90.645 31.1975 90.178 31.9056H90.022L89.632 30.0944H86.514V30.6459H88.074V37.5749C88.074 38.1265 87.995 38.5194 87.917 38.7568C87.838 39.07 87.607 39.3074 87.372 39.3862C87.216 39.465 86.904 39.5438 86.514 39.5438V40.1731H91.424V39.5438C90.956 39.465 90.566 39.3862 90.411 39.1498C90.255 38.9134 90.1 38.4406 90.1 37.7325V35.0555C90.1 33.9543 90.1 32.8502 90.49 32.2208C90.879 31.5117 91.658 31.1187 92.438 31.1187C93.218 31.1187 93.607 31.3551 93.842 31.8269C94.075 32.2208 94.152 33.4018 94.152 34.1887V37.4961C94.152 38.0467 94.232 38.4407 94.152 38.678C94.075 38.9912 93.997 39.2286 93.762 39.3852C93.607 39.5438 93.294 39.5438 92.983 39.6216V40.2519H97.739V39.6216C97.192 39.3862 96.803 39.2276 96.647 38.9922ZM74.356 29.3074C74.044 29.3862 73.888 29.7014 73.732 30.0954C73.654 30.4893 73.498 30.7247 73.264 30.8025C73.03 30.8823 72.797 30.8823 72.563 30.7247C72.018 30.2519 71.082 29.7014 69.367 29.7014C66.561 29.7014 65.392 31.6693 65.392 33.4795C65.392 35.606 66.172 36.6304 67.963 37.0233C68.042 37.0233 68.042 37.1809 67.963 37.1809C66.483 37.4961 65.08 37.9689 65.08 39.3862C65.08 40.253 65.548 40.7247 66.25 41.0399C66.95 41.3541 67.963 41.5127 69.211 41.5127C70.301 41.5127 71.081 41.5915 71.549 41.5915C72.0188 41.6527 72.4704 41.8138 72.874 42.0642C73.186 42.3006 73.342 42.6946 73.342 43.1654C73.342 43.8745 72.952 44.3473 72.251 44.8201C71.551 45.2141 70.691 45.3717 69.523 45.3717C68.588 45.3717 67.731 45.2918 67.029 44.8201C66.484 44.5049 66.405 43.8755 66.484 43.4028C66.563 42.93 66.405 42.4582 65.86 42.3006C65.6942 42.2637 65.521 42.2821 65.3664 42.3532C65.2119 42.4242 65.0843 42.5441 65.003 42.6946C64.846 42.929 64.768 43.2442 64.768 43.6381C64.768 44.8191 65.704 45.3696 66.405 45.606C67.496 45.9202 68.199 46 69.133 46C70.459 46 71.471 45.7636 72.251 45.4484C73.031 45.0544 73.499 44.5827 73.81 44.0311C74.121 43.4806 74.278 42.929 74.278 42.3774C74.278 41.6693 74.121 41.0389 73.81 40.6459C72.797 39.3074 71.393 39.464 68.276 39.3074C66.795 39.3074 66.483 38.9922 66.483 38.5194C66.483 37.8113 67.029 37.5749 69.211 37.1809C71.393 36.8657 73.419 36 73.419 33.4018C73.419 32.6138 73.264 31.9844 73.029 31.5127C73.498 31.5905 73.888 31.5905 74.277 31.5127C74.746 31.3551 74.978 31.1187 75.135 30.8823C75.291 30.5671 75.368 30.2519 75.213 30.0156C75.291 29.3862 74.901 29.1498 74.356 29.3074ZM69.446 36.7092C68.122 36.7092 67.419 36.2354 67.419 33.5593C67.419 31.6703 68.043 30.2519 69.446 30.2519C71.083 30.2519 71.55 31.5117 71.55 33.4806C71.55 36.3152 70.693 36.7092 69.446 36.7092Z" fill="white"/>
</svg>
