<svg width="510" height="424" viewBox="0 0 510 424" fill="none" xmlns="http://www.w3.org/2000/svg">
<path d="M52 32C52 16.9151 52 9.37258 56.6863 4.68629C61.3726 0 68.9151 0 84 0H426C441.085 0 448.627 0 453.314 4.68629C458 9.37258 458 16.9151 458 32V60H52V32Z" fill="#E9EDDE"/>
<circle cx="84" cy="28" r="12" fill="white"/>
<rect x="108" y="24" width="60" height="8" fill="white"/>
<rect x="406" y="24" width="32" height="8" fill="white"/>
<g filter="url(#filter0_d_195_7731)">
<path d="M42 80C42 64.9151 42 57.3726 46.6863 52.6863C51.3726 48 58.9151 48 74 48H436C451.085 48 458.627 48 463.314 52.6863C468 57.3726 468 64.9151 468 80V108H42V80Z" fill="white"/>
<mask id="mask0_195_7731" style="mask-type:alpha" maskUnits="userSpaceOnUse" x="62" y="64" width="24" height="24">
<circle cx="74" cy="76" r="12" fill="#D9D9D9"/>
</mask>
<g mask="url(#mask0_195_7731)">
<g clip-path="url(#clip0_195_7731)">
<path d="M58 64H90V88H58V64Z" fill="#003399"/>
<path d="M74.0001 74.9298L73.6445 76.115L74.2371 76.2335L74.0001 74.9298Z" fill="#FFCC00"/>
<path d="M73.9999 74.9298L74.3555 76.115L73.7629 76.2335L73.9999 74.9298Z" fill="#FFCC00"/>
<path d="M75.1275 75.7488L73.8904 75.7769L73.9608 76.3771L75.1275 75.7488Z" fill="#FFCC00"/>
<path d="M75.1284 75.7488L74.1111 76.4532L73.8153 75.9262L75.1284 75.7488Z" fill="#FFCC00"/>
<path d="M74.6967 77.0739L74.2877 75.906L73.7387 76.1585L74.6967 77.0739Z" fill="#FFCC00"/>
<path d="M74.6959 77.0738L73.7116 76.324L74.1213 75.8798L74.6959 77.0738Z" fill="#FFCC00"/>
<path d="M72.8725 75.7488L74.1096 75.7769L74.0392 76.3771L72.8725 75.7488Z" fill="#FFCC00"/>
<path d="M72.8716 75.7488L73.8889 76.4532L74.1847 75.9262L72.8716 75.7488Z" fill="#FFCC00"/>
<path d="M73.3033 77.0739L73.7123 75.906L74.2613 76.1585L73.3033 77.0739Z" fill="#FFCC00"/>
<path d="M73.3041 77.0738L74.2884 76.324L73.8787 75.8798L73.3041 77.0738Z" fill="#FFCC00"/>
<path d="M74.0001 74.9298L73.6445 76.115L74.2371 76.2335L74.0001 74.9298Z" fill="#FFCC00"/>
<path d="M73.9999 74.9298L74.3555 76.115L73.7629 76.2335L73.9999 74.9298Z" fill="#FFCC00"/>
<path d="M75.1275 75.7488L73.8904 75.7769L73.9608 76.3771L75.1275 75.7488Z" fill="#FFCC00"/>
<path d="M75.1284 75.7488L74.1111 76.4532L73.8153 75.9262L75.1284 75.7488Z" fill="#FFCC00"/>
<path d="M74.6967 77.0739L74.2877 75.906L73.7387 76.1585L74.6967 77.0739Z" fill="#FFCC00"/>
<path d="M74.6959 77.0738L73.7116 76.324L74.1213 75.8798L74.6959 77.0738Z" fill="#FFCC00"/>
<path d="M72.8725 75.7488L74.1096 75.7769L74.0392 76.3771L72.8725 75.7488Z" fill="#FFCC00"/>
<path d="M72.8716 75.7488L73.8889 76.4532L74.1847 75.9262L72.8716 75.7488Z" fill="#FFCC00"/>
<path d="M73.3033 77.0739L73.7123 75.906L74.2613 76.1585L73.3033 77.0739Z" fill="#FFCC00"/>
<path d="M73.3041 77.0738L74.2884 76.324L73.8787 75.8798L73.3041 77.0738Z" fill="#FFCC00"/>
<path d="M74.0001 74.9298L73.6445 76.115L74.2371 76.2335L74.0001 74.9298Z" fill="#FFCC00"/>
<path d="M73.9999 74.9298L74.3555 76.115L73.7629 76.2335L73.9999 74.9298Z" fill="#FFCC00"/>
<path d="M75.1275 75.7488L73.8904 75.7769L73.9608 76.3771L75.1275 75.7488Z" fill="#FFCC00"/>
<path d="M75.1284 75.7488L74.1111 76.4532L73.8153 75.9262L75.1284 75.7488Z" fill="#FFCC00"/>
<path d="M74.6967 77.0739L74.2877 75.906L73.7387 76.1585L74.6967 77.0739Z" fill="#FFCC00"/>
<path d="M74.6959 77.0738L73.7116 76.324L74.1213 75.8798L74.6959 77.0738Z" fill="#FFCC00"/>
<path d="M72.8725 75.7488L74.1096 75.7769L74.0392 76.3771L72.8725 75.7488Z" fill="#FFCC00"/>
<path d="M72.8716 75.7488L73.8889 76.4532L74.1847 75.9262L72.8716 75.7488Z" fill="#FFCC00"/>
<path d="M73.3033 77.0739L73.7123 75.906L74.2613 76.1585L73.3033 77.0739Z" fill="#FFCC00"/>
<path d="M73.3041 77.0738L74.2884 76.324L73.8787 75.8798L73.3041 77.0738Z" fill="#FFCC00"/>
<path d="M69.8354 70.9691L70.8197 70.2193L70.4099 69.7751L69.8354 70.9691Z" fill="#FFCC00"/>
<path d="M69.8345 70.9691L70.2435 69.8013L70.7926 70.0537L69.8345 70.9691Z" fill="#FFCC00"/>
<path d="M69.4048 69.6441L70.4221 70.3485L70.7179 69.8216L69.4048 69.6441Z" fill="#FFCC00"/>
<path d="M69.4058 69.6442L70.6428 69.6723L70.5724 70.2725L69.4058 69.6442Z" fill="#FFCC00"/>
<path d="M70.5313 68.8252L70.1758 70.0104L70.7684 70.1289L70.5313 68.8252Z" fill="#FFCC00"/>
<path d="M70.5312 68.8252L70.8867 70.0104L70.2941 70.1289L70.5312 68.8252Z" fill="#FFCC00"/>
<path d="M71.2271 70.9691L70.2428 70.2193L70.6526 69.7751L71.2271 70.9691Z" fill="#FFCC00"/>
<path d="M71.228 70.9691L70.819 69.8013L70.2699 70.0537L71.228 70.9691Z" fill="#FFCC00"/>
<path d="M71.6577 69.644L70.6404 70.3484L70.3446 69.8215L71.6577 69.644Z" fill="#FFCC00"/>
<path d="M71.6567 69.6441L70.4197 69.6722L70.4901 70.2724L71.6567 69.6441Z" fill="#FFCC00"/>
<path d="M68.5932 73.6056L68.1842 72.4378L67.6351 72.6902L68.5932 73.6056Z" fill="#FFCC00"/>
<path d="M68.5923 73.6056L67.6081 72.8557L68.0178 72.4115L68.5923 73.6056Z" fill="#FFCC00"/>
<path d="M67.2006 73.6056L68.1849 72.8557L67.7752 72.4115L67.2006 73.6056Z" fill="#FFCC00"/>
<path d="M67.1998 73.6056L67.6087 72.4378L68.1578 72.6902L67.1998 73.6056Z" fill="#FFCC00"/>
<path d="M66.77 72.2805L67.7873 72.9849L68.0832 72.4579L66.77 72.2805Z" fill="#FFCC00"/>
<path d="M66.771 72.2805L68.008 72.3086L67.9376 72.9088L66.771 72.2805Z" fill="#FFCC00"/>
<path d="M69.0229 72.2805L68.0056 72.9849L67.7098 72.4579L69.0229 72.2805Z" fill="#FFCC00"/>
<path d="M69.022 72.2805L67.7849 72.3086L67.8553 72.9088L69.022 72.2805Z" fill="#FFCC00"/>
<path d="M67.8964 71.4615L68.252 72.6467L67.6594 72.7653L67.8964 71.4615Z" fill="#FFCC00"/>
<path d="M67.8966 71.4615L67.541 72.6467L68.1336 72.7653L67.8966 71.4615Z" fill="#FFCC00"/>
<path d="M69.0239 79.4086L67.7869 79.4367L67.8573 80.0369L69.0239 79.4086Z" fill="#FFCC00"/>
<path d="M69.0249 79.4086L68.0076 80.1129L67.7117 79.586L69.0249 79.4086Z" fill="#FFCC00"/>
<path d="M68.5932 80.7336L68.1842 79.5658L67.6351 79.8183L68.5932 80.7336Z" fill="#FFCC00"/>
<path d="M68.5923 80.7336L67.6081 79.9838L68.0178 79.5396L68.5923 80.7336Z" fill="#FFCC00"/>
<path d="M67.2006 80.7336L68.1849 79.9838L67.7752 79.5396L67.2006 80.7336Z" fill="#FFCC00"/>
<path d="M67.1998 80.7336L67.6087 79.5658L68.1578 79.8183L67.1998 80.7336Z" fill="#FFCC00"/>
<path d="M67.8984 78.5896L68.2539 79.7748L67.6613 79.8933L67.8984 78.5896Z" fill="#FFCC00"/>
<path d="M67.8985 78.5896L67.543 79.7748L68.1356 79.8933L67.8985 78.5896Z" fill="#FFCC00"/>
<path d="M66.771 79.4086L68.008 79.4367L67.9376 80.0369L66.771 79.4086Z" fill="#FFCC00"/>
<path d="M66.77 79.4086L67.7873 80.1129L68.0832 79.586L66.77 79.4086Z" fill="#FFCC00"/>
<path d="M71.5962 81.7941L70.3592 81.8222L70.4296 82.4224L71.5962 81.7941Z" fill="#FFCC00"/>
<path d="M71.5972 81.794L70.5799 82.4984L70.284 81.9715L71.5972 81.794Z" fill="#FFCC00"/>
<path d="M71.1655 83.1191L70.7565 81.9513L70.2074 82.2038L71.1655 83.1191Z" fill="#FFCC00"/>
<path d="M71.1646 83.1191L70.1803 82.3693L70.5901 81.9251L71.1646 83.1191Z" fill="#FFCC00"/>
<path d="M69.7729 83.1191L70.7572 82.3693L70.3474 81.9251L69.7729 83.1191Z" fill="#FFCC00"/>
<path d="M69.772 83.1191L70.181 81.9513L70.7301 82.2038L69.772 83.1191Z" fill="#FFCC00"/>
<path d="M70.4706 80.9751L70.8262 82.1603L70.2336 82.2788L70.4706 80.9751Z" fill="#FFCC00"/>
<path d="M70.4708 80.9751L70.1152 82.1603L70.7078 82.2788L70.4708 80.9751Z" fill="#FFCC00"/>
<path d="M69.3433 81.7941L70.5803 81.8222L70.5099 82.4224L69.3433 81.7941Z" fill="#FFCC00"/>
<path d="M69.3423 81.794L70.3596 82.4984L70.6554 81.9715L69.3423 81.794Z" fill="#FFCC00"/>
<path d="M74.0019 74.9298L74.3574 76.115L73.7648 76.2335L74.0019 74.9298Z" fill="#FFCC00"/>
<path d="M74.002 74.9298L73.6465 76.115L74.2391 76.2335L74.002 74.9298Z" fill="#FFCC00"/>
<path d="M72.8745 75.7488L74.1116 75.7769L74.0411 76.3771L72.8745 75.7488Z" fill="#FFCC00"/>
<path d="M72.8735 75.7488L73.8908 76.4532L74.1867 75.9262L72.8735 75.7488Z" fill="#FFCC00"/>
<path d="M73.3052 77.0739L73.7142 75.906L74.2633 76.1585L73.3052 77.0739Z" fill="#FFCC00"/>
<path d="M73.3061 77.0738L74.2904 76.324L73.8806 75.8798L73.3061 77.0738Z" fill="#FFCC00"/>
<path d="M75.1294 75.7488L73.8924 75.7769L73.9628 76.3771L75.1294 75.7488Z" fill="#FFCC00"/>
<path d="M75.1304 75.7488L74.1131 76.4532L73.8172 75.9262L75.1304 75.7488Z" fill="#FFCC00"/>
<path d="M74.6987 77.0739L74.2897 75.906L73.7406 76.1585L74.6987 77.0739Z" fill="#FFCC00"/>
<path d="M74.6978 77.0738L73.7135 76.324L74.1233 75.8798L74.6978 77.0738Z" fill="#FFCC00"/>
<path d="M78.1666 70.9691L77.1823 70.2193L77.592 69.7751L78.1666 70.9691Z" fill="#FFCC00"/>
<path d="M78.1674 70.9691L77.7584 69.8013L77.2094 70.0537L78.1674 70.9691Z" fill="#FFCC00"/>
<path d="M78.5972 69.6441L77.5799 70.3485L77.284 69.8216L78.5972 69.6441Z" fill="#FFCC00"/>
<path d="M78.5962 69.6442L77.3592 69.6723L77.4296 70.2725L78.5962 69.6442Z" fill="#FFCC00"/>
<path d="M77.4706 68.8252L77.8262 70.0104L77.2336 70.1289L77.4706 68.8252Z" fill="#FFCC00"/>
<path d="M77.4708 68.8252L77.1152 70.0104L77.7078 70.1289L77.4708 68.8252Z" fill="#FFCC00"/>
<path d="M76.7748 70.9692L77.7591 70.2194L77.3494 69.7752L76.7748 70.9692Z" fill="#FFCC00"/>
<path d="M76.774 70.9692L77.183 69.8014L77.732 70.0539L76.774 70.9692Z" fill="#FFCC00"/>
<path d="M76.3442 69.6441L77.3616 70.3485L77.6574 69.8216L76.3442 69.6441Z" fill="#FFCC00"/>
<path d="M76.3452 69.6442L77.5823 69.6723L77.5119 70.2725L76.3452 69.6442Z" fill="#FFCC00"/>
<path d="M79.4087 73.6056L79.8177 72.4378L80.3668 72.6902L79.4087 73.6056Z" fill="#FFCC00"/>
<path d="M79.4096 73.6056L80.3939 72.8557L79.9841 72.4115L79.4096 73.6056Z" fill="#FFCC00"/>
<path d="M80.8013 73.6056L79.817 72.8557L80.2268 72.4115L80.8013 73.6056Z" fill="#FFCC00"/>
<path d="M80.8022 73.6056L80.3932 72.4378L79.8441 72.6902L80.8022 73.6056Z" fill="#FFCC00"/>
<path d="M81.2319 72.2805L80.2146 72.9849L79.9188 72.4579L81.2319 72.2805Z" fill="#FFCC00"/>
<path d="M81.231 72.2805L79.9939 72.3086L80.0643 72.9088L81.231 72.2805Z" fill="#FFCC00"/>
<path d="M78.979 72.2805L79.9963 72.9849L80.2922 72.4579L78.979 72.2805Z" fill="#FFCC00"/>
<path d="M78.98 72.2805L80.217 72.3086L80.1466 72.9088L78.98 72.2805Z" fill="#FFCC00"/>
<path d="M80.1056 71.4615L79.75 72.6467L80.3426 72.7653L80.1056 71.4615Z" fill="#FFCC00"/>
<path d="M80.1054 71.4615L80.4609 72.6467L79.8683 72.7653L80.1054 71.4615Z" fill="#FFCC00"/>
<path d="M78.978 79.4086L80.2151 79.4367L80.1447 80.0369L78.978 79.4086Z" fill="#FFCC00"/>
<path d="M78.9771 79.4086L79.9944 80.1129L80.2902 79.586L78.9771 79.4086Z" fill="#FFCC00"/>
<path d="M79.4087 80.7336L79.8177 79.5658L80.3668 79.8183L79.4087 80.7336Z" fill="#FFCC00"/>
<path d="M79.4096 80.7336L80.3939 79.9838L79.9841 79.5396L79.4096 80.7336Z" fill="#FFCC00"/>
<path d="M80.8013 80.7336L79.817 79.9838L80.2268 79.5396L80.8013 80.7336Z" fill="#FFCC00"/>
<path d="M80.8022 80.7336L80.3932 79.5658L79.8441 79.8183L80.8022 80.7336Z" fill="#FFCC00"/>
<path d="M80.1036 78.5896L79.748 79.7748L80.3406 79.8933L80.1036 78.5896Z" fill="#FFCC00"/>
<path d="M80.1034 78.5896L80.459 79.7748L79.8664 79.8933L80.1034 78.5896Z" fill="#FFCC00"/>
<path d="M81.231 79.4086L79.9939 79.4367L80.0643 80.0369L81.231 79.4086Z" fill="#FFCC00"/>
<path d="M81.2319 79.4086L80.2146 80.1129L79.9188 79.586L81.2319 79.4086Z" fill="#FFCC00"/>
<path d="M76.4058 81.7941L77.6428 81.8222L77.5724 82.4224L76.4058 81.7941Z" fill="#FFCC00"/>
<path d="M76.4048 81.794L77.4221 82.4984L77.7179 81.9715L76.4048 81.794Z" fill="#FFCC00"/>
<path d="M76.8365 83.1191L77.2455 81.9513L77.7945 82.2038L76.8365 83.1191Z" fill="#FFCC00"/>
<path d="M76.8373 83.1191L77.8216 82.3693L77.4119 81.9251L76.8373 83.1191Z" fill="#FFCC00"/>
<path d="M78.2291 83.1191L77.2448 82.3693L77.6545 81.9251L78.2291 83.1191Z" fill="#FFCC00"/>
<path d="M78.2299 83.1191L77.8209 81.9513L77.2719 82.2038L78.2299 83.1191Z" fill="#FFCC00"/>
<path d="M77.5313 80.9751L77.1758 82.1603L77.7684 82.2788L77.5313 80.9751Z" fill="#FFCC00"/>
<path d="M77.5312 80.9751L77.8867 82.1603L77.2941 82.2788L77.5312 80.9751Z" fill="#FFCC00"/>
<path d="M78.6587 81.7941L77.4217 81.8222L77.4921 82.4224L78.6587 81.7941Z" fill="#FFCC00"/>
<path d="M78.6597 81.794L77.6424 82.4984L77.3465 81.9715L78.6597 81.794Z" fill="#FFCC00"/>
</g>
</g>
<path d="M99.2922 81V71.2H105.592V72.88H101.14V75.218H105.2V76.898H101.14V79.32H105.676V81H99.2922ZM109.746 81.112C109.205 81.112 108.729 80.9907 108.318 80.748C107.917 80.496 107.604 80.1507 107.38 79.712C107.156 79.2733 107.044 78.7693 107.044 78.2V74.056H108.808V78.06C108.808 78.5827 108.934 78.9747 109.186 79.236C109.447 79.4973 109.816 79.628 110.292 79.628C110.833 79.628 111.253 79.4507 111.552 79.096C111.851 78.732 112 78.228 112 77.584V74.056H113.764V81H112.028V80.09H111.776C111.664 80.3233 111.454 80.552 111.146 80.776C110.838 81 110.371 81.112 109.746 81.112ZM115.727 81V74.056H117.463V74.84H117.715C117.818 74.56 117.986 74.3547 118.219 74.224C118.462 74.0933 118.742 74.028 119.059 74.028H119.899V75.596H119.031C118.583 75.596 118.214 75.7173 117.925 75.96C117.636 76.1933 117.491 76.5573 117.491 77.052V81H115.727ZM124.336 81.196C123.645 81.196 123.024 81.056 122.474 80.776C121.923 80.496 121.489 80.09 121.172 79.558C120.854 79.026 120.696 78.3867 120.696 77.64V77.416C120.696 76.6693 120.854 76.03 121.172 75.498C121.489 74.966 121.923 74.56 122.474 74.28C123.024 74 123.645 73.86 124.336 73.86C125.026 73.86 125.647 74 126.198 74.28C126.748 74.56 127.182 74.966 127.5 75.498C127.817 76.03 127.976 76.6693 127.976 77.416V77.64C127.976 78.3867 127.817 79.026 127.5 79.558C127.182 80.09 126.748 80.496 126.198 80.776C125.647 81.056 125.026 81.196 124.336 81.196ZM124.336 79.628C124.877 79.628 125.325 79.4553 125.68 79.11C126.034 78.7553 126.212 78.2513 126.212 77.598V77.458C126.212 76.8047 126.034 76.3053 125.68 75.96C125.334 75.6053 124.886 75.428 124.336 75.428C123.794 75.428 123.346 75.6053 122.992 75.96C122.637 76.3053 122.46 76.8047 122.46 77.458V77.598C122.46 78.2513 122.637 78.7553 122.992 79.11C123.346 79.4553 123.794 79.628 124.336 79.628ZM129.604 83.8V74.056H131.34V74.896H131.592C131.751 74.6253 131.998 74.3873 132.334 74.182C132.67 73.9673 133.151 73.86 133.776 73.86C134.336 73.86 134.854 74 135.33 74.28C135.806 74.5507 136.189 74.952 136.478 75.484C136.767 76.016 136.912 76.66 136.912 77.416V77.64C136.912 78.396 136.767 79.04 136.478 79.572C136.189 80.104 135.806 80.51 135.33 80.79C134.854 81.0607 134.336 81.196 133.776 81.196C133.356 81.196 133.001 81.1447 132.712 81.042C132.432 80.9487 132.203 80.8273 132.026 80.678C131.858 80.5193 131.723 80.3607 131.62 80.202H131.368V83.8H129.604ZM133.244 79.656C133.795 79.656 134.247 79.4833 134.602 79.138C134.966 78.7833 135.148 78.27 135.148 77.598V77.458C135.148 76.786 134.966 76.2773 134.602 75.932C134.238 75.5773 133.785 75.4 133.244 75.4C132.703 75.4 132.25 75.5773 131.886 75.932C131.522 76.2773 131.34 76.786 131.34 77.458V77.598C131.34 78.27 131.522 78.7833 131.886 79.138C132.25 79.4833 132.703 79.656 133.244 79.656ZM141.696 81.196C141.005 81.196 140.394 81.0513 139.862 80.762C139.339 80.4633 138.928 80.048 138.63 79.516C138.34 78.9747 138.196 78.34 138.196 77.612V77.444C138.196 76.716 138.34 76.086 138.63 75.554C138.919 75.0127 139.325 74.5973 139.848 74.308C140.37 74.0093 140.977 73.86 141.668 73.86C142.349 73.86 142.942 74.014 143.446 74.322C143.95 74.6207 144.342 75.0407 144.622 75.582C144.902 76.114 145.042 76.7347 145.042 77.444V78.046H139.988C140.006 78.522 140.184 78.9093 140.52 79.208C140.856 79.5067 141.266 79.656 141.752 79.656C142.246 79.656 142.61 79.5487 142.844 79.334C143.077 79.1193 143.254 78.8813 143.376 78.62L144.818 79.376C144.687 79.6187 144.496 79.8847 144.244 80.174C144.001 80.454 143.674 80.6967 143.264 80.902C142.853 81.098 142.33 81.196 141.696 81.196ZM140.002 76.73H143.25C143.212 76.3287 143.049 76.0067 142.76 75.764C142.48 75.5213 142.111 75.4 141.654 75.4C141.178 75.4 140.8 75.5213 140.52 75.764C140.24 76.0067 140.067 76.3287 140.002 76.73Z" fill="#33594F"/>
<path d="M426.147 80V71.6H431.547V73.04H427.731V75.044H431.211V76.484H427.731V78.56H431.619V80H426.147ZM436.032 80.168C435.344 80.168 434.752 80.044 434.256 79.796C433.768 79.54 433.392 79.18 433.128 78.716C432.872 78.244 432.744 77.688 432.744 77.048V71.6H434.328V77.096C434.328 77.608 434.472 78.012 434.76 78.308C435.056 78.604 435.48 78.752 436.032 78.752C436.584 78.752 437.004 78.604 437.292 78.308C437.588 78.012 437.736 77.608 437.736 77.096V71.6H439.32V77.048C439.32 77.688 439.188 78.244 438.924 78.716C438.668 79.18 438.292 79.54 437.796 79.796C437.308 80.044 436.72 80.168 436.032 80.168ZM440.854 80V71.6H444.503C445.031 71.6 445.491 71.692 445.883 71.876C446.275 72.06 446.579 72.32 446.795 72.656C447.011 72.992 447.118 73.388 447.118 73.844V73.988C447.118 74.492 446.999 74.9 446.759 75.212C446.519 75.524 446.223 75.752 445.871 75.896V76.112C446.191 76.128 446.439 76.24 446.615 76.448C446.791 76.648 446.879 76.916 446.879 77.252V80H445.295V77.48C445.295 77.288 445.243 77.132 445.139 77.012C445.043 76.892 444.879 76.832 444.647 76.832H442.439V80H440.854ZM442.439 75.392H444.335C444.711 75.392 445.003 75.292 445.211 75.092C445.427 74.884 445.535 74.612 445.535 74.276V74.156C445.535 73.82 445.431 73.552 445.223 73.352C445.015 73.144 444.719 73.04 444.335 73.04H442.439V75.392Z" fill="#33594F"/>
</g>
<g filter="url(#filter1_d_195_7731)">
<path d="M32 128C32 112.915 32 105.373 36.6863 100.686C41.3726 96 48.9151 96 64 96H446C461.085 96 468.627 96 473.314 100.686C478 105.373 478 112.915 478 128V156H32V128Z" fill="white"/>
<mask id="mask1_195_7731" style="mask-type:alpha" maskUnits="userSpaceOnUse" x="52" y="112" width="24" height="24">
<circle cx="64" cy="124" r="12" fill="#D9D9D9"/>
</mask>
<g mask="url(#mask1_195_7731)">
<g clip-path="url(#clip1_195_7731)">
<path d="M48 112H80V136H48V112Z" fill="#012169"/>
<path d="M51.75 112L63.95 121.05L76.1 112H80V115.1L68 124.05L80 132.95V136H76L64 127.05L52.05 136H48V133L59.95 124.1L48 115.2V112H51.75Z" fill="white"/>
<path d="M69.2 126.05L80 134V136L66.45 126.05H69.2ZM60 127.05L60.3 128.8L50.7 136H48L60 127.05ZM80 112V112.15L67.55 121.55L67.65 119.35L77.5 112H80ZM48 112L59.95 120.8H56.95L48 114.1V112Z" fill="#C8102E"/>
<path d="M60.05 112V136H68.05V112H60.05ZM48 120V128H80V120H48Z" fill="white"/>
<path d="M48 121.65V126.45H80V121.65H48ZM61.65 112V136H66.45V112H61.65Z" fill="#C8102E"/>
</g>
</g>
<path d="M93.119 129.196C92.3164 129.196 91.6257 129.051 91.047 128.762C90.4777 128.463 90.039 128.043 89.731 127.502C89.4324 126.951 89.283 126.303 89.283 125.556V119.2H91.131V125.612C91.131 126.209 91.299 126.681 91.635 127.026C91.9804 127.371 92.475 127.544 93.119 127.544C93.763 127.544 94.253 127.371 94.589 127.026C94.9344 126.681 95.107 126.209 95.107 125.612V119.2H96.955V125.556C96.955 126.303 96.801 126.951 96.493 127.502C96.1944 128.043 95.7557 128.463 95.177 128.762C94.6077 129.051 93.9217 129.196 93.119 129.196ZM98.7453 129V119.2H100.593V123.092H100.845L104.023 119.2H106.389L102.301 124.03L106.529 129H104.093L100.845 125.024H100.593V129H98.7453Z" fill="#33594F"/>
<path d="M438.118 128.168C437.542 128.168 437.018 128.04 436.546 127.784C436.082 127.52 435.71 127.14 435.43 126.644C435.158 126.14 435.022 125.528 435.022 124.808V122.792C435.022 121.712 435.326 120.884 435.934 120.308C436.542 119.724 437.366 119.432 438.406 119.432C439.438 119.432 440.234 119.708 440.794 120.26C441.362 120.804 441.646 121.544 441.646 122.48V122.528H440.086V122.432C440.086 122.136 440.022 121.868 439.894 121.628C439.774 121.388 439.59 121.2 439.342 121.064C439.094 120.92 438.782 120.848 438.406 120.848C437.846 120.848 437.406 121.02 437.086 121.364C436.766 121.708 436.606 122.176 436.606 122.768V124.832C436.606 125.416 436.766 125.888 437.086 126.248C437.406 126.6 437.854 126.776 438.43 126.776C439.006 126.776 439.426 126.624 439.69 126.32C439.954 126.016 440.086 125.632 440.086 125.168V125.048H438.094V123.704H441.646V128H440.182V127.196H439.966C439.91 127.332 439.818 127.476 439.69 127.628C439.57 127.78 439.386 127.908 439.138 128.012C438.89 128.116 438.55 128.168 438.118 128.168ZM442.919 128V126.608H444.023V120.992H442.919V119.6H447.239C447.751 119.6 448.195 119.688 448.571 119.864C448.955 120.032 449.251 120.276 449.459 120.596C449.675 120.908 449.783 121.284 449.783 121.724V121.844C449.783 122.228 449.711 122.544 449.567 122.792C449.423 123.032 449.251 123.22 449.051 123.356C448.859 123.484 448.675 123.576 448.499 123.632V123.848C448.675 123.896 448.867 123.988 449.075 124.124C449.283 124.252 449.459 124.44 449.603 124.688C449.755 124.936 449.831 125.26 449.831 125.66V125.78C449.831 126.244 449.723 126.644 449.507 126.98C449.291 127.308 448.991 127.56 448.607 127.736C448.231 127.912 447.791 128 447.287 128H442.919ZM445.607 126.56H447.095C447.439 126.56 447.715 126.476 447.923 126.308C448.139 126.14 448.247 125.9 448.247 125.588V125.468C448.247 125.156 448.143 124.916 447.935 124.748C447.727 124.58 447.447 124.496 447.095 124.496H445.607V126.56ZM445.607 123.056H447.071C447.399 123.056 447.667 122.972 447.875 122.804C448.091 122.636 448.199 122.404 448.199 122.108V121.988C448.199 121.684 448.095 121.452 447.887 121.292C447.679 121.124 447.407 121.04 447.071 121.04H445.607V123.056ZM451.128 128V119.6H454.584C455.112 119.6 455.576 119.708 455.976 119.924C456.384 120.132 456.7 120.428 456.924 120.812C457.156 121.196 457.272 121.652 457.272 122.18V122.348C457.272 122.868 457.152 123.324 456.912 123.716C456.68 124.1 456.36 124.4 455.952 124.616C455.552 124.824 455.096 124.928 454.584 124.928H452.712V128H451.128ZM452.712 123.488H454.428C454.804 123.488 455.108 123.384 455.34 123.176C455.572 122.968 455.688 122.684 455.688 122.324V122.204C455.688 121.844 455.572 121.56 455.34 121.352C455.108 121.144 454.804 121.04 454.428 121.04H452.712V123.488Z" fill="#33594F"/>
</g>
<g clip-path="url(#clip2_195_7731)">
<mask id="path-142-inside-1_195_7731" fill="white">
<path d="M22 176C22 160.915 22 153.373 26.6863 148.686C31.3726 144 38.9151 144 54 144H456C471.085 144 478.627 144 483.314 148.686C488 153.373 488 160.915 488 176V392C488 407.085 488 414.627 483.314 419.314C478.627 424 471.085 424 456 424H54C38.9151 424 31.3726 424 26.6863 419.314C22 414.627 22 407.085 22 392V176Z"/>
</mask>
<path d="M22 176C22 160.915 22 153.373 26.6863 148.686C31.3726 144 38.9151 144 54 144H456C471.085 144 478.627 144 483.314 148.686C488 153.373 488 160.915 488 176V392C488 407.085 488 414.627 483.314 419.314C478.627 424 471.085 424 456 424H54C38.9151 424 31.3726 424 26.6863 419.314C22 414.627 22 407.085 22 392V176Z" fill="#092B22"/>
<rect x="22" y="144" width="364" height="280" fill="url(#paint0_linear_195_7731)"/>
<path fill-rule="evenodd" clip-rule="evenodd" d="M386 274.5C303.433 274.5 236.5 341.433 236.5 424C236.5 506.567 303.433 573.5 386 573.5C468.567 573.5 535.5 506.567 535.5 424C535.5 341.433 468.567 274.5 386 274.5ZM235.5 424C235.5 340.881 302.881 273.5 386 273.5C469.119 273.5 536.5 340.881 536.5 424C536.5 507.119 469.119 574.5 386 574.5C302.881 574.5 235.5 507.119 235.5 424ZM386 284.063C308.715 284.063 246.062 346.715 246.062 424C246.062 501.285 308.715 563.937 386 563.937C463.285 563.937 525.937 501.285 525.937 424C525.937 346.715 463.285 284.063 386 284.063ZM245.062 424C245.062 346.163 308.162 283.063 386 283.063C463.837 283.063 526.937 346.163 526.937 424C526.937 501.838 463.837 564.937 386 564.937C308.162 564.937 245.062 501.838 245.062 424ZM255.736 424C255.736 352.058 314.057 293.737 386 293.737C457.942 293.737 516.263 352.058 516.263 424C516.263 495.943 457.942 554.263 386 554.263C314.057 554.263 255.736 495.943 255.736 424ZM386 292.737C313.505 292.737 254.736 351.505 254.736 424C254.736 496.495 313.505 555.263 386 555.263C458.495 555.263 517.263 496.495 517.263 424C517.263 351.505 458.495 292.737 386 292.737ZM386 303.41C319.4 303.41 265.41 357.4 265.41 424C265.41 490.6 319.4 544.59 386 544.59C452.6 544.59 506.59 490.6 506.59 424C506.59 357.4 452.6 303.41 386 303.41ZM264.41 424C264.41 356.848 318.848 302.41 386 302.41C453.152 302.41 507.59 356.848 507.59 424C507.59 491.152 453.152 545.59 386 545.59C318.848 545.59 264.41 491.152 264.41 424ZM275.084 424C275.084 362.743 324.743 313.084 386 313.084C447.258 313.084 496.916 362.743 496.916 424C496.916 485.257 447.258 534.916 386 534.916C324.743 534.916 275.084 485.257 275.084 424ZM386 312.084C324.191 312.084 274.084 362.191 274.084 424C274.084 485.809 324.191 535.916 386 535.916C447.81 535.916 497.916 485.809 497.916 424C497.916 362.191 447.81 312.084 386 312.084ZM386 322.758C330.085 322.758 284.758 368.085 284.758 424C284.758 479.914 330.085 525.242 386 525.242C441.914 525.242 487.242 479.914 487.242 424C487.242 368.085 441.914 322.758 386 322.758ZM283.758 424C283.758 367.533 329.533 321.758 386 321.758C442.467 321.758 488.242 367.533 488.242 424C488.242 480.467 442.467 526.242 386 526.242C329.533 526.242 283.758 480.467 283.758 424ZM294.432 424C294.432 373.428 335.428 332.432 386 332.432C436.572 332.432 477.568 373.428 477.568 424C477.568 474.572 436.572 515.568 386 515.568C335.428 515.568 294.432 474.572 294.432 424ZM386 331.432C334.876 331.432 293.432 372.876 293.432 424C293.432 475.124 334.876 516.568 386 516.568C437.124 516.568 478.568 475.124 478.568 424C478.568 372.876 437.124 331.432 386 331.432ZM386 342.106C340.771 342.106 304.105 378.771 304.105 424C304.105 469.229 340.771 505.894 386 505.894C431.229 505.894 467.894 469.229 467.894 424C467.894 378.771 431.229 342.106 386 342.106ZM303.105 424C303.105 378.219 340.219 341.106 386 341.106C431.781 341.106 468.894 378.219 468.894 424C468.894 469.781 431.781 506.894 386 506.894C340.219 506.894 303.105 469.781 303.105 424ZM313.779 424C313.779 384.114 346.114 351.779 386 351.779C425.886 351.779 458.22 384.114 458.22 424C458.22 463.886 425.886 496.22 386 496.22C346.114 496.22 313.779 463.886 313.779 424ZM386 350.779C345.561 350.779 312.779 383.561 312.779 424C312.779 464.439 345.561 497.22 386 497.22C426.438 497.22 459.22 464.439 459.22 424C459.22 383.561 426.438 350.779 386 350.779ZM386 361.453C351.456 361.453 323.453 389.456 323.453 424C323.453 458.543 351.456 486.547 386 486.547C420.543 486.547 448.547 458.543 448.547 424C448.547 389.456 420.543 361.453 386 361.453ZM322.453 424C322.453 388.904 350.904 360.453 386 360.453C421.096 360.453 449.547 388.904 449.547 424C449.547 459.096 421.096 487.547 386 487.547C350.904 487.547 322.453 459.096 322.453 424ZM333.017 424C333.017 394.738 356.738 371.016 386.001 371.016C415.263 371.016 438.985 394.738 438.985 424C438.985 453.262 415.263 476.984 386.001 476.984C356.738 476.984 333.017 453.262 333.017 424ZM386.001 370.016C356.186 370.016 332.017 394.186 332.017 424C332.017 453.815 356.186 477.984 386.001 477.984C415.815 477.984 439.985 453.815 439.985 424C439.985 394.186 415.815 370.016 386.001 370.016ZM386 380.69C362.081 380.69 342.69 400.08 342.69 424C342.69 447.919 362.081 467.31 386 467.31C409.92 467.31 429.31 447.919 429.31 424C429.31 400.08 409.92 380.69 386 380.69ZM341.69 424C341.69 399.528 361.528 379.69 386 379.69C410.472 379.69 430.31 399.528 430.31 424C430.31 448.472 410.472 468.31 386 468.31C361.528 468.31 341.69 448.472 341.69 424ZM352.363 424C352.363 405.423 367.423 390.364 386 390.364C404.577 390.364 419.636 405.423 419.636 424C419.636 442.577 404.577 457.636 386 457.636C367.423 457.636 352.363 442.577 352.363 424ZM386 389.364C366.871 389.364 351.363 404.871 351.363 424C351.363 443.129 366.871 458.636 386 458.636C405.129 458.636 420.636 443.129 420.636 424C420.636 404.871 405.129 389.364 386 389.364ZM386 400.037C372.766 400.037 362.037 410.766 362.037 424C362.037 437.234 372.766 447.962 386 447.962C399.234 447.962 409.962 437.234 409.962 424C409.962 410.766 399.234 400.037 386 400.037ZM361.037 424C361.037 410.213 372.213 399.037 386 399.037C399.786 399.037 410.962 410.213 410.962 424C410.962 437.786 399.786 448.962 386 448.962C372.213 448.962 361.037 437.786 361.037 424ZM371.711 424C371.711 416.109 378.108 409.711 386 409.711C393.891 409.711 400.288 416.109 400.288 424C400.288 431.891 393.891 438.289 386 438.289C378.108 438.289 371.711 431.891 371.711 424ZM386 408.711C377.556 408.711 370.711 415.556 370.711 424C370.711 432.444 377.556 439.289 386 439.289C394.443 439.289 401.288 432.444 401.288 424C401.288 415.556 394.443 408.711 386 408.711Z" fill="url(#paint1_radial_195_7731)" fill-opacity="0.5"/>
<mask id="mask2_195_7731" style="mask-type:alpha" maskUnits="userSpaceOnUse" x="42" y="164" width="24" height="24">
<circle cx="54" cy="176" r="12" fill="#D9D9D9"/>
</mask>
<g mask="url(#mask2_195_7731)">
<g clip-path="url(#clip3_195_7731)">
<path fill-rule="evenodd" clip-rule="evenodd" d="M37.6699 164.5H83.2699V166.347H37.6699V164.5ZM37.6699 168.194H83.2699V170.041H37.6699V168.194ZM37.6699 171.883H83.2699V173.734H37.6699V171.883ZM37.6699 175.577H83.2699V177.423H37.6699V175.577ZM37.6699 179.27H83.2699V181.117H37.6699V179.27ZM37.6699 182.959H83.2699V184.806H37.6699V182.959ZM37.6699 186.653H83.2699V188.5H37.6699V186.653Z" fill="#BD3D44"/>
<path fill-rule="evenodd" clip-rule="evenodd" d="M37.6699 166.347H83.2699V168.194H37.6699V166.347ZM37.6699 170.041H83.2699V171.883H37.6699V170.041ZM37.6699 173.73H83.2699V175.577H37.6699V173.73ZM37.6699 177.423H83.2699V179.27H37.6699V177.423ZM37.6699 181.117H83.2699V182.964H37.6699V181.117ZM37.6699 184.806H83.2699V186.653H37.6699V184.806Z" fill="white"/>
<path fill-rule="evenodd" clip-rule="evenodd" d="M37.6699 164.5H55.909V177.423H37.6699V164.5Z" fill="#192F5D"/>
<path fill-rule="evenodd" clip-rule="evenodd" d="M39.1894 165.053L39.3582 165.564H39.8926L39.4613 165.878L39.6254 166.394L39.1894 166.075L38.7582 166.389L38.9222 165.878L38.4863 165.564H39.0301L39.1894 165.053ZM42.2316 165.053L42.3957 165.564H42.9347L42.4988 165.878L42.6629 166.394L42.2316 166.075L41.7957 166.389L41.9597 165.878L41.5285 165.564H42.0629L42.2316 165.053ZM45.2691 165.053L45.4379 165.564H45.9676L45.5363 165.878L45.7003 166.394L45.2644 166.075L44.8332 166.389L44.9972 165.878L44.5613 165.564H45.1004L45.2691 165.053ZM48.3113 165.053L48.4753 165.564H49.0144L48.5785 165.878L48.7472 166.394L48.3113 166.075L47.8754 166.389L48.0441 165.878L47.6082 165.564H48.1426L48.3113 165.053ZM51.3488 165.053L51.5176 165.564H52.0519L51.6207 165.878L51.7847 166.394L51.3488 166.075L50.9175 166.389L51.0816 165.878L50.6504 165.564H51.1847L51.3488 165.053ZM54.391 165.053L54.555 165.564H55.0941L54.6582 165.878L54.8269 166.394L54.391 166.075L53.955 166.389L54.1238 165.878L53.6879 165.564H54.2269L54.391 165.053ZM40.7129 166.347L40.8769 166.858H41.416L40.98 167.172L41.1394 167.683L40.7175 167.369L40.2816 167.683L40.4363 167.172L40.0144 166.858H40.5488L40.7129 166.347ZM43.7504 166.347L43.9191 166.858H44.4535L44.0175 167.172L44.1863 167.683L43.7503 167.369L43.3144 167.683L43.4832 167.172L43.0472 166.858H43.5863L43.7504 166.347ZM46.7926 166.347L46.9566 166.858H47.4957L47.0597 167.172L47.2238 167.683L46.7925 167.369L46.3566 167.683L46.5207 167.172L46.0894 166.858H46.6238L46.7926 166.347ZM49.8301 166.347L49.9988 166.858H50.5332L50.0972 167.172L50.266 167.683L49.83 167.369L49.3988 167.683L49.5629 167.172L49.1269 166.858H49.6707L49.8301 166.347ZM52.8722 166.347L53.0363 166.858H53.5754L53.1394 167.172L53.3035 167.683L52.8722 167.369L52.4363 167.683L52.6004 167.172L52.1691 166.858H52.7035L52.8722 166.347ZM39.1894 167.636L39.3582 168.156H39.8926L39.4613 168.47L39.6254 168.981L39.1894 168.663L38.7582 168.981L38.9222 168.466L38.4863 168.152H39.0301L39.1894 167.636ZM42.2316 167.636L42.3957 168.151H42.9347L42.4988 168.466L42.6629 168.977L42.2316 168.658L41.7957 168.976L41.9597 168.461L41.5285 168.147H42.0629L42.2316 167.636ZM45.2691 167.636L45.4379 168.152H45.9676L45.5363 168.466L45.7003 168.977L45.2644 168.658L44.8332 168.977L44.9972 168.461L44.5613 168.147H45.1004L45.2691 167.636ZM48.3113 167.636L48.4753 168.152H49.0144L48.5785 168.466L48.7472 168.977L48.3113 168.658L47.8754 168.977L48.0441 168.461L47.6082 168.147H48.1426L48.3113 167.636ZM51.3488 167.636L51.5176 168.152H52.0519L51.6207 168.466L51.7847 168.977L51.3488 168.658L50.9175 168.977L51.0816 168.461L50.6504 168.147H51.1847L51.3488 167.636ZM54.391 167.636L54.555 168.152H55.0941L54.6582 168.466L54.8269 168.977L54.391 168.658L53.955 168.977L54.1238 168.461L53.6879 168.147H54.2269L54.391 167.636ZM40.7129 168.93L40.8769 169.441H41.416L40.98 169.755L41.1441 170.27L40.7129 169.952L40.2769 170.266L40.441 169.755L40.0097 169.441H40.5442L40.7129 168.93ZM43.7504 168.93L43.9191 169.441H44.4535L44.0175 169.755L44.1863 170.27L43.7503 169.952L43.3144 170.266L43.4832 169.755L43.0472 169.441H43.5863L43.7504 168.93ZM46.7926 168.93L46.9566 169.441H47.4957L47.0597 169.755L47.2238 170.27L46.7925 169.952L46.3566 170.266L46.5207 169.755L46.0894 169.441H46.6238L46.7926 168.93ZM49.8301 168.93L49.9988 169.441H50.5332L50.1019 169.755L50.266 170.27L49.83 169.952L49.3988 170.266L49.5629 169.755L49.1269 169.441H49.6707L49.8301 168.93ZM52.8722 168.93L53.0363 169.441H53.5754L53.1394 169.755L53.3035 170.27L52.8722 169.952L52.4363 170.266L52.6004 169.755L52.1691 169.441H52.7035L52.8722 168.93ZM39.1894 170.223L39.3582 170.734H39.8926L39.4613 171.048L39.6254 171.564L39.1894 171.245L38.7582 171.559L38.9222 171.048L38.4863 170.734H39.0301L39.1894 170.223ZM42.2316 170.223L42.3957 170.734H42.9347L42.4988 171.048L42.6629 171.559L42.2316 171.245L41.7957 171.559L41.9597 171.048L41.5285 170.734H42.0629L42.2316 170.223ZM45.2691 170.223L45.4379 170.734H45.9676L45.5363 171.048L45.7003 171.564L45.2644 171.245L44.8332 171.559L44.9972 171.048L44.5613 170.734H45.1004L45.2691 170.223ZM48.3113 170.223L48.4753 170.734H49.0144L48.5785 171.048L48.7472 171.564L48.3113 171.245L47.8754 171.559L48.0441 171.048L47.6082 170.734H48.1426L48.3113 170.223ZM51.3488 170.223L51.5176 170.734H52.0519L51.6207 171.048L51.7847 171.564L51.3488 171.245L50.9175 171.559L51.0816 171.048L50.6504 170.734H51.1847L51.3488 170.223ZM54.391 170.223L54.555 170.734H55.0941L54.6582 171.048L54.8269 171.564L54.391 171.245L53.955 171.559L54.1238 171.048L53.6879 170.734H54.2269L54.391 170.223ZM40.7129 171.517L40.8769 172.028H41.416L40.98 172.342L41.1441 172.853L40.7129 172.534L40.2769 172.853L40.441 172.337L40.0097 172.023H40.5442L40.7129 171.517ZM43.7504 171.517L43.9191 172.028H44.4535L44.0175 172.342L44.1863 172.853L43.7503 172.534L43.3144 172.853L43.4832 172.337L43.0472 172.023H43.5863L43.7504 171.517ZM46.7926 171.517L46.9566 172.028H47.4957L47.0597 172.342L47.2238 172.853L46.7925 172.534L46.3566 172.853L46.5207 172.337L46.0894 172.023H46.6238L46.7926 171.517ZM49.8301 171.517L49.9988 172.028H50.5332L50.1019 172.342L50.266 172.853L49.83 172.534L49.3988 172.853L49.5629 172.337L49.1269 172.023H49.6707L49.8301 171.517ZM52.8722 171.517L53.0363 172.028H53.5754L53.1394 172.342L53.3035 172.853L52.8722 172.534L52.4363 172.853L52.6004 172.337L52.1691 172.023H52.7035L52.8722 171.517ZM39.1894 172.806L39.3582 173.322H39.8926L39.4613 173.636L39.6254 174.142L39.1894 173.828L38.7582 174.142L38.9222 173.631L38.4863 173.317H39.0301L39.1894 172.806ZM42.2316 172.806L42.3957 173.322H42.9347L42.4988 173.636L42.6676 174.142L42.2316 173.828L41.7957 174.142L41.9644 173.631L41.5285 173.317H42.0629L42.2316 172.806ZM45.2691 172.806L45.4379 173.322H45.9676L45.5363 173.636L45.7003 174.142L45.2644 173.828L44.8332 174.142L44.9972 173.631L44.5613 173.317H45.1004L45.2691 172.806ZM48.3113 172.806L48.4753 173.322H49.0144L48.5785 173.636L48.7472 174.142L48.3113 173.828L47.8754 174.142L48.0441 173.631L47.6082 173.317H48.1426L48.3113 172.806ZM51.3488 172.806L51.5176 173.322H52.0519L51.6207 173.636L51.7847 174.142L51.3488 173.828L50.9175 174.142L51.0816 173.631L50.6504 173.317H51.1847L51.3488 172.806ZM54.391 172.806L54.555 173.322H55.0941L54.6582 173.636L54.8269 174.142L54.391 173.828L53.955 174.142L54.1238 173.631L53.6879 173.317H54.2269L54.391 172.806ZM40.7129 174.1L40.8769 174.611H41.416L40.98 174.925L41.1441 175.441L40.7129 175.122L40.2769 175.436L40.441 174.925L40.0097 174.611H40.5442L40.7129 174.1ZM43.7504 174.1L43.9191 174.611H44.4535L44.0175 174.925L44.1863 175.441L43.7503 175.122L43.3144 175.436L43.4832 174.925L43.0472 174.611H43.5863L43.7504 174.1ZM46.7926 174.1L46.9566 174.611H47.4957L47.0597 174.925L47.2238 175.441L46.7925 175.122L46.3566 175.436L46.5207 174.925L46.0894 174.611H46.6238L46.7926 174.1ZM49.8301 174.1L49.9988 174.611H50.5332L50.1019 174.925L50.266 175.441L49.83 175.122L49.3988 175.436L49.5629 174.925L49.1269 174.611H49.6707L49.8301 174.1ZM52.8722 174.1L53.0363 174.611H53.5754L53.1394 174.925L53.3035 175.441L52.8722 175.122L52.4363 175.436L52.6004 174.925L52.1691 174.611H52.7035L52.8722 174.1ZM39.1894 175.394L39.3582 175.905H39.8926L39.4613 176.219L39.6254 176.73L39.1894 176.416L38.7582 176.73L38.9222 176.214L38.4863 175.9H39.0301L39.1894 175.394ZM42.2316 175.394L42.3957 175.905H42.9347L42.4988 176.219L42.6676 176.73L42.2316 176.416L41.7957 176.73L41.9644 176.214L41.5285 175.9H42.0629L42.2316 175.394ZM45.2691 175.394L45.4379 175.905H45.9676L45.5457 176.219L45.7097 176.73L45.2738 176.416L44.8425 176.73L45.0066 176.214L44.5707 175.9H45.1097L45.2691 175.394ZM48.3113 175.394L48.4753 175.905H49.0144L48.5785 176.219L48.7472 176.73L48.3113 176.416L47.8754 176.73L48.0441 176.214L47.6082 175.9H48.1426L48.3113 175.394ZM51.3488 175.394L51.5176 175.905H52.0519L51.6207 176.219L51.7847 176.73L51.3488 176.416L50.9175 176.73L51.0816 176.214L50.6504 175.9H51.1847L51.3488 175.394ZM54.391 175.394L54.555 175.905H55.0941L54.6582 176.219L54.8269 176.73L54.391 176.416L53.955 176.73L54.1238 176.214L53.6879 175.9H54.2269L54.391 175.394Z" fill="white"/>
</g>
</g>
<path d="M84.339 182.252C83.307 182.252 82.419 182.066 81.675 181.694C80.943 181.31 80.379 180.77 79.983 180.074C79.599 179.366 79.407 178.532 79.407 177.572V169.4H81.783V177.644C81.783 178.412 81.999 179.018 82.431 179.462C82.875 179.906 83.511 180.128 84.339 180.128C85.167 180.128 85.797 179.906 86.229 179.462C86.673 179.018 86.895 178.412 86.895 177.644V169.4H89.271V177.572C89.271 178.532 89.073 179.366 88.677 180.074C88.293 180.77 87.729 181.31 86.985 181.694C86.253 182.066 85.371 182.252 84.339 182.252ZM95.9468 182.252C94.9748 182.252 94.1168 182.078 93.3728 181.73C92.6288 181.382 92.0468 180.884 91.6268 180.236C91.2068 179.588 90.9968 178.808 90.9968 177.896V177.392H93.3368V177.896C93.3368 178.652 93.5708 179.222 94.0388 179.606C94.5068 179.978 95.1428 180.164 95.9468 180.164C96.7628 180.164 97.3688 180.002 97.7648 179.678C98.1728 179.354 98.3768 178.94 98.3768 178.436C98.3768 178.088 98.2748 177.806 98.0708 177.59C97.8788 177.374 97.5908 177.2 97.2068 177.068C96.8348 176.924 96.3788 176.792 95.8388 176.672L95.4248 176.582C94.5608 176.39 93.8168 176.15 93.1928 175.862C92.5808 175.562 92.1068 175.172 91.7708 174.692C91.4468 174.212 91.2848 173.588 91.2848 172.82C91.2848 172.052 91.4648 171.398 91.8248 170.858C92.1968 170.306 92.7128 169.886 93.3728 169.598C94.0448 169.298 94.8308 169.148 95.7308 169.148C96.6308 169.148 97.4288 169.304 98.1248 169.616C98.8328 169.916 99.3848 170.372 99.7808 170.984C100.189 171.584 100.393 172.34 100.393 173.252V173.792H98.0528V173.252C98.0528 172.772 97.9568 172.388 97.7648 172.1C97.5848 171.8 97.3208 171.584 96.9728 171.452C96.6248 171.308 96.2108 171.236 95.7308 171.236C95.0108 171.236 94.4768 171.374 94.1288 171.65C93.7928 171.914 93.6248 172.28 93.6248 172.748C93.6248 173.06 93.7028 173.324 93.8588 173.54C94.0268 173.756 94.2728 173.936 94.5968 174.08C94.9208 174.224 95.3348 174.35 95.8388 174.458L96.2528 174.548C97.1528 174.74 97.9328 174.986 98.5928 175.286C99.2648 175.586 99.7868 175.982 100.159 176.474C100.531 176.966 100.717 177.596 100.717 178.364C100.717 179.132 100.519 179.81 100.123 180.398C99.7388 180.974 99.1868 181.43 98.4668 181.766C97.7588 182.09 96.9188 182.252 95.9468 182.252ZM101.625 182L104.937 169.4H109.077L112.389 182H109.941L109.257 179.228H104.757L104.073 182H101.625ZM105.315 177.032H108.699L107.169 170.894H106.845L105.315 177.032Z" fill="#E9FFFA"/>
<path d="M448.389 180.168C447.701 180.168 447.109 180.044 446.613 179.796C446.125 179.54 445.749 179.18 445.485 178.716C445.229 178.244 445.101 177.688 445.101 177.048V171.6H446.685V177.096C446.685 177.608 446.829 178.012 447.117 178.308C447.413 178.604 447.837 178.752 448.389 178.752C448.941 178.752 449.361 178.604 449.649 178.308C449.945 178.012 450.093 177.608 450.093 177.096V171.6H451.677V177.048C451.677 177.688 451.545 178.244 451.281 178.716C451.025 179.18 450.649 179.54 450.153 179.796C449.665 180.044 449.077 180.168 448.389 180.168ZM456.128 180.168C455.48 180.168 454.908 180.052 454.412 179.82C453.916 179.588 453.528 179.256 453.248 178.824C452.968 178.392 452.828 177.872 452.828 177.264V176.928H454.388V177.264C454.388 177.768 454.544 178.148 454.856 178.404C455.168 178.652 455.592 178.776 456.128 178.776C456.672 178.776 457.076 178.668 457.34 178.452C457.612 178.236 457.748 177.96 457.748 177.624C457.748 177.392 457.68 177.204 457.544 177.06C457.416 176.916 457.224 176.8 456.968 176.712C456.72 176.616 456.416 176.528 456.056 176.448L455.78 176.388C455.204 176.26 454.708 176.1 454.292 175.908C453.884 175.708 453.568 175.448 453.344 175.128C453.128 174.808 453.02 174.392 453.02 173.88C453.02 173.368 453.14 172.932 453.38 172.572C453.628 172.204 453.972 171.924 454.412 171.732C454.86 171.532 455.384 171.432 455.984 171.432C456.584 171.432 457.116 171.536 457.58 171.744C458.052 171.944 458.42 172.248 458.684 172.656C458.956 173.056 459.092 173.56 459.092 174.168V174.528H457.532V174.168C457.532 173.848 457.468 173.592 457.34 173.4C457.22 173.2 457.044 173.056 456.812 172.968C456.58 172.872 456.304 172.824 455.984 172.824C455.504 172.824 455.148 172.916 454.916 173.1C454.692 173.276 454.58 173.52 454.58 173.832C454.58 174.04 454.632 174.216 454.736 174.36C454.848 174.504 455.012 174.624 455.228 174.72C455.444 174.816 455.72 174.9 456.056 174.972L456.332 175.032C456.932 175.16 457.452 175.324 457.892 175.524C458.34 175.724 458.688 175.988 458.936 176.316C459.184 176.644 459.308 177.064 459.308 177.576C459.308 178.088 459.176 178.54 458.912 178.932C458.656 179.316 458.288 179.62 457.808 179.844C457.336 180.06 456.776 180.168 456.128 180.168ZM460.202 180V178.608H461.306V172.992H460.202V171.6H463.658C464.786 171.6 465.642 171.888 466.226 172.464C466.818 173.032 467.114 173.88 467.114 175.008V176.592C467.114 177.72 466.818 178.572 466.226 179.148C465.642 179.716 464.786 180 463.658 180H460.202ZM462.89 178.56H463.682C464.322 178.56 464.79 178.392 465.086 178.056C465.382 177.72 465.53 177.248 465.53 176.64V174.96C465.53 174.344 465.382 173.872 465.086 173.544C464.79 173.208 464.322 173.04 463.682 173.04H462.89V178.56Z" fill="#E9FFFA"/>
<path d="M42.4376 234L45.6376 222.8H48.6776L51.8616 234H50.0856L49.3496 231.36H44.9656L44.2296 234H42.4376ZM45.3976 229.76H48.9176L47.2856 223.872H47.0296L45.3976 229.76ZM57.0909 234.224C56.3336 234.224 55.6456 234.064 55.0269 233.744C54.4189 233.424 53.9336 232.96 53.5709 232.352C53.2189 231.744 53.0429 231.013 53.0429 230.16V229.952C53.0429 229.099 53.2189 228.373 53.5709 227.776C53.9336 227.168 54.4189 226.704 55.0269 226.384C55.6456 226.053 56.3336 225.888 57.0909 225.888C57.8483 225.888 58.4936 226.027 59.0269 226.304C59.5603 226.581 59.9869 226.949 60.3069 227.408C60.6376 227.867 60.8509 228.373 60.9469 228.928L59.3469 229.264C59.2936 228.912 59.1816 228.592 59.0109 228.304C58.8403 228.016 58.6003 227.787 58.2909 227.616C57.9816 227.445 57.5923 227.36 57.1229 227.36C56.6643 227.36 56.2483 227.467 55.8749 227.68C55.5123 227.883 55.2243 228.181 55.0109 228.576C54.7976 228.96 54.6909 229.429 54.6909 229.984V230.128C54.6909 230.683 54.7976 231.157 55.0109 231.552C55.2243 231.947 55.5123 232.245 55.8749 232.448C56.2483 232.651 56.6643 232.752 57.1229 232.752C57.8163 232.752 58.3443 232.576 58.7069 232.224C59.0696 231.861 59.2989 231.403 59.3949 230.848L60.9949 231.216C60.8669 231.76 60.6376 232.261 60.3069 232.72C59.9869 233.179 59.5603 233.547 59.0269 233.824C58.4936 234.091 57.8483 234.224 57.0909 234.224ZM66.5597 234.224C65.8024 234.224 65.1144 234.064 64.4957 233.744C63.8877 233.424 63.4024 232.96 63.0397 232.352C62.6877 231.744 62.5117 231.013 62.5117 230.16V229.952C62.5117 229.099 62.6877 228.373 63.0397 227.776C63.4024 227.168 63.8877 226.704 64.4957 226.384C65.1144 226.053 65.8024 225.888 66.5597 225.888C67.317 225.888 67.9624 226.027 68.4957 226.304C69.029 226.581 69.4557 226.949 69.7757 227.408C70.1064 227.867 70.3197 228.373 70.4157 228.928L68.8157 229.264C68.7624 228.912 68.6504 228.592 68.4797 228.304C68.309 228.016 68.069 227.787 67.7597 227.616C67.4504 227.445 67.061 227.36 66.5917 227.36C66.133 227.36 65.717 227.467 65.3437 227.68C64.981 227.883 64.693 228.181 64.4797 228.576C64.2664 228.96 64.1597 229.429 64.1597 229.984V230.128C64.1597 230.683 64.2664 231.157 64.4797 231.552C64.693 231.947 64.981 232.245 65.3437 232.448C65.717 232.651 66.133 232.752 66.5917 232.752C67.285 232.752 67.813 232.576 68.1757 232.224C68.5384 231.861 68.7677 231.403 68.8637 230.848L70.4637 231.216C70.3357 231.76 70.1064 232.261 69.7757 232.72C69.4557 233.179 69.029 233.547 68.4957 233.824C67.9624 234.091 67.317 234.224 66.5597 234.224ZM76.0604 234.224C75.2711 234.224 74.5671 234.064 73.9484 233.744C73.3404 233.413 72.8604 232.944 72.5084 232.336C72.1564 231.728 71.9804 231.008 71.9804 230.176V229.936C71.9804 229.104 72.1564 228.389 72.5084 227.792C72.8604 227.184 73.3404 226.715 73.9484 226.384C74.5671 226.053 75.2711 225.888 76.0604 225.888C76.8498 225.888 77.5538 226.053 78.1724 226.384C78.7911 226.715 79.2764 227.184 79.6284 227.792C79.9804 228.389 80.1564 229.104 80.1564 229.936V230.176C80.1564 231.008 79.9804 231.728 79.6284 232.336C79.2764 232.944 78.7911 233.413 78.1724 233.744C77.5538 234.064 76.8498 234.224 76.0604 234.224ZM76.0604 232.752C76.7858 232.752 77.3724 232.523 77.8204 232.064C78.2791 231.595 78.5084 230.949 78.5084 230.128V229.984C78.5084 229.163 78.2844 228.523 77.8364 228.064C77.3884 227.595 76.7964 227.36 76.0604 227.36C75.3458 227.36 74.7591 227.595 74.3004 228.064C73.8524 228.523 73.6284 229.163 73.6284 229.984V230.128C73.6284 230.949 73.8524 231.595 74.3004 232.064C74.7591 232.523 75.3458 232.752 76.0604 232.752ZM85.2322 234.144C84.6349 234.144 84.1015 234.011 83.6322 233.744C83.1629 233.477 82.7949 233.099 82.5282 232.608C82.2615 232.117 82.1282 231.531 82.1282 230.848V226.112H83.7762V230.736C83.7762 231.419 83.9469 231.925 84.2882 232.256C84.6295 232.576 85.1042 232.736 85.7122 232.736C86.3842 232.736 86.9229 232.512 87.3282 232.064C87.7442 231.605 87.9522 230.949 87.9522 230.096V226.112H89.6002V234H87.9842V232.816H87.7282C87.5789 233.136 87.3122 233.44 86.9282 233.728C86.5442 234.005 85.9789 234.144 85.2322 234.144ZM92.0363 234V226.112H93.6523V227.296H93.9083C94.0576 226.976 94.3243 226.677 94.7083 226.4C95.0923 226.123 95.663 225.984 96.4203 225.984C97.0176 225.984 97.5456 226.117 98.0043 226.384C98.4736 226.651 98.8416 227.029 99.1083 227.52C99.375 228 99.5083 228.581 99.5083 229.264V234H97.8603V229.392C97.8603 228.709 97.6896 228.208 97.3483 227.888C97.007 227.557 96.5376 227.392 95.9403 227.392C95.2576 227.392 94.7083 227.616 94.2923 228.064C93.887 228.512 93.6843 229.163 93.6843 230.016V234H92.0363ZM104.621 234C104.141 234 103.757 233.856 103.469 233.568C103.192 233.28 103.053 232.896 103.053 232.416V227.504H100.877V226.112H103.053V223.504H104.701V226.112H107.053V227.504H104.701V232.128C104.701 232.448 104.851 232.608 105.149 232.608H106.797V234H104.621ZM113.068 234V226.112H114.684V227.296H114.94C115.089 226.976 115.356 226.677 115.74 226.4C116.124 226.123 116.694 225.984 117.452 225.984C118.049 225.984 118.577 226.117 119.036 226.384C119.505 226.651 119.873 227.029 120.14 227.52C120.406 228 120.54 228.581 120.54 229.264V234H118.892V229.392C118.892 228.709 118.721 228.208 118.38 227.888C118.038 227.557 117.569 227.392 116.972 227.392C116.289 227.392 115.74 227.616 115.324 228.064C114.918 228.512 114.716 229.163 114.716 230.016V234H113.068ZM125.81 234.144C125.213 234.144 124.68 234.011 124.21 233.744C123.741 233.477 123.373 233.099 123.106 232.608C122.84 232.117 122.706 231.531 122.706 230.848V226.112H124.354V230.736C124.354 231.419 124.525 231.925 124.866 232.256C125.208 232.576 125.682 232.736 126.29 232.736C126.962 232.736 127.501 232.512 127.906 232.064C128.322 231.605 128.53 230.949 128.53 230.096V226.112H130.178V234H128.562V232.816H128.306C128.157 233.136 127.89 233.44 127.506 233.728C127.122 234.005 126.557 234.144 125.81 234.144ZM132.614 234V226.112H134.23V227.04H134.486C134.636 226.763 134.876 226.517 135.206 226.304C135.537 226.091 135.985 225.984 136.55 225.984C137.137 225.984 137.606 226.107 137.958 226.352C138.321 226.587 138.593 226.891 138.774 227.264H139.03C139.212 226.901 139.473 226.597 139.814 226.352C140.166 226.107 140.662 225.984 141.302 225.984C141.814 225.984 142.268 226.091 142.662 226.304C143.057 226.507 143.372 226.816 143.606 227.232C143.841 227.637 143.958 228.144 143.958 228.752V234H142.31V228.88C142.31 228.4 142.177 228.032 141.91 227.776C141.654 227.509 141.286 227.376 140.806 227.376C140.294 227.376 139.884 227.541 139.574 227.872C139.265 228.203 139.11 228.677 139.11 229.296V234H137.462V228.88C137.462 228.4 137.329 228.032 137.062 227.776C136.806 227.509 136.438 227.376 135.958 227.376C135.446 227.376 135.036 227.541 134.726 227.872C134.417 228.203 134.262 228.677 134.262 229.296V234H132.614ZM150.893 234.224C150.125 234.224 149.533 234.085 149.117 233.808C148.712 233.531 148.408 233.221 148.205 232.88H147.949V234H146.333V222.8H147.981V227.184H148.237C148.365 226.971 148.536 226.768 148.749 226.576C148.963 226.373 149.245 226.208 149.597 226.08C149.949 225.952 150.381 225.888 150.893 225.888C151.555 225.888 152.163 226.048 152.717 226.368C153.272 226.688 153.715 227.152 154.045 227.76C154.376 228.368 154.541 229.093 154.541 229.936V230.176C154.541 231.029 154.371 231.76 154.029 232.368C153.699 232.965 153.256 233.424 152.701 233.744C152.157 234.064 151.555 234.224 150.893 234.224ZM150.413 232.784C151.128 232.784 151.715 232.555 152.173 232.096C152.643 231.637 152.877 230.981 152.877 230.128V229.984C152.877 229.141 152.648 228.491 152.189 228.032C151.731 227.573 151.139 227.344 150.413 227.344C149.709 227.344 149.123 227.573 148.653 228.032C148.195 228.491 147.965 229.141 147.965 229.984V230.128C147.965 230.981 148.195 231.637 148.653 232.096C149.123 232.555 149.709 232.784 150.413 232.784ZM160.199 234.224C159.399 234.224 158.701 234.059 158.103 233.728C157.506 233.387 157.037 232.912 156.695 232.304C156.365 231.685 156.199 230.971 156.199 230.16V229.968C156.199 229.147 156.365 228.432 156.695 227.824C157.026 227.205 157.485 226.731 158.071 226.4C158.669 226.059 159.357 225.888 160.135 225.888C160.893 225.888 161.554 226.059 162.119 226.4C162.695 226.731 163.143 227.195 163.463 227.792C163.783 228.389 163.943 229.088 163.943 229.888V230.512H157.879C157.901 231.205 158.13 231.76 158.567 232.176C159.015 232.581 159.57 232.784 160.231 232.784C160.85 232.784 161.314 232.645 161.623 232.368C161.943 232.091 162.189 231.771 162.359 231.408L163.719 232.112C163.57 232.411 163.351 232.725 163.063 233.056C162.786 233.387 162.418 233.664 161.959 233.888C161.501 234.112 160.914 234.224 160.199 234.224ZM157.895 229.248H162.263C162.221 228.651 162.007 228.187 161.623 227.856C161.239 227.515 160.738 227.344 160.119 227.344C159.501 227.344 158.994 227.515 158.599 227.856C158.215 228.187 157.981 228.651 157.895 229.248ZM165.927 234V226.112H167.543V227.04H167.799C167.927 226.709 168.13 226.469 168.407 226.32C168.695 226.16 169.047 226.08 169.463 226.08H170.407V227.568H169.399C168.866 227.568 168.428 227.717 168.087 228.016C167.746 228.304 167.575 228.752 167.575 229.36V234H165.927Z" fill="#E9FFFA" fill-opacity="0.5"/>
<path d="M42.8023 264L46.4923 257.646L42.8383 251.4H45.5383L48.0403 255.954H48.3643L50.8663 251.4H53.5663L49.9123 257.646L53.6023 264H50.9023L48.3643 259.338H48.0403L45.5023 264H42.8023ZM54.3862 264L58.0762 257.646L54.4222 251.4H57.1222L59.6242 255.954H59.9482L62.4502 251.4H65.1502L61.4962 257.646L65.1862 264H62.4862L59.9482 259.338H59.6242L57.0862 264H54.3862ZM65.9702 264L69.6602 257.646L66.0062 251.4H68.7062L71.2082 255.954H71.5322L74.0342 251.4H76.7342L73.0802 257.646L76.7702 264H74.0702L71.5322 259.338H71.2082L68.6702 264H65.9702ZM77.5542 264L81.2442 257.646L77.5902 251.4H80.2902L82.7922 255.954H83.1162L85.6182 251.4H88.3182L84.6642 257.646L88.3542 264H85.6542L83.1162 259.338H82.7922L80.2542 264H77.5542ZM93.7085 264L97.3985 257.646L93.7445 251.4H96.4445L98.9465 255.954H99.2705L101.773 251.4H104.473L100.819 257.646L104.509 264H101.809L99.2705 259.338H98.9465L96.4085 264H93.7085ZM105.292 264L108.982 257.646L105.328 251.4H108.028L110.53 255.954H110.854L113.356 251.4H116.056L112.402 257.646L116.092 264H113.392L110.854 259.338H110.53L107.992 264H105.292ZM121.447 264L125.137 257.646L121.483 251.4H124.183L126.685 255.954H127.009L129.511 251.4H132.211L128.557 257.646L132.247 264H129.547L127.009 259.338H126.685L124.147 264H121.447ZM133.031 264L136.721 257.646L133.067 251.4H135.767L138.269 255.954H138.593L141.095 251.4H143.795L140.141 257.646L143.831 264H141.131L138.593 259.338H138.269L135.731 264H133.031ZM144.615 264L148.305 257.646L144.651 251.4H147.351L149.853 255.954H150.177L152.679 251.4H155.379L151.725 257.646L155.415 264H152.715L150.177 259.338H149.853L147.315 264H144.615ZM165.017 264V253.092H164.693L163.001 257.088H160.589L163.163 251.4H167.321V264H165.017ZM169.268 264V262.488C169.268 261.612 169.412 260.886 169.7 260.31C169.988 259.722 170.402 259.242 170.942 258.87C171.494 258.486 172.166 258.174 172.958 257.934L174.164 257.556C174.608 257.412 174.98 257.238 175.28 257.034C175.58 256.818 175.808 256.56 175.964 256.26C176.132 255.96 176.216 255.618 176.216 255.234V255.162C176.216 254.562 176.012 254.088 175.604 253.74C175.196 253.38 174.638 253.2 173.93 253.2C173.234 253.2 172.67 253.392 172.238 253.776C171.818 254.148 171.608 254.688 171.608 255.396V255.72H169.304V255.432C169.304 254.52 169.508 253.746 169.916 253.11C170.324 252.474 170.876 251.988 171.572 251.652C172.28 251.316 173.066 251.148 173.93 251.148C174.794 251.148 175.574 251.316 176.27 251.652C176.966 251.976 177.512 252.438 177.908 253.038C178.316 253.626 178.52 254.322 178.52 255.126V255.306C178.52 256.11 178.352 256.794 178.016 257.358C177.692 257.91 177.248 258.366 176.684 258.726C176.12 259.074 175.478 259.362 174.758 259.59L173.606 259.95C173.09 260.106 172.688 260.28 172.4 260.472C172.112 260.652 171.908 260.856 171.788 261.084C171.68 261.3 171.626 261.564 171.626 261.876V261.948H178.412V264H169.268ZM184.671 264.252C183.723 264.252 182.883 264.084 182.151 263.748C181.419 263.412 180.843 262.932 180.423 262.308C180.015 261.672 179.811 260.922 179.811 260.058V259.734H182.115V259.986C182.115 260.658 182.349 261.198 182.817 261.606C183.285 262.002 183.903 262.2 184.671 262.2C185.451 262.2 186.051 262.014 186.471 261.642C186.903 261.27 187.119 260.802 187.119 260.238V260.058C187.119 259.674 187.023 259.362 186.831 259.122C186.639 258.882 186.381 258.708 186.057 258.6C185.733 258.48 185.367 258.42 184.959 258.42H182.439V255.9L186.507 253.74V253.452H180.135V251.4H189.063V254.46L185.265 256.476V256.764H185.931C186.495 256.764 187.041 256.878 187.569 257.106C188.109 257.334 188.553 257.688 188.901 258.168C189.249 258.636 189.423 259.248 189.423 260.004V260.22C189.423 261.036 189.225 261.75 188.829 262.362C188.433 262.962 187.875 263.43 187.155 263.766C186.447 264.09 185.619 264.252 184.671 264.252ZM196.81 264V261.444H190.618V258.78L194.974 251.4H199.114V259.392H201.202V261.444H199.114V264H196.81ZM192.814 259.392H196.81V252.876H196.486L192.814 259.104V259.392Z" fill="#E9FFFA"/>
<path d="M51.952 385.448C50.2667 385.448 48.7733 385.149 47.472 384.552C46.1707 383.955 45.1467 383.08 44.4 381.928C43.6747 380.755 43.312 379.336 43.312 377.672V376.872H46.736V377.672C46.736 379.251 47.2053 380.435 48.144 381.224C49.104 382.013 50.3733 382.408 51.952 382.408C53.552 382.408 54.7573 382.077 55.568 381.416C56.3787 380.733 56.784 379.859 56.784 378.792C56.784 378.088 56.592 377.512 56.208 377.064C55.8453 376.616 55.312 376.264 54.608 376.008C53.904 375.731 53.0613 375.475 52.08 375.24L50.896 374.952C49.4667 374.611 48.2293 374.195 47.184 373.704C46.1387 373.192 45.328 372.52 44.752 371.688C44.176 370.856 43.888 369.789 43.888 368.488C43.888 367.165 44.208 366.035 44.848 365.096C45.488 364.157 46.384 363.432 47.536 362.92C48.688 362.408 50.0427 362.152 51.6 362.152C53.1573 362.152 54.544 362.419 55.76 362.952C56.9973 363.485 57.968 364.275 58.672 365.32C59.3973 366.365 59.76 367.677 59.76 369.256V370.408H56.336V369.256C56.336 368.296 56.1333 367.517 55.728 366.92C55.344 366.323 54.7893 365.885 54.064 365.608C53.36 365.331 52.5387 365.192 51.6 365.192C50.2347 365.192 49.1787 365.48 48.432 366.056C47.6853 366.611 47.312 367.389 47.312 368.392C47.312 369.075 47.472 369.64 47.792 370.088C48.1333 370.515 48.624 370.867 49.264 371.144C49.904 371.421 50.6933 371.667 51.632 371.88L52.816 372.168C54.2667 372.488 55.5467 372.904 56.656 373.416C57.7653 373.907 58.6293 374.579 59.248 375.432C59.888 376.285 60.208 377.384 60.208 378.728C60.208 380.072 59.8667 381.245 59.184 382.248C58.5227 383.251 57.5733 384.04 56.336 384.616C55.0987 385.171 53.6373 385.448 51.952 385.448ZM50.352 388.712V358.888H53.52V388.712H50.352ZM62.844 385V382.312C62.844 380.755 63.1 379.464 63.612 378.44C64.124 377.395 64.86 376.541 65.82 375.88C66.8013 375.197 67.996 374.643 69.404 374.216L71.548 373.544C72.3373 373.288 72.9987 372.979 73.532 372.616C74.0653 372.232 74.4707 371.773 74.748 371.24C75.0467 370.707 75.196 370.099 75.196 369.416V369.288C75.196 368.221 74.8333 367.379 74.108 366.76C73.3827 366.12 72.3907 365.8 71.132 365.8C69.8947 365.8 68.892 366.141 68.124 366.824C67.3773 367.485 67.004 368.445 67.004 369.704V370.28H62.908V369.768C62.908 368.147 63.2707 366.771 63.996 365.64C64.7213 364.509 65.7027 363.645 66.94 363.048C68.1987 362.451 69.596 362.152 71.132 362.152C72.668 362.152 74.0547 362.451 75.292 363.048C76.5293 363.624 77.5 364.445 78.204 365.512C78.9293 366.557 79.292 367.795 79.292 369.224V369.544C79.292 370.973 78.9933 372.189 78.396 373.192C77.82 374.173 77.0307 374.984 76.028 375.624C75.0253 376.243 73.884 376.755 72.604 377.16L70.556 377.8C69.6387 378.077 68.924 378.387 68.412 378.728C67.9 379.048 67.5373 379.411 67.324 379.816C67.132 380.2 67.036 380.669 67.036 381.224V381.352H79.1V385H62.844ZM83.028 389.704V387.528H84.276C85.2573 387.528 85.748 387.037 85.748 386.056V385.032H85.204C84.3507 385.032 83.636 384.776 83.06 384.264C82.5053 383.752 82.228 383.101 82.228 382.312C82.228 381.459 82.5053 380.765 83.06 380.232C83.636 379.699 84.3507 379.432 85.204 379.432C86.0787 379.432 86.7933 379.709 87.348 380.264C87.9027 380.797 88.18 381.523 88.18 382.44V386.12C88.18 388.509 86.9853 389.704 84.596 389.704H83.028ZM99.6023 385.448C97.8529 385.448 96.3383 385.139 95.0583 384.52C93.7996 383.901 92.8289 383.027 92.1463 381.896C91.4636 380.765 91.1223 379.453 91.1223 377.96V377.64H95.2823V377.928C95.2823 378.995 95.6343 379.912 96.3383 380.68C97.0636 381.427 98.1303 381.8 99.5383 381.8C100.946 381.8 102.024 381.427 102.77 380.68C103.538 379.912 103.922 378.92 103.922 377.704V377.384C103.922 376.189 103.538 375.24 102.77 374.536C102.024 373.832 101.085 373.48 99.9543 373.48C99.3356 373.48 98.8236 373.565 98.4183 373.736C98.0129 373.907 97.6823 374.12 97.4263 374.376C97.1703 374.632 96.9569 374.888 96.7863 375.144H91.8263V362.6H107.122V366.312H95.9223V371.784H96.4983C96.7116 371.507 96.9996 371.24 97.3623 370.984C97.7249 370.728 98.1943 370.515 98.7703 370.344C99.3463 370.173 100.029 370.088 100.818 370.088C102.141 370.088 103.346 370.365 104.434 370.92C105.522 371.475 106.386 372.296 107.026 373.384C107.688 374.451 108.018 375.773 108.018 377.352V377.736C108.018 379.315 107.677 380.68 106.994 381.832C106.333 382.984 105.373 383.88 104.114 384.52C102.856 385.139 101.352 385.448 99.6023 385.448ZM119.462 385.448C116.816 385.448 114.694 384.723 113.094 383.272C111.494 381.8 110.694 379.581 110.694 376.616V370.984C110.694 368.104 111.494 365.917 113.094 364.424C114.694 362.909 116.816 362.152 119.462 362.152C122.128 362.152 124.251 362.909 125.83 364.424C127.43 365.917 128.23 368.104 128.23 370.984V376.616C128.23 379.581 127.43 381.8 125.83 383.272C124.251 384.723 122.128 385.448 119.462 385.448ZM119.462 381.8C121.062 381.8 122.235 381.363 122.982 380.488C123.75 379.613 124.134 378.365 124.134 376.744V370.792C124.134 369.149 123.707 367.912 122.854 367.08C122.022 366.227 120.891 365.8 119.462 365.8C117.99 365.8 116.838 366.237 116.006 367.112C115.195 367.987 114.79 369.213 114.79 370.792V376.744C114.79 378.429 115.174 379.699 115.942 380.552C116.731 381.384 117.904 381.8 119.462 381.8ZM140.212 385.448C137.566 385.448 135.444 384.723 133.844 383.272C132.244 381.8 131.444 379.581 131.444 376.616V370.984C131.444 368.104 132.244 365.917 133.844 364.424C135.444 362.909 137.566 362.152 140.212 362.152C142.878 362.152 145.001 362.909 146.58 364.424C148.18 365.917 148.98 368.104 148.98 370.984V376.616C148.98 379.581 148.18 381.8 146.58 383.272C145.001 384.723 142.878 385.448 140.212 385.448ZM140.212 381.8C141.812 381.8 142.985 381.363 143.732 380.488C144.5 379.613 144.884 378.365 144.884 376.744V370.792C144.884 369.149 144.457 367.912 143.604 367.08C142.772 366.227 141.641 365.8 140.212 365.8C138.74 365.8 137.588 366.237 136.756 367.112C135.945 367.987 135.54 369.213 135.54 370.792V376.744C135.54 378.429 135.924 379.699 136.692 380.552C137.481 381.384 138.654 381.8 140.212 381.8Z" fill="white"/>
</g>
<path d="M22 144H488H22ZM488 408C488 420.15 478.15 430 466 430H44C31.8497 430 22 420.15 22 408C22 413.523 29.1634 418 38 418H472C480.837 418 488 413.523 488 408ZM22 424V144V424ZM488 144V424V144Z" fill="url(#paint2_linear_195_7731)" mask="url(#path-142-inside-1_195_7731)"/>
<defs>
<filter id="filter0_d_195_7731" x="10" y="8" width="490" height="124" filterUnits="userSpaceOnUse" color-interpolation-filters="sRGB">
<feFlood flood-opacity="0" result="BackgroundImageFix"/>
<feColorMatrix in="SourceAlpha" type="matrix" values="0 0 0 0 0 0 0 0 0 0 0 0 0 0 0 0 0 0 127 0" result="hardAlpha"/>
<feOffset dy="-8"/>
<feGaussianBlur stdDeviation="16"/>
<feComposite in2="hardAlpha" operator="out"/>
<feColorMatrix type="matrix" values="0 0 0 0 0.266667 0 0 0 0 0.513726 0 0 0 0 0.454902 0 0 0 0.08 0"/>
<feBlend mode="normal" in2="BackgroundImageFix" result="effect1_dropShadow_195_7731"/>
<feBlend mode="normal" in="SourceGraphic" in2="effect1_dropShadow_195_7731" result="shape"/>
</filter>
<filter id="filter1_d_195_7731" x="0" y="56" width="510" height="124" filterUnits="userSpaceOnUse" color-interpolation-filters="sRGB">
<feFlood flood-opacity="0" result="BackgroundImageFix"/>
<feColorMatrix in="SourceAlpha" type="matrix" values="0 0 0 0 0 0 0 0 0 0 0 0 0 0 0 0 0 0 127 0" result="hardAlpha"/>
<feOffset dy="-8"/>
<feGaussianBlur stdDeviation="16"/>
<feComposite in2="hardAlpha" operator="out"/>
<feColorMatrix type="matrix" values="0 0 0 0 0.266667 0 0 0 0 0.513726 0 0 0 0 0.454902 0 0 0 0.12 0"/>
<feBlend mode="normal" in2="BackgroundImageFix" result="effect1_dropShadow_195_7731"/>
<feBlend mode="normal" in="SourceGraphic" in2="effect1_dropShadow_195_7731" result="shape"/>
</filter>
<linearGradient id="paint0_linear_195_7731" x1="348.083" y1="283.729" x2="88.7333" y2="283.729" gradientUnits="userSpaceOnUse">
<stop stop-color="#023A2C"/>
<stop offset="1" stop-color="#074637"/>
</linearGradient>
<radialGradient id="paint1_radial_195_7731" cx="0" cy="0" r="1" gradientUnits="userSpaceOnUse" gradientTransform="translate(386 424) rotate(90) scale(150.5)">
<stop stop-color="#DBFD00"/>
<stop offset="1" stop-color="#DBFD00" stop-opacity="0"/>
</radialGradient>
<linearGradient id="paint2_linear_195_7731" x1="22" y1="410" x2="488" y2="407" gradientUnits="userSpaceOnUse">
<stop stop-color="#FF6F1E"/>
<stop offset="1" stop-color="#FFA39D"/>
</linearGradient>
<clipPath id="clip0_195_7731">
<rect width="32" height="24" fill="white" transform="translate(58 64)"/>
</clipPath>
<clipPath id="clip1_195_7731">
<rect width="32" height="24" fill="white" transform="translate(48 112)"/>
</clipPath>
<clipPath id="clip2_195_7731">
<path d="M22 176C22 160.915 22 153.373 26.6863 148.686C31.3726 144 38.9151 144 54 144H456C471.085 144 478.627 144 483.314 148.686C488 153.373 488 160.915 488 176V392C488 407.085 488 414.627 483.314 419.314C478.627 424 471.085 424 456 424H54C38.9151 424 31.3726 424 26.6863 419.314C22 414.627 22 407.085 22 392V176Z" fill="white"/>
</clipPath>
<clipPath id="clip3_195_7731">
<rect width="32" height="24" fill="white" transform="translate(37.6699 164.5)"/>
</clipPath>
</defs>
</svg>
