<svg width="64" height="64" viewBox="0 0 64 64" fill="none" xmlns="http://www.w3.org/2000/svg">
<g filter="url(#filter0_i_195_8040)">
<path d="M57.2817 46.9335C56.2911 45.8668 55.0466 45.3335 53.5988 45.3335H35.819L30.5359 43.3868L31.3741 41.8802L35.8191 43.6668H42.9309C43.8199 43.6668 44.5311 42.2935 45.1153 41.6802C45.6995 41.0668 45.9789 40.3202 45.9789 39.4935C45.9789 38.0535 45.3185 37.0668 43.9977 36.5068L25.5322 29.3335H23.2459V53.3335L38.359 58.6668L58.7549 50.6668C58.7803 49.2535 58.2723 48.0002 57.2817 46.9335Z" fill="white"/>
</g>
<path d="M10.166 29.3335V58.6668M57.2817 46.9335C56.2911 45.8668 55.0466 45.3335 53.5988 45.3335H35.819L30.5359 43.3868L31.3741 41.8802L35.8191 43.6668H42.9309C43.8199 43.6668 44.5311 42.2935 45.1153 41.6802C45.6995 41.0668 45.9789 40.3202 45.9789 39.4935C45.9789 38.0535 45.3185 37.0668 43.9977 36.5068L25.5322 29.3335H23.2459V53.3335L38.359 58.6668L58.7549 50.6668C58.7803 49.2535 58.2723 48.0002 57.2817 46.9335Z" stroke="#04130F" stroke-width="2" stroke-linecap="round" stroke-linejoin="round"/>
<g filter="url(#filter1_i_195_8040)">
<path d="M48.0007 23.9998C53.8887 23.9998 58.6673 19.2212 58.6673 13.3332C58.6673 7.44517 53.8887 2.6665 48.0007 2.6665C42.1127 2.6665 37.334 7.44517 37.334 13.3332C37.334 19.2212 42.1127 23.9998 48.0007 23.9998Z" fill="white"/>
</g>
<path d="M48.0007 23.9998C53.8887 23.9998 58.6673 19.2212 58.6673 13.3332C58.6673 7.44517 53.8887 2.6665 48.0007 2.6665C42.1127 2.6665 37.334 7.44517 37.334 13.3332C37.334 19.2212 42.1127 23.9998 48.0007 23.9998Z" stroke="#04130F" stroke-width="2" stroke-linecap="round" stroke-linejoin="round"/>
<defs>
<filter id="filter0_i_195_8040" x="9.16602" y="28.3335" width="50.5898" height="31.3333" filterUnits="userSpaceOnUse" color-interpolation-filters="sRGB">
<feFlood flood-opacity="0" result="BackgroundImageFix"/>
<feBlend mode="normal" in="SourceGraphic" in2="BackgroundImageFix" result="shape"/>
<feColorMatrix in="SourceAlpha" type="matrix" values="0 0 0 0 0 0 0 0 0 0 0 0 0 0 0 0 0 0 127 0" result="hardAlpha"/>
<feOffset dy="-8"/>
<feComposite in2="hardAlpha" operator="arithmetic" k2="-1" k3="1"/>
<feColorMatrix type="matrix" values="0 0 0 0 0.858824 0 0 0 0 0.992157 0 0 0 0 0 0 0 0 1 0"/>
<feBlend mode="normal" in2="shape" result="effect1_innerShadow_195_8040"/>
</filter>
<filter id="filter1_i_195_8040" x="36.334" y="1.6665" width="23.334" height="23.3333" filterUnits="userSpaceOnUse" color-interpolation-filters="sRGB">
<feFlood flood-opacity="0" result="BackgroundImageFix"/>
<feBlend mode="normal" in="SourceGraphic" in2="BackgroundImageFix" result="shape"/>
<feColorMatrix in="SourceAlpha" type="matrix" values="0 0 0 0 0 0 0 0 0 0 0 0 0 0 0 0 0 0 127 0" result="hardAlpha"/>
<feOffset dy="-8"/>
<feComposite in2="hardAlpha" operator="arithmetic" k2="-1" k3="1"/>
<feColorMatrix type="matrix" values="0 0 0 0 0.858824 0 0 0 0 0.992157 0 0 0 0 0 0 0 0 1 0"/>
<feBlend mode="normal" in2="shape" result="effect1_innerShadow_195_8040"/>
</filter>
</defs>
</svg>
