<svg width="24" height="24" viewBox="0 0 24 24" fill="none" xmlns="http://www.w3.org/2000/svg">
<path d="M11.3002 0.6857C11.689 0.304754 12.311 0.304754 12.6998 0.6857L14.1441 2.10071C14.394 2.34564 14.7539 2.44206 15.0928 2.35493L17.0511 1.8516C17.5783 1.7161 18.117 2.02714 18.2632 2.55145L18.8065 4.49899C18.9005 4.8361 19.1639 5.09952 19.501 5.19355L21.4485 5.73676C21.9729 5.88301 22.2839 6.42175 22.1484 6.94894L21.6451 8.90716C21.5579 9.24612 21.6544 9.60596 21.8993 9.85595L23.3143 11.3002C23.6952 11.689 23.6952 12.311 23.3143 12.6998L21.8993 14.1441C21.6544 14.394 21.5579 14.7539 21.6451 15.0928L22.1484 17.0511C22.2839 17.5783 21.9729 18.117 21.4485 18.2632L19.501 18.8065C19.1639 18.9005 18.9005 19.1639 18.8065 19.501L18.2632 21.4485C18.117 21.9729 17.5783 22.2839 17.0511 22.1484L15.0928 21.6451C14.7539 21.5579 14.394 21.6544 14.1441 21.8993L12.6998 23.3143C12.311 23.6952 11.689 23.6952 11.3002 23.3143L9.85595 21.8993C9.60596 21.6544 9.24612 21.5579 8.90716 21.6451L6.94894 22.1484C6.42175 22.2839 5.88301 21.9729 5.73676 21.4485L5.19355 19.501C5.09952 19.1639 4.8361 18.9005 4.49899 18.8065L2.55145 18.2632C2.02714 18.117 1.7161 17.5783 1.8516 17.0511L2.35493 15.0928C2.44206 14.7539 2.34564 14.394 2.10071 14.1441L0.6857 12.6998C0.304754 12.311 0.304754 11.689 0.6857 11.3002L2.10071 9.85595C2.34564 9.60596 2.44206 9.24612 2.35493 8.90716L1.8516 6.94894C1.7161 6.42175 2.02714 5.88301 2.55145 5.73676L4.49899 5.19355C4.8361 5.09952 5.09952 4.8361 5.19355 4.49899L5.73676 2.55145C5.88301 2.02714 6.42175 1.7161 6.94894 1.8516L8.90716 2.35493C9.24612 2.44206 9.60596 2.34564 9.85595 2.10071L11.3002 0.6857Z" fill="#61727C"/>
</svg>
