<svg width="139" height="48" viewBox="0 0 139 48" fill="none" xmlns="http://www.w3.org/2000/svg">
<path fill-rule="evenodd" clip-rule="evenodd" d="M11.4316 9.72387V16.2271H19.8858V23.7832H11.4316V47.1948H3.87548V23.7832H0.5V16.2271H3.87548V9.72387C3.87548 7.94839 4.30903 6.32774 5.17613 4.86193C6.06387 3.37548 7.25097 2.19871 8.73742 1.33161C10.2239 0.443871 11.8652 0 13.6613 0C14.9619 0 16.2523 0.268387 17.5323 0.805162C18.8123 1.34193 19.9477 2.16774 20.9387 3.28258L15.4884 8.60903C15.3026 8.25806 15.0342 8 14.6832 7.83484C14.3529 7.64903 14.0123 7.55613 13.6613 7.55613C13.0626 7.55613 12.5361 7.7729 12.0819 8.20645C11.6484 8.61935 11.4316 9.12516 11.4316 9.72387ZM24.7444 16.2271H32.3005V47.1948H24.7444V16.2271ZM28.5844 12.2323C27.4695 12.2323 26.5302 11.871 25.7663 11.1484C25.0024 10.4052 24.6205 9.47613 24.6205 8.36129C24.6205 7.2671 25.0024 6.34839 25.7663 5.60516C26.5302 4.86193 27.4592 4.49032 28.5534 4.49032C29.6476 4.49032 30.5663 4.86193 31.3095 5.60516C32.0734 6.34839 32.4553 7.2671 32.4553 8.36129C32.4553 9.47613 32.0837 10.4052 31.3405 11.1484C30.5973 11.871 29.6785 12.2323 28.5844 12.2323ZM69.9863 0.743224H62.4302V20.0981C61.4392 18.6942 60.1902 17.569 58.6831 16.7226C57.176 15.8555 55.4314 15.4219 53.4495 15.4219C51.1992 15.4219 49.0934 15.8452 47.1321 16.6916C45.1708 17.5381 43.4366 18.7148 41.9295 20.2219C40.4431 21.7084 39.2766 23.4323 38.4302 25.3935C37.5837 27.3548 37.1605 29.4606 37.1605 31.711C37.1605 33.9613 37.5837 36.0671 38.4302 38.0284C39.2766 39.9897 40.4431 41.7239 41.9295 43.231C43.4366 44.7174 45.1708 45.8839 47.1321 46.7303C49.0934 47.5768 51.1992 48 53.4495 48C55.4314 48 57.176 47.5665 58.6831 46.6994C60.1902 45.8323 61.4392 44.7071 62.4302 43.3239V47.1948H69.9863V0.743224ZM57.816 39.5148C56.5773 40.32 55.1527 40.7226 53.5424 40.7226C51.9734 40.7226 50.5282 40.32 49.2069 39.5148C47.9063 38.7097 46.8637 37.6258 46.0792 36.2632C45.2947 34.9006 44.9024 33.3832 44.9024 31.711C44.9024 30.0387 45.2844 28.5213 46.0482 27.1587C46.8327 25.7961 47.8753 24.7123 49.176 23.9071C50.4972 23.0813 51.9527 22.6684 53.5424 22.6684C55.1321 22.6684 56.5463 23.071 57.785 23.8761C59.0443 24.6813 60.025 25.7755 60.7269 27.1587C61.4289 28.5213 61.7798 30.0387 61.7798 31.711C61.7798 33.3626 61.4289 34.88 60.7269 36.2632C60.025 37.6258 59.0547 38.7097 57.816 39.5148ZM90.5677 48C87.7187 48 85.1174 47.2671 82.7639 45.8013C80.431 44.3355 78.5626 42.3639 77.1587 39.8864C75.7755 37.409 75.0839 34.6735 75.0839 31.68C75.0839 29.4297 75.4864 27.3239 76.2916 25.3626C77.0968 23.3806 78.2013 21.6465 79.6051 20.16C81.0297 18.6529 82.6813 17.4761 84.56 16.6297C86.4387 15.7832 88.4413 15.36 90.5677 15.36C92.9832 15.36 95.1922 15.8761 97.1948 16.9084C99.2181 17.92 100.932 19.3135 102.335 21.089C103.739 22.8645 104.761 24.8877 105.401 27.1587C106.041 29.4297 106.186 31.8039 105.835 34.2813H83.1974C83.4864 35.4374 83.9613 36.48 84.6219 37.409C85.2826 38.3174 86.1187 39.0503 87.1303 39.6077C88.1419 40.1445 89.2877 40.4232 90.5677 40.4439C91.889 40.4645 93.0864 40.1548 94.16 39.5148C95.2542 38.8542 96.1626 37.9664 96.8852 36.8516L104.596 38.6477C103.337 41.3935 101.458 43.6439 98.96 45.3987C96.4619 47.1329 93.6645 48 90.5677 48ZM82.9497 28.6142H98.1858C97.9587 27.3755 97.4735 26.2606 96.7303 25.2697C96.0077 24.2581 95.1097 23.4529 94.0361 22.8542C92.9626 22.2555 91.8064 21.9561 90.5677 21.9561C89.329 21.9561 88.1832 22.2555 87.1303 22.8542C86.0774 23.4323 85.1793 24.2271 84.4361 25.2387C83.7135 26.2297 83.2181 27.3548 82.9497 28.6142ZM116.816 45.8013C119.17 47.2671 121.771 48 124.62 48C126.767 48 128.77 47.5768 130.628 46.7303C132.507 45.8839 134.148 44.7174 135.552 43.231C136.976 41.7239 138.091 39.9897 138.896 38.0284C138.901 38.017 138.906 38.0055 138.91 37.9941C138.774 37.998 138.637 38 138.5 38C135.935 38 133.531 37.3102 131.464 36.1061C130.785 37.3998 129.856 38.4431 128.677 39.2361C127.479 40.0413 126.127 40.4439 124.62 40.4439C123.196 40.4439 121.874 40.0619 120.656 39.2981C119.459 38.5135 118.499 37.4606 117.776 36.1394C117.054 34.8181 116.692 33.3419 116.692 31.711C116.692 30.1419 117.043 28.6865 117.745 27.3445C118.447 26.0026 119.397 24.929 120.594 24.1239C121.771 23.333 123.086 22.9305 124.541 22.9165C124.751 20.1788 125.748 17.6614 127.306 15.5905C126.438 15.4368 125.543 15.36 124.62 15.36C122.494 15.36 120.491 15.7832 118.612 16.6297C116.734 17.4761 115.082 18.6529 113.658 20.16C112.254 21.6465 111.149 23.3806 110.344 25.3626C109.539 27.3239 109.136 29.44 109.136 31.711C109.136 34.7045 109.828 37.44 111.211 39.9174C112.615 42.3742 114.483 44.3355 116.816 45.8013Z" fill="#ECF0EF"/>
</svg>
