<svg width="70" height="24" viewBox="0 0 70 24" fill="none" xmlns="http://www.w3.org/2000/svg">
<path fill-rule="evenodd" clip-rule="evenodd" d="M5.46581 4.86194V8.11355H9.6929V11.8916H5.46581V23.5974H1.68774V11.8916H0V8.11355H1.68774V4.86194C1.68774 3.97419 1.90452 3.16387 2.33806 2.43097C2.78194 1.68774 3.37548 1.09936 4.11871 0.665806C4.86194 0.221935 5.68258 0 6.58065 0C7.23097 0 7.87613 0.134194 8.51613 0.402581C9.15613 0.670967 9.72387 1.08387 10.2194 1.64129L7.49419 4.30452C7.40129 4.12903 7.2671 4 7.09161 3.91742C6.92645 3.82452 6.75613 3.77806 6.58065 3.77806C6.28129 3.77806 6.01806 3.88645 5.79097 4.10323C5.57419 4.30968 5.46581 4.56258 5.46581 4.86194ZM12.1222 8.11355H15.9002V23.5974H12.1222V8.11355ZM14.0422 6.11613C13.4848 6.11613 13.0151 5.93548 12.6331 5.57419C12.2512 5.20258 12.0602 4.73806 12.0602 4.18064C12.0602 3.63355 12.2512 3.17419 12.6331 2.80258C13.0151 2.43097 13.4796 2.24516 14.0267 2.24516C14.5738 2.24516 15.0331 2.43097 15.4048 2.80258C15.7867 3.17419 15.9777 3.63355 15.9777 4.18064C15.9777 4.73806 15.7919 5.20258 15.4202 5.57419C15.0486 5.93548 14.5893 6.11613 14.0422 6.11613ZM34.7431 0.371612H30.9651V10.049C30.4696 9.3471 29.8451 8.78452 29.0915 8.36129C28.338 7.92774 27.4657 7.71097 26.4748 7.71097C25.3496 7.71097 24.2967 7.92258 23.316 8.34581C22.3354 8.76903 21.4683 9.35742 20.7148 10.111C19.9715 10.8542 19.3883 11.7161 18.9651 12.6968C18.5419 13.6774 18.3302 14.7303 18.3302 15.8555C18.3302 16.9806 18.5419 18.0335 18.9651 19.0142C19.3883 19.9948 19.9715 20.8619 20.7148 21.6155C21.4683 22.3587 22.3354 22.9419 23.316 23.3652C24.2967 23.7884 25.3496 24 26.4748 24C27.4657 24 28.338 23.7832 29.0915 23.3497C29.8451 22.9161 30.4696 22.3535 30.9651 21.6619V23.5974H34.7431V0.371612ZM28.658 19.7574C28.0386 20.16 27.3264 20.3613 26.5212 20.3613C25.7367 20.3613 25.0141 20.16 24.3535 19.7574C23.7031 19.3548 23.1819 18.8129 22.7896 18.1316C22.3973 17.4503 22.2012 16.6916 22.2012 15.8555C22.2012 15.0194 22.3922 14.2606 22.7741 13.5794C23.1664 12.8981 23.6877 12.3561 24.338 11.9535C24.9986 11.5406 25.7264 11.3342 26.5212 11.3342C27.316 11.3342 28.0231 11.5355 28.6425 11.9381C29.2722 12.3406 29.7625 12.8877 30.1135 13.5794C30.4644 14.2606 30.6399 15.0194 30.6399 15.8555C30.6399 16.6813 30.4644 17.44 30.1135 18.1316C29.7625 18.8129 29.2773 19.3548 28.658 19.7574ZM45.0339 24C43.6093 24 42.3087 23.6335 41.1319 22.9006C39.9655 22.1677 39.0313 21.1819 38.3294 19.9432C37.6377 18.7045 37.2919 17.3368 37.2919 15.84C37.2919 14.7148 37.4932 13.6619 37.8958 12.6813C38.2984 11.6903 38.8506 10.8232 39.5526 10.08C40.2648 9.32645 41.0906 8.73806 42.03 8.31484C42.9693 7.89161 43.9706 7.68 45.0339 7.68C46.2416 7.68 47.3461 7.93806 48.3474 8.45419C49.359 8.96 50.2158 9.65677 50.9177 10.5445C51.6197 11.4323 52.1306 12.4439 52.4506 13.5794C52.7706 14.7148 52.8429 15.9019 52.6674 17.1406H41.3487C41.4932 17.7187 41.7306 18.24 42.061 18.7045C42.3913 19.1587 42.8093 19.5252 43.3152 19.8039C43.821 20.0723 44.3939 20.2116 45.0339 20.2219C45.6945 20.2323 46.2932 20.0774 46.83 19.7574C47.3771 19.4271 47.8313 18.9832 48.1926 18.4258L52.0481 19.3239C51.4184 20.6968 50.479 21.8219 49.23 22.6994C47.981 23.5665 46.5823 24 45.0339 24ZM41.2248 14.3071H48.8429C48.7294 13.6877 48.4868 13.1303 48.1152 12.6348C47.7539 12.129 47.3048 11.7265 46.7681 11.4271C46.2313 11.1277 45.6532 10.9781 45.0339 10.9781C44.4145 10.9781 43.8416 11.1277 43.3152 11.4271C42.7887 11.7161 42.3397 12.1135 41.9681 12.6194C41.6068 13.1148 41.359 13.6774 41.2248 14.3071ZM58.1581 22.9006C59.3349 23.6335 60.6356 24 62.0601 24C63.1336 24 64.1349 23.7884 65.0639 23.3652C66.0033 22.9419 66.8239 22.3587 67.5259 21.6155C68.2381 20.8619 68.7956 19.9948 69.1981 19.0142C69.2005 19.0085 69.2028 19.0028 69.2051 18.997C69.137 18.999 69.0686 19 69 19C67.7176 19 66.5156 18.6551 65.482 18.0531C65.1426 18.6999 64.6781 19.2216 64.0885 19.6181C63.4897 20.0206 62.8136 20.2219 62.0601 20.2219C61.3478 20.2219 60.6872 20.031 60.0781 19.649C59.4794 19.2568 58.9994 18.7303 58.6381 18.0697C58.2769 17.409 58.0962 16.671 58.0962 15.8555C58.0962 15.071 58.2717 14.3432 58.6227 13.6723C58.9736 13.0013 59.4485 12.4645 60.0472 12.0619C60.6353 11.6665 61.2931 11.4653 62.0207 11.4583C62.1254 10.0894 62.6239 8.83072 63.4031 7.79523C62.9689 7.71841 62.5213 7.68 62.0601 7.68C60.9968 7.68 59.9956 7.89161 59.0562 8.31484C58.1169 8.73806 57.291 9.32645 56.5788 10.08C55.8768 10.8232 55.3246 11.6903 54.922 12.6813C54.5194 13.6619 54.3181 14.72 54.3181 15.8555C54.3181 17.3523 54.6639 18.72 55.3556 19.9587C56.0575 21.1871 56.9917 22.1677 58.1581 22.9006Z" fill="white"/>
</svg>
