<svg width="100%" height="212" xmlns="http://www.w3.org/2000/svg" fill="none" viewBox="0 0 251 212"><path d="M6 0L12 10H0L6 0Z" fill="#1E5151"></path><path d="M18.5781 0L24.5781 10H12.5781L18.5781 0Z" fill="#1E5151"></path><path d="M31.1582 0L37.1582 10H25.1582L31.1582 0Z" fill="#1E5151"></path><path d="M43.7363 0L49.7363 10H37.7363L43.7363 0Z" fill="#1E5151"></path><path d="M56.3164 0L62.3164 10H50.3164L56.3164 0Z" fill="#1E5151"></path><path d="M68.8945 0L74.8945 10H62.8945L68.8945 0Z" fill="#1E5151"></path><path d="M81.4746 0L87.4746 10H75.4746L81.4746 0Z" fill="#1E5151"></path><path d="M94.0527 0L100.053 10H88.0527L94.0527 0Z" fill="#1E5151"></path><path d="M106.631 0L112.631 10H100.631L106.631 0Z" fill="#1E5151"></path><path d="M119.211 0L125.211 10H113.211L119.211 0Z" fill="#1E5151"></path><path d="M131.789 0L137.789 10H125.789L131.789 0Z" fill="#1E5151"></path><path d="M144.369 0L150.369 10H138.369L144.369 0Z" fill="#1E5151"></path><path d="M156.947 0L162.947 10H150.947L156.947 0Z" fill="#1E5151"></path><path d="M169.525 0L175.525 10H163.525L169.525 0Z" fill="#1E5151"></path><path d="M182.105 0L188.105 10H176.105L182.105 0Z" fill="#1E5151"></path><path d="M194.684 0L200.684 10H188.684L194.684 0Z" fill="#1E5151"></path><path d="M207.264 0L213.264 10H201.264L207.264 0Z" fill="#1E5151"></path><path d="M219.842 0L225.842 10H213.842L219.842 0Z" fill="#1E5151"></path><path d="M232.422 0L238.422 10H226.422L232.422 0Z" fill="#1E5151"></path><path d="M245 0L251 10H239L245 0Z" fill="#1E5151"></path><rect y="10" width="251" height="192" fill="url(#paint0_linear_206_432)"></rect><path d="M6 212L12 202H0L6 212Z" fill="#1E7777"></path><path d="M18.5781 212L24.5781 202H12.5781L18.5781 212Z" fill="#1E7777"></path><path d="M31.1582 212L37.1582 202H25.1582L31.1582 212Z" fill="#1E7777"></path><path d="M43.7363 212L49.7363 202H37.7363L43.7363 212Z" fill="#1E7777"></path><path d="M56.3164 212L62.3164 202H50.3164L56.3164 212Z" fill="#1E7777"></path><path d="M68.8945 212L74.8945 202H62.8945L68.8945 212Z" fill="#1E7777"></path><path d="M81.4746 212L87.4746 202H75.4746L81.4746 212Z" fill="#1E7777"></path><path d="M94.0527 212L100.053 202H88.0527L94.0527 212Z" fill="#1E7777"></path><path d="M106.631 212L112.631 202H100.631L106.631 212Z" fill="#1E7777"></path><path d="M119.211 212L125.211 202H113.211L119.211 212Z" fill="#1E7777"></path><path d="M131.789 212L137.789 202H125.789L131.789 212Z" fill="#1E7777"></path><path d="M144.369 212L150.369 202H138.369L144.369 212Z" fill="#1E7777"></path><path d="M156.947 212L162.947 202H150.947L156.947 212Z" fill="#1E7777"></path><path d="M169.525 212L175.525 202H163.525L169.525 212Z" fill="#1E7777"></path><path d="M182.105 212L188.105 202H176.105L182.105 212Z" fill="#1E7777"></path><path d="M194.684 212L200.684 202H188.684L194.684 212Z" fill="#1E7777"></path><path d="M207.264 212L213.264 202H201.264L207.264 212Z" fill="#1E7777"></path><path d="M219.842 212L225.842 202H213.842L219.842 212Z" fill="#1E7777"></path><path d="M232.422 212L238.422 202H226.422L232.422 212Z" fill="#1E7777"></path><path d="M245 212L251 202H239L245 212Z" fill="#1E7777"></path><g filter="url(#filter0_d_206_432)"><rect x="68" y="30" width="116" height="140" rx="12" fill="#B7E2E0" shape-rendering="crispEdges"></rect><path d="M83.984 54.168C82.944 54.168 82.12 53.88 81.512 53.304C80.904 52.72 80.6 51.888 80.6 50.808V48.792C80.6 47.712 80.904 46.884 81.512 46.308C82.12 45.724 82.944 45.432 83.984 45.432C85.016 45.432 85.812 45.716 86.372 46.284C86.94 46.844 87.224 47.616 87.224 48.6V48.672H85.664V48.552C85.664 48.056 85.524 47.648 85.244 47.328C84.972 47.008 84.552 46.848 83.984 46.848C83.424 46.848 82.984 47.02 82.664 47.364C82.344 47.708 82.184 48.176 82.184 48.768V50.832C82.184 51.416 82.344 51.884 82.664 52.236C82.984 52.58 83.424 52.752 83.984 52.752C84.552 52.752 84.972 52.592 85.244 52.272C85.524 51.944 85.664 51.536 85.664 51.048V50.832H87.224V51C87.224 51.984 86.94 52.76 86.372 53.328C85.812 53.888 85.016 54.168 83.984 54.168ZM88.5627 54V48.048H90.0507V48.72H90.2667C90.3547 48.48 90.4987 48.304 90.6987 48.192C90.9067 48.08 91.1467 48.024 91.4187 48.024H92.1387V49.368H91.3947C91.0107 49.368 90.6947 49.472 90.4467 49.68C90.1987 49.88 90.0747 50.192 90.0747 50.616V54H88.5627ZM95.8215 54.168C95.2295 54.168 94.7055 54.044 94.2495 53.796C93.8015 53.54 93.4495 53.184 93.1935 52.728C92.9455 52.264 92.8215 51.72 92.8215 51.096V50.952C92.8215 50.328 92.9455 49.788 93.1935 49.332C93.4415 48.868 93.7895 48.512 94.2375 48.264C94.6855 48.008 95.2055 47.88 95.7975 47.88C96.3815 47.88 96.8895 48.012 97.3215 48.276C97.7535 48.532 98.0895 48.892 98.3295 49.356C98.5695 49.812 98.6895 50.344 98.6895 50.952V51.468H94.3575C94.3735 51.876 94.5255 52.208 94.8135 52.464C95.1015 52.72 95.4535 52.848 95.8695 52.848C96.2935 52.848 96.6055 52.756 96.8055 52.572C97.0055 52.388 97.1575 52.184 97.2615 51.96L98.4975 52.608C98.3855 52.816 98.2215 53.044 98.0055 53.292C97.7975 53.532 97.5175 53.74 97.1655 53.916C96.8135 54.084 96.3655 54.168 95.8215 54.168ZM94.3695 50.34H97.1535C97.1215 49.996 96.9815 49.72 96.7335 49.512C96.4935 49.304 96.1775 49.2 95.7855 49.2C95.3775 49.2 95.0535 49.304 94.8135 49.512C94.5735 49.72 94.4255 49.996 94.3695 50.34ZM101.883 54.168C101.459 54.168 101.079 54.096 100.743 53.952C100.407 53.8 100.139 53.584 99.9393 53.304C99.7473 53.016 99.6513 52.668 99.6513 52.26C99.6513 51.852 99.7473 51.512 99.9393 51.24C100.139 50.96 100.411 50.752 100.755 50.616C101.107 50.472 101.507 50.4 101.955 50.4H103.587V50.064C103.587 49.784 103.499 49.556 103.323 49.38C103.147 49.196 102.867 49.104 102.483 49.104C102.107 49.104 101.827 49.192 101.643 49.368C101.459 49.536 101.339 49.756 101.283 50.028L99.8913 49.56C99.9873 49.256 100.139 48.98 100.347 48.732C100.563 48.476 100.847 48.272 101.199 48.12C101.559 47.96 101.995 47.88 102.507 47.88C103.291 47.88 103.911 48.076 104.367 48.468C104.823 48.86 105.051 49.428 105.051 50.172V52.392C105.051 52.632 105.163 52.752 105.387 52.752H105.867V54H104.859C104.563 54 104.319 53.928 104.127 53.784C103.935 53.64 103.839 53.448 103.839 53.208V53.196H103.611C103.579 53.292 103.507 53.42 103.395 53.58C103.283 53.732 103.107 53.868 102.867 53.988C102.627 54.108 102.299 54.168 101.883 54.168ZM102.147 52.944C102.571 52.944 102.915 52.828 103.179 52.596C103.451 52.356 103.587 52.04 103.587 51.648V51.528H102.063C101.783 51.528 101.563 51.588 101.403 51.708C101.243 51.828 101.163 51.996 101.163 52.212C101.163 52.428 101.247 52.604 101.415 52.74C101.583 52.876 101.827 52.944 102.147 52.944ZM108.819 54C108.427 54 108.107 53.88 107.859 53.64C107.619 53.392 107.499 53.064 107.499 52.656V49.296H106.011V48.048H107.499V46.2H109.011V48.048H110.643V49.296H109.011V52.392C109.011 52.632 109.123 52.752 109.347 52.752H110.499V54H108.819ZM114.513 54.168C113.921 54.168 113.397 54.044 112.941 53.796C112.493 53.54 112.141 53.184 111.885 52.728C111.637 52.264 111.513 51.72 111.513 51.096V50.952C111.513 50.328 111.637 49.788 111.885 49.332C112.133 48.868 112.481 48.512 112.929 48.264C113.377 48.008 113.897 47.88 114.489 47.88C115.073 47.88 115.581 48.012 116.013 48.276C116.445 48.532 116.781 48.892 117.021 49.356C117.261 49.812 117.381 50.344 117.381 50.952V51.468H113.049C113.065 51.876 113.217 52.208 113.505 52.464C113.793 52.72 114.145 52.848 114.561 52.848C114.985 52.848 115.297 52.756 115.497 52.572C115.697 52.388 115.849 52.184 115.953 51.96L117.189 52.608C117.077 52.816 116.913 53.044 116.697 53.292C116.489 53.532 116.209 53.74 115.857 53.916C115.505 54.084 115.057 54.168 114.513 54.168ZM113.061 50.34H115.845C115.813 49.996 115.673 49.72 115.425 49.512C115.185 49.304 114.869 49.2 114.477 49.2C114.069 49.2 113.745 49.304 113.505 49.512C113.265 49.72 113.117 49.996 113.061 50.34ZM121.726 54V45.6H123.31V54H121.726ZM124.938 54V48.048H126.426V48.828H126.642C126.738 48.62 126.918 48.424 127.182 48.24C127.446 48.048 127.846 47.952 128.382 47.952C128.846 47.952 129.25 48.06 129.594 48.276C129.946 48.484 130.218 48.776 130.41 49.152C130.602 49.52 130.698 49.952 130.698 50.448V54H129.186V50.568C129.186 50.12 129.074 49.784 128.85 49.56C128.634 49.336 128.322 49.224 127.914 49.224C127.45 49.224 127.09 49.38 126.834 49.692C126.578 49.996 126.45 50.424 126.45 50.976V54H124.938ZM133.416 54L131.52 48.048H133.128L134.508 52.896H134.724L136.104 48.048H137.712L135.816 54H133.416ZM141.399 54.168C140.807 54.168 140.275 54.048 139.803 53.808C139.331 53.568 138.959 53.22 138.687 52.764C138.415 52.308 138.279 51.76 138.279 51.12V50.928C138.279 50.288 138.415 49.74 138.687 49.284C138.959 48.828 139.331 48.48 139.803 48.24C140.275 48 140.807 47.88 141.399 47.88C141.991 47.88 142.523 48 142.995 48.24C143.467 48.48 143.839 48.828 144.111 49.284C144.383 49.74 144.519 50.288 144.519 50.928V51.12C144.519 51.76 144.383 52.308 144.111 52.764C143.839 53.22 143.467 53.568 142.995 53.808C142.523 54.048 141.991 54.168 141.399 54.168ZM141.399 52.824C141.863 52.824 142.247 52.676 142.551 52.38C142.855 52.076 143.007 51.644 143.007 51.084V50.964C143.007 50.404 142.855 49.976 142.551 49.68C142.255 49.376 141.871 49.224 141.399 49.224C140.935 49.224 140.551 49.376 140.247 49.68C139.943 49.976 139.791 50.404 139.791 50.964V51.084C139.791 51.644 139.943 52.076 140.247 52.38C140.551 52.676 140.935 52.824 141.399 52.824ZM145.914 54V48.048H147.426V54H145.914ZM146.67 47.352C146.398 47.352 146.166 47.264 145.974 47.088C145.79 46.912 145.698 46.68 145.698 46.392C145.698 46.104 145.79 45.872 145.974 45.696C146.166 45.52 146.398 45.432 146.67 45.432C146.95 45.432 147.182 45.52 147.366 45.696C147.55 45.872 147.642 46.104 147.642 46.392C147.642 46.68 147.55 46.912 147.366 47.088C147.182 47.264 146.95 47.352 146.67 47.352ZM151.898 54.168C151.322 54.168 150.798 54.048 150.326 53.808C149.862 53.568 149.494 53.22 149.222 52.764C148.95 52.308 148.814 51.756 148.814 51.108V50.94C148.814 50.292 148.95 49.74 149.222 49.284C149.494 48.828 149.862 48.48 150.326 48.24C150.798 48 151.322 47.88 151.898 47.88C152.466 47.88 152.954 47.98 153.362 48.18C153.77 48.38 154.098 48.656 154.346 49.008C154.602 49.352 154.77 49.744 154.85 50.184L153.386 50.496C153.354 50.256 153.282 50.04 153.17 49.848C153.058 49.656 152.898 49.504 152.69 49.392C152.49 49.28 152.238 49.224 151.934 49.224C151.63 49.224 151.354 49.292 151.106 49.428C150.866 49.556 150.674 49.752 150.53 50.016C150.394 50.272 150.326 50.588 150.326 50.964V51.084C150.326 51.46 150.394 51.78 150.53 52.044C150.674 52.3 150.866 52.496 151.106 52.632C151.354 52.76 151.63 52.824 151.934 52.824C152.39 52.824 152.734 52.708 152.966 52.476C153.206 52.236 153.358 51.924 153.422 51.54L154.886 51.888C154.782 52.312 154.602 52.7 154.346 53.052C154.098 53.396 153.77 53.668 153.362 53.868C152.954 54.068 152.466 54.168 151.898 54.168ZM158.845 54.168C158.253 54.168 157.729 54.044 157.273 53.796C156.825 53.54 156.473 53.184 156.217 52.728C155.969 52.264 155.845 51.72 155.845 51.096V50.952C155.845 50.328 155.969 49.788 156.217 49.332C156.465 48.868 156.813 48.512 157.261 48.264C157.709 48.008 158.229 47.88 158.821 47.88C159.405 47.88 159.913 48.012 160.345 48.276C160.777 48.532 161.113 48.892 161.353 49.356C161.593 49.812 161.713 50.344 161.713 50.952V51.468H157.381C157.397 51.876 157.549 52.208 157.837 52.464C158.125 52.72 158.477 52.848 158.893 52.848C159.317 52.848 159.629 52.756 159.829 52.572C160.029 52.388 160.181 52.184 160.285 51.96L161.521 52.608C161.409 52.816 161.245 53.044 161.029 53.292C160.821 53.532 160.541 53.74 160.189 53.916C159.837 54.084 159.389 54.168 158.845 54.168ZM157.393 50.34H160.177C160.145 49.996 160.005 49.72 159.757 49.512C159.517 49.304 159.201 49.2 158.809 49.2C158.401 49.2 158.077 49.304 157.837 49.512C157.597 49.72 157.449 49.996 157.393 50.34Z" fill="#04130F" fill-opacity="0.5"></path><path d="M85.634 78.252C84.722 78.252 83.906 78.09 83.186 77.766C82.466 77.442 81.896 76.956 81.476 76.308C81.068 75.648 80.864 74.826 80.864 73.842V73.464H82.358V73.842C82.358 74.886 82.664 75.666 83.276 76.182C83.888 76.686 84.674 76.938 85.634 76.938C86.618 76.938 87.368 76.716 87.884 76.272C88.4 75.828 88.658 75.27 88.658 74.598C88.658 74.13 88.544 73.758 88.316 73.482C88.088 73.206 87.764 72.984 87.344 72.816C86.924 72.636 86.432 72.48 85.868 72.348L84.914 72.114C84.182 71.922 83.534 71.688 82.97 71.412C82.406 71.136 81.962 70.776 81.638 70.332C81.326 69.876 81.17 69.294 81.17 68.586C81.17 67.878 81.35 67.266 81.71 66.75C82.07 66.234 82.568 65.838 83.204 65.562C83.84 65.286 84.584 65.148 85.436 65.148C86.288 65.148 87.05 65.298 87.722 65.598C88.394 65.886 88.928 66.318 89.324 66.894C89.72 67.458 89.918 68.172 89.918 69.036V69.792H88.424V69.036C88.424 68.424 88.292 67.932 88.028 67.56C87.776 67.188 87.422 66.912 86.966 66.732C86.522 66.552 86.012 66.462 85.436 66.462C84.608 66.462 83.942 66.648 83.438 67.02C82.934 67.38 82.682 67.896 82.682 68.568C82.682 69.012 82.784 69.372 82.988 69.648C83.204 69.924 83.51 70.152 83.906 70.332C84.302 70.5 84.776 70.65 85.328 70.782L86.282 71.016C87.002 71.172 87.656 71.388 88.244 71.664C88.832 71.928 89.294 72.294 89.63 72.762C89.978 73.218 90.152 73.818 90.152 74.562C90.152 75.306 89.966 75.954 89.594 76.506C89.222 77.058 88.694 77.49 88.01 77.802C87.338 78.102 86.546 78.252 85.634 78.252ZM84.95 80.088V63.312H86.336V80.088H84.95ZM91.7951 78V76.488C91.7951 75.612 91.9391 74.886 92.2271 74.31C92.5151 73.722 92.9291 73.242 93.4691 72.87C94.0211 72.486 94.6931 72.174 95.4851 71.934L96.6911 71.556C97.1351 71.412 97.5071 71.238 97.8071 71.034C98.1071 70.818 98.3351 70.56 98.4911 70.26C98.6591 69.96 98.7431 69.618 98.7431 69.234V69.162C98.7431 68.562 98.5391 68.088 98.1311 67.74C97.7231 67.38 97.1651 67.2 96.4571 67.2C95.7611 67.2 95.1971 67.392 94.7651 67.776C94.3451 68.148 94.1351 68.688 94.1351 69.396V69.72H91.8311V69.432C91.8311 68.52 92.0351 67.746 92.4431 67.11C92.8511 66.474 93.4031 65.988 94.0991 65.652C94.8071 65.316 95.5931 65.148 96.4571 65.148C97.3211 65.148 98.1011 65.316 98.7971 65.652C99.4931 65.976 100.039 66.438 100.435 67.038C100.843 67.626 101.047 68.322 101.047 69.126V69.306C101.047 70.11 100.879 70.794 100.543 71.358C100.219 71.91 99.7751 72.366 99.2111 72.726C98.6471 73.074 98.0051 73.362 97.2851 73.59L96.1331 73.95C95.6171 74.106 95.2151 74.28 94.9271 74.472C94.6391 74.652 94.4351 74.856 94.3151 75.084C94.2071 75.3 94.1531 75.564 94.1531 75.876V75.948H100.939V78H91.7951ZM107.181 78.252C106.197 78.252 105.345 78.078 104.625 77.73C103.917 77.382 103.371 76.89 102.987 76.254C102.603 75.618 102.411 74.88 102.411 74.04V73.86H104.751V74.022C104.751 74.622 104.949 75.138 105.345 75.57C105.753 75.99 106.353 76.2 107.145 76.2C107.937 76.2 108.543 75.99 108.963 75.57C109.395 75.138 109.611 74.58 109.611 73.896V73.716C109.611 73.044 109.395 72.51 108.963 72.114C108.543 71.718 108.015 71.52 107.379 71.52C107.031 71.52 106.743 71.568 106.515 71.664C106.287 71.76 106.101 71.88 105.957 72.024C105.813 72.168 105.693 72.312 105.597 72.456H102.807V65.4H111.411V67.488H105.111V70.566H105.435C105.555 70.41 105.717 70.26 105.921 70.116C106.125 69.972 106.389 69.852 106.713 69.756C107.037 69.66 107.421 69.612 107.865 69.612C108.609 69.612 109.287 69.768 109.899 70.08C110.511 70.392 110.997 70.854 111.357 71.466C111.729 72.066 111.915 72.81 111.915 73.698V73.914C111.915 74.802 111.723 75.57 111.339 76.218C110.967 76.866 110.427 77.37 109.719 77.73C109.011 78.078 108.165 78.252 107.181 78.252ZM118.352 78.252C116.864 78.252 115.67 77.844 114.77 77.028C113.87 76.2 113.42 74.952 113.42 73.284V70.116C113.42 68.496 113.87 67.266 114.77 66.426C115.67 65.574 116.864 65.148 118.352 65.148C119.852 65.148 121.046 65.574 121.934 66.426C122.834 67.266 123.284 68.496 123.284 70.116V73.284C123.284 74.952 122.834 76.2 121.934 77.028C121.046 77.844 119.852 78.252 118.352 78.252ZM118.352 76.2C119.252 76.2 119.912 75.954 120.332 75.462C120.764 74.97 120.98 74.268 120.98 73.356V70.008C120.98 69.084 120.74 68.388 120.26 67.92C119.792 67.44 119.156 67.2 118.352 67.2C117.524 67.2 116.876 67.446 116.408 67.938C115.952 68.43 115.724 69.12 115.724 70.008V73.356C115.724 74.304 115.94 75.018 116.372 75.498C116.816 75.966 117.476 76.2 118.352 76.2ZM126.662 78.252C126.182 78.252 125.774 78.096 125.438 77.784C125.114 77.46 124.952 77.046 124.952 76.542C124.952 76.038 125.114 75.63 125.438 75.318C125.774 74.994 126.182 74.832 126.662 74.832C127.154 74.832 127.562 74.994 127.886 75.318C128.21 75.63 128.372 76.038 128.372 76.542C128.372 77.046 128.21 77.46 127.886 77.784C127.562 78.096 127.154 78.252 126.662 78.252ZM134.963 78.252C133.475 78.252 132.281 77.844 131.381 77.028C130.481 76.2 130.031 74.952 130.031 73.284V70.116C130.031 68.496 130.481 67.266 131.381 66.426C132.281 65.574 133.475 65.148 134.963 65.148C136.463 65.148 137.657 65.574 138.545 66.426C139.445 67.266 139.895 68.496 139.895 70.116V73.284C139.895 74.952 139.445 76.2 138.545 77.028C137.657 77.844 136.463 78.252 134.963 78.252ZM134.963 76.2C135.863 76.2 136.523 75.954 136.943 75.462C137.375 74.97 137.591 74.268 137.591 73.356V70.008C137.591 69.084 137.351 68.388 136.871 67.92C136.403 67.44 135.767 67.2 134.963 67.2C134.135 67.2 133.487 67.446 133.019 67.938C132.563 68.43 132.335 69.12 132.335 70.008V73.356C132.335 74.304 132.551 75.018 132.983 75.498C133.427 75.966 134.087 76.2 134.963 76.2ZM146.635 78.252C145.147 78.252 143.953 77.844 143.053 77.028C142.153 76.2 141.703 74.952 141.703 73.284V70.116C141.703 68.496 142.153 67.266 143.053 66.426C143.953 65.574 145.147 65.148 146.635 65.148C148.135 65.148 149.329 65.574 150.217 66.426C151.117 67.266 151.567 68.496 151.567 70.116V73.284C151.567 74.952 151.117 76.2 150.217 77.028C149.329 77.844 148.135 78.252 146.635 78.252ZM146.635 76.2C147.535 76.2 148.195 75.954 148.615 75.462C149.047 74.97 149.263 74.268 149.263 73.356V70.008C149.263 69.084 149.023 68.388 148.543 67.92C148.075 67.44 147.439 67.2 146.635 67.2C145.807 67.2 145.159 67.446 144.691 67.938C144.235 68.43 144.007 69.12 144.007 70.008V73.356C144.007 74.304 144.223 75.018 144.655 75.498C145.099 75.966 145.759 76.2 146.635 76.2Z" fill="#04130F"></path><path d="M158.188 82.428V63.492H160.456V82.428H158.188Z" fill="#716FFF"></path><g opacity="0.32"><rect x="80" y="122" width="92" height="8" fill="url(#paint1_linear_206_432)"></rect><rect x="80" y="134" width="62" height="8" fill="url(#paint2_linear_206_432)"></rect></g></g><g filter="url(#filter1_b_206_432)"><rect x="79.5" y="154" width="93" height="28" rx="14" fill="url(#paint3_linear_206_432)"></rect><g clip-path="url(#clip0_206_432)"><path d="M97.4993 164.667H99.4993C99.9371 164.667 100.371 164.753 100.775 164.92C101.179 165.088 101.547 165.334 101.856 165.643C102.166 165.953 102.411 166.32 102.579 166.724C102.746 167.129 102.833 167.562 102.833 168C102.833 168.438 102.746 168.871 102.579 169.276C102.411 169.68 102.166 170.048 101.856 170.357C101.547 170.667 101.179 170.912 100.775 171.08C100.371 171.247 99.9371 171.333 99.4993 171.333H97.4993M93.4993 171.333H91.4993C91.0616 171.333 90.6282 171.247 90.2237 171.08C89.8193 170.912 89.4519 170.667 89.1423 170.357C88.5172 169.732 88.166 168.884 88.166 168C88.166 167.116 88.5172 166.268 89.1423 165.643C89.7674 165.018 90.6153 164.667 91.4993 164.667H93.4993" stroke="#BCE4E2" stroke-linecap="round" stroke-linejoin="round"></path><path d="M92.834 168H98.1673" stroke="#BCE4E2" stroke-linecap="round" stroke-linejoin="round"></path></g><path d="M111.63 172.168C110.982 172.168 110.41 172.052 109.914 171.82C109.418 171.588 109.03 171.256 108.75 170.824C108.47 170.392 108.33 169.872 108.33 169.264V168.928H109.89V169.264C109.89 169.768 110.046 170.148 110.358 170.404C110.67 170.652 111.094 170.776 111.63 170.776C112.174 170.776 112.578 170.668 112.842 170.452C113.114 170.236 113.25 169.96 113.25 169.624C113.25 169.392 113.182 169.204 113.046 169.06C112.918 168.916 112.726 168.8 112.47 168.712C112.222 168.616 111.918 168.528 111.558 168.448L111.282 168.388C110.706 168.26 110.21 168.1 109.794 167.908C109.386 167.708 109.07 167.448 108.846 167.128C108.63 166.808 108.522 166.392 108.522 165.88C108.522 165.368 108.642 164.932 108.882 164.572C109.13 164.204 109.474 163.924 109.914 163.732C110.362 163.532 110.886 163.432 111.486 163.432C112.086 163.432 112.618 163.536 113.082 163.744C113.554 163.944 113.922 164.248 114.186 164.656C114.458 165.056 114.594 165.56 114.594 166.168V166.528H113.034V166.168C113.034 165.848 112.97 165.592 112.842 165.4C112.722 165.2 112.546 165.056 112.314 164.968C112.082 164.872 111.806 164.824 111.486 164.824C111.006 164.824 110.65 164.916 110.418 165.1C110.194 165.276 110.082 165.52 110.082 165.832C110.082 166.04 110.134 166.216 110.238 166.36C110.35 166.504 110.514 166.624 110.73 166.72C110.946 166.816 111.222 166.9 111.558 166.972L111.834 167.032C112.434 167.16 112.954 167.324 113.394 167.524C113.842 167.724 114.19 167.988 114.438 168.316C114.686 168.644 114.81 169.064 114.81 169.576C114.81 170.088 114.678 170.54 114.414 170.932C114.158 171.316 113.79 171.62 113.31 171.844C112.838 172.06 112.278 172.168 111.63 172.168ZM118.751 172.168C118.159 172.168 117.635 172.044 117.179 171.796C116.731 171.54 116.379 171.184 116.123 170.728C115.875 170.264 115.751 169.72 115.751 169.096V168.952C115.751 168.328 115.875 167.788 116.123 167.332C116.371 166.868 116.719 166.512 117.167 166.264C117.615 166.008 118.135 165.88 118.727 165.88C119.311 165.88 119.819 166.012 120.251 166.276C120.683 166.532 121.019 166.892 121.259 167.356C121.499 167.812 121.619 168.344 121.619 168.952V169.468H117.287C117.303 169.876 117.455 170.208 117.743 170.464C118.031 170.72 118.383 170.848 118.799 170.848C119.223 170.848 119.535 170.756 119.735 170.572C119.935 170.388 120.087 170.184 120.191 169.96L121.427 170.608C121.315 170.816 121.151 171.044 120.935 171.292C120.727 171.532 120.447 171.74 120.095 171.916C119.743 172.084 119.295 172.168 118.751 172.168ZM117.299 168.34H120.083C120.051 167.996 119.911 167.72 119.663 167.512C119.423 167.304 119.107 167.2 118.715 167.2C118.307 167.2 117.983 167.304 117.743 167.512C117.503 167.72 117.355 167.996 117.299 168.34ZM122.965 172V166.048H124.453V166.828H124.669C124.765 166.62 124.945 166.424 125.209 166.24C125.473 166.048 125.873 165.952 126.409 165.952C126.873 165.952 127.277 166.06 127.621 166.276C127.973 166.484 128.245 166.776 128.437 167.152C128.629 167.52 128.725 167.952 128.725 168.448V172H127.213V168.568C127.213 168.12 127.101 167.784 126.877 167.56C126.661 167.336 126.349 167.224 125.941 167.224C125.477 167.224 125.117 167.38 124.861 167.692C124.605 167.996 124.477 168.424 124.477 168.976V172H122.965ZM132.76 172.168C132.288 172.168 131.844 172.052 131.428 171.82C131.02 171.58 130.692 171.232 130.444 170.776C130.196 170.32 130.072 169.768 130.072 169.12V168.928C130.072 168.28 130.196 167.728 130.444 167.272C130.692 166.816 131.02 166.472 131.428 166.24C131.836 166 132.28 165.88 132.76 165.88C133.12 165.88 133.42 165.924 133.66 166.012C133.908 166.092 134.108 166.196 134.26 166.324C134.412 166.452 134.528 166.588 134.608 166.732H134.824V163.6H136.336V172H134.848V171.28H134.632C134.496 171.504 134.284 171.708 133.996 171.892C133.716 172.076 133.304 172.168 132.76 172.168ZM133.216 170.848C133.68 170.848 134.068 170.7 134.38 170.404C134.692 170.1 134.848 169.66 134.848 169.084V168.964C134.848 168.388 134.692 167.952 134.38 167.656C134.076 167.352 133.688 167.2 133.216 167.2C132.752 167.2 132.364 167.352 132.052 167.656C131.74 167.952 131.584 168.388 131.584 168.964V169.084C131.584 169.66 131.74 170.1 132.052 170.404C132.364 170.7 132.752 170.848 133.216 170.848ZM141.011 172V163.6H142.595V170.56H146.435V172H141.011ZM147.563 172V166.048H149.075V172H147.563ZM148.319 165.352C148.047 165.352 147.815 165.264 147.623 165.088C147.439 164.912 147.347 164.68 147.347 164.392C147.347 164.104 147.439 163.872 147.623 163.696C147.815 163.52 148.047 163.432 148.319 163.432C148.599 163.432 148.831 163.52 149.015 163.696C149.199 163.872 149.291 164.104 149.291 164.392C149.291 164.68 149.199 164.912 149.015 165.088C148.831 165.264 148.599 165.352 148.319 165.352ZM150.75 172V166.048H152.238V166.828H152.454C152.55 166.62 152.73 166.424 152.994 166.24C153.258 166.048 153.658 165.952 154.194 165.952C154.658 165.952 155.062 166.06 155.406 166.276C155.758 166.484 156.03 166.776 156.222 167.152C156.414 167.52 156.51 167.952 156.51 168.448V172H154.998V168.568C154.998 168.12 154.886 167.784 154.662 167.56C154.446 167.336 154.134 167.224 153.726 167.224C153.262 167.224 152.902 167.38 152.646 167.692C152.39 167.996 152.262 168.424 152.262 168.976V172H150.75ZM158.145 172V163.6H159.657V168.244H159.873L161.841 166.048H163.809L161.061 168.928L163.905 172H161.961L159.873 169.636H159.657V172H158.145Z" fill="#BCE4E2"></path><rect x="80" y="154.5" width="92" height="27" rx="13.5" stroke="#B7E2E0"></rect></g><defs><filter id="filter0_d_206_432" x="44" y="10" width="164" height="188" filterUnits="userSpaceOnUse" color-interpolation-filters="sRGB"><feFlood flood-opacity="0" result="BackgroundImageFix"></feFlood><feColorMatrix in="SourceAlpha" type="matrix" values="0 0 0 0 0 0 0 0 0 0 0 0 0 0 0 0 0 0 127 0" result="hardAlpha"></feColorMatrix><feOffset dy="4"></feOffset><feGaussianBlur stdDeviation="12"></feGaussianBlur><feComposite in2="hardAlpha" operator="out"></feComposite><feColorMatrix type="matrix" values="0 0 0 0 0.0509804 0 0 0 0 0.107843 0 0 0 0 0.14902 0 0 0 0.08 0"></feColorMatrix><feBlend mode="normal" in2="BackgroundImageFix" result="effect1_dropShadow_206_432"></feBlend><feBlend mode="normal" in="SourceGraphic" in2="effect1_dropShadow_206_432" result="shape"></feBlend></filter><filter id="filter1_b_206_432" x="43.5" y="118" width="165" height="100" filterUnits="userSpaceOnUse" color-interpolation-filters="sRGB"><feFlood flood-opacity="0" result="BackgroundImageFix"></feFlood><feGaussianBlur in="BackgroundImageFix" stdDeviation="18"></feGaussianBlur><feComposite in2="SourceAlpha" operator="in" result="effect1_backgroundBlur_206_432"></feComposite><feBlend mode="normal" in="SourceGraphic" in2="effect1_backgroundBlur_206_432" result="shape"></feBlend></filter><linearGradient id="paint0_linear_206_432" x1="125.5" y1="10" x2="125.5" y2="202" gradientUnits="userSpaceOnUse"><stop stop-color="#1E5151"></stop><stop offset="1" stop-color="#1E7777"></stop></linearGradient><linearGradient id="paint1_linear_206_432" x1="80" y1="126" x2="172" y2="126" gradientUnits="userSpaceOnUse"><stop stop-color="#1E5151"></stop><stop offset="1" stop-color="#1E5151" stop-opacity="0"></stop></linearGradient><linearGradient id="paint2_linear_206_432" x1="80" y1="138" x2="142" y2="138" gradientUnits="userSpaceOnUse"><stop stop-color="#1E5151"></stop><stop offset="1" stop-color="#1E5151" stop-opacity="0"></stop></linearGradient><linearGradient id="paint3_linear_206_432" x1="126" y1="154" x2="126" y2="182" gradientUnits="userSpaceOnUse"><stop stop-color="#1E5151"></stop><stop offset="1" stop-color="#1E7777"></stop></linearGradient><clipPath id="clip0_206_432"><rect width="16" height="16" fill="white" transform="translate(87.5 160)"></rect></clipPath></defs></svg>