<svg width="100%" height="212" xmlns="http://www.w3.org/2000/svg" fill="none" viewBox="0 0 299 260"><rect width="299" height="260" rx="12" fill="url(#paint0_linear_206_497)"></rect><circle cx="22" cy="26" r="4" fill="white"></circle><rect x="21.5" y="36" width="1" height="16" fill="white"></rect><circle cx="22" cy="62" r="4" fill="white"></circle><rect x="21.5" y="72" width="1" height="16" fill="white"></rect><circle cx="22" cy="98" r="4" fill="white"></circle><rect x="21.5" y="108" width="1" height="16" fill="url(#paint1_linear_206_497)"></rect><path d="M45.1177 31V21.2H46.6297V31H45.1177ZM48.7144 31V24.098H50.1284V25.134H50.3524C50.4831 24.854 50.7164 24.5927 51.0524 24.35C51.3884 24.1073 51.8877 23.986 52.5504 23.986C53.0731 23.986 53.5351 24.1027 53.9364 24.336C54.3471 24.5693 54.6691 24.9007 54.9024 25.33C55.1357 25.75 55.2524 26.2587 55.2524 26.856V31H53.8104V26.968C53.8104 26.3707 53.6611 25.932 53.3624 25.652C53.0637 25.3627 52.6531 25.218 52.1304 25.218C51.5331 25.218 51.0524 25.414 50.6884 25.806C50.3337 26.198 50.1564 26.7673 50.1564 27.514V31H48.7144ZM58.7186 31L56.3946 24.098H57.9206L59.7546 29.936H59.9786L61.8126 24.098H63.3386L61.0146 31H58.7186ZM67.7257 31.196C67.0351 31.196 66.4191 31.056 65.8777 30.776C65.3457 30.4867 64.9257 30.076 64.6177 29.544C64.3097 29.012 64.1557 28.382 64.1557 27.654V27.444C64.1557 26.716 64.3097 26.0907 64.6177 25.568C64.9257 25.036 65.3457 24.6253 65.8777 24.336C66.4191 24.0467 67.0351 23.902 67.7257 23.902C68.4164 23.902 69.0324 24.0467 69.5737 24.336C70.1151 24.6253 70.5397 25.036 70.8477 25.568C71.1557 26.0907 71.3097 26.716 71.3097 27.444V27.654C71.3097 28.382 71.1557 29.012 70.8477 29.544C70.5397 30.076 70.1151 30.4867 69.5737 30.776C69.0324 31.056 68.4164 31.196 67.7257 31.196ZM67.7257 29.908C68.3604 29.908 68.8737 29.7073 69.2657 29.306C69.6671 28.8953 69.8677 28.3307 69.8677 27.612V27.486C69.8677 26.7673 69.6717 26.2073 69.2797 25.806C68.8877 25.3953 68.3697 25.19 67.7257 25.19C67.1004 25.19 66.5871 25.3953 66.1857 25.806C65.7937 26.2073 65.5977 26.7673 65.5977 27.486V27.612C65.5977 28.3307 65.7937 28.8953 66.1857 29.306C66.5871 29.7073 67.1004 29.908 67.7257 29.908ZM73.105 31V24.098H74.547V31H73.105ZM73.833 23.16C73.553 23.16 73.315 23.0713 73.119 22.894C72.9323 22.7073 72.839 22.4693 72.839 22.18C72.839 21.8907 72.9323 21.6573 73.119 21.48C73.315 21.2933 73.553 21.2 73.833 21.2C74.1223 21.2 74.3603 21.2933 74.547 21.48C74.7337 21.6573 74.827 21.8907 74.827 22.18C74.827 22.4693 74.7337 22.7073 74.547 22.894C74.3603 23.0713 74.1223 23.16 73.833 23.16ZM79.893 31.196C79.2304 31.196 78.6284 31.056 78.087 30.776C77.555 30.496 77.1304 30.09 76.813 29.558C76.505 29.026 76.351 28.3867 76.351 27.64V27.458C76.351 26.7113 76.505 26.0767 76.813 25.554C77.1304 25.022 77.555 24.616 78.087 24.336C78.6284 24.0467 79.2304 23.902 79.893 23.902C80.5557 23.902 81.1204 24.0233 81.587 24.266C82.0537 24.5087 82.427 24.8307 82.707 25.232C82.9964 25.6333 83.183 26.0767 83.267 26.562L81.867 26.856C81.8204 26.548 81.7224 26.268 81.573 26.016C81.4237 25.764 81.2137 25.5633 80.943 25.414C80.6724 25.2647 80.3317 25.19 79.921 25.19C79.5197 25.19 79.1557 25.2833 78.829 25.47C78.5117 25.6473 78.2597 25.9087 78.073 26.254C77.8864 26.59 77.793 27.0007 77.793 27.486V27.612C77.793 28.0973 77.8864 28.5127 78.073 28.858C78.2597 29.2033 78.5117 29.4647 78.829 29.642C79.1557 29.8193 79.5197 29.908 79.921 29.908C80.5277 29.908 80.9897 29.754 81.307 29.446C81.6244 29.1287 81.825 28.7273 81.909 28.242L83.309 28.564C83.197 29.04 82.9964 29.4787 82.707 29.88C82.427 30.2813 82.0537 30.6033 81.587 30.846C81.1204 31.0793 80.5557 31.196 79.893 31.196ZM88.1362 31.196C87.4362 31.196 86.8249 31.0513 86.3022 30.762C85.7795 30.4633 85.3689 30.048 85.0702 29.516C84.7809 28.9747 84.6362 28.3493 84.6362 27.64V27.472C84.6362 26.7533 84.7809 26.128 85.0702 25.596C85.3595 25.0547 85.7609 24.6393 86.2742 24.35C86.7969 24.0513 87.3989 23.902 88.0802 23.902C88.7429 23.902 89.3215 24.0513 89.8162 24.35C90.3202 24.6393 90.7122 25.0453 90.9922 25.568C91.2722 26.0907 91.4122 26.702 91.4122 27.402V27.948H86.1062C86.1249 28.5547 86.3255 29.04 86.7082 29.404C87.1002 29.7587 87.5855 29.936 88.1642 29.936C88.7055 29.936 89.1115 29.8147 89.3822 29.572C89.6622 29.3293 89.8769 29.0493 90.0262 28.732L91.2162 29.348C91.0855 29.6093 90.8942 29.8847 90.6422 30.174C90.3995 30.4633 90.0775 30.706 89.6762 30.902C89.2749 31.098 88.7615 31.196 88.1362 31.196ZM86.1202 26.842H89.9422C89.9049 26.3193 89.7182 25.9133 89.3822 25.624C89.0462 25.3253 88.6075 25.176 88.0662 25.176C87.5249 25.176 87.0815 25.3253 86.7362 25.624C86.4002 25.9133 86.1949 26.3193 86.1202 26.842ZM100.314 31.196C99.1197 31.196 98.1723 30.86 97.4723 30.188C96.7723 29.5067 96.4223 28.5267 96.4223 27.248V24.952C96.4223 23.6733 96.7723 22.698 97.4723 22.026C98.1723 21.3447 99.1197 21.004 100.314 21.004C101.49 21.004 102.396 21.3307 103.03 21.984C103.674 22.6373 103.996 23.5287 103.996 24.658V24.742H102.498V24.616C102.498 23.9533 102.316 23.412 101.952 22.992C101.598 22.572 101.052 22.362 100.314 22.362C99.5677 22.362 98.9843 22.5907 98.5643 23.048C98.1443 23.496 97.9343 24.1213 97.9343 24.924V27.276C97.9343 28.0693 98.1443 28.6947 98.5643 29.152C98.9843 29.6093 99.5677 29.838 100.314 29.838C101.052 29.838 101.598 29.628 101.952 29.208C102.316 28.7787 102.498 28.2373 102.498 27.584V27.346H103.996V27.542C103.996 28.6713 103.674 29.5627 103.03 30.216C102.396 30.8693 101.49 31.196 100.314 31.196ZM105.712 31V24.098H107.126V24.91H107.35C107.462 24.6207 107.64 24.4107 107.882 24.28C108.134 24.14 108.442 24.07 108.806 24.07H109.632V25.372H108.75C108.284 25.372 107.901 25.5027 107.602 25.764C107.304 26.016 107.154 26.408 107.154 26.94V31H105.712ZM114.044 31.196C113.344 31.196 112.733 31.0513 112.21 30.762C111.688 30.4633 111.277 30.048 110.978 29.516C110.689 28.9747 110.544 28.3493 110.544 27.64V27.472C110.544 26.7533 110.689 26.128 110.978 25.596C111.268 25.0547 111.669 24.6393 112.182 24.35C112.705 24.0513 113.307 23.902 113.988 23.902C114.651 23.902 115.23 24.0513 115.724 24.35C116.228 24.6393 116.62 25.0453 116.9 25.568C117.18 26.0907 117.32 26.702 117.32 27.402V27.948H112.014C112.033 28.5547 112.234 29.04 112.616 29.404C113.008 29.7587 113.494 29.936 114.072 29.936C114.614 29.936 115.02 29.8147 115.29 29.572C115.57 29.3293 115.785 29.0493 115.934 28.732L117.124 29.348C116.994 29.6093 116.802 29.8847 116.55 30.174C116.308 30.4633 115.986 30.706 115.584 30.902C115.183 31.098 114.67 31.196 114.044 31.196ZM112.028 26.842H115.85C115.813 26.3193 115.626 25.9133 115.29 25.624C114.954 25.3253 114.516 25.176 113.974 25.176C113.433 25.176 112.99 25.3253 112.644 25.624C112.308 25.9133 112.103 26.3193 112.028 26.842ZM121.198 31.196C120.704 31.196 120.26 31.112 119.868 30.944C119.486 30.776 119.178 30.5287 118.944 30.202C118.72 29.8753 118.608 29.4787 118.608 29.012C118.608 28.536 118.72 28.144 118.944 27.836C119.178 27.5187 119.49 27.2807 119.882 27.122C120.284 26.9633 120.736 26.884 121.24 26.884H123.34V26.436C123.34 26.0347 123.219 25.7127 122.976 25.47C122.734 25.2273 122.36 25.106 121.856 25.106C121.362 25.106 120.984 25.2227 120.722 25.456C120.461 25.6893 120.288 25.9927 120.204 26.366L118.86 25.932C118.972 25.5587 119.15 25.2227 119.392 24.924C119.644 24.616 119.976 24.3687 120.386 24.182C120.797 23.9953 121.292 23.902 121.87 23.902C122.766 23.902 123.471 24.1307 123.984 24.588C124.498 25.0453 124.754 25.694 124.754 26.534V29.376C124.754 29.656 124.885 29.796 125.146 29.796H125.734V31H124.656C124.33 31 124.064 30.916 123.858 30.748C123.653 30.58 123.55 30.3513 123.55 30.062V30.02H123.34C123.266 30.16 123.154 30.3233 123.004 30.51C122.855 30.6967 122.636 30.86 122.346 31C122.057 31.1307 121.674 31.196 121.198 31.196ZM121.408 30.006C121.987 30.006 122.454 29.8427 122.808 29.516C123.163 29.18 123.34 28.7227 123.34 28.144V28.004H121.324C120.942 28.004 120.634 28.088 120.4 28.256C120.167 28.4147 120.05 28.6527 120.05 28.97C120.05 29.2873 120.172 29.5393 120.414 29.726C120.657 29.9127 120.988 30.006 121.408 30.006ZM129.248 31C128.828 31 128.492 30.874 128.24 30.622C127.997 30.37 127.876 30.034 127.876 29.614V25.316H125.972V24.098H127.876V21.816H129.318V24.098H131.376V25.316H129.318V29.362C129.318 29.642 129.448 29.782 129.71 29.782H131.152V31H129.248ZM135.988 31.196C135.288 31.196 134.676 31.0513 134.154 30.762C133.631 30.4633 133.22 30.048 132.922 29.516C132.632 28.9747 132.488 28.3493 132.488 27.64V27.472C132.488 26.7533 132.632 26.128 132.922 25.596C133.211 25.0547 133.612 24.6393 134.126 24.35C134.648 24.0513 135.25 23.902 135.932 23.902C136.594 23.902 137.173 24.0513 137.668 24.35C138.172 24.6393 138.564 25.0453 138.844 25.568C139.124 26.0907 139.264 26.702 139.264 27.402V27.948H133.958C133.976 28.5547 134.177 29.04 134.56 29.404C134.952 29.7587 135.437 29.936 136.016 29.936C136.557 29.936 136.963 29.8147 137.234 29.572C137.514 29.3293 137.728 29.0493 137.878 28.732L139.068 29.348C138.937 29.6093 138.746 29.8847 138.494 30.174C138.251 30.4633 137.929 30.706 137.528 30.902C137.126 31.098 136.613 31.196 135.988 31.196ZM133.972 26.842H137.794C137.756 26.3193 137.57 25.9133 137.234 25.624C136.898 25.3253 136.459 25.176 135.918 25.176C135.376 25.176 134.933 25.3253 134.588 25.624C134.252 25.9133 134.046 26.3193 133.972 26.842ZM143.856 31.196C143.286 31.196 142.759 31.056 142.274 30.776C141.788 30.496 141.396 30.0947 141.098 29.572C140.808 29.04 140.664 28.4007 140.664 27.654V27.444C140.664 26.7067 140.808 26.072 141.098 25.54C141.387 25.008 141.774 24.602 142.26 24.322C142.745 24.042 143.277 23.902 143.856 23.902C144.304 23.902 144.677 23.958 144.976 24.07C145.284 24.182 145.536 24.3267 145.732 24.504C145.928 24.672 146.077 24.8493 146.18 25.036H146.404V21.2H147.846V31H146.432V30.02H146.208C146.03 30.3187 145.76 30.5893 145.396 30.832C145.041 31.0747 144.528 31.196 143.856 31.196ZM144.262 29.936C144.887 29.936 145.4 29.7353 145.802 29.334C146.212 28.9327 146.418 28.3587 146.418 27.612V27.486C146.418 26.7487 146.217 26.1793 145.816 25.778C145.414 25.3767 144.896 25.176 144.262 25.176C143.646 25.176 143.132 25.3767 142.722 25.778C142.32 26.1793 142.12 26.7487 142.12 27.486V27.612C142.12 28.3587 142.32 28.9327 142.722 29.334C143.132 29.7353 143.646 29.936 144.262 29.936Z" fill="white"></path><path d="M45.1265 67V57.2H49.0185C49.6158 57.2 50.1478 57.3213 50.6145 57.564C51.0905 57.7973 51.4592 58.1333 51.7205 58.572C51.9912 59.0013 52.1265 59.5193 52.1265 60.126V60.308C52.1265 60.9147 51.9865 61.4373 51.7065 61.876C51.4358 62.3147 51.0672 62.6507 50.6005 62.884C50.1338 63.1173 49.6065 63.234 49.0185 63.234H46.6385V67H45.1265ZM46.6385 61.862H48.8645C49.3965 61.862 49.8212 61.722 50.1385 61.442C50.4558 61.162 50.6145 60.7793 50.6145 60.294V60.154C50.6145 59.6593 50.4558 59.272 50.1385 58.992C49.8212 58.712 49.3965 58.572 48.8645 58.572H46.6385V61.862ZM55.5956 67.196C55.101 67.196 54.6576 67.112 54.2656 66.944C53.883 66.776 53.575 66.5287 53.3416 66.202C53.1176 65.8753 53.0056 65.4787 53.0056 65.012C53.0056 64.536 53.1176 64.144 53.3416 63.836C53.575 63.5187 53.8876 63.2807 54.2796 63.122C54.681 62.9633 55.1336 62.884 55.6376 62.884H57.7376V62.436C57.7376 62.0347 57.6163 61.7127 57.3736 61.47C57.131 61.2273 56.7576 61.106 56.2536 61.106C55.759 61.106 55.381 61.2227 55.1196 61.456C54.8583 61.6893 54.6856 61.9927 54.6016 62.366L53.2576 61.932C53.3696 61.5587 53.547 61.2227 53.7896 60.924C54.0416 60.616 54.373 60.3687 54.7836 60.182C55.1943 59.9953 55.689 59.902 56.2676 59.902C57.1636 59.902 57.8683 60.1307 58.3816 60.588C58.895 61.0453 59.1516 61.694 59.1516 62.534V65.376C59.1516 65.656 59.2823 65.796 59.5436 65.796H60.1316V67H59.0536C58.727 67 58.461 66.916 58.2556 66.748C58.0503 66.58 57.9476 66.3513 57.9476 66.062V66.02H57.7376C57.663 66.16 57.551 66.3233 57.4016 66.51C57.2523 66.6967 57.033 66.86 56.7436 67C56.4543 67.1307 56.0716 67.196 55.5956 67.196ZM55.8056 66.006C56.3843 66.006 56.851 65.8427 57.2056 65.516C57.5603 65.18 57.7376 64.7227 57.7376 64.144V64.004H55.7216C55.339 64.004 55.031 64.088 54.7976 64.256C54.5643 64.4147 54.4476 64.6527 54.4476 64.97C54.4476 65.2873 54.569 65.5393 54.8116 65.726C55.0543 65.9127 55.3856 66.006 55.8056 66.006ZM62.154 69.8V68.54H66.004C66.2653 68.54 66.396 68.4 66.396 68.12V65.992H66.172C66.088 66.1787 65.9573 66.3607 65.78 66.538C65.612 66.706 65.3833 66.846 65.094 66.958C64.8047 67.07 64.4407 67.126 64.002 67.126C63.4793 67.126 63.0127 67.0093 62.602 66.776C62.1913 66.5427 61.8693 66.2113 61.636 65.782C61.4027 65.3527 61.286 64.844 61.286 64.256V60.098H62.728V64.144C62.728 64.7413 62.8773 65.1847 63.176 65.474C63.4747 65.754 63.89 65.894 64.422 65.894C65.01 65.894 65.4813 65.698 65.836 65.306C66.2 64.914 66.382 64.3447 66.382 63.598V60.098H67.824V68.414C67.824 68.834 67.698 69.17 67.446 69.422C67.2033 69.674 66.8673 69.8 66.438 69.8H62.154ZM69.9556 67V60.098H71.3696V60.91H71.5936C71.7243 60.6673 71.9343 60.4527 72.2236 60.266C72.5129 60.0793 72.9049 59.986 73.3996 59.986C73.9129 59.986 74.3236 60.0933 74.6316 60.308C74.9489 60.5133 75.1869 60.7793 75.3456 61.106H75.5696C75.7283 60.7887 75.9569 60.5227 76.2556 60.308C76.5636 60.0933 76.9976 59.986 77.5576 59.986C78.0056 59.986 78.4023 60.0793 78.7476 60.266C79.0929 60.4433 79.3683 60.714 79.5736 61.078C79.7789 61.4327 79.8816 61.876 79.8816 62.408V67H78.4396V62.52C78.4396 62.1 78.3229 61.778 78.0896 61.554C77.8656 61.3207 77.5436 61.204 77.1236 61.204C76.6756 61.204 76.3163 61.3487 76.0456 61.638C75.7749 61.9273 75.6396 62.3427 75.6396 62.884V67H74.1976V62.52C74.1976 62.1 74.0809 61.778 73.8476 61.554C73.6236 61.3207 73.3016 61.204 72.8816 61.204C72.4336 61.204 72.0743 61.3487 71.8036 61.638C71.5329 61.9273 71.3976 62.3427 71.3976 62.884V67H69.9556ZM85.1235 67.196C84.4235 67.196 83.8122 67.0513 83.2895 66.762C82.7668 66.4633 82.3562 66.048 82.0575 65.516C81.7682 64.9747 81.6235 64.3493 81.6235 63.64V63.472C81.6235 62.7533 81.7682 62.128 82.0575 61.596C82.3468 61.0547 82.7482 60.6393 83.2615 60.35C83.7842 60.0513 84.3862 59.902 85.0675 59.902C85.7302 59.902 86.3088 60.0513 86.8035 60.35C87.3075 60.6393 87.6995 61.0453 87.9795 61.568C88.2595 62.0907 88.3995 62.702 88.3995 63.402V63.948H83.0935C83.1122 64.5547 83.3128 65.04 83.6955 65.404C84.0875 65.7587 84.5728 65.936 85.1515 65.936C85.6928 65.936 86.0988 65.8147 86.3695 65.572C86.6495 65.3293 86.8642 65.0493 87.0135 64.732L88.2035 65.348C88.0728 65.6093 87.8815 65.8847 87.6295 66.174C87.3868 66.4633 87.0648 66.706 86.6635 66.902C86.2622 67.098 85.7488 67.196 85.1235 67.196ZM83.1075 62.842H86.9295C86.8922 62.3193 86.7055 61.9133 86.3695 61.624C86.0335 61.3253 85.5948 61.176 85.0535 61.176C84.5122 61.176 84.0688 61.3253 83.7235 61.624C83.3875 61.9133 83.1822 62.3193 83.1075 62.842ZM90.1353 67V60.098H91.5493V61.134H91.7733C91.904 60.854 92.1373 60.5927 92.4733 60.35C92.8093 60.1073 93.3086 59.986 93.9713 59.986C94.494 59.986 94.956 60.1027 95.3573 60.336C95.768 60.5693 96.09 60.9007 96.3233 61.33C96.5566 61.75 96.6733 62.2587 96.6733 62.856V67H95.2313V62.968C95.2313 62.3707 95.082 61.932 94.7833 61.652C94.4846 61.3627 94.074 61.218 93.5513 61.218C92.954 61.218 92.4733 61.414 92.1093 61.806C91.7546 62.198 91.5773 62.7673 91.5773 63.514V67H90.1353ZM101.147 67C100.727 67 100.391 66.874 100.139 66.622C99.8965 66.37 99.7752 66.034 99.7752 65.614V61.316H97.8712V60.098H99.7752V57.816H101.217V60.098H103.275V61.316H101.217V65.362C101.217 65.642 101.348 65.782 101.609 65.782H103.051V67H101.147ZM108.538 67V57.2H109.98V67H108.538ZM112.12 67V60.098H113.562V67H112.12ZM112.848 59.16C112.568 59.16 112.33 59.0713 112.134 58.894C111.947 58.7073 111.854 58.4693 111.854 58.18C111.854 57.8907 111.947 57.6573 112.134 57.48C112.33 57.2933 112.568 57.2 112.848 57.2C113.137 57.2 113.375 57.2933 113.562 57.48C113.748 57.6573 113.842 57.8907 113.842 58.18C113.842 58.4693 113.748 58.7073 113.562 58.894C113.375 59.0713 113.137 59.16 112.848 59.16ZM115.702 67V60.098H117.116V61.134H117.34C117.47 60.854 117.704 60.5927 118.04 60.35C118.376 60.1073 118.875 59.986 119.538 59.986C120.06 59.986 120.522 60.1027 120.924 60.336C121.334 60.5693 121.656 60.9007 121.89 61.33C122.123 61.75 122.24 62.2587 122.24 62.856V67H120.798V62.968C120.798 62.3707 120.648 61.932 120.35 61.652C120.051 61.3627 119.64 61.218 119.118 61.218C118.52 61.218 118.04 61.414 117.676 61.806C117.321 62.198 117.144 62.7673 117.144 63.514V67H115.702ZM124.315 67V57.2H125.757V62.786H125.981L128.697 60.098H130.615L127.129 63.444L130.727 67H128.823L125.981 64.13H125.757V67H124.315ZM138.422 67.196C137.545 67.196 136.817 67 136.238 66.608C135.66 66.216 135.305 65.6233 135.174 64.83L136.518 64.508C136.593 64.8907 136.719 65.194 136.896 65.418C137.074 65.642 137.293 65.8007 137.554 65.894C137.825 65.9873 138.114 66.034 138.422 66.034C138.88 66.034 139.23 65.9453 139.472 65.768C139.724 65.5907 139.85 65.362 139.85 65.082C139.85 64.802 139.734 64.5967 139.5 64.466C139.267 64.3353 138.922 64.228 138.464 64.144L137.988 64.06C137.522 63.976 137.097 63.8547 136.714 63.696C136.332 63.5373 136.028 63.318 135.804 63.038C135.58 62.758 135.468 62.3987 135.468 61.96C135.468 61.3067 135.711 60.8027 136.196 60.448C136.682 60.084 137.326 59.902 138.128 59.902C138.903 59.902 139.538 60.0793 140.032 60.434C140.536 60.7793 140.863 61.2507 141.012 61.848L139.668 62.226C139.584 61.806 139.407 61.512 139.136 61.344C138.866 61.1667 138.53 61.078 138.128 61.078C137.736 61.078 137.428 61.1527 137.204 61.302C136.98 61.442 136.868 61.6427 136.868 61.904C136.868 62.184 136.976 62.3893 137.19 62.52C137.414 62.6507 137.713 62.7487 138.086 62.814L138.576 62.898C139.071 62.982 139.524 63.0987 139.934 63.248C140.345 63.3973 140.667 63.612 140.9 63.892C141.143 64.172 141.264 64.5453 141.264 65.012C141.264 65.7027 141.008 66.2393 140.494 66.622C139.981 67.0047 139.29 67.196 138.422 67.196ZM146.114 67.196C145.414 67.196 144.802 67.0513 144.28 66.762C143.757 66.4633 143.346 66.048 143.048 65.516C142.758 64.9747 142.614 64.3493 142.614 63.64V63.472C142.614 62.7533 142.758 62.128 143.048 61.596C143.337 61.0547 143.738 60.6393 144.252 60.35C144.774 60.0513 145.376 59.902 146.058 59.902C146.72 59.902 147.299 60.0513 147.794 60.35C148.298 60.6393 148.69 61.0453 148.97 61.568C149.25 62.0907 149.39 62.702 149.39 63.402V63.948H144.084C144.102 64.5547 144.303 65.04 144.686 65.404C145.078 65.7587 145.563 65.936 146.142 65.936C146.683 65.936 147.089 65.8147 147.36 65.572C147.64 65.3293 147.854 65.0493 148.004 64.732L149.194 65.348C149.063 65.6093 148.872 65.8847 148.62 66.174C148.377 66.4633 148.055 66.706 147.654 66.902C147.252 67.098 146.739 67.196 146.114 67.196ZM144.098 62.842H147.92C147.882 62.3193 147.696 61.9133 147.36 61.624C147.024 61.3253 146.585 61.176 146.044 61.176C145.502 61.176 145.059 61.3253 144.714 61.624C144.378 61.9133 144.172 62.3193 144.098 62.842ZM151.126 67V60.098H152.54V61.134H152.764C152.894 60.854 153.128 60.5927 153.464 60.35C153.8 60.1073 154.299 59.986 154.962 59.986C155.484 59.986 155.946 60.1027 156.348 60.336C156.758 60.5693 157.08 60.9007 157.314 61.33C157.547 61.75 157.664 62.2587 157.664 62.856V67H156.222V62.968C156.222 62.3707 156.072 61.932 155.774 61.652C155.475 61.3627 155.064 61.218 154.542 61.218C153.944 61.218 153.464 61.414 153.1 61.806C152.745 62.198 152.568 62.7673 152.568 63.514V67H151.126ZM162.137 67C161.717 67 161.381 66.874 161.129 66.622C160.887 66.37 160.765 66.034 160.765 65.614V61.316H158.861V60.098H160.765V57.816H162.207V60.098H164.265V61.316H162.207V65.362C162.207 65.642 162.338 65.782 162.599 65.782H164.041V67H162.137Z" fill="white"></path><path d="M48.7681 103.196C48.0307 103.196 47.3774 103.065 46.8081 102.804C46.2387 102.543 45.7907 102.16 45.4641 101.656C45.1467 101.143 44.9881 100.522 44.9881 99.794V99.444H46.4861V99.794C46.4861 100.485 46.6914 101.003 47.1021 101.348C47.5221 101.693 48.0774 101.866 48.7681 101.866C49.4681 101.866 49.9954 101.721 50.3501 101.432C50.7047 101.133 50.8821 100.751 50.8821 100.284C50.8821 99.976 50.7981 99.724 50.6301 99.528C50.4714 99.332 50.2381 99.178 49.9301 99.066C49.6221 98.9447 49.2534 98.8327 48.8241 98.73L48.3061 98.604C47.6807 98.4547 47.1394 98.2727 46.6821 98.058C46.2247 97.834 45.8701 97.54 45.6181 97.176C45.3661 96.812 45.2401 96.3453 45.2401 95.776C45.2401 95.1973 45.3801 94.7027 45.6601 94.292C45.9401 93.8813 46.3321 93.564 46.8361 93.34C47.3401 93.116 47.9327 93.004 48.6141 93.004C49.2954 93.004 49.9021 93.1207 50.4341 93.354C50.9754 93.5873 51.4001 93.9327 51.7081 94.39C52.0254 94.8473 52.1841 95.4213 52.1841 96.112V96.616H50.6861V96.112C50.6861 95.692 50.5974 95.3513 50.4201 95.09C50.2521 94.8287 50.0094 94.6373 49.6921 94.516C49.3841 94.3947 49.0247 94.334 48.6141 94.334C48.0167 94.334 47.5547 94.46 47.2281 94.712C46.9014 94.9547 46.7381 95.2953 46.7381 95.734C46.7381 96.0327 46.8081 96.28 46.9481 96.476C47.0974 96.6627 47.3121 96.8167 47.5921 96.938C47.8721 97.0593 48.2174 97.1667 48.6281 97.26L49.1461 97.386C49.7807 97.526 50.3407 97.708 50.8261 97.932C51.3114 98.1467 51.6894 98.4407 51.9601 98.814C52.2401 99.1873 52.3801 99.668 52.3801 100.256C52.3801 100.844 52.2307 101.357 51.9321 101.796C51.6427 102.235 51.2274 102.58 50.6861 102.832C50.1447 103.075 49.5054 103.196 48.7681 103.196ZM48.0681 104.624V91.576H49.4541V104.624H48.0681ZM53.6173 103V101.894C53.6173 101.213 53.734 100.653 53.9673 100.214C54.2006 99.7753 54.532 99.4207 54.9613 99.15C55.4 98.87 55.9273 98.6367 56.5433 98.45L57.3973 98.184C57.78 98.0627 58.1066 97.9133 58.3773 97.736C58.6573 97.5587 58.872 97.3393 59.0213 97.078C59.1706 96.8073 59.2453 96.4947 59.2453 96.14V96.084C59.2453 95.5333 59.0586 95.104 58.6853 94.796C58.312 94.4787 57.822 94.32 57.2153 94.32C56.59 94.32 56.0813 94.488 55.6893 94.824C55.3066 95.16 55.1153 95.6547 55.1153 96.308V96.532H53.6593V96.322C53.6593 95.6127 53.8133 95.0153 54.1213 94.53C54.4293 94.0353 54.854 93.6573 55.3953 93.396C55.9366 93.1347 56.5433 93.004 57.2153 93.004C57.8873 93.004 58.4846 93.13 59.0073 93.382C59.5393 93.634 59.9546 93.9887 60.2533 94.446C60.5613 94.9033 60.7153 95.44 60.7153 96.056V96.182C60.7153 96.8167 60.5893 97.344 60.3373 97.764C60.0853 98.184 59.7353 98.5293 59.2873 98.8C58.8486 99.0707 58.34 99.2993 57.7613 99.486L56.9353 99.738C56.4966 99.8687 56.142 100.013 55.8713 100.172C55.61 100.321 55.414 100.503 55.2833 100.718C55.162 100.933 55.1013 101.208 55.1013 101.544V101.684H60.6313V103H53.6173ZM65.5405 103.196C64.8032 103.196 64.1638 103.061 63.6225 102.79C63.0812 102.519 62.6612 102.137 62.3625 101.642C62.0732 101.147 61.9285 100.573 61.9285 99.92V99.766H63.4265V99.906C63.4265 100.503 63.6085 100.984 63.9725 101.348C64.3458 101.703 64.8638 101.88 65.5265 101.88C66.2078 101.88 66.7352 101.693 67.1085 101.32C67.4818 100.947 67.6685 100.443 67.6685 99.808V99.682C67.6685 99.0753 67.4818 98.59 67.1085 98.226C66.7445 97.862 66.2778 97.68 65.7085 97.68C65.3912 97.68 65.1252 97.7313 64.9105 97.834C64.7052 97.9273 64.5372 98.044 64.4065 98.184C64.2852 98.324 64.1825 98.4593 64.0985 98.59H62.2365V93.2H68.8025V94.53H63.7065V97.414H63.9305C64.0238 97.2553 64.1545 97.106 64.3225 96.966C64.4998 96.8167 64.7285 96.6953 65.0085 96.602C65.2885 96.5087 65.6245 96.462 66.0165 96.462C66.5952 96.462 67.1178 96.588 67.5845 96.84C68.0605 97.0827 68.4385 97.4467 68.7185 97.932C68.9985 98.408 69.1385 98.9867 69.1385 99.668V99.822C69.1385 100.503 68.9938 101.096 68.7045 101.6C68.4152 102.104 67.9998 102.496 67.4585 102.776C66.9265 103.056 66.2872 103.196 65.5405 103.196ZM74.2014 103.196C73.0627 103.196 72.1527 102.874 71.4714 102.23C70.7994 101.577 70.4634 100.597 70.4634 99.29V96.91C70.4634 95.6313 70.7994 94.6607 71.4714 93.998C72.1527 93.3353 73.0627 93.004 74.2014 93.004C75.3494 93.004 76.2594 93.3353 76.9314 93.998C77.6127 94.6607 77.9534 95.6313 77.9534 96.91V99.29C77.9534 100.597 77.6127 101.577 76.9314 102.23C76.2594 102.874 75.3494 103.196 74.2014 103.196ZM74.2014 101.88C74.976 101.88 75.55 101.661 75.9234 101.222C76.2967 100.774 76.4834 100.149 76.4834 99.346V96.826C76.4834 96.0233 76.2827 95.4073 75.8814 94.978C75.48 94.5393 74.92 94.32 74.2014 94.32C73.4734 94.32 72.9134 94.544 72.5214 94.992C72.1294 95.4307 71.9334 96.042 71.9334 96.826V99.346C71.9334 100.167 72.12 100.797 72.4934 101.236C72.876 101.665 73.4454 101.88 74.2014 101.88ZM80.4574 103.196C80.1307 103.196 79.8554 103.089 79.6314 102.874C79.4167 102.659 79.3094 102.384 79.3094 102.048C79.3094 101.712 79.4167 101.441 79.6314 101.236C79.8554 101.021 80.1307 100.914 80.4574 100.914C80.7841 100.914 81.0547 101.021 81.2694 101.236C81.4934 101.451 81.6054 101.721 81.6054 102.048C81.6054 102.384 81.4934 102.659 81.2694 102.874C81.0547 103.089 80.7841 103.196 80.4574 103.196ZM86.7111 103.196C85.5725 103.196 84.6625 102.874 83.9811 102.23C83.3091 101.577 82.9731 100.597 82.9731 99.29V96.91C82.9731 95.6313 83.3091 94.6607 83.9811 93.998C84.6625 93.3353 85.5725 93.004 86.7111 93.004C87.8591 93.004 88.7691 93.3353 89.4411 93.998C90.1225 94.6607 90.4631 95.6313 90.4631 96.91V99.29C90.4631 100.597 90.1225 101.577 89.4411 102.23C88.7691 102.874 87.8591 103.196 86.7111 103.196ZM86.7111 101.88C87.4858 101.88 88.0598 101.661 88.4331 101.222C88.8065 100.774 88.9931 100.149 88.9931 99.346V96.826C88.9931 96.0233 88.7925 95.4073 88.3911 94.978C87.9898 94.5393 87.4298 94.32 86.7111 94.32C85.9831 94.32 85.4231 94.544 85.0311 94.992C84.6391 95.4307 84.4431 96.042 84.4431 96.826V99.346C84.4431 100.167 84.6298 100.797 85.0031 101.236C85.3858 101.665 85.9551 101.88 86.7111 101.88ZM95.7346 103.196C94.5959 103.196 93.6859 102.874 93.0046 102.23C92.3326 101.577 91.9966 100.597 91.9966 99.29V96.91C91.9966 95.6313 92.3326 94.6607 93.0046 93.998C93.6859 93.3353 94.5959 93.004 95.7346 93.004C96.8826 93.004 97.7926 93.3353 98.4646 93.998C99.1459 94.6607 99.4866 95.6313 99.4866 96.91V99.29C99.4866 100.597 99.1459 101.577 98.4646 102.23C97.7926 102.874 96.8826 103.196 95.7346 103.196ZM95.7346 101.88C96.5092 101.88 97.0832 101.661 97.4566 101.222C97.8299 100.774 98.0166 100.149 98.0166 99.346V96.826C98.0166 96.0233 97.8159 95.4073 97.4146 94.978C97.0132 94.5393 96.4532 94.32 95.7346 94.32C95.0066 94.32 94.4466 94.544 94.0546 94.992C93.6626 95.4307 93.4666 96.042 93.4666 96.826V99.346C93.4666 100.167 93.6532 100.797 94.0266 101.236C94.4092 101.665 94.9786 101.88 95.7346 101.88ZM104.882 105.8V96.098H106.296V97.092H106.52C106.698 96.784 106.964 96.5087 107.318 96.266C107.682 96.0233 108.2 95.902 108.872 95.902C109.451 95.902 109.978 96.042 110.454 96.322C110.94 96.602 111.327 97.008 111.616 97.54C111.915 98.0627 112.064 98.6973 112.064 99.444V99.654C112.064 100.401 111.92 101.04 111.63 101.572C111.341 102.095 110.954 102.496 110.468 102.776C109.983 103.056 109.451 103.196 108.872 103.196C108.424 103.196 108.046 103.14 107.738 103.028C107.43 102.916 107.183 102.776 106.996 102.608C106.81 102.431 106.66 102.249 106.548 102.062H106.324V105.8H104.882ZM108.452 101.936C109.087 101.936 109.605 101.735 110.006 101.334C110.408 100.933 110.608 100.359 110.608 99.612V99.486C110.608 98.7487 110.403 98.1793 109.992 97.778C109.591 97.3767 109.078 97.176 108.452 97.176C107.836 97.176 107.323 97.3767 106.912 97.778C106.511 98.1793 106.31 98.7487 106.31 99.486V99.612C106.31 100.359 106.511 100.933 106.912 101.334C107.323 101.735 107.836 101.936 108.452 101.936ZM115.993 103.196C115.498 103.196 115.055 103.112 114.663 102.944C114.28 102.776 113.972 102.529 113.739 102.202C113.515 101.875 113.403 101.479 113.403 101.012C113.403 100.536 113.515 100.144 113.739 99.836C113.972 99.5187 114.285 99.2807 114.677 99.122C115.078 98.9633 115.531 98.884 116.035 98.884H118.135V98.436C118.135 98.0347 118.014 97.7127 117.771 97.47C117.528 97.2273 117.155 97.106 116.651 97.106C116.156 97.106 115.778 97.2227 115.517 97.456C115.256 97.6893 115.083 97.9927 114.999 98.366L113.655 97.932C113.767 97.5587 113.944 97.2227 114.187 96.924C114.439 96.616 114.77 96.3687 115.181 96.182C115.592 95.9953 116.086 95.902 116.665 95.902C117.561 95.902 118.266 96.1307 118.779 96.588C119.292 97.0453 119.549 97.694 119.549 98.534V101.376C119.549 101.656 119.68 101.796 119.941 101.796H120.529V103H119.451C119.124 103 118.858 102.916 118.653 102.748C118.448 102.58 118.345 102.351 118.345 102.062V102.02H118.135C118.06 102.16 117.948 102.323 117.799 102.51C117.65 102.697 117.43 102.86 117.141 103C116.852 103.131 116.469 103.196 115.993 103.196ZM116.203 102.006C116.782 102.006 117.248 101.843 117.603 101.516C117.958 101.18 118.135 100.723 118.135 100.144V100.004H116.119C115.736 100.004 115.428 100.088 115.195 100.256C114.962 100.415 114.845 100.653 114.845 100.97C114.845 101.287 114.966 101.539 115.209 101.726C115.452 101.913 115.783 102.006 116.203 102.006ZM121.931 103V96.098H123.373V103H121.931ZM122.659 95.16C122.379 95.16 122.141 95.0713 121.945 94.894C121.759 94.7073 121.665 94.4693 121.665 94.18C121.665 93.8907 121.759 93.6573 121.945 93.48C122.141 93.2933 122.379 93.2 122.659 93.2C122.949 93.2 123.187 93.2933 123.373 93.48C123.56 93.6573 123.653 93.8907 123.653 94.18C123.653 94.4693 123.56 94.7073 123.373 94.894C123.187 95.0713 122.949 95.16 122.659 95.16ZM128.369 103.196C127.8 103.196 127.273 103.056 126.787 102.776C126.302 102.496 125.91 102.095 125.611 101.572C125.322 101.04 125.177 100.401 125.177 99.654V99.444C125.177 98.7067 125.322 98.072 125.611 97.54C125.901 97.008 126.288 96.602 126.773 96.322C127.259 96.042 127.791 95.902 128.369 95.902C128.817 95.902 129.191 95.958 129.489 96.07C129.797 96.182 130.049 96.3267 130.245 96.504C130.441 96.672 130.591 96.8493 130.693 97.036H130.917V93.2H132.359V103H130.945V102.02H130.721C130.544 102.319 130.273 102.589 129.909 102.832C129.555 103.075 129.041 103.196 128.369 103.196ZM128.775 101.936C129.401 101.936 129.914 101.735 130.315 101.334C130.726 100.933 130.931 100.359 130.931 99.612V99.486C130.931 98.7487 130.731 98.1793 130.329 97.778C129.928 97.3767 129.41 97.176 128.775 97.176C128.159 97.176 127.646 97.3767 127.235 97.778C126.834 98.1793 126.633 98.7487 126.633 99.486V99.612C126.633 100.359 126.834 100.933 127.235 101.334C127.646 101.735 128.159 101.936 128.775 101.936ZM142.04 103.196C141.368 103.196 140.85 103.075 140.486 102.832C140.132 102.589 139.866 102.319 139.688 102.02H139.464V103H138.05V93.2H139.492V97.036H139.716C139.828 96.8493 139.978 96.672 140.164 96.504C140.351 96.3267 140.598 96.182 140.906 96.07C141.214 95.958 141.592 95.902 142.04 95.902C142.619 95.902 143.151 96.042 143.636 96.322C144.122 96.602 144.509 97.008 144.798 97.54C145.088 98.072 145.232 98.7067 145.232 99.444V99.654C145.232 100.401 145.083 101.04 144.784 101.572C144.495 102.095 144.108 102.496 143.622 102.776C143.146 103.056 142.619 103.196 142.04 103.196ZM141.62 101.936C142.246 101.936 142.759 101.735 143.16 101.334C143.571 100.933 143.776 100.359 143.776 99.612V99.486C143.776 98.7487 143.576 98.1793 143.174 97.778C142.773 97.3767 142.255 97.176 141.62 97.176C141.004 97.176 140.491 97.3767 140.08 97.778C139.679 98.1793 139.478 98.7487 139.478 99.486V99.612C139.478 100.359 139.679 100.933 140.08 101.334C140.491 101.735 141.004 101.936 141.62 101.936ZM147.817 105.8V104.54H151.667C151.928 104.54 152.059 104.4 152.059 104.12V101.992H151.835C151.751 102.179 151.62 102.361 151.443 102.538C151.275 102.706 151.046 102.846 150.757 102.958C150.468 103.07 150.104 103.126 149.665 103.126C149.142 103.126 148.676 103.009 148.265 102.776C147.854 102.543 147.532 102.211 147.299 101.782C147.066 101.353 146.949 100.844 146.949 100.256V96.098H148.391V100.144C148.391 100.741 148.54 101.185 148.839 101.474C149.138 101.754 149.553 101.894 150.085 101.894C150.673 101.894 151.144 101.698 151.499 101.306C151.863 100.914 152.045 100.345 152.045 99.598V96.098H153.487V104.414C153.487 104.834 153.361 105.17 153.109 105.422C152.866 105.674 152.53 105.8 152.101 105.8H147.817ZM162.393 103.196C161.73 103.196 161.128 103.056 160.587 102.776C160.055 102.496 159.63 102.09 159.313 101.558C159.005 101.026 158.851 100.387 158.851 99.64V99.458C158.851 98.7113 159.005 98.0767 159.313 97.554C159.63 97.022 160.055 96.616 160.587 96.336C161.128 96.0467 161.73 95.902 162.393 95.902C163.056 95.902 163.62 96.0233 164.087 96.266C164.554 96.5087 164.927 96.8307 165.207 97.232C165.496 97.6333 165.683 98.0767 165.767 98.562L164.367 98.856C164.32 98.548 164.222 98.268 164.073 98.016C163.924 97.764 163.714 97.5633 163.443 97.414C163.172 97.2647 162.832 97.19 162.421 97.19C162.02 97.19 161.656 97.2833 161.329 97.47C161.012 97.6473 160.76 97.9087 160.573 98.254C160.386 98.59 160.293 99.0007 160.293 99.486V99.612C160.293 100.097 160.386 100.513 160.573 100.858C160.76 101.203 161.012 101.465 161.329 101.642C161.656 101.819 162.02 101.908 162.421 101.908C163.028 101.908 163.49 101.754 163.807 101.446C164.124 101.129 164.325 100.727 164.409 100.242L165.809 100.564C165.697 101.04 165.496 101.479 165.207 101.88C164.927 102.281 164.554 102.603 164.087 102.846C163.62 103.079 163.056 103.196 162.393 103.196ZM170.118 103.126C169.596 103.126 169.129 103.009 168.718 102.776C168.308 102.543 167.986 102.211 167.752 101.782C167.519 101.353 167.402 100.839 167.402 100.242V96.098H168.844V100.144C168.844 100.741 168.994 101.185 169.292 101.474C169.591 101.754 170.006 101.894 170.538 101.894C171.126 101.894 171.598 101.698 171.952 101.306C172.316 100.905 172.498 100.331 172.498 99.584V96.098H173.94V103H172.526V101.964H172.302C172.172 102.244 171.938 102.51 171.602 102.762C171.266 103.005 170.772 103.126 170.118 103.126ZM178.9 103.196C178.022 103.196 177.294 103 176.716 102.608C176.137 102.216 175.782 101.623 175.652 100.83L176.996 100.508C177.07 100.891 177.196 101.194 177.374 101.418C177.551 101.642 177.77 101.801 178.032 101.894C178.302 101.987 178.592 102.034 178.9 102.034C179.357 102.034 179.707 101.945 179.95 101.768C180.202 101.591 180.328 101.362 180.328 101.082C180.328 100.802 180.211 100.597 179.978 100.466C179.744 100.335 179.399 100.228 178.942 100.144L178.466 100.06C177.999 99.976 177.574 99.8547 177.192 99.696C176.809 99.5373 176.506 99.318 176.282 99.038C176.058 98.758 175.946 98.3987 175.946 97.96C175.946 97.3067 176.188 96.8027 176.674 96.448C177.159 96.084 177.803 95.902 178.606 95.902C179.38 95.902 180.015 96.0793 180.51 96.434C181.014 96.7793 181.34 97.2507 181.49 97.848L180.146 98.226C180.062 97.806 179.884 97.512 179.614 97.344C179.343 97.1667 179.007 97.078 178.606 97.078C178.214 97.078 177.906 97.1527 177.682 97.302C177.458 97.442 177.346 97.6427 177.346 97.904C177.346 98.184 177.453 98.3893 177.668 98.52C177.892 98.6507 178.19 98.7487 178.564 98.814L179.054 98.898C179.548 98.982 180.001 99.0987 180.412 99.248C180.822 99.3973 181.144 99.612 181.378 99.892C181.62 100.172 181.742 100.545 181.742 101.012C181.742 101.703 181.485 102.239 180.972 102.622C180.458 103.005 179.768 103.196 178.9 103.196ZM185.867 103C185.447 103 185.111 102.874 184.859 102.622C184.616 102.37 184.495 102.034 184.495 101.614V97.316H182.591V96.098H184.495V93.816H185.937V96.098H187.995V97.316H185.937V101.362C185.937 101.642 186.068 101.782 186.329 101.782H187.771V103H185.867ZM192.677 103.196C191.986 103.196 191.37 103.056 190.829 102.776C190.297 102.487 189.877 102.076 189.569 101.544C189.261 101.012 189.107 100.382 189.107 99.654V99.444C189.107 98.716 189.261 98.0907 189.569 97.568C189.877 97.036 190.297 96.6253 190.829 96.336C191.37 96.0467 191.986 95.902 192.677 95.902C193.368 95.902 193.984 96.0467 194.525 96.336C195.066 96.6253 195.491 97.036 195.799 97.568C196.107 98.0907 196.261 98.716 196.261 99.444V99.654C196.261 100.382 196.107 101.012 195.799 101.544C195.491 102.076 195.066 102.487 194.525 102.776C193.984 103.056 193.368 103.196 192.677 103.196ZM192.677 101.908C193.312 101.908 193.825 101.707 194.217 101.306C194.618 100.895 194.819 100.331 194.819 99.612V99.486C194.819 98.7673 194.623 98.2073 194.231 97.806C193.839 97.3953 193.321 97.19 192.677 97.19C192.052 97.19 191.538 97.3953 191.137 97.806C190.745 98.2073 190.549 98.7673 190.549 99.486V99.612C190.549 100.331 190.745 100.895 191.137 101.306C191.538 101.707 192.052 101.908 192.677 101.908ZM198.056 103V96.098H199.47V96.91H199.694C199.825 96.6673 200.035 96.4527 200.324 96.266C200.614 96.0793 201.006 95.986 201.5 95.986C202.014 95.986 202.424 96.0933 202.732 96.308C203.05 96.5133 203.288 96.7793 203.446 97.106H203.67C203.829 96.7887 204.058 96.5227 204.356 96.308C204.664 96.0933 205.098 95.986 205.658 95.986C206.106 95.986 206.503 96.0793 206.848 96.266C207.194 96.4433 207.469 96.714 207.674 97.078C207.88 97.4327 207.982 97.876 207.982 98.408V103H206.54V98.52C206.54 98.1 206.424 97.778 206.19 97.554C205.966 97.3207 205.644 97.204 205.224 97.204C204.776 97.204 204.417 97.3487 204.146 97.638C203.876 97.9273 203.74 98.3427 203.74 98.884V103H202.298V98.52C202.298 98.1 202.182 97.778 201.948 97.554C201.724 97.3207 201.402 97.204 200.982 97.204C200.534 97.204 200.175 97.3487 199.904 97.638C199.634 97.9273 199.498 98.3427 199.498 98.884V103H198.056ZM213.224 103.196C212.524 103.196 211.913 103.051 211.39 102.762C210.867 102.463 210.457 102.048 210.158 101.516C209.869 100.975 209.724 100.349 209.724 99.64V99.472C209.724 98.7533 209.869 98.128 210.158 97.596C210.447 97.0547 210.849 96.6393 211.362 96.35C211.885 96.0513 212.487 95.902 213.168 95.902C213.831 95.902 214.409 96.0513 214.904 96.35C215.408 96.6393 215.8 97.0453 216.08 97.568C216.36 98.0907 216.5 98.702 216.5 99.402V99.948H211.194C211.213 100.555 211.413 101.04 211.796 101.404C212.188 101.759 212.673 101.936 213.252 101.936C213.793 101.936 214.199 101.815 214.47 101.572C214.75 101.329 214.965 101.049 215.114 100.732L216.304 101.348C216.173 101.609 215.982 101.885 215.73 102.174C215.487 102.463 215.165 102.706 214.764 102.902C214.363 103.098 213.849 103.196 213.224 103.196ZM211.208 98.842H215.03C214.993 98.3193 214.806 97.9133 214.47 97.624C214.134 97.3253 213.695 97.176 213.154 97.176C212.613 97.176 212.169 97.3253 211.824 97.624C211.488 97.9133 211.283 98.3193 211.208 98.842ZM218.236 103V96.098H219.65V96.91H219.874C219.986 96.6207 220.163 96.4107 220.406 96.28C220.658 96.14 220.966 96.07 221.33 96.07H222.156V97.372H221.274C220.807 97.372 220.425 97.5027 220.126 97.764C219.827 98.016 219.678 98.408 219.678 98.94V103H218.236Z" fill="white"></path><g filter="url(#filter0_b_206_497)"><rect x="12" y="136" width="108" height="28" rx="14" fill="url(#paint2_linear_206_497)"></rect><path d="M52.9977 154V147.04H50.5497V145.6H57.0297V147.04H54.5817V154H52.9977ZM57.3361 154V148.048H58.8241V148.72H59.0401C59.1281 148.48 59.2721 148.304 59.4721 148.192C59.6801 148.08 59.9201 148.024 60.1921 148.024H60.9121V149.368H60.1681C59.7841 149.368 59.4681 149.472 59.2201 149.68C58.9721 149.88 58.8481 150.192 58.8481 150.616V154H57.3361ZM63.8013 154.168C63.3773 154.168 62.9973 154.096 62.6613 153.952C62.3253 153.8 62.0573 153.584 61.8573 153.304C61.6653 153.016 61.5693 152.668 61.5693 152.26C61.5693 151.852 61.6653 151.512 61.8573 151.24C62.0573 150.96 62.3293 150.752 62.6733 150.616C63.0253 150.472 63.4253 150.4 63.8733 150.4H65.5053V150.064C65.5053 149.784 65.4173 149.556 65.2413 149.38C65.0653 149.196 64.7853 149.104 64.4013 149.104C64.0253 149.104 63.7453 149.192 63.5613 149.368C63.3773 149.536 63.2573 149.756 63.2013 150.028L61.8093 149.56C61.9053 149.256 62.0573 148.98 62.2653 148.732C62.4813 148.476 62.7653 148.272 63.1173 148.12C63.4773 147.96 63.9133 147.88 64.4253 147.88C65.2093 147.88 65.8293 148.076 66.2853 148.468C66.7413 148.86 66.9693 149.428 66.9693 150.172V152.392C66.9693 152.632 67.0813 152.752 67.3053 152.752H67.7853V154H66.7773C66.4813 154 66.2373 153.928 66.0453 153.784C65.8533 153.64 65.7573 153.448 65.7573 153.208V153.196H65.5293C65.4973 153.292 65.4253 153.42 65.3133 153.58C65.2013 153.732 65.0253 153.868 64.7853 153.988C64.5453 154.108 64.2173 154.168 63.8013 154.168ZM64.0653 152.944C64.4893 152.944 64.8333 152.828 65.0973 152.596C65.3693 152.356 65.5053 152.04 65.5053 151.648V151.528H63.9813C63.7013 151.528 63.4813 151.588 63.3213 151.708C63.1613 151.828 63.0813 151.996 63.0813 152.212C63.0813 152.428 63.1653 152.604 63.3333 152.74C63.5013 152.876 63.7453 152.944 64.0653 152.944ZM71.5696 154.168C70.9936 154.168 70.4696 154.048 69.9976 153.808C69.5336 153.568 69.1656 153.22 68.8936 152.764C68.6216 152.308 68.4856 151.756 68.4856 151.108V150.94C68.4856 150.292 68.6216 149.74 68.8936 149.284C69.1656 148.828 69.5336 148.48 69.9976 148.24C70.4696 148 70.9936 147.88 71.5696 147.88C72.1376 147.88 72.6256 147.98 73.0336 148.18C73.4416 148.38 73.7696 148.656 74.0176 149.008C74.2736 149.352 74.4416 149.744 74.5216 150.184L73.0576 150.496C73.0256 150.256 72.9536 150.04 72.8416 149.848C72.7296 149.656 72.5696 149.504 72.3616 149.392C72.1616 149.28 71.9096 149.224 71.6056 149.224C71.3016 149.224 71.0256 149.292 70.7776 149.428C70.5376 149.556 70.3456 149.752 70.2016 150.016C70.0656 150.272 69.9976 150.588 69.9976 150.964V151.084C69.9976 151.46 70.0656 151.78 70.2016 152.044C70.3456 152.3 70.5376 152.496 70.7776 152.632C71.0256 152.76 71.3016 152.824 71.6056 152.824C72.0616 152.824 72.4056 152.708 72.6376 152.476C72.8776 152.236 73.0296 151.924 73.0936 151.54L74.5576 151.888C74.4536 152.312 74.2736 152.7 74.0176 153.052C73.7696 153.396 73.4416 153.668 73.0336 153.868C72.6256 154.068 72.1376 154.168 71.5696 154.168ZM75.8048 154V145.6H77.3168V150.244H77.5328L79.5008 148.048H81.4688L78.7208 150.928L81.5648 154H79.6208L77.5328 151.636H77.3168V154H75.8048Z" fill="#BCE4E2"></path><rect x="12.5" y="136.5" width="107" height="27" rx="13.5" stroke="#B7E2E0"></rect></g><g clip-path="url(#clip0_206_497)"><path d="M30.3327 185.233V186C30.3317 187.797 29.7498 189.546 28.6738 190.985C27.5978 192.424 26.0854 193.477 24.3621 193.987C22.6389 194.496 20.7971 194.435 19.1114 193.812C17.4257 193.189 15.9866 192.038 15.0085 190.531C14.0304 189.023 13.5658 187.24 13.6841 185.447C13.8023 183.654 14.497 181.947 15.6646 180.581C16.8321 179.215 18.41 178.263 20.1628 177.867C21.9157 177.471 23.7496 177.652 25.391 178.383" stroke="#D9FBEF" stroke-width="2" stroke-linecap="round" stroke-linejoin="round"></path><path d="M30.3333 179.333L22 187.675L19.5 185.175" stroke="#D9FBEF" stroke-width="2" stroke-linecap="round" stroke-linejoin="round"></path></g><path d="M44.4261 182.794V181.273H51.5938V182.794H48.9219V190H47.098V182.794H44.4261ZM52.0604 190V183.455H53.8203V184.597H53.8885C54.0078 184.19 54.2081 183.884 54.4893 183.676C54.7706 183.466 55.0945 183.361 55.4609 183.361C55.5518 183.361 55.6499 183.366 55.755 183.378C55.8601 183.389 55.9524 183.405 56.032 183.425V185.036C55.9467 185.01 55.8288 184.987 55.6783 184.967C55.5277 184.947 55.3899 184.938 55.2649 184.938C54.9979 184.938 54.7592 184.996 54.549 185.112C54.3416 185.226 54.1768 185.385 54.0547 185.589C53.9354 185.794 53.8757 186.03 53.8757 186.297V190H52.0604ZM58.6495 190.124C58.2319 190.124 57.8597 190.051 57.533 189.906C57.2063 189.759 56.9478 189.541 56.7575 189.254C56.57 188.964 56.4762 188.604 56.4762 188.172C56.4762 187.808 56.543 187.503 56.6765 187.256C56.81 187.009 56.9918 186.81 57.2219 186.659C57.4521 186.509 57.7134 186.395 58.006 186.318C58.3015 186.241 58.6112 186.188 58.935 186.156C59.3157 186.116 59.6225 186.08 59.8555 186.045C60.0884 186.009 60.2575 185.955 60.3626 185.884C60.4677 185.812 60.5202 185.707 60.5202 185.568V185.543C60.5202 185.273 60.435 185.064 60.2646 184.916C60.0969 184.768 59.8583 184.695 59.5487 184.695C59.2219 184.695 58.962 184.767 58.7688 184.912C58.5756 185.054 58.4478 185.233 58.3853 185.449L56.7063 185.312C56.7915 184.915 56.9592 184.571 57.2092 184.281C57.4592 183.989 57.7816 183.764 58.1765 183.608C58.5742 183.449 59.0344 183.369 59.5572 183.369C59.9208 183.369 60.2688 183.412 60.6012 183.497C60.9364 183.582 61.2333 183.714 61.4918 183.893C61.7532 184.072 61.9592 184.303 62.1097 184.584C62.2603 184.862 62.3356 185.196 62.3356 185.585V190H60.614V189.092H60.5629C60.4577 189.297 60.3171 189.477 60.141 189.634C59.9648 189.787 59.7532 189.908 59.506 189.996C59.2589 190.081 58.9734 190.124 58.6495 190.124ZM59.1694 188.871C59.4364 188.871 59.6722 188.818 59.8768 188.713C60.0813 188.605 60.2418 188.46 60.3583 188.278C60.4748 188.097 60.533 187.891 60.533 187.661V186.966C60.4762 187.003 60.3981 187.037 60.2987 187.068C60.2021 187.097 60.0927 187.124 59.9705 187.149C59.8484 187.172 59.7262 187.193 59.604 187.213C59.4819 187.23 59.3711 187.246 59.2717 187.26C59.0586 187.291 58.8725 187.341 58.7134 187.409C58.5543 187.477 58.4308 187.57 58.3427 187.686C58.2546 187.8 58.2106 187.942 58.2106 188.112C58.2106 188.359 58.3001 188.548 58.479 188.679C58.6609 188.807 58.891 188.871 59.1694 188.871ZM65.5593 186.216V190H63.744V183.455H65.4741V184.609H65.5508C65.6957 184.229 65.9386 183.928 66.2795 183.706C66.6204 183.482 67.0337 183.369 67.5195 183.369C67.9741 183.369 68.3704 183.469 68.7085 183.668C69.0465 183.866 69.3093 184.151 69.4968 184.52C69.6843 184.886 69.7781 185.324 69.7781 185.832V190H67.9627V186.156C67.9656 185.756 67.8633 185.443 67.6559 185.219C67.4485 184.991 67.163 184.878 66.7994 184.878C66.555 184.878 66.3391 184.93 66.1516 185.036C65.967 185.141 65.8221 185.294 65.717 185.496C65.6147 185.695 65.5621 185.935 65.5593 186.216ZM76.6548 185.321L74.9929 185.423C74.9645 185.281 74.9034 185.153 74.8097 185.04C74.7159 184.923 74.5923 184.831 74.4389 184.763C74.2884 184.692 74.108 184.656 73.8977 184.656C73.6165 184.656 73.3793 184.716 73.1861 184.835C72.9929 184.952 72.8963 185.108 72.8963 185.304C72.8963 185.46 72.9588 185.592 73.0838 185.7C73.2088 185.808 73.4233 185.895 73.7273 185.96L74.9119 186.199C75.5483 186.33 76.0227 186.54 76.3352 186.83C76.6477 187.119 76.804 187.5 76.804 187.972C76.804 188.401 76.6776 188.777 76.4247 189.101C76.1747 189.425 75.831 189.678 75.3935 189.859C74.9588 190.038 74.4574 190.128 73.8892 190.128C73.0227 190.128 72.3324 189.947 71.8182 189.587C71.3068 189.223 71.0071 188.729 70.919 188.104L72.7045 188.01C72.7585 188.274 72.8892 188.476 73.0966 188.615C73.304 188.751 73.5696 188.82 73.8935 188.82C74.2116 188.82 74.4673 188.759 74.6605 188.636C74.8565 188.511 74.956 188.351 74.9588 188.155C74.956 187.99 74.8864 187.855 74.75 187.75C74.6136 187.642 74.4034 187.56 74.1193 187.503L72.9858 187.277C72.3466 187.149 71.8707 186.928 71.5582 186.612C71.2486 186.297 71.0938 185.895 71.0938 185.406C71.0938 184.986 71.2074 184.624 71.4347 184.32C71.6648 184.016 71.9872 183.781 72.402 183.616C72.8196 183.452 73.3082 183.369 73.8679 183.369C74.6946 183.369 75.3452 183.544 75.8196 183.893C76.2969 184.243 76.5753 184.719 76.6548 185.321ZM77.9471 192.455V183.455H79.7369V184.554H79.8178C79.8974 184.378 80.0124 184.199 80.163 184.017C80.3164 183.832 80.5153 183.679 80.7596 183.557C81.0067 183.432 81.3136 183.369 81.68 183.369C82.1573 183.369 82.5977 183.494 83.0011 183.744C83.4045 183.991 83.7269 184.365 83.9684 184.865C84.2099 185.362 84.3306 185.986 84.3306 186.736C84.3306 187.466 84.2127 188.082 83.9769 188.585C83.744 189.085 83.4258 189.464 83.0224 189.723C82.6218 189.979 82.1729 190.107 81.6758 190.107C81.3235 190.107 81.0238 190.048 80.7766 189.932C80.5323 189.815 80.332 189.669 80.1758 189.493C80.0195 189.314 79.9002 189.134 79.8178 188.952H79.7624V192.455H77.9471ZM79.7241 186.727C79.7241 187.116 79.7781 187.456 79.886 187.746C79.994 188.036 80.1502 188.261 80.3548 188.423C80.5593 188.582 80.8079 188.662 81.1005 188.662C81.396 188.662 81.646 188.581 81.8505 188.419C82.055 188.254 82.2099 188.027 82.315 187.737C82.4229 187.445 82.4769 187.108 82.4769 186.727C82.4769 186.349 82.4244 186.017 82.3192 185.73C82.2141 185.443 82.0593 185.219 81.8548 185.057C81.6502 184.895 81.3988 184.814 81.1005 184.814C80.805 184.814 80.555 184.892 80.3505 185.048C80.1488 185.205 79.994 185.426 79.886 185.713C79.7781 186 79.7241 186.338 79.7241 186.727ZM87.4073 190.124C86.9897 190.124 86.6175 190.051 86.2908 189.906C85.9641 189.759 85.7056 189.541 85.5153 189.254C85.3278 188.964 85.234 188.604 85.234 188.172C85.234 187.808 85.3008 187.503 85.4343 187.256C85.5678 187.009 85.7496 186.81 85.9798 186.659C86.2099 186.509 86.4712 186.395 86.7638 186.318C87.0593 186.241 87.369 186.188 87.6928 186.156C88.0735 186.116 88.3803 186.08 88.6133 186.045C88.8462 186.009 89.0153 185.955 89.1204 185.884C89.2255 185.812 89.2781 185.707 89.2781 185.568V185.543C89.2781 185.273 89.1928 185.064 89.0224 184.916C88.8548 184.768 88.6161 184.695 88.3065 184.695C87.9798 184.695 87.7198 184.767 87.5266 184.912C87.3335 185.054 87.2056 185.233 87.1431 185.449L85.4641 185.312C85.5494 184.915 85.717 184.571 85.967 184.281C86.217 183.989 86.5394 183.764 86.9343 183.608C87.332 183.449 87.7923 183.369 88.315 183.369C88.6786 183.369 89.0266 183.412 89.359 183.497C89.6942 183.582 89.9911 183.714 90.2496 183.893C90.511 184.072 90.717 184.303 90.8675 184.584C91.0181 184.862 91.0934 185.196 91.0934 185.585V190H89.3718V189.092H89.3207C89.2156 189.297 89.0749 189.477 88.8988 189.634C88.7227 189.787 88.511 189.908 88.2638 189.996C88.0167 190.081 87.7312 190.124 87.4073 190.124ZM87.9272 188.871C88.1942 188.871 88.43 188.818 88.6346 188.713C88.8391 188.605 88.9996 188.46 89.1161 188.278C89.2326 188.097 89.2908 187.891 89.2908 187.661V186.966C89.234 187.003 89.1559 187.037 89.0565 187.068C88.9599 187.097 88.8505 187.124 88.7283 187.149C88.6062 187.172 88.484 187.193 88.3619 187.213C88.2397 187.23 88.1289 187.246 88.0295 187.26C87.8164 187.291 87.6303 187.341 87.4712 187.409C87.3121 187.477 87.1886 187.57 87.1005 187.686C87.0124 187.8 86.9684 187.942 86.9684 188.112C86.9684 188.359 87.0579 188.548 87.2369 188.679C87.4187 188.807 87.6488 188.871 87.9272 188.871ZM92.5018 190V183.455H94.2617V184.597H94.3299C94.4492 184.19 94.6495 183.884 94.9308 183.676C95.212 183.466 95.5359 183.361 95.9023 183.361C95.9933 183.361 96.0913 183.366 96.1964 183.378C96.3015 183.389 96.3938 183.405 96.4734 183.425V185.036C96.3881 185.01 96.2702 184.987 96.1197 184.967C95.9691 184.947 95.8313 184.938 95.7063 184.938C95.4393 184.938 95.2006 184.996 94.9904 185.112C94.783 185.226 94.6183 185.385 94.4961 185.589C94.3768 185.794 94.3171 186.03 94.3171 186.297V190H92.5018ZM100.09 190.128C99.4169 190.128 98.8374 189.991 98.3516 189.719C97.8686 189.443 97.4964 189.054 97.2351 188.551C96.9737 188.045 96.843 187.447 96.843 186.757C96.843 186.084 96.9737 185.493 97.2351 184.984C97.4964 184.476 97.8643 184.08 98.3388 183.795C98.8161 183.511 99.3757 183.369 100.018 183.369C100.45 183.369 100.852 183.439 101.224 183.578C101.599 183.714 101.925 183.92 102.204 184.196C102.485 184.472 102.704 184.818 102.86 185.236C103.016 185.651 103.094 186.136 103.094 186.693V187.192H97.5675V186.067H101.386C101.386 185.805 101.329 185.574 101.215 185.372C101.102 185.17 100.944 185.013 100.742 184.899C100.543 184.783 100.312 184.724 100.048 184.724C99.772 184.724 99.5277 184.788 99.3146 184.916C99.1044 185.041 98.9396 185.21 98.8203 185.423C98.701 185.634 98.6399 185.868 98.6371 186.126V187.196C98.6371 187.52 98.6967 187.8 98.8161 188.036C98.9382 188.271 99.1101 188.453 99.3317 188.581C99.5533 188.709 99.8161 188.773 100.12 188.773C100.322 188.773 100.506 188.744 100.674 188.688C100.842 188.631 100.985 188.545 101.104 188.432C101.224 188.318 101.315 188.179 101.377 188.014L103.056 188.125C102.971 188.528 102.796 188.881 102.532 189.182C102.271 189.48 101.933 189.713 101.518 189.881C101.106 190.045 100.63 190.128 100.09 190.128ZM106.094 186.216V190H104.279V183.455H106.009V184.609H106.086C106.231 184.229 106.474 183.928 106.815 183.706C107.156 183.482 107.569 183.369 108.055 183.369C108.509 183.369 108.906 183.469 109.244 183.668C109.582 183.866 109.844 184.151 110.032 184.52C110.219 184.886 110.313 185.324 110.313 185.832V190H108.498V186.156C108.501 185.756 108.398 185.443 108.191 185.219C107.984 184.991 107.698 184.878 107.335 184.878C107.09 184.878 106.874 184.93 106.687 185.036C106.502 185.141 106.357 185.294 106.252 185.496C106.15 185.695 106.097 185.935 106.094 186.216ZM114.701 190.128C114.031 190.128 113.454 189.986 112.971 189.702C112.491 189.415 112.122 189.017 111.863 188.509C111.608 188 111.48 187.415 111.48 186.753C111.48 186.082 111.609 185.494 111.868 184.989C112.129 184.48 112.5 184.084 112.98 183.8C113.46 183.513 114.031 183.369 114.693 183.369C115.264 183.369 115.764 183.473 116.193 183.68C116.622 183.888 116.961 184.179 117.211 184.554C117.461 184.929 117.599 185.369 117.625 185.875H115.912C115.863 185.548 115.735 185.286 115.528 185.087C115.324 184.885 115.055 184.784 114.723 184.784C114.441 184.784 114.196 184.861 113.985 185.014C113.778 185.165 113.616 185.385 113.5 185.675C113.383 185.964 113.325 186.315 113.325 186.727C113.325 187.145 113.382 187.5 113.495 187.793C113.612 188.085 113.775 188.308 113.985 188.462C114.196 188.615 114.441 188.692 114.723 188.692C114.93 188.692 115.116 188.649 115.281 188.564C115.449 188.479 115.586 188.355 115.694 188.193C115.805 188.028 115.877 187.831 115.912 187.601H117.625C117.596 188.101 117.46 188.541 117.216 188.922C116.974 189.3 116.64 189.595 116.214 189.808C115.788 190.021 115.284 190.128 114.701 190.128ZM119.908 192.455C119.678 192.455 119.462 192.436 119.26 192.399C119.061 192.365 118.896 192.321 118.766 192.267L119.175 190.912C119.388 190.977 119.58 191.013 119.75 191.018C119.923 191.024 120.072 190.984 120.197 190.899C120.325 190.814 120.429 190.669 120.509 190.464L120.615 190.188L118.267 183.455H120.176L121.531 188.261H121.599L122.967 183.455H124.889L122.345 190.707C122.223 191.06 122.057 191.366 121.847 191.628C121.639 191.892 121.376 192.095 121.058 192.237C120.74 192.382 120.357 192.455 119.908 192.455ZM128.596 192.455V183.455H130.385V184.554H130.466C130.546 184.378 130.661 184.199 130.811 184.017C130.965 183.832 131.164 183.679 131.408 183.557C131.655 183.432 131.962 183.369 132.328 183.369C132.806 183.369 133.246 183.494 133.65 183.744C134.053 183.991 134.375 184.365 134.617 184.865C134.858 185.362 134.979 185.986 134.979 186.736C134.979 187.466 134.861 188.082 134.625 188.585C134.392 189.085 134.074 189.464 133.671 189.723C133.27 189.979 132.821 190.107 132.324 190.107C131.972 190.107 131.672 190.048 131.425 189.932C131.181 189.815 130.98 189.669 130.824 189.493C130.668 189.314 130.549 189.134 130.466 188.952H130.411V192.455H128.596ZM130.373 186.727C130.373 187.116 130.426 187.456 130.534 187.746C130.642 188.036 130.799 188.261 131.003 188.423C131.208 188.582 131.456 188.662 131.749 188.662C132.044 188.662 132.294 188.581 132.499 188.419C132.703 188.254 132.858 188.027 132.963 187.737C133.071 187.445 133.125 187.108 133.125 186.727C133.125 186.349 133.073 186.017 132.968 185.73C132.863 185.443 132.708 185.219 132.503 185.057C132.299 184.895 132.047 184.814 131.749 184.814C131.453 184.814 131.203 184.892 130.999 185.048C130.797 185.205 130.642 185.426 130.534 185.713C130.426 186 130.373 186.338 130.373 186.727ZM136.189 190V183.455H137.949V184.597H138.017C138.137 184.19 138.337 183.884 138.618 183.676C138.9 183.466 139.223 183.361 139.59 183.361C139.681 183.361 139.779 183.366 139.884 183.378C139.989 183.389 140.081 183.405 140.161 183.425V185.036C140.076 185.01 139.958 184.987 139.807 184.967C139.657 184.947 139.519 184.938 139.394 184.938C139.127 184.938 138.888 184.996 138.678 185.112C138.471 185.226 138.306 185.385 138.184 185.589C138.064 185.794 138.005 186.03 138.005 186.297V190H136.189ZM143.752 190.128C143.09 190.128 142.518 189.987 142.035 189.706C141.555 189.422 141.184 189.027 140.923 188.521C140.661 188.013 140.531 187.423 140.531 186.753C140.531 186.077 140.661 185.486 140.923 184.98C141.184 184.472 141.555 184.077 142.035 183.795C142.518 183.511 143.09 183.369 143.752 183.369C144.414 183.369 144.985 183.511 145.465 183.795C145.948 184.077 146.32 184.472 146.582 184.98C146.843 185.486 146.974 186.077 146.974 186.753C146.974 187.423 146.843 188.013 146.582 188.521C146.32 189.027 145.948 189.422 145.465 189.706C144.985 189.987 144.414 190.128 143.752 190.128ZM143.761 188.722C144.062 188.722 144.313 188.636 144.515 188.466C144.717 188.293 144.869 188.057 144.971 187.759C145.076 187.46 145.129 187.121 145.129 186.74C145.129 186.359 145.076 186.02 144.971 185.722C144.869 185.423 144.717 185.187 144.515 185.014C144.313 184.841 144.062 184.754 143.761 184.754C143.457 184.754 143.201 184.841 142.994 185.014C142.789 185.187 142.634 185.423 142.529 185.722C142.427 186.02 142.376 186.359 142.376 186.74C142.376 187.121 142.427 187.46 142.529 187.759C142.634 188.057 142.789 188.293 142.994 188.466C143.201 188.636 143.457 188.722 143.761 188.722ZM148.154 190V183.455H149.884V184.609H149.961C150.097 184.226 150.325 183.923 150.643 183.702C150.961 183.48 151.342 183.369 151.785 183.369C152.234 183.369 152.616 183.482 152.931 183.706C153.246 183.928 153.457 184.229 153.562 184.609H153.63C153.763 184.234 154.005 183.935 154.354 183.71C154.707 183.483 155.123 183.369 155.603 183.369C156.214 183.369 156.71 183.564 157.09 183.953C157.474 184.339 157.665 184.888 157.665 185.598V190H155.854V185.956C155.854 185.592 155.758 185.32 155.565 185.138C155.371 184.956 155.13 184.865 154.84 184.865C154.511 184.865 154.254 184.97 154.069 185.18C153.884 185.388 153.792 185.662 153.792 186.003V190H152.032V185.918C152.032 185.597 151.94 185.341 151.755 185.151C151.573 184.96 151.333 184.865 151.035 184.865C150.833 184.865 150.651 184.916 150.489 185.018C150.33 185.118 150.204 185.259 150.11 185.44C150.016 185.619 149.969 185.83 149.969 186.071V190H148.154ZM159.099 190V183.455H160.915V190H159.099ZM160.011 182.611C159.741 182.611 159.51 182.521 159.317 182.342C159.126 182.161 159.031 181.943 159.031 181.69C159.031 181.44 159.126 181.226 159.317 181.047C159.51 180.865 159.741 180.774 160.011 180.774C160.281 180.774 160.511 180.865 160.702 181.047C160.895 181.226 160.991 181.44 160.991 181.69C160.991 181.943 160.895 182.161 160.702 182.342C160.511 182.521 160.281 182.611 160.011 182.611ZM167.815 185.321L166.153 185.423C166.125 185.281 166.064 185.153 165.97 185.04C165.876 184.923 165.752 184.831 165.599 184.763C165.449 184.692 165.268 184.656 165.058 184.656C164.777 184.656 164.539 184.716 164.346 184.835C164.153 184.952 164.056 185.108 164.056 185.304C164.056 185.46 164.119 185.592 164.244 185.7C164.369 185.808 164.583 185.895 164.887 185.96L166.072 186.199C166.708 186.33 167.183 186.54 167.495 186.83C167.808 187.119 167.964 187.5 167.964 187.972C167.964 188.401 167.838 188.777 167.585 189.101C167.335 189.425 166.991 189.678 166.554 189.859C166.119 190.038 165.618 190.128 165.049 190.128C164.183 190.128 163.493 189.947 162.978 189.587C162.467 189.223 162.167 188.729 162.079 188.104L163.865 188.01C163.919 188.274 164.049 188.476 164.257 188.615C164.464 188.751 164.73 188.82 165.054 188.82C165.372 188.82 165.627 188.759 165.821 188.636C166.017 188.511 166.116 188.351 166.119 188.155C166.116 187.99 166.047 187.855 165.91 187.75C165.774 187.642 165.564 187.56 165.279 187.503L164.146 187.277C163.507 187.149 163.031 186.928 162.718 186.612C162.409 186.297 162.254 185.895 162.254 185.406C162.254 184.986 162.368 184.624 162.595 184.32C162.825 184.016 163.147 183.781 163.562 183.616C163.98 183.452 164.468 183.369 165.028 183.369C165.855 183.369 166.505 183.544 166.98 183.893C167.457 184.243 167.735 184.719 167.815 185.321ZM172.09 190.128C171.417 190.128 170.837 189.991 170.352 189.719C169.869 189.443 169.496 189.054 169.235 188.551C168.974 188.045 168.843 187.447 168.843 186.757C168.843 186.084 168.974 185.493 169.235 184.984C169.496 184.476 169.864 184.08 170.339 183.795C170.816 183.511 171.376 183.369 172.018 183.369C172.45 183.369 172.852 183.439 173.224 183.578C173.599 183.714 173.925 183.92 174.204 184.196C174.485 184.472 174.704 184.818 174.86 185.236C175.016 185.651 175.094 186.136 175.094 186.693V187.192H169.567V186.067H173.386C173.386 185.805 173.329 185.574 173.215 185.372C173.102 185.17 172.944 185.013 172.742 184.899C172.543 184.783 172.312 184.724 172.048 184.724C171.772 184.724 171.528 184.788 171.315 184.916C171.104 185.041 170.94 185.21 170.82 185.423C170.701 185.634 170.64 185.868 170.637 186.126V187.196C170.637 187.52 170.697 187.8 170.816 188.036C170.938 188.271 171.11 188.453 171.332 188.581C171.553 188.709 171.816 188.773 172.12 188.773C172.322 188.773 172.506 188.744 172.674 188.688C172.842 188.631 172.985 188.545 173.104 188.432C173.224 188.318 173.315 188.179 173.377 188.014L175.056 188.125C174.971 188.528 174.796 188.881 174.532 189.182C174.271 189.48 173.933 189.713 173.518 189.881C173.106 190.045 172.63 190.128 172.09 190.128ZM178.691 190.107C178.194 190.107 177.744 189.979 177.34 189.723C176.94 189.464 176.621 189.085 176.386 188.585C176.153 188.082 176.036 187.466 176.036 186.736C176.036 185.986 176.157 185.362 176.398 184.865C176.64 184.365 176.961 183.991 177.362 183.744C177.765 183.494 178.207 183.369 178.687 183.369C179.053 183.369 179.359 183.432 179.603 183.557C179.85 183.679 180.049 183.832 180.2 184.017C180.353 184.199 180.469 184.378 180.549 184.554H180.604V181.273H182.415V190H180.626V188.952H180.549C180.464 189.134 180.343 189.314 180.187 189.493C180.033 189.669 179.833 189.815 179.586 189.932C179.342 190.048 179.043 190.107 178.691 190.107ZM179.266 188.662C179.559 188.662 179.806 188.582 180.008 188.423C180.212 188.261 180.369 188.036 180.477 187.746C180.587 187.456 180.643 187.116 180.643 186.727C180.643 186.338 180.589 186 180.481 185.713C180.373 185.426 180.217 185.205 180.012 185.048C179.808 184.892 179.559 184.814 179.266 184.814C178.968 184.814 178.717 184.895 178.512 185.057C178.308 185.219 178.153 185.443 178.048 185.73C177.942 186.017 177.89 186.349 177.89 186.727C177.89 187.108 177.942 187.445 178.048 187.737C178.156 188.027 178.31 188.254 178.512 188.419C178.717 188.581 178.968 188.662 179.266 188.662Z" fill="#D9FBEF"></path><defs><filter id="filter0_b_206_497" x="-24" y="100" width="180" height="100" filterUnits="userSpaceOnUse" color-interpolation-filters="sRGB"><feFlood flood-opacity="0" result="BackgroundImageFix"></feFlood><feGaussianBlur in="BackgroundImageFix" stdDeviation="18"></feGaussianBlur><feComposite in2="SourceAlpha" operator="in" result="effect1_backgroundBlur_206_497"></feComposite><feBlend mode="normal" in="SourceGraphic" in2="effect1_backgroundBlur_206_497" result="shape"></feBlend></filter><linearGradient id="paint0_linear_206_497" x1="125.5" y1="0" x2="125.5" y2="212" gradientUnits="userSpaceOnUse"><stop stop-color="#1E5151"></stop><stop offset="1" stop-color="#1E7777"></stop></linearGradient><linearGradient id="paint1_linear_206_497" x1="22" y1="108" x2="22" y2="124" gradientUnits="userSpaceOnUse"><stop stop-color="white"></stop><stop offset="1" stop-color="white" stop-opacity="0"></stop></linearGradient><linearGradient id="paint2_linear_206_497" x1="66" y1="136" x2="66" y2="164" gradientUnits="userSpaceOnUse"><stop stop-color="#1E5151"></stop><stop offset="1" stop-color="#1E7777"></stop></linearGradient><clipPath id="clip0_206_497"><rect width="20" height="20" fill="white" transform="translate(12 176)"></rect></clipPath></defs></svg>