<svg width="100%" height="212" xmlns="http://www.w3.org/2000/svg" fill="none" viewBox="12 20 251 212"><g filter="url(#filter0_d_206_524)"><rect x="24" y="20" width="227" height="64" rx="12" fill="url(#paint0_linear_206_524)" shape-rendering="crispEdges"></rect><mask id="mask0_206_524" style="mask-type:alpha" maskUnits="userSpaceOnUse" x="36" y="40" width="24" height="24"><circle cx="48" cy="52" r="12" fill="#D9D9D9"></circle></mask><g mask="url(#mask0_206_524)"><g clip-path="url(#clip0_206_524)"><path d="M31.9883 40H63.9883V48H31.9883V40Z" fill="#FF9933"></path><path d="M31.9883 48H63.9883V56H31.9883V48Z" fill="white"></path><path d="M31.9883 56H63.9883V64H31.9883V56Z" fill="#128807"></path><path d="M47.9852 55.2008C49.7525 55.2008 51.1852 53.7681 51.1852 52.0008C51.1852 50.2335 49.7525 48.8008 47.9852 48.8008C46.2178 48.8008 44.7852 50.2335 44.7852 52.0008C44.7852 53.7681 46.2178 55.2008 47.9852 55.2008Z" fill="#000088"></path><path d="M47.9836 54.7992C49.53 54.7992 50.7836 53.5456 50.7836 51.9992C50.7836 50.4528 49.53 49.1992 47.9836 49.1992C46.4372 49.1992 45.1836 50.4528 45.1836 51.9992C45.1836 53.5456 46.4372 54.7992 47.9836 54.7992Z" fill="white"></path><path d="M47.9858 52.5595C48.2951 52.5595 48.5458 52.3087 48.5458 51.9995C48.5458 51.6902 48.2951 51.4395 47.9858 51.4395C47.6765 51.4395 47.4258 51.6902 47.4258 51.9995C47.4258 52.3087 47.6765 52.5595 47.9858 52.5595Z" fill="#000088"></path><path d="M50.7321 52.5228C50.811 52.5332 50.8833 52.4777 50.8937 52.3989C50.9041 52.32 50.8486 52.2477 50.7697 52.2373C50.6909 52.2269 50.6185 52.2824 50.6082 52.3613C50.5978 52.4401 50.6533 52.5125 50.7321 52.5228Z" fill="#000088"></path><path d="M47.973 54.8135L48.069 53.1335L47.973 52.3335L47.877 53.1335L47.973 54.8135Z" fill="#000088"></path><path d="M50.5209 53.2213C50.5943 53.2518 50.6786 53.2169 50.709 53.1434C50.7395 53.0699 50.7046 52.9857 50.6311 52.9553C50.5576 52.9248 50.4734 52.9597 50.4429 53.0332C50.4125 53.1067 50.4474 53.1909 50.5209 53.2213Z" fill="#000088"></path><path d="M47.2614 54.7189L47.7889 53.121L47.9033 52.3234L47.6035 53.0713L47.2614 54.7189Z" fill="#000088"></path><path d="M50.1264 53.8352C50.1895 53.8836 50.2799 53.8717 50.3283 53.8086C50.3767 53.7455 50.3648 53.6551 50.3017 53.6067C50.2386 53.5583 50.1483 53.5702 50.0998 53.6333C50.0514 53.6964 50.0633 53.7868 50.1264 53.8352Z" fill="#000088"></path><path d="M46.5931 54.4394L47.5163 53.0325L47.8331 52.2917L47.35 52.9365L46.5931 54.4394Z" fill="#000088"></path><path d="M49.574 54.3264C49.6224 54.3895 49.7128 54.4014 49.7759 54.353C49.839 54.3046 49.8509 54.2142 49.8025 54.1511C49.7541 54.088 49.6637 54.0761 49.6006 54.1245C49.5375 54.1729 49.5256 54.2633 49.574 54.3264Z" fill="#000088"></path><path d="M46.0037 53.9968L47.2595 52.8767L47.7573 52.2432L47.1238 52.741L46.0037 53.9968Z" fill="#000088"></path><path d="M48.9101 54.6261C48.9406 54.6995 49.0248 54.7344 49.0983 54.704C49.1717 54.6736 49.2066 54.5893 49.1762 54.5159C49.1458 54.4424 49.0615 54.4075 48.9881 54.4379C48.9146 54.4684 48.8797 54.5526 48.9101 54.6261Z" fill="#000088"></path><path d="M45.5448 53.3837L47.0477 52.6268L47.6925 52.1437L46.9517 52.4605L45.5448 53.3837Z" fill="#000088"></path><path d="M48.1903 54.7958C48.2007 54.8747 48.273 54.9302 48.3519 54.9198C48.4307 54.9094 48.4862 54.8371 48.4758 54.7582C48.4654 54.6794 48.3931 54.6239 48.3143 54.6343C48.2354 54.6447 48.1799 54.717 48.1903 54.7958Z" fill="#000088"></path><path d="M45.2661 52.7251L46.9137 52.383L47.6616 52.0832L46.864 52.1975L45.2661 52.7251Z" fill="#000088"></path><path d="M47.4574 54.7556C47.447 54.8344 47.5025 54.9068 47.5814 54.9171C47.6602 54.9299 47.7325 54.872 47.7429 54.7932C47.7533 54.7143 47.6978 54.642 47.619 54.6316C47.5401 54.6212 47.4678 54.6767 47.4574 54.7556Z" fill="#000088"></path><path d="M45.1645 51.9983L46.8445 52.0943L47.6445 51.9983L46.8445 51.9023L45.1645 51.9983Z" fill="#000088"></path><path d="M46.7608 54.5306C46.7304 54.6041 46.7653 54.6883 46.8388 54.7188C46.9123 54.7492 46.9965 54.7143 47.0269 54.6409C47.0574 54.5674 47.0225 54.4831 46.949 54.4527C46.8755 54.4223 46.7913 54.4572 46.7608 54.5306Z" fill="#000088"></path><path d="M45.2633 51.2751L46.8612 51.8026L47.6587 51.9169L46.9109 51.6172L45.2633 51.2751Z" fill="#000088"></path><path d="M46.1467 54.1262C46.0983 54.1893 46.1102 54.2797 46.1733 54.3281C46.2364 54.3765 46.3268 54.3646 46.3752 54.3015C46.4236 54.2384 46.4117 54.148 46.3486 54.0996C46.2856 54.0512 46.1952 54.0631 46.1467 54.1262Z" fill="#000088"></path><path d="M45.5406 50.5929L46.9475 51.516L47.6883 51.8329L47.0435 51.3498L45.5406 50.5929Z" fill="#000088"></path><path d="M45.6538 53.5818C45.5907 53.6302 45.5788 53.7206 45.6272 53.7837C45.6756 53.8468 45.766 53.8587 45.8291 53.8103C45.8922 53.7619 45.9041 53.6715 45.8557 53.6084C45.8073 53.5453 45.7169 53.5334 45.6538 53.5818Z" fill="#000088"></path><path d="M45.989 50.0132L47.1091 51.2691L47.7427 51.7669L47.2449 51.1333L45.989 50.0132Z" fill="#000088"></path><path d="M45.3388 52.9482C45.2653 52.9786 45.2304 53.0629 45.2608 53.1364C45.2913 53.2098 45.3755 53.2447 45.449 53.2143C45.5225 53.1839 45.5574 53.0996 45.5269 53.0261C45.4965 52.9527 45.4123 52.9178 45.3388 52.9482Z" fill="#000088"></path><path d="M46.587 49.5848L47.3439 51.0878L47.827 51.7326L47.5102 50.9918L46.587 49.5848Z" fill="#000088"></path><path d="M45.1907 52.2323C45.1119 52.2427 45.0564 52.315 45.0668 52.3938C45.0771 52.4727 45.1495 52.5282 45.2283 52.5178C45.3072 52.5074 45.3627 52.4351 45.3523 52.3563C45.3419 52.2774 45.2696 52.2219 45.1907 52.2323Z" fill="#000088"></path><path d="M47.2615 49.3059L47.6036 50.9535L47.9034 51.7014L47.789 50.9038L47.2615 49.3059Z" fill="#000088"></path><path d="M45.2151 51.4825C45.1363 51.4722 45.064 51.5277 45.0536 51.6065C45.0432 51.6854 45.0987 51.7577 45.1775 51.7681C45.2564 51.7785 45.3287 51.7229 45.3391 51.6441C45.3495 51.5652 45.294 51.4929 45.2151 51.4825Z" fill="#000088"></path><path d="M47.9743 49.1919L47.8783 50.8719L47.9743 51.6719L48.0703 50.8719L47.9743 49.1919Z" fill="#000088"></path><path d="M45.4264 50.786C45.3529 50.7556 45.2687 50.7905 45.2382 50.8639C45.2078 50.9374 45.2427 51.0216 45.3162 51.0521C45.3897 51.0825 45.4739 51.0476 45.5043 50.9741C45.5348 50.9007 45.4999 50.8164 45.4264 50.786Z" fill="#000088"></path><path d="M48.6859 49.2884L48.1583 50.8863L48.044 51.6839L48.3438 50.936L48.6859 49.2884Z" fill="#000088"></path><path d="M45.8208 50.1721C45.7578 50.1237 45.6674 50.1356 45.6189 50.1987C45.5705 50.2618 45.5824 50.3522 45.6455 50.4006C45.7086 50.449 45.799 50.4371 45.8474 50.374C45.8958 50.3109 45.8839 50.2205 45.8208 50.1721Z" fill="#000088"></path><path d="M49.3541 49.5679L48.431 50.9749L48.1141 51.7157L48.5973 51.0709L49.3541 49.5679Z" fill="#000088"></path><path d="M46.3732 49.6811C46.3248 49.618 46.2344 49.6061 46.1713 49.6546C46.1082 49.703 46.0963 49.7934 46.1448 49.8565C46.1932 49.9196 46.2836 49.9315 46.3467 49.883C46.4098 49.8346 46.4217 49.7442 46.3732 49.6811Z" fill="#000088"></path><path d="M49.9436 50.0108L48.6877 51.1308L48.1899 51.7644L48.8235 51.2666L49.9436 50.0108Z" fill="#000088"></path><path d="M47.043 49.3796C47.0126 49.3061 46.9283 49.2712 46.8549 49.3016C46.7814 49.3321 46.7465 49.4163 46.7769 49.4898C46.8074 49.5632 46.8916 49.5981 46.9651 49.5677C47.0385 49.5373 47.0734 49.453 47.043 49.3796Z" fill="#000088"></path><path d="M50.4083 50.6219L48.9054 51.3788L48.2606 51.8619L49.0014 51.5451L50.4083 50.6219Z" fill="#000088"></path><path d="M47.7628 49.2098C47.7525 49.1309 47.6801 49.0754 47.6013 49.0858C47.5224 49.0962 47.4669 49.1685 47.4773 49.2474C47.4877 49.3262 47.56 49.3817 47.6389 49.3713C47.7177 49.361 47.7732 49.2886 47.7628 49.2098Z" fill="#000088"></path><path d="M50.6871 51.2805L49.0395 51.6226L48.2916 51.9224L49.0891 51.8081L50.6871 51.2805Z" fill="#000088"></path><path d="M48.4957 49.25C48.5061 49.1712 48.4506 49.0989 48.3718 49.0885C48.2929 49.0781 48.2206 49.1336 48.2102 49.2125C48.1998 49.2913 48.2553 49.3636 48.3342 49.374C48.413 49.3844 48.4854 49.3289 48.4957 49.25Z" fill="#000088"></path><path d="M50.7886 52.0073L49.1086 51.9113L48.3086 52.0073L49.1086 52.1033L50.7886 52.0073Z" fill="#000088"></path><path d="M49.1923 49.475C49.2227 49.4015 49.1878 49.3173 49.1143 49.2868C49.0409 49.2564 48.9566 49.2913 48.9262 49.3648C48.8958 49.4382 48.9307 49.5225 49.0041 49.5529C49.0776 49.5833 49.1618 49.5485 49.1923 49.475Z" fill="#000088"></path><path d="M50.6899 52.7305L49.092 52.203L48.2944 52.0887L49.0423 52.3885L50.6899 52.7305Z" fill="#000088"></path><path d="M49.8083 49.8868C49.8567 49.8237 49.8448 49.7333 49.7818 49.6849C49.7187 49.6364 49.6283 49.6483 49.5798 49.7114C49.5314 49.7745 49.5433 49.8649 49.6064 49.9133C49.6695 49.9618 49.7599 49.9499 49.8083 49.8868Z" fill="#000088"></path><path d="M50.4145 53.42L49.0076 52.4969L48.2668 52.18L48.9116 52.6632L50.4145 53.42Z" fill="#000088"></path><path d="M50.2993 50.4311C50.3624 50.3827 50.3743 50.2923 50.3259 50.2292C50.2775 50.1661 50.1871 50.1542 50.124 50.2026C50.0609 50.251 50.049 50.3414 50.0974 50.4045C50.1458 50.4676 50.2362 50.4795 50.2993 50.4311Z" fill="#000088"></path><path d="M49.9641 53.9997L48.844 52.7439L48.2105 52.2461L48.7083 52.8797L49.9641 53.9997Z" fill="#000088"></path><path d="M50.6183 51.0647C50.6917 51.0343 50.7266 50.9501 50.6962 50.8766C50.6657 50.8031 50.5815 50.7682 50.508 50.7987C50.4346 50.8291 50.3997 50.9133 50.4301 50.9868C50.4605 51.0603 50.5448 51.0952 50.6183 51.0647Z" fill="#000088"></path><path d="M49.37 54.4281L48.6132 52.9252L48.13 52.2804L48.4469 53.0212L49.37 54.4281Z" fill="#000088"></path><path d="M50.7663 51.7807C50.8451 51.7703 50.9006 51.6979 50.8903 51.6191C50.8799 51.5402 50.8076 51.4847 50.7287 51.4951C50.6499 51.5055 50.5944 51.5778 50.6047 51.6567C50.6151 51.7355 50.6874 51.791 50.7663 51.7807Z" fill="#000088"></path><path d="M48.6955 54.7071L48.3535 53.0595L48.0537 52.3116L48.168 53.1092L48.6955 54.7071Z" fill="#000088"></path></g></g><path d="M72.7173 38.7273H74.3295L76.4886 43.9972H76.5739L78.733 38.7273H80.3452V46H79.081V41.0036H79.0135L77.0036 45.9787H76.0589L74.049 40.9929H73.9815V46H72.7173V38.7273ZM82.522 48.0455C82.3468 48.0455 82.1847 48.0313 82.0355 48.0028C81.8887 47.9768 81.7715 47.946 81.6839 47.9105L81.9822 46.9091C82.1693 46.9635 82.3362 46.9896 82.483 46.9872C82.6297 46.9848 82.7588 46.9387 82.87 46.8487C82.9837 46.7611 83.0795 46.6143 83.1577 46.4084L83.2678 46.1136L81.2898 40.5455H82.6534L83.9105 44.6648H83.9673L85.228 40.5455H86.5952L84.4112 46.6605C84.3094 46.9493 84.1745 47.1967 84.0064 47.4027C83.8383 47.611 83.6323 47.7696 83.3885 47.8786C83.147 47.9898 82.8582 48.0455 82.522 48.0455ZM90.956 46H89.5497L92.1101 38.7273H93.7365L96.3004 46H94.8942L92.9517 40.2188H92.8949L90.956 46ZM91.0021 43.1484H94.8374V44.2067H91.0021V43.1484ZM99.4148 46.1065C98.8703 46.1065 98.4027 45.987 98.0121 45.7479C97.6238 45.5088 97.3243 45.1785 97.1136 44.7571C96.9053 44.3333 96.8011 43.8456 96.8011 43.294C96.8011 42.7401 96.9077 42.2512 97.1207 41.8274C97.3338 41.4013 97.6345 41.0698 98.0227 40.8331C98.4134 40.594 98.875 40.4744 99.4077 40.4744C99.8504 40.4744 100.242 40.5561 100.583 40.7195C100.926 40.8804 101.2 41.1089 101.403 41.4048C101.607 41.6984 101.723 42.0417 101.751 42.4347H100.523C100.473 42.1719 100.355 41.9529 100.168 41.7777C99.983 41.6001 99.7356 41.5114 99.4254 41.5114C99.1626 41.5114 98.9318 41.5824 98.733 41.7244C98.5341 41.8641 98.379 42.0653 98.2678 42.3281C98.1589 42.5909 98.1044 42.9058 98.1044 43.2727C98.1044 43.6444 98.1589 43.964 98.2678 44.2315C98.3767 44.4967 98.5294 44.7015 98.7259 44.8459C98.9247 44.9879 99.1579 45.0589 99.4254 45.0589C99.6148 45.0589 99.7841 45.0234 99.9332 44.9524C100.085 44.879 100.211 44.7737 100.313 44.6364C100.415 44.4991 100.485 44.3321 100.523 44.1357H101.751C101.721 44.5215 101.607 44.8636 101.411 45.1619C101.214 45.4579 100.946 45.6899 100.608 45.858C100.269 46.0237 99.8717 46.1065 99.4148 46.1065ZM105.186 46.1065C104.642 46.1065 104.174 45.987 103.784 45.7479C103.395 45.5088 103.096 45.1785 102.885 44.7571C102.677 44.3333 102.573 43.8456 102.573 43.294C102.573 42.7401 102.679 42.2512 102.892 41.8274C103.105 41.4013 103.406 41.0698 103.794 40.8331C104.185 40.594 104.646 40.4744 105.179 40.4744C105.622 40.4744 106.014 40.5561 106.355 40.7195C106.698 40.8804 106.971 41.1089 107.175 41.4048C107.378 41.6984 107.494 42.0417 107.523 42.4347H106.294C106.244 42.1719 106.126 41.9529 105.939 41.7777C105.754 41.6001 105.507 41.5114 105.197 41.5114C104.934 41.5114 104.703 41.5824 104.504 41.7244C104.306 41.8641 104.151 42.0653 104.039 42.3281C103.93 42.5909 103.876 42.9058 103.876 43.2727C103.876 43.6444 103.93 43.964 104.039 44.2315C104.148 44.4967 104.301 44.7015 104.497 44.8459C104.696 44.9879 104.929 45.0589 105.197 45.0589C105.386 45.0589 105.556 45.0234 105.705 44.9524C105.856 44.879 105.983 44.7737 106.085 44.6364C106.186 44.4991 106.256 44.3321 106.294 44.1357H107.523C107.492 44.5215 107.378 44.8636 107.182 45.1619C106.985 45.4579 106.718 45.6899 106.379 45.858C106.041 46.0237 105.643 46.1065 105.186 46.1065ZM110.958 46.1065C110.425 46.1065 109.963 45.9893 109.573 45.755C109.182 45.5206 108.879 45.1927 108.664 44.7713C108.451 44.3499 108.344 43.8575 108.344 43.294C108.344 42.7306 108.451 42.237 108.664 41.8132C108.879 41.3894 109.182 41.0604 109.573 40.826C109.963 40.5916 110.425 40.4744 110.958 40.4744C111.49 40.4744 111.952 40.5916 112.343 40.826C112.733 41.0604 113.035 41.3894 113.248 41.8132C113.464 42.237 113.571 42.7306 113.571 43.294C113.571 43.8575 113.464 44.3499 113.248 44.7713C113.035 45.1927 112.733 45.5206 112.343 45.755C111.952 45.9893 111.49 46.1065 110.958 46.1065ZM110.965 45.0767C111.254 45.0767 111.495 44.9974 111.689 44.8388C111.883 44.6778 112.028 44.4624 112.123 44.1925C112.22 43.9226 112.268 43.6219 112.268 43.2905C112.268 42.9567 112.22 42.6548 112.123 42.3849C112.028 42.1127 111.883 41.8961 111.689 41.7351C111.495 41.5741 111.254 41.4936 110.965 41.4936C110.669 41.4936 110.423 41.5741 110.226 41.7351C110.032 41.8961 109.886 42.1127 109.789 42.3849C109.695 42.6548 109.647 42.9567 109.647 43.2905C109.647 43.6219 109.695 43.9226 109.789 44.1925C109.886 44.4624 110.032 44.6778 110.226 44.8388C110.423 44.9974 110.669 45.0767 110.965 45.0767ZM118.139 43.706V40.5455H119.425V46H118.178V45.0305H118.121C117.998 45.3359 117.796 45.5857 117.514 45.7798C117.235 45.974 116.89 46.071 116.481 46.071C116.123 46.071 115.807 45.9917 115.532 45.8331C115.26 45.6721 115.047 45.4389 114.893 45.1335C114.739 44.8258 114.662 44.4541 114.662 44.0185V40.5455H115.948V43.8196C115.948 44.1652 116.043 44.4399 116.232 44.6435C116.421 44.8471 116.67 44.9489 116.978 44.9489C117.167 44.9489 117.351 44.9027 117.528 44.8104C117.706 44.718 117.851 44.5807 117.965 44.3984C118.081 44.2138 118.139 43.983 118.139 43.706ZM122.032 42.804V46H120.746V40.5455H121.975V41.4723H122.039C122.165 41.1669 122.365 40.9242 122.639 40.7443C122.916 40.5644 123.258 40.4744 123.665 40.4744C124.042 40.4744 124.37 40.5549 124.649 40.7159C124.931 40.8769 125.149 41.1101 125.303 41.4155C125.459 41.7209 125.536 42.0914 125.533 42.527V46H124.248V42.7259C124.248 42.3613 124.153 42.076 123.964 41.87C123.777 41.6641 123.518 41.5611 123.186 41.5611C122.961 41.5611 122.761 41.6108 122.586 41.7102C122.413 41.8073 122.277 41.9482 122.178 42.1328C122.08 42.3175 122.032 42.5412 122.032 42.804ZM129.564 40.5455V41.5398H126.428V40.5455H129.564ZM127.202 39.2386H128.488V44.3594C128.488 44.5322 128.514 44.6648 128.566 44.7571C128.621 44.8471 128.692 44.9086 128.779 44.9418C128.867 44.9749 128.964 44.9915 129.07 44.9915C129.151 44.9915 129.224 44.9856 129.29 44.9737C129.359 44.9619 129.411 44.9512 129.447 44.9418L129.663 45.9467C129.595 45.9704 129.496 45.9964 129.369 46.0249C129.243 46.0533 129.089 46.0698 128.907 46.0746C128.585 46.084 128.295 46.0355 128.037 45.929C127.779 45.8201 127.574 45.652 127.423 45.4247C127.273 45.1974 127.2 44.9134 127.202 44.5724V39.2386Z" fill="white" fill-opacity="0.5"></path><path d="M72.924 65V55.2H74.772V65H72.924ZM76.6714 65V58.056H78.4074V58.966H78.6594C78.7714 58.7233 78.9814 58.4947 79.2894 58.28C79.5974 58.056 80.0641 57.944 80.6894 57.944C81.2307 57.944 81.7021 58.07 82.1034 58.322C82.5141 58.5647 82.8314 58.9053 83.0554 59.344C83.2794 59.7733 83.3914 60.2773 83.3914 60.856V65H81.6274V60.996C81.6274 60.4733 81.4967 60.0813 81.2354 59.82C80.9834 59.5587 80.6194 59.428 80.1434 59.428C79.6021 59.428 79.1821 59.61 78.8834 59.974C78.5847 60.3287 78.4354 60.828 78.4354 61.472V65H76.6714ZM88.0984 65.196C87.5477 65.196 87.0297 65.0607 86.5444 64.79C86.0684 64.51 85.6857 64.104 85.3964 63.572C85.107 63.04 84.9624 62.396 84.9624 61.64V61.416C84.9624 60.66 85.107 60.016 85.3964 59.484C85.6857 58.952 86.0684 58.5507 86.5444 58.28C87.0204 58 87.5384 57.86 88.0984 57.86C88.5184 57.86 88.8684 57.9113 89.1484 58.014C89.4377 58.1073 89.671 58.2287 89.8484 58.378C90.0257 58.5273 90.161 58.686 90.2544 58.854H90.5064V55.2H92.2704V65H90.5344V64.16H90.2824C90.1237 64.4213 89.8764 64.6593 89.5404 64.874C89.2137 65.0887 88.733 65.196 88.0984 65.196ZM88.6304 63.656C89.1717 63.656 89.6244 63.4833 89.9884 63.138C90.3524 62.7833 90.5344 62.27 90.5344 61.598V61.458C90.5344 60.786 90.3524 60.2773 89.9884 59.932C89.6337 59.5773 89.181 59.4 88.6304 59.4C88.089 59.4 87.6364 59.5773 87.2724 59.932C86.9084 60.2773 86.7264 60.786 86.7264 61.458V61.598C86.7264 62.27 86.9084 62.7833 87.2724 63.138C87.6364 63.4833 88.089 63.656 88.6304 63.656ZM94.2261 65V58.056H95.9901V65H94.2261ZM95.1081 57.244C94.7908 57.244 94.5201 57.1413 94.2961 56.936C94.0814 56.7307 93.9741 56.46 93.9741 56.124C93.9741 55.788 94.0814 55.5173 94.2961 55.312C94.5201 55.1067 94.7908 55.004 95.1081 55.004C95.4348 55.004 95.7054 55.1067 95.9201 55.312C96.1348 55.5173 96.2421 55.788 96.2421 56.124C96.2421 56.46 96.1348 56.7307 95.9201 56.936C95.7054 57.1413 95.4348 57.244 95.1081 57.244ZM100.101 65.196C99.6062 65.196 99.1628 65.112 98.7708 64.944C98.3788 64.7667 98.0662 64.5147 97.8328 64.188C97.6088 63.852 97.4968 63.446 97.4968 62.97C97.4968 62.494 97.6088 62.0973 97.8328 61.78C98.0662 61.4533 98.3835 61.2107 98.7848 61.052C99.1955 60.884 99.6622 60.8 100.185 60.8H102.089V60.408C102.089 60.0813 101.986 59.8153 101.781 59.61C101.576 59.3953 101.249 59.288 100.801 59.288C100.362 59.288 100.036 59.3907 99.8208 59.596C99.6062 59.792 99.4662 60.0487 99.4008 60.366L97.7768 59.82C97.8888 59.4653 98.0662 59.1433 98.3088 58.854C98.5608 58.5553 98.8922 58.3173 99.3028 58.14C99.7228 57.9533 100.232 57.86 100.829 57.86C101.744 57.86 102.467 58.0887 102.999 58.546C103.531 59.0033 103.797 59.666 103.797 60.534V63.124C103.797 63.404 103.928 63.544 104.189 63.544H104.749V65H103.573C103.228 65 102.943 64.916 102.719 64.748C102.495 64.58 102.383 64.356 102.383 64.076V64.062H102.117C102.08 64.174 101.996 64.3233 101.865 64.51C101.734 64.6873 101.529 64.846 101.249 64.986C100.969 65.126 100.586 65.196 100.101 65.196ZM100.409 63.768C100.904 63.768 101.305 63.6327 101.613 63.362C101.93 63.082 102.089 62.7133 102.089 62.256V62.116H100.311C99.9842 62.116 99.7275 62.186 99.5408 62.326C99.3542 62.466 99.2608 62.662 99.2608 62.914C99.2608 63.166 99.3588 63.3713 99.5548 63.53C99.7508 63.6887 100.036 63.768 100.409 63.768Z" fill="white"></path><path d="M221.442 47.2727V56H219.861V47.2727H221.442ZM230.326 47.2727V56H228.919L224.807 50.0554H224.735V56H223.154V47.2727H224.569L228.676 53.2216H228.753V47.2727H230.326ZM232.048 56V47.2727H235.321C235.991 47.2727 236.554 47.3892 237.009 47.6222C237.466 47.8551 237.811 48.1818 238.044 48.6023C238.28 49.0199 238.398 49.5071 238.398 50.0639C238.398 50.6236 238.278 51.1094 238.04 51.5213C237.804 51.9304 237.456 52.2472 236.996 52.4716C236.536 52.6932 235.97 52.804 235.3 52.804H232.969V51.4915H235.087C235.479 51.4915 235.8 51.4375 236.05 51.3295C236.3 51.2187 236.484 51.0582 236.604 50.848C236.726 50.6349 236.787 50.3736 236.787 50.0639C236.787 49.7543 236.726 49.4901 236.604 49.2713C236.482 49.0497 236.295 48.8821 236.045 48.7685C235.795 48.652 235.473 48.5938 235.078 48.5938H233.629V56H232.048ZM236.557 52.0455L238.717 56H236.953L234.831 52.0455H236.557Z" fill="white" fill-opacity="0.6"></path></g><rect x="12" y="92" width="251" height="68" rx="12" fill="#B7E2E0"></rect><path d="M24.924 123V113.2H29.18C29.796 113.2 30.3327 113.307 30.79 113.522C31.2473 113.737 31.602 114.04 31.854 114.432C32.106 114.824 32.232 115.286 32.232 115.818V115.986C32.232 116.574 32.092 117.05 31.812 117.414C31.532 117.778 31.1867 118.044 30.776 118.212V118.464C31.1493 118.483 31.4387 118.613 31.644 118.856C31.8493 119.089 31.952 119.402 31.952 119.794V123H30.104V120.06C30.104 119.836 30.0433 119.654 29.922 119.514C29.81 119.374 29.6187 119.304 29.348 119.304H26.772V123H24.924ZM26.772 117.624H28.984C29.4227 117.624 29.7633 117.507 30.006 117.274C30.258 117.031 30.384 116.714 30.384 116.322V116.182C30.384 115.79 30.2627 115.477 30.02 115.244C29.7773 115.001 29.432 114.88 28.984 114.88H26.772V117.624ZM36.9897 123.196C36.299 123.196 35.6877 123.051 35.1557 122.762C34.633 122.463 34.2224 122.048 33.9237 121.516C33.6344 120.975 33.4897 120.34 33.4897 119.612V119.444C33.4897 118.716 33.6344 118.086 33.9237 117.554C34.213 117.013 34.619 116.597 35.1417 116.308C35.6644 116.009 36.271 115.86 36.9617 115.86C37.643 115.86 38.2357 116.014 38.7397 116.322C39.2437 116.621 39.6357 117.041 39.9157 117.582C40.1957 118.114 40.3357 118.735 40.3357 119.444V120.046H35.2817C35.3004 120.522 35.4777 120.909 35.8137 121.208C36.1497 121.507 36.5604 121.656 37.0457 121.656C37.5404 121.656 37.9044 121.549 38.1377 121.334C38.371 121.119 38.5484 120.881 38.6697 120.62L40.1117 121.376C39.981 121.619 39.7897 121.885 39.5377 122.174C39.295 122.454 38.9684 122.697 38.5577 122.902C38.147 123.098 37.6244 123.196 36.9897 123.196ZM35.2957 118.73H38.5437C38.5064 118.329 38.343 118.007 38.0537 117.764C37.7737 117.521 37.405 117.4 36.9477 117.4C36.4717 117.4 36.0937 117.521 35.8137 117.764C35.5337 118.007 35.361 118.329 35.2957 118.73ZM45.1678 123.196C44.4958 123.196 43.8844 123.056 43.3338 122.776C42.7924 122.496 42.3631 122.09 42.0458 121.558C41.7284 121.026 41.5698 120.382 41.5698 119.626V119.43C41.5698 118.674 41.7284 118.03 42.0458 117.498C42.3631 116.966 42.7924 116.56 43.3338 116.28C43.8844 116 44.4958 115.86 45.1678 115.86C45.8304 115.86 46.3998 115.977 46.8758 116.21C47.3518 116.443 47.7344 116.765 48.0238 117.176C48.3224 117.577 48.5184 118.035 48.6118 118.548L46.9038 118.912C46.8664 118.632 46.7824 118.38 46.6518 118.156C46.5211 117.932 46.3344 117.755 46.0918 117.624C45.8584 117.493 45.5644 117.428 45.2098 117.428C44.8551 117.428 44.5331 117.507 44.2438 117.666C43.9638 117.815 43.7398 118.044 43.5718 118.352C43.4131 118.651 43.3338 119.019 43.3338 119.458V119.598C43.3338 120.037 43.4131 120.41 43.5718 120.718C43.7398 121.017 43.9638 121.245 44.2438 121.404C44.5331 121.553 44.8551 121.628 45.2098 121.628C45.7418 121.628 46.1431 121.493 46.4138 121.222C46.6938 120.942 46.8711 120.578 46.9458 120.13L48.6538 120.536C48.5324 121.031 48.3224 121.483 48.0238 121.894C47.7344 122.295 47.3518 122.613 46.8758 122.846C46.3998 123.079 45.8304 123.196 45.1678 123.196ZM53.2729 123.196C52.5822 123.196 51.9709 123.051 51.4389 122.762C50.9162 122.463 50.5056 122.048 50.2069 121.516C49.9176 120.975 49.7729 120.34 49.7729 119.612V119.444C49.7729 118.716 49.9176 118.086 50.2069 117.554C50.4962 117.013 50.9022 116.597 51.4249 116.308C51.9476 116.009 52.5542 115.86 53.2449 115.86C53.9262 115.86 54.5189 116.014 55.0229 116.322C55.5269 116.621 55.9189 117.041 56.1989 117.582C56.4789 118.114 56.6189 118.735 56.6189 119.444V120.046H51.5649C51.5836 120.522 51.7609 120.909 52.0969 121.208C52.4329 121.507 52.8436 121.656 53.3289 121.656C53.8236 121.656 54.1876 121.549 54.4209 121.334C54.6542 121.119 54.8316 120.881 54.9529 120.62L56.3949 121.376C56.2642 121.619 56.0729 121.885 55.8209 122.174C55.5782 122.454 55.2516 122.697 54.8409 122.902C54.4302 123.098 53.9076 123.196 53.2729 123.196ZM51.5789 118.73H54.8269C54.7896 118.329 54.6262 118.007 54.3369 117.764C54.0569 117.521 53.6882 117.4 53.2309 117.4C52.7549 117.4 52.3769 117.521 52.0969 117.764C51.8169 118.007 51.6442 118.329 51.5789 118.73ZM58.189 123V116.056H59.953V123H58.189ZM59.071 115.244C58.7537 115.244 58.483 115.141 58.259 114.936C58.0443 114.731 57.937 114.46 57.937 114.124C57.937 113.788 58.0443 113.517 58.259 113.312C58.483 113.107 58.7537 113.004 59.071 113.004C59.3977 113.004 59.6683 113.107 59.883 113.312C60.0977 113.517 60.205 113.788 60.205 114.124C60.205 114.46 60.0977 114.731 59.883 114.936C59.6683 115.141 59.3977 115.244 59.071 115.244ZM63.3637 123L61.1517 116.056H63.0277L64.6377 121.712H64.8897L66.4997 116.056H68.3757L66.1637 123H63.3637ZM72.5366 123.196C71.8459 123.196 71.2346 123.051 70.7026 122.762C70.1799 122.463 69.7692 122.048 69.4706 121.516C69.1812 120.975 69.0366 120.34 69.0366 119.612V119.444C69.0366 118.716 69.1812 118.086 69.4706 117.554C69.7599 117.013 70.1659 116.597 70.6886 116.308C71.2112 116.009 71.8179 115.86 72.5086 115.86C73.1899 115.86 73.7826 116.014 74.2866 116.322C74.7906 116.621 75.1826 117.041 75.4626 117.582C75.7426 118.114 75.8826 118.735 75.8826 119.444V120.046H70.8286C70.8472 120.522 71.0246 120.909 71.3606 121.208C71.6966 121.507 72.1072 121.656 72.5926 121.656C73.0872 121.656 73.4512 121.549 73.6846 121.334C73.9179 121.119 74.0952 120.881 74.2166 120.62L75.6586 121.376C75.5279 121.619 75.3366 121.885 75.0846 122.174C74.8419 122.454 74.5152 122.697 74.1046 122.902C73.6939 123.098 73.1712 123.196 72.5366 123.196ZM70.8426 118.73H74.0906C74.0532 118.329 73.8899 118.007 73.6006 117.764C73.3206 117.521 72.9519 117.4 72.4946 117.4C72.0186 117.4 71.6406 117.521 71.3606 117.764C71.0806 118.007 70.9079 118.329 70.8426 118.73ZM80.2527 123.196C79.702 123.196 79.184 123.061 78.6987 122.79C78.2227 122.51 77.84 122.104 77.5507 121.572C77.2613 121.04 77.1167 120.396 77.1167 119.64V119.416C77.1167 118.66 77.2613 118.016 77.5507 117.484C77.84 116.952 78.2227 116.551 78.6987 116.28C79.1747 116 79.6927 115.86 80.2527 115.86C80.6727 115.86 81.0227 115.911 81.3027 116.014C81.592 116.107 81.8253 116.229 82.0027 116.378C82.18 116.527 82.3153 116.686 82.4087 116.854H82.6607V113.2H84.4247V123H82.6887V122.16H82.4367C82.278 122.421 82.0307 122.659 81.6947 122.874C81.368 123.089 80.8873 123.196 80.2527 123.196ZM80.7847 121.656C81.326 121.656 81.7787 121.483 82.1427 121.138C82.5067 120.783 82.6887 120.27 82.6887 119.598V119.458C82.6887 118.786 82.5067 118.277 82.1427 117.932C81.788 117.577 81.3353 117.4 80.7847 117.4C80.2433 117.4 79.7907 117.577 79.4267 117.932C79.0627 118.277 78.8807 118.786 78.8807 119.458V119.598C78.8807 120.27 79.0627 120.783 79.4267 121.138C79.7907 121.483 80.2433 121.656 80.7847 121.656Z" fill="#04130F" fill-opacity="0.6"></path><path d="M137.666 118L140.999 121.333L144.333 118" stroke="#04130F" stroke-linecap="round" stroke-linejoin="round"></path><path d="M141 114.667V121.333" stroke="#04130F" stroke-linecap="round" stroke-linejoin="round"></path><path d="M152.273 123V112.5H154.253V123H152.273ZM156.228 123V112.5H159.993L162.078 121.65H162.348V112.5H164.298V123H160.533L158.448 113.85H158.178V123H156.228ZM166.277 123V112.5H170.837C171.497 112.5 172.072 112.615 172.562 112.845C173.052 113.075 173.432 113.4 173.702 113.82C173.972 114.24 174.107 114.735 174.107 115.305V115.485C174.107 116.115 173.957 116.625 173.657 117.015C173.357 117.405 172.987 117.69 172.547 117.87V118.14C172.947 118.16 173.257 118.3 173.477 118.56C173.697 118.81 173.807 119.145 173.807 119.565V123H171.827V119.85C171.827 119.61 171.762 119.415 171.632 119.265C171.512 119.115 171.307 119.04 171.017 119.04H168.257V123H166.277ZM168.257 117.24H170.627C171.097 117.24 171.462 117.115 171.722 116.865C171.992 116.605 172.127 116.265 172.127 115.845V115.695C172.127 115.275 171.997 114.94 171.737 114.69C171.477 114.43 171.107 114.3 170.627 114.3H168.257V117.24ZM179.203 123V121.74C179.203 121.01 179.323 120.405 179.563 119.925C179.803 119.435 180.148 119.035 180.598 118.725C181.058 118.405 181.618 118.145 182.278 117.945L183.283 117.63C183.653 117.51 183.963 117.365 184.213 117.195C184.463 117.015 184.653 116.8 184.783 116.55C184.923 116.3 184.993 116.015 184.993 115.695V115.635C184.993 115.135 184.823 114.74 184.483 114.45C184.143 114.15 183.678 114 183.088 114C182.508 114 182.038 114.16 181.678 114.48C181.328 114.79 181.153 115.24 181.153 115.83V116.1H179.233V115.86C179.233 115.1 179.403 114.455 179.743 113.925C180.083 113.395 180.543 112.99 181.123 112.71C181.713 112.43 182.368 112.29 183.088 112.29C183.808 112.29 184.458 112.43 185.038 112.71C185.618 112.98 186.073 113.365 186.403 113.865C186.743 114.355 186.913 114.935 186.913 115.605V115.755C186.913 116.425 186.773 116.995 186.493 117.465C186.223 117.925 185.853 118.305 185.383 118.605C184.913 118.895 184.378 119.135 183.778 119.325L182.818 119.625C182.388 119.755 182.053 119.9 181.813 120.06C181.573 120.21 181.403 120.38 181.303 120.57C181.213 120.75 181.168 120.97 181.168 121.23V121.29H186.823V123H179.203ZM192.339 123.21C191.099 123.21 190.104 122.87 189.354 122.19C188.604 121.5 188.229 120.46 188.229 119.07V116.43C188.229 115.08 188.604 114.055 189.354 113.355C190.104 112.645 191.099 112.29 192.339 112.29C193.589 112.29 194.584 112.645 195.324 113.355C196.074 114.055 196.449 115.08 196.449 116.43V119.07C196.449 120.46 196.074 121.5 195.324 122.19C194.584 122.87 193.589 123.21 192.339 123.21ZM192.339 121.5C193.089 121.5 193.639 121.295 193.989 120.885C194.349 120.475 194.529 119.89 194.529 119.13V116.34C194.529 115.57 194.329 114.99 193.929 114.6C193.539 114.2 193.009 114 192.339 114C191.649 114 191.109 114.205 190.719 114.615C190.339 115.025 190.149 115.6 190.149 116.34V119.13C190.149 119.92 190.329 120.515 190.689 120.915C191.059 121.305 191.609 121.5 192.339 121.5ZM198.215 125.205V124.185H198.8C199.26 124.185 199.49 123.955 199.49 123.495V123.015H199.235C198.835 123.015 198.5 122.895 198.23 122.655C197.97 122.415 197.84 122.11 197.84 121.74C197.84 121.34 197.97 121.015 198.23 120.765C198.5 120.515 198.835 120.39 199.235 120.39C199.645 120.39 199.98 120.52 200.24 120.78C200.5 121.03 200.63 121.37 200.63 121.8V123.525C200.63 124.645 200.07 125.205 198.95 125.205H198.215ZM205.984 123.21C205.164 123.21 204.454 123.065 203.854 122.775C203.264 122.485 202.809 122.075 202.489 121.545C202.169 121.015 202.009 120.4 202.009 119.7V119.55H203.959V119.685C203.959 120.185 204.124 120.615 204.454 120.975C204.794 121.325 205.294 121.5 205.954 121.5C206.614 121.5 207.119 121.325 207.469 120.975C207.829 120.615 208.009 120.15 208.009 119.58V119.43C208.009 118.87 207.829 118.425 207.469 118.095C207.119 117.765 206.679 117.6 206.149 117.6C205.859 117.6 205.619 117.64 205.429 117.72C205.239 117.8 205.084 117.9 204.964 118.02C204.844 118.14 204.744 118.26 204.664 118.38H202.339V112.5H209.509V114.24H204.259V116.805H204.529C204.629 116.675 204.764 116.55 204.934 116.43C205.104 116.31 205.324 116.21 205.594 116.13C205.864 116.05 206.184 116.01 206.554 116.01C207.174 116.01 207.739 116.14 208.249 116.4C208.759 116.66 209.164 117.045 209.464 117.555C209.774 118.055 209.929 118.675 209.929 119.415V119.595C209.929 120.335 209.769 120.975 209.449 121.515C209.139 122.055 208.689 122.475 208.099 122.775C207.509 123.065 206.804 123.21 205.984 123.21ZM210.946 123V121.74C210.946 121.01 211.066 120.405 211.306 119.925C211.546 119.435 211.891 119.035 212.341 118.725C212.801 118.405 213.361 118.145 214.021 117.945L215.026 117.63C215.396 117.51 215.706 117.365 215.956 117.195C216.206 117.015 216.396 116.8 216.526 116.55C216.666 116.3 216.736 116.015 216.736 115.695V115.635C216.736 115.135 216.566 114.74 216.226 114.45C215.886 114.15 215.421 114 214.831 114C214.251 114 213.781 114.16 213.421 114.48C213.071 114.79 212.896 115.24 212.896 115.83V116.1H210.976V115.86C210.976 115.1 211.146 114.455 211.486 113.925C211.826 113.395 212.286 112.99 212.866 112.71C213.456 112.43 214.111 112.29 214.831 112.29C215.551 112.29 216.201 112.43 216.781 112.71C217.361 112.98 217.816 113.365 218.146 113.865C218.486 114.355 218.656 114.935 218.656 115.605V115.755C218.656 116.425 218.516 116.995 218.236 117.465C217.966 117.925 217.596 118.305 217.126 118.605C216.656 118.895 216.121 119.135 215.521 119.325L214.561 119.625C214.131 119.755 213.796 119.9 213.556 120.06C213.316 120.21 213.146 120.38 213.046 120.57C212.956 120.75 212.911 120.97 212.911 121.23V121.29H218.566V123H210.946ZM219.853 123V121.74C219.853 121.01 219.973 120.405 220.213 119.925C220.453 119.435 220.798 119.035 221.248 118.725C221.708 118.405 222.268 118.145 222.928 117.945L223.933 117.63C224.303 117.51 224.613 117.365 224.863 117.195C225.113 117.015 225.303 116.8 225.433 116.55C225.573 116.3 225.643 116.015 225.643 115.695V115.635C225.643 115.135 225.473 114.74 225.133 114.45C224.793 114.15 224.328 114 223.738 114C223.158 114 222.688 114.16 222.328 114.48C221.978 114.79 221.803 115.24 221.803 115.83V116.1H219.883V115.86C219.883 115.1 220.053 114.455 220.393 113.925C220.733 113.395 221.193 112.99 221.773 112.71C222.363 112.43 223.018 112.29 223.738 112.29C224.458 112.29 225.108 112.43 225.688 112.71C226.268 112.98 226.723 113.365 227.053 113.865C227.393 114.355 227.563 114.935 227.563 115.605V115.755C227.563 116.425 227.423 116.995 227.143 117.465C226.873 117.925 226.503 118.305 226.033 118.605C225.563 118.895 225.028 119.135 224.428 119.325L223.468 119.625C223.038 119.755 222.703 119.9 222.463 120.06C222.223 120.21 222.053 120.38 221.953 120.57C221.863 120.75 221.818 120.97 221.818 121.23V121.29H227.473V123H219.853ZM230.364 123.21C229.964 123.21 229.624 123.08 229.344 122.82C229.074 122.55 228.939 122.205 228.939 121.785C228.939 121.365 229.074 121.025 229.344 120.765C229.624 120.495 229.964 120.36 230.364 120.36C230.774 120.36 231.114 120.495 231.384 120.765C231.654 121.025 231.789 121.365 231.789 121.785C231.789 122.205 231.654 122.55 231.384 122.82C231.114 123.08 230.774 123.21 230.364 123.21ZM237.13 123.21C236.33 123.21 235.635 123.06 235.045 122.76C234.455 122.46 234 122.045 233.68 121.515C233.36 120.985 233.2 120.375 233.2 119.685V116.1C233.2 115.25 233.37 114.545 233.71 113.985C234.06 113.415 234.535 112.99 235.135 112.71C235.745 112.43 236.44 112.29 237.22 112.29C238 112.29 238.675 112.42 239.245 112.68C239.825 112.94 240.27 113.315 240.58 113.805C240.9 114.295 241.06 114.88 241.06 115.56H239.11C239.11 115.14 238.965 114.775 238.675 114.465C238.385 114.155 237.9 114 237.22 114C236.55 114 236.03 114.175 235.66 114.525C235.3 114.875 235.12 115.36 235.12 115.98V117.06H235.39C235.56 116.86 235.82 116.67 236.17 116.49C236.52 116.31 237.03 116.22 237.7 116.22C238.31 116.22 238.87 116.35 239.38 116.61C239.9 116.87 240.32 117.25 240.64 117.75C240.96 118.24 241.12 118.835 241.12 119.535V119.715C241.12 120.405 240.955 121.015 240.625 121.545C240.295 122.065 239.83 122.475 239.23 122.775C238.63 123.065 237.93 123.21 237.13 123.21ZM237.16 121.5C237.79 121.5 238.285 121.335 238.645 121.005C239.015 120.675 239.2 120.235 239.2 119.685V119.565C239.2 119.195 239.115 118.875 238.945 118.605C238.785 118.335 238.55 118.125 238.24 117.975C237.94 117.825 237.58 117.75 237.16 117.75C236.75 117.75 236.39 117.825 236.08 117.975C235.77 118.125 235.53 118.335 235.36 118.605C235.2 118.875 235.12 119.195 235.12 119.565V119.685C235.12 120.235 235.3 120.675 235.66 121.005C236.03 121.335 236.53 121.5 237.16 121.5ZM246.268 123.21C245.448 123.21 244.738 123.065 244.138 122.775C243.548 122.485 243.093 122.075 242.773 121.545C242.453 121.015 242.293 120.4 242.293 119.7V119.55H244.243V119.685C244.243 120.185 244.408 120.615 244.738 120.975C245.078 121.325 245.578 121.5 246.238 121.5C246.898 121.5 247.403 121.325 247.753 120.975C248.113 120.615 248.293 120.15 248.293 119.58V119.43C248.293 118.87 248.113 118.425 247.753 118.095C247.403 117.765 246.963 117.6 246.433 117.6C246.143 117.6 245.903 117.64 245.713 117.72C245.523 117.8 245.368 117.9 245.248 118.02C245.128 118.14 245.028 118.26 244.948 118.38H242.623V112.5H249.793V114.24H244.543V116.805H244.813C244.913 116.675 245.048 116.55 245.218 116.43C245.388 116.31 245.608 116.21 245.878 116.13C246.148 116.05 246.468 116.01 246.838 116.01C247.458 116.01 248.023 116.14 248.533 116.4C249.043 116.66 249.448 117.045 249.748 117.555C250.058 118.055 250.213 118.675 250.213 119.415V119.595C250.213 120.335 250.053 120.975 249.733 121.515C249.423 122.055 248.973 122.475 248.383 122.775C247.793 123.065 247.088 123.21 246.268 123.21Z" fill="#04130F"></path><path d="M162.28 141C161.353 141 160.547 140.82 159.86 140.46C159.18 140.107 158.653 139.6 158.28 138.94C157.907 138.28 157.72 137.487 157.72 136.56V136.33C157.72 135.41 157.9 134.62 158.26 133.96C158.62 133.3 159.13 132.793 159.79 132.44C160.457 132.087 161.237 131.91 162.13 131.91H162.34C163.18 131.91 163.913 132.083 164.54 132.43C165.167 132.77 165.653 133.253 166 133.88C166.347 134.5 166.52 135.233 166.52 136.08V136.63C166.52 137.403 166.37 137.993 166.07 138.4C165.777 138.8 165.347 139 164.78 139H164.32C164.027 139 163.803 138.94 163.65 138.82C163.497 138.693 163.42 138.523 163.42 138.31V138.25H163.26C163.207 138.39 163.123 138.527 163.01 138.66C162.903 138.787 162.76 138.89 162.58 138.97C162.407 139.05 162.18 139.09 161.9 139.09C161.493 139.09 161.133 138.98 160.82 138.76C160.513 138.54 160.273 138.247 160.1 137.88C159.933 137.507 159.85 137.087 159.85 136.62V136.45C159.85 135.983 159.933 135.567 160.1 135.2C160.267 134.827 160.497 134.533 160.79 134.32C161.09 134.1 161.437 133.99 161.83 133.99C162.103 133.99 162.327 134.027 162.5 134.1C162.68 134.167 162.823 134.257 162.93 134.37C163.037 134.483 163.123 134.603 163.19 134.73H163.35V134.08H164.35V137.79C164.35 137.89 164.37 137.967 164.41 138.02C164.457 138.067 164.53 138.09 164.63 138.09H164.71C164.997 138.09 165.2 137.973 165.32 137.74C165.447 137.5 165.51 137.123 165.51 136.61V136.1C165.51 135.42 165.387 134.837 165.14 134.35C164.893 133.863 164.533 133.49 164.06 133.23C163.593 132.97 163.013 132.84 162.32 132.84H162.16C161.467 132.84 160.86 132.973 160.34 133.24C159.827 133.507 159.43 133.903 159.15 134.43C158.87 134.95 158.73 135.597 158.73 136.37V136.53C158.73 137.297 158.877 137.943 159.17 138.47C159.463 138.997 159.88 139.393 160.42 139.66C160.96 139.933 161.6 140.07 162.34 140.07H164.36V141H162.28ZM162.1 138.19C162.473 138.19 162.773 138.05 163 137.77C163.233 137.483 163.35 137.09 163.35 136.59V136.48C163.35 135.98 163.233 135.59 163 135.31C162.773 135.023 162.473 134.88 162.1 134.88C161.727 134.88 161.427 135.023 161.2 135.31C160.98 135.597 160.87 135.987 160.87 136.48V136.6C160.87 137.093 160.98 137.483 161.2 137.77C161.427 138.05 161.727 138.19 162.1 138.19Z" fill="#04130F" fill-opacity="0.5"></path><path d="M174.06 139.14C173.52 139.14 173.047 139.06 172.64 138.9C172.24 138.74 171.927 138.51 171.7 138.21C171.48 137.903 171.37 137.547 171.37 137.14V137.03C171.37 136.697 171.433 136.423 171.56 136.21C171.693 135.99 171.853 135.82 172.04 135.7C172.233 135.573 172.413 135.49 172.58 135.45V135.29C172.413 135.243 172.243 135.16 172.07 135.04C171.897 134.913 171.753 134.75 171.64 134.55C171.533 134.343 171.48 134.097 171.48 133.81V133.7C171.48 133.327 171.587 133.003 171.8 132.73C172.02 132.457 172.323 132.243 172.71 132.09C173.097 131.937 173.547 131.86 174.06 131.86C174.567 131.86 175.013 131.937 175.4 132.09C175.787 132.243 176.087 132.457 176.3 132.73C176.52 133.003 176.63 133.327 176.63 133.7V133.81C176.63 134.097 176.573 134.343 176.46 134.55C176.353 134.75 176.217 134.913 176.05 135.04C175.883 135.16 175.713 135.243 175.54 135.29V135.45C175.713 135.49 175.893 135.573 176.08 135.7C176.267 135.82 176.423 135.99 176.55 136.21C176.677 136.423 176.74 136.697 176.74 137.03V137.14C176.74 137.547 176.627 137.903 176.4 138.21C176.18 138.51 175.867 138.74 175.46 138.9C175.06 139.06 174.593 139.14 174.06 139.14ZM174.06 138.2C174.567 138.2 174.963 138.103 175.25 137.91C175.543 137.71 175.69 137.433 175.69 137.08V137C175.69 136.64 175.547 136.363 175.26 136.17C174.98 135.97 174.58 135.87 174.06 135.87C173.54 135.87 173.137 135.97 172.85 136.17C172.563 136.363 172.42 136.64 172.42 137V137.08C172.42 137.433 172.563 137.71 172.85 137.91C173.143 138.103 173.547 138.2 174.06 138.2ZM174.06 134.93C174.533 134.93 174.903 134.84 175.17 134.66C175.443 134.48 175.58 134.227 175.58 133.9V133.82C175.58 133.493 175.443 133.243 175.17 133.07C174.897 132.89 174.527 132.8 174.06 132.8C173.587 132.8 173.213 132.89 172.94 133.07C172.667 133.243 172.53 133.493 172.53 133.82V133.9C172.53 134.227 172.663 134.48 172.93 134.66C173.203 134.84 173.58 134.93 174.06 134.93ZM177.593 139V138.21C177.593 137.723 177.677 137.323 177.843 137.01C178.01 136.697 178.247 136.443 178.553 136.25C178.867 136.05 179.243 135.883 179.683 135.75L180.293 135.56C180.567 135.473 180.8 135.367 180.993 135.24C181.193 135.113 181.347 134.957 181.453 134.77C181.56 134.577 181.613 134.353 181.613 134.1V134.06C181.613 133.667 181.48 133.36 181.213 133.14C180.947 132.913 180.597 132.8 180.163 132.8C179.717 132.8 179.353 132.92 179.073 133.16C178.8 133.4 178.663 133.753 178.663 134.22V134.38H177.623V134.23C177.623 133.723 177.733 133.297 177.953 132.95C178.173 132.597 178.477 132.327 178.863 132.14C179.25 131.953 179.683 131.86 180.163 131.86C180.643 131.86 181.07 131.95 181.443 132.13C181.823 132.31 182.12 132.563 182.333 132.89C182.553 133.217 182.663 133.6 182.663 134.04V134.13C182.663 134.583 182.573 134.96 182.393 135.26C182.213 135.56 181.963 135.807 181.643 136C181.33 136.193 180.967 136.357 180.553 136.49L179.963 136.67C179.65 136.763 179.397 136.867 179.203 136.98C179.017 137.087 178.877 137.217 178.783 137.37C178.697 137.523 178.653 137.72 178.653 137.96V138.06H182.603V139H177.593ZM184.47 139.14C184.237 139.14 184.04 139.063 183.88 138.91C183.727 138.757 183.65 138.56 183.65 138.32C183.65 138.08 183.727 137.887 183.88 137.74C184.04 137.587 184.237 137.51 184.47 137.51C184.703 137.51 184.897 137.587 185.05 137.74C185.21 137.893 185.29 138.087 185.29 138.32C185.29 138.56 185.21 138.757 185.05 138.91C184.897 139.063 184.703 139.14 184.47 139.14ZM186.912 139V138.75C186.912 138.497 186.932 138.287 186.972 138.12C187.012 137.947 187.095 137.747 187.222 137.52L189.722 133.07V132.94H185.792V132H190.812V133.24L188.182 137.96C188.102 138.107 188.045 138.24 188.012 138.36C187.979 138.473 187.962 138.617 187.962 138.79V139H186.912ZM194.138 139.14C193.598 139.14 193.125 139.06 192.718 138.9C192.318 138.74 192.005 138.51 191.778 138.21C191.558 137.903 191.448 137.547 191.448 137.14V137.03C191.448 136.697 191.511 136.423 191.638 136.21C191.771 135.99 191.931 135.82 192.118 135.7C192.311 135.573 192.491 135.49 192.658 135.45V135.29C192.491 135.243 192.321 135.16 192.148 135.04C191.975 134.913 191.831 134.75 191.718 134.55C191.611 134.343 191.558 134.097 191.558 133.81V133.7C191.558 133.327 191.665 133.003 191.878 132.73C192.098 132.457 192.401 132.243 192.788 132.09C193.175 131.937 193.625 131.86 194.138 131.86C194.645 131.86 195.091 131.937 195.478 132.09C195.865 132.243 196.165 132.457 196.378 132.73C196.598 133.003 196.708 133.327 196.708 133.7V133.81C196.708 134.097 196.651 134.343 196.538 134.55C196.431 134.75 196.295 134.913 196.128 135.04C195.961 135.16 195.791 135.243 195.618 135.29V135.45C195.791 135.49 195.971 135.573 196.158 135.7C196.345 135.82 196.501 135.99 196.628 136.21C196.755 136.423 196.818 136.697 196.818 137.03V137.14C196.818 137.547 196.705 137.903 196.478 138.21C196.258 138.51 195.945 138.74 195.538 138.9C195.138 139.06 194.671 139.14 194.138 139.14ZM194.138 138.2C194.645 138.2 195.041 138.103 195.328 137.91C195.621 137.71 195.768 137.433 195.768 137.08V137C195.768 136.64 195.625 136.363 195.338 136.17C195.058 135.97 194.658 135.87 194.138 135.87C193.618 135.87 193.215 135.97 192.928 136.17C192.641 136.363 192.498 136.64 192.498 137V137.08C192.498 137.433 192.641 137.71 192.928 137.91C193.221 138.103 193.625 138.2 194.138 138.2ZM194.138 134.93C194.611 134.93 194.981 134.84 195.248 134.66C195.521 134.48 195.658 134.227 195.658 133.9V133.82C195.658 133.493 195.521 133.243 195.248 133.07C194.975 132.89 194.605 132.8 194.138 132.8C193.665 132.8 193.291 132.89 193.018 133.07C192.745 133.243 192.608 133.493 192.608 133.82V133.9C192.608 134.227 192.741 134.48 193.008 134.66C193.281 134.84 193.658 134.93 194.138 134.93ZM203.09 139.14C202.537 139.14 202.06 139.04 201.66 138.84C201.267 138.64 200.96 138.353 200.74 137.98C200.527 137.6 200.42 137.14 200.42 136.6V132H201.51V136.63C201.51 137.123 201.647 137.503 201.92 137.77C202.194 138.037 202.584 138.17 203.09 138.17C203.597 138.17 203.987 138.037 204.26 137.77C204.534 137.503 204.67 137.123 204.67 136.63V132H205.75V136.6C205.75 137.14 205.644 137.6 205.43 137.98C205.217 138.353 204.91 138.64 204.51 138.84C204.11 139.04 203.637 139.14 203.09 139.14ZM209.54 139.14C209.013 139.14 208.546 139.047 208.14 138.86C207.733 138.673 207.413 138.4 207.18 138.04C206.953 137.673 206.84 137.23 206.84 136.71V136.46H207.91V136.71C207.91 137.203 208.056 137.573 208.35 137.82C208.65 138.067 209.046 138.19 209.54 138.19C210.04 138.19 210.416 138.087 210.67 137.88C210.923 137.667 211.05 137.393 211.05 137.06C211.05 136.84 210.99 136.66 210.87 136.52C210.75 136.38 210.58 136.27 210.36 136.19C210.14 136.103 209.876 136.023 209.57 135.95L209.2 135.86C208.753 135.753 208.363 135.623 208.03 135.47C207.703 135.31 207.45 135.1 207.27 134.84C207.09 134.58 207 134.247 207 133.84C207 133.427 207.1 133.073 207.3 132.78C207.506 132.487 207.79 132.26 208.15 132.1C208.51 131.94 208.933 131.86 209.42 131.86C209.906 131.86 210.34 131.943 210.72 132.11C211.106 132.277 211.41 132.523 211.63 132.85C211.85 133.177 211.96 133.587 211.96 134.08V134.44H210.89V134.08C210.89 133.78 210.826 133.537 210.7 133.35C210.58 133.163 210.41 133.027 210.19 132.94C209.97 132.853 209.713 132.81 209.42 132.81C208.993 132.81 208.66 132.9 208.42 133.08C208.186 133.253 208.07 133.497 208.07 133.81C208.07 134.023 208.12 134.2 208.22 134.34C208.326 134.473 208.48 134.583 208.68 134.67C208.88 134.757 209.13 134.833 209.43 134.9L209.8 134.99C210.253 135.09 210.653 135.22 211 135.38C211.346 135.533 211.62 135.743 211.82 136.01C212.02 136.277 212.12 136.62 212.12 137.04C212.12 137.46 212.013 137.827 211.8 138.14C211.593 138.453 211.296 138.7 210.91 138.88C210.523 139.053 210.066 139.14 209.54 139.14ZM212.954 139V138.04H213.894V132.96H212.954V132H215.754C216.688 132 217.401 132.237 217.894 132.71C218.394 133.183 218.644 133.897 218.644 134.85V136.16C218.644 137.113 218.394 137.827 217.894 138.3C217.401 138.767 216.688 139 215.754 139H212.954ZM214.984 138.02H215.764C216.371 138.02 216.821 137.867 217.114 137.56C217.408 137.253 217.554 136.797 217.554 136.19V134.81C217.554 134.197 217.408 133.74 217.114 133.44C216.821 133.14 216.371 132.99 215.764 132.99H214.984V138.02ZM224.294 139C223.994 139 223.754 138.91 223.574 138.73C223.4 138.55 223.314 138.31 223.314 138.01V134.94H221.954V134.07H223.314V132.44H224.344V134.07H225.814V134.94H224.344V137.83C224.344 138.03 224.437 138.13 224.624 138.13H225.654V139H224.294ZM229.158 139.14C228.665 139.14 228.225 139.04 227.838 138.84C227.458 138.633 227.158 138.34 226.938 137.96C226.718 137.58 226.608 137.13 226.608 136.61V136.46C226.608 135.94 226.718 135.493 226.938 135.12C227.158 134.74 227.458 134.447 227.838 134.24C228.225 134.033 228.665 133.93 229.158 133.93C229.651 133.93 230.091 134.033 230.478 134.24C230.865 134.447 231.168 134.74 231.388 135.12C231.608 135.493 231.718 135.94 231.718 136.46V136.61C231.718 137.13 231.608 137.58 231.388 137.96C231.168 138.34 230.865 138.633 230.478 138.84C230.091 139.04 229.651 139.14 229.158 139.14ZM229.158 138.22C229.611 138.22 229.978 138.077 230.258 137.79C230.545 137.497 230.688 137.093 230.688 136.58V136.49C230.688 135.977 230.548 135.577 230.268 135.29C229.988 134.997 229.618 134.85 229.158 134.85C228.711 134.85 228.345 134.997 228.058 135.29C227.778 135.577 227.638 135.977 227.638 136.49V136.58C227.638 137.093 227.778 137.497 228.058 137.79C228.345 138.077 228.711 138.22 229.158 138.22ZM235.519 139V132H236.599V139H235.519ZM238.058 139V132H240.138L242.038 138.28H242.198V132H243.268V139H241.188L239.288 132.71H239.128V139H238.058ZM244.728 139V132H247.668C248.101 132 248.481 132.077 248.808 132.23C249.141 132.377 249.398 132.59 249.578 132.87C249.765 133.15 249.858 133.483 249.858 133.87V133.98C249.858 134.42 249.751 134.773 249.538 135.04C249.331 135.3 249.078 135.483 248.778 135.59V135.75C249.031 135.763 249.235 135.85 249.388 136.01C249.541 136.163 249.618 136.387 249.618 136.68V139H248.528V136.83C248.528 136.65 248.481 136.507 248.388 136.4C248.295 136.293 248.145 136.24 247.938 136.24H245.808V139H244.728ZM245.808 135.26H247.548C247.935 135.26 248.235 135.163 248.448 134.97C248.661 134.77 248.768 134.5 248.768 134.16V134.08C248.768 133.74 248.661 133.473 248.448 133.28C248.241 133.08 247.941 132.98 247.548 132.98H245.808V135.26Z" fill="#04130F" fill-opacity="0.5"></path><g filter="url(#filter1_d_206_524)"><rect x="24" y="168" width="227" height="64" rx="12" fill="url(#paint1_linear_206_524)" shape-rendering="crispEdges"></rect><path d="M37.3057 204V195.6H40.6417C41.1537 195.6 41.6097 195.704 42.0097 195.912C42.4177 196.112 42.7337 196.4 42.9577 196.776C43.1897 197.144 43.3057 197.588 43.3057 198.108V198.264C43.3057 198.784 43.1857 199.232 42.9457 199.608C42.7137 199.984 42.3977 200.272 41.9977 200.472C41.5977 200.672 41.1457 200.772 40.6417 200.772H38.6017V204H37.3057ZM38.6017 199.596H40.5097C40.9657 199.596 41.3297 199.476 41.6017 199.236C41.8737 198.996 42.0097 198.668 42.0097 198.252V198.132C42.0097 197.708 41.8737 197.376 41.6017 197.136C41.3297 196.896 40.9657 196.776 40.5097 196.776H38.6017V199.596ZM46.2793 204.168C45.8553 204.168 45.4753 204.096 45.1393 203.952C44.8113 203.808 44.5473 203.596 44.3473 203.316C44.1553 203.036 44.0593 202.696 44.0593 202.296C44.0593 201.888 44.1553 201.552 44.3473 201.288C44.5473 201.016 44.8153 200.812 45.1513 200.676C45.4953 200.54 45.8833 200.472 46.3153 200.472H48.1153V200.088C48.1153 199.744 48.0113 199.468 47.8033 199.26C47.5953 199.052 47.2753 198.948 46.8433 198.948C46.4193 198.948 46.0953 199.048 45.8713 199.248C45.6473 199.448 45.4993 199.708 45.4273 200.028L44.2753 199.656C44.3713 199.336 44.5233 199.048 44.7313 198.792C44.9473 198.528 45.2313 198.316 45.5833 198.156C45.9353 197.996 46.3593 197.916 46.8553 197.916C47.6233 197.916 48.2273 198.112 48.6673 198.504C49.1073 198.896 49.3273 199.452 49.3273 200.172V202.608C49.3273 202.848 49.4393 202.968 49.6633 202.968H50.1673V204H49.2433C48.9633 204 48.7353 203.928 48.5593 203.784C48.3833 203.64 48.2953 203.444 48.2953 203.196V203.16H48.1153C48.0513 203.28 47.9553 203.42 47.8273 203.58C47.6993 203.74 47.5113 203.88 47.2633 204C47.0153 204.112 46.6873 204.168 46.2793 204.168ZM46.4593 203.148C46.9553 203.148 47.3553 203.008 47.6593 202.728C47.9633 202.44 48.1153 202.048 48.1153 201.552V201.432H46.3873C46.0593 201.432 45.7953 201.504 45.5953 201.648C45.3953 201.784 45.2952 201.988 45.2952 202.26C45.2952 202.532 45.3993 202.748 45.6073 202.908C45.8153 203.068 46.0993 203.148 46.4593 203.148ZM51.9007 206.4V205.32H55.2007C55.4247 205.32 55.5367 205.2 55.5367 204.96V203.136H55.3447C55.2727 203.296 55.1607 203.452 55.0087 203.604C54.8647 203.748 54.6687 203.868 54.4207 203.964C54.1727 204.06 53.8607 204.108 53.4847 204.108C53.0367 204.108 52.6367 204.008 52.2847 203.808C51.9327 203.608 51.6567 203.324 51.4567 202.956C51.2567 202.588 51.1567 202.152 51.1567 201.648V198.084H52.3927V201.552C52.3927 202.064 52.5207 202.444 52.7767 202.692C53.0327 202.932 53.3887 203.052 53.8447 203.052C54.3487 203.052 54.7527 202.884 55.0567 202.548C55.3687 202.212 55.5247 201.724 55.5247 201.084V198.084H56.7607V205.212C56.7607 205.572 56.6527 205.86 56.4367 206.076C56.2287 206.292 55.9407 206.4 55.5727 206.4H51.9007ZM58.5878 204V198.084H59.7998V198.78H59.9918C60.1038 198.572 60.2838 198.388 60.5318 198.228C60.7798 198.068 61.1158 197.988 61.5398 197.988C61.9798 197.988 62.3318 198.08 62.5958 198.264C62.8678 198.44 63.0718 198.668 63.2078 198.948H63.3998C63.5358 198.676 63.7318 198.448 63.9878 198.264C64.2518 198.08 64.6238 197.988 65.1038 197.988C65.4878 197.988 65.8278 198.068 66.1238 198.228C66.4198 198.38 66.6558 198.612 66.8318 198.924C67.0078 199.228 67.0958 199.608 67.0958 200.064V204H65.8598V200.16C65.8598 199.8 65.7598 199.524 65.5598 199.332C65.3678 199.132 65.0918 199.032 64.7318 199.032C64.3478 199.032 64.0398 199.156 63.8078 199.404C63.5758 199.652 63.4598 200.008 63.4598 200.472V204H62.2238V200.16C62.2238 199.8 62.1238 199.524 61.9238 199.332C61.7318 199.132 61.4558 199.032 61.0958 199.032C60.7118 199.032 60.4038 199.156 60.1718 199.404C59.9398 199.652 59.8238 200.008 59.8238 200.472V204H58.5878ZM71.5888 204.168C70.9888 204.168 70.4648 204.044 70.0168 203.796C69.5688 203.54 69.2168 203.184 68.9608 202.728C68.7128 202.264 68.5888 201.728 68.5888 201.12V200.976C68.5888 200.36 68.7128 199.824 68.9608 199.368C69.2088 198.904 69.5528 198.548 69.9928 198.3C70.4408 198.044 70.9568 197.916 71.5408 197.916C72.1088 197.916 72.6048 198.044 73.0288 198.3C73.4608 198.548 73.7968 198.896 74.0368 199.344C74.2768 199.792 74.3968 200.316 74.3968 200.916V201.384H69.8488C69.8648 201.904 70.0368 202.32 70.3648 202.632C70.7008 202.936 71.1168 203.088 71.6128 203.088C72.0768 203.088 72.4248 202.984 72.6568 202.776C72.8968 202.568 73.0808 202.328 73.2088 202.056L74.2288 202.584C74.1168 202.808 73.9528 203.044 73.7368 203.292C73.5288 203.54 73.2528 203.748 72.9088 203.916C72.5648 204.084 72.1248 204.168 71.5888 204.168ZM69.8608 200.436H73.1368C73.1048 199.988 72.9448 199.64 72.6568 199.392C72.3688 199.136 71.9928 199.008 71.5288 199.008C71.0648 199.008 70.6848 199.136 70.3888 199.392C70.1008 199.64 69.9248 199.988 69.8608 200.436ZM75.8847 204V198.084H77.0967V198.972H77.2887C77.4007 198.732 77.6007 198.508 77.8887 198.3C78.1767 198.092 78.6047 197.988 79.1727 197.988C79.6207 197.988 80.0167 198.088 80.3607 198.288C80.7127 198.488 80.9887 198.772 81.1887 199.14C81.3887 199.5 81.4887 199.936 81.4887 200.448V204H80.2527V200.544C80.2527 200.032 80.1247 199.656 79.8687 199.416C79.6127 199.168 79.2607 199.044 78.8127 199.044C78.3007 199.044 77.8887 199.212 77.5767 199.548C77.2727 199.884 77.1207 200.372 77.1207 201.012V204H75.8847ZM85.3234 204C84.9634 204 84.6754 203.892 84.4594 203.676C84.2514 203.46 84.1474 203.172 84.1474 202.812V199.128H82.5154V198.084H84.1474V196.128H85.3834V198.084H87.1474V199.128H85.3834V202.596C85.3834 202.836 85.4954 202.956 85.7194 202.956H86.9554V204H85.3234ZM90.8458 204L93.2458 195.6H95.5258L97.9138 204H96.5818L96.0298 202.02H92.7418L92.1898 204H90.8458ZM93.0658 200.82H95.7058L94.4818 196.404H94.2898L93.0658 200.82ZM101.536 204.168C101.048 204.168 100.596 204.048 100.18 203.808C99.7638 203.568 99.4278 203.224 99.1718 202.776C98.9238 202.32 98.7998 201.772 98.7998 201.132V200.952C98.7998 200.32 98.9238 199.776 99.1718 199.32C99.4198 198.864 99.7518 198.516 100.168 198.276C100.584 198.036 101.04 197.916 101.536 197.916C101.92 197.916 102.24 197.964 102.496 198.06C102.76 198.156 102.976 198.28 103.144 198.432C103.312 198.576 103.44 198.728 103.528 198.888H103.72V195.6H104.956V204H103.744V203.16H103.552C103.4 203.416 103.168 203.648 102.856 203.856C102.552 204.064 102.112 204.168 101.536 204.168ZM101.884 203.088C102.42 203.088 102.86 202.916 103.204 202.572C103.556 202.228 103.732 201.736 103.732 201.096V200.988C103.732 200.356 103.56 199.868 103.216 199.524C102.872 199.18 102.428 199.008 101.884 199.008C101.356 199.008 100.916 199.18 100.564 199.524C100.22 199.868 100.048 200.356 100.048 200.988V201.096C100.048 201.736 100.22 202.228 100.564 202.572C100.916 202.916 101.356 203.088 101.884 203.088ZM108.143 204L106.151 198.084H107.459L109.031 203.088H109.223L110.795 198.084H112.103L110.111 204H108.143ZM113.303 204V198.084H114.539V204H113.303ZM113.927 197.28C113.687 197.28 113.483 197.204 113.315 197.052C113.155 196.892 113.075 196.688 113.075 196.44C113.075 196.192 113.155 195.992 113.315 195.84C113.483 195.68 113.687 195.6 113.927 195.6C114.175 195.6 114.379 195.68 114.539 195.84C114.699 195.992 114.779 196.192 114.779 196.44C114.779 196.688 114.699 196.892 114.539 197.052C114.379 197.204 114.175 197.28 113.927 197.28ZM119.121 204.168C118.553 204.168 118.037 204.048 117.573 203.808C117.117 203.568 116.753 203.22 116.481 202.764C116.217 202.308 116.085 201.76 116.085 201.12V200.964C116.085 200.324 116.217 199.78 116.481 199.332C116.753 198.876 117.117 198.528 117.573 198.288C118.037 198.04 118.553 197.916 119.121 197.916C119.689 197.916 120.173 198.02 120.573 198.228C120.973 198.436 121.293 198.712 121.533 199.056C121.781 199.4 121.941 199.78 122.013 200.196L120.813 200.448C120.773 200.184 120.689 199.944 120.561 199.728C120.433 199.512 120.253 199.34 120.021 199.212C119.789 199.084 119.497 199.02 119.145 199.02C118.801 199.02 118.489 199.1 118.209 199.26C117.937 199.412 117.721 199.636 117.561 199.932C117.401 200.22 117.321 200.572 117.321 200.988V201.096C117.321 201.512 117.401 201.868 117.561 202.164C117.721 202.46 117.937 202.684 118.209 202.836C118.489 202.988 118.801 203.064 119.145 203.064C119.665 203.064 120.061 202.932 120.333 202.668C120.605 202.396 120.777 202.052 120.849 201.636L122.049 201.912C121.953 202.32 121.781 202.696 121.533 203.04C121.293 203.384 120.973 203.66 120.573 203.868C120.173 204.068 119.689 204.168 119.121 204.168ZM126.187 204.168C125.587 204.168 125.063 204.044 124.615 203.796C124.167 203.54 123.815 203.184 123.559 202.728C123.311 202.264 123.187 201.728 123.187 201.12V200.976C123.187 200.36 123.311 199.824 123.559 199.368C123.807 198.904 124.151 198.548 124.591 198.3C125.039 198.044 125.555 197.916 126.139 197.916C126.707 197.916 127.203 198.044 127.627 198.3C128.059 198.548 128.395 198.896 128.635 199.344C128.875 199.792 128.995 200.316 128.995 200.916V201.384H124.447C124.463 201.904 124.635 202.32 124.963 202.632C125.299 202.936 125.715 203.088 126.211 203.088C126.675 203.088 127.023 202.984 127.255 202.776C127.495 202.568 127.679 202.328 127.807 202.056L128.827 202.584C128.715 202.808 128.551 203.044 128.335 203.292C128.127 203.54 127.851 203.748 127.507 203.916C127.163 204.084 126.723 204.168 126.187 204.168ZM124.459 200.436H127.735C127.703 199.988 127.543 199.64 127.255 199.392C126.967 199.136 126.591 199.008 126.127 199.008C125.663 199.008 125.283 199.136 124.987 199.392C124.699 199.64 124.523 199.988 124.459 200.436Z" fill="white"></path><path d="M148.861 204V195.273H154.452V196.598H150.442V198.967H154.068V200.293H150.442V204H148.861ZM155.892 204V195.273H159.165C159.835 195.273 160.398 195.389 160.852 195.622C161.31 195.855 161.655 196.182 161.888 196.602C162.124 197.02 162.241 197.507 162.241 198.064C162.241 198.624 162.122 199.109 161.884 199.521C161.648 199.93 161.3 200.247 160.839 200.472C160.379 200.693 159.814 200.804 159.143 200.804H156.812V199.491H158.93C159.322 199.491 159.643 199.437 159.893 199.33C160.143 199.219 160.328 199.058 160.447 198.848C160.57 198.635 160.631 198.374 160.631 198.064C160.631 197.754 160.57 197.49 160.447 197.271C160.325 197.05 160.139 196.882 159.889 196.768C159.639 196.652 159.317 196.594 158.922 196.594H157.473V204H155.892ZM160.401 200.045L162.561 204H160.797L158.675 200.045H160.401ZM163.697 204V195.273H169.373V196.598H165.278V198.967H169.079V200.293H165.278V202.675H169.407V204H163.697ZM170.986 204V195.273H176.662V196.598H172.567V198.967H176.368V200.293H172.567V202.675H176.696V204H170.986ZM184.209 204H181.251V195.273H184.268C185.135 195.273 185.879 195.447 186.501 195.797C187.126 196.143 187.607 196.642 187.942 197.293C188.277 197.943 188.445 198.722 188.445 199.628C188.445 200.537 188.276 201.318 187.938 201.972C187.602 202.625 187.118 203.126 186.484 203.476C185.854 203.825 185.095 204 184.209 204ZM182.832 202.632H184.132C184.74 202.632 185.247 202.521 185.653 202.3C186.06 202.075 186.365 201.741 186.57 201.298C186.774 200.852 186.876 200.295 186.876 199.628C186.876 198.96 186.774 198.406 186.57 197.966C186.365 197.523 186.063 197.192 185.662 196.973C185.264 196.751 184.77 196.641 184.179 196.641H182.832V202.632ZM192.734 204.128C192.094 204.128 191.54 203.987 191.072 203.706C190.603 203.425 190.239 203.031 189.981 202.526C189.725 202.02 189.597 201.429 189.597 200.753C189.597 200.077 189.725 199.484 189.981 198.976C190.239 198.467 190.603 198.072 191.072 197.791C191.54 197.51 192.094 197.369 192.734 197.369C193.373 197.369 193.927 197.51 194.396 197.791C194.864 198.072 195.227 198.467 195.482 198.976C195.741 199.484 195.87 200.077 195.87 200.753C195.87 201.429 195.741 202.02 195.482 202.526C195.227 203.031 194.864 203.425 194.396 203.706C193.927 203.987 193.373 204.128 192.734 204.128ZM192.742 202.892C193.089 202.892 193.379 202.797 193.612 202.607C193.844 202.413 194.018 202.155 194.131 201.831C194.248 201.507 194.306 201.146 194.306 200.749C194.306 200.348 194.248 199.986 194.131 199.662C194.018 199.335 193.844 199.075 193.612 198.882C193.379 198.689 193.089 198.592 192.742 198.592C192.387 198.592 192.092 198.689 191.856 198.882C191.623 199.075 191.448 199.335 191.332 199.662C191.218 199.986 191.161 200.348 191.161 200.749C191.161 201.146 191.218 201.507 191.332 201.831C191.448 202.155 191.623 202.413 191.856 202.607C192.092 202.797 192.387 202.892 192.742 202.892ZM198.343 204L196.493 197.455H198.066L199.216 202.057H199.276L200.452 197.455H202.007L203.184 202.031H203.248L204.381 197.455H205.958L204.104 204H202.498L201.27 199.577H201.181L199.953 204H198.343ZM208.577 200.165V204H207.035V197.455H208.509V198.567H208.586C208.737 198.2 208.977 197.909 209.306 197.693C209.638 197.477 210.049 197.369 210.538 197.369C210.989 197.369 211.383 197.466 211.718 197.659C212.056 197.852 212.317 198.132 212.502 198.499C212.69 198.865 212.782 199.31 212.779 199.832V204H211.237V200.071C211.237 199.634 211.123 199.291 210.896 199.044C210.671 198.797 210.36 198.673 209.962 198.673C209.692 198.673 209.452 198.733 209.242 198.852C209.035 198.969 208.871 199.138 208.752 199.359C208.636 199.581 208.577 199.849 208.577 200.165ZM215.89 195.273V204H214.347V195.273H215.89ZM220.331 204.128C219.692 204.128 219.138 203.987 218.669 203.706C218.201 203.425 217.837 203.031 217.578 202.526C217.323 202.02 217.195 201.429 217.195 200.753C217.195 200.077 217.323 199.484 217.578 198.976C217.837 198.467 218.201 198.072 218.669 197.791C219.138 197.51 219.692 197.369 220.331 197.369C220.971 197.369 221.525 197.51 221.993 197.791C222.462 198.072 222.824 198.467 223.08 198.976C223.338 199.484 223.468 200.077 223.468 200.753C223.468 201.429 223.338 202.02 223.08 202.526C222.824 203.031 222.462 203.425 221.993 203.706C221.525 203.987 220.971 204.128 220.331 204.128ZM220.34 202.892C220.686 202.892 220.976 202.797 221.209 202.607C221.442 202.413 221.615 202.155 221.729 201.831C221.846 201.507 221.904 201.146 221.904 200.749C221.904 200.348 221.846 199.986 221.729 199.662C221.615 199.335 221.442 199.075 221.209 198.882C220.976 198.689 220.686 198.592 220.34 198.592C219.985 198.592 219.689 198.689 219.453 198.882C219.221 199.075 219.046 199.335 218.929 199.662C218.816 199.986 218.759 200.348 218.759 200.749C218.759 201.146 218.816 201.507 218.929 201.831C219.046 202.155 219.221 202.413 219.453 202.607C219.689 202.797 219.985 202.892 220.34 202.892ZM226.661 204.132C226.246 204.132 225.872 204.058 225.54 203.911C225.21 203.76 224.949 203.538 224.756 203.246C224.565 202.953 224.47 202.592 224.47 202.163C224.47 201.794 224.538 201.489 224.675 201.247C224.811 201.006 224.997 200.812 225.233 200.668C225.469 200.523 225.734 200.413 226.03 200.339C226.328 200.263 226.636 200.207 226.955 200.173C227.338 200.134 227.649 200.098 227.888 200.067C228.126 200.033 228.3 199.982 228.408 199.913C228.518 199.842 228.574 199.733 228.574 199.585V199.56C228.574 199.239 228.479 198.99 228.288 198.814C228.098 198.638 227.824 198.55 227.466 198.55C227.088 198.55 226.788 198.632 226.567 198.797C226.348 198.962 226.2 199.156 226.124 199.381L224.683 199.176C224.797 198.778 224.984 198.446 225.246 198.179C225.507 197.909 225.827 197.707 226.205 197.574C226.582 197.438 227 197.369 227.457 197.369C227.773 197.369 228.087 197.406 228.399 197.48C228.712 197.554 228.997 197.676 229.256 197.847C229.514 198.014 229.722 198.243 229.878 198.533C230.037 198.822 230.116 199.185 230.116 199.619V204H228.634V203.101H228.582C228.489 203.283 228.357 203.453 228.186 203.612C228.018 203.768 227.807 203.895 227.551 203.991C227.298 204.085 227.001 204.132 226.661 204.132ZM227.061 202.999C227.371 202.999 227.639 202.937 227.866 202.815C228.094 202.69 228.268 202.526 228.391 202.321C228.516 202.116 228.578 201.893 228.578 201.652V200.881C228.53 200.92 228.447 200.957 228.331 200.991C228.217 201.026 228.089 201.055 227.947 201.081C227.805 201.107 227.665 201.129 227.526 201.149C227.386 201.169 227.266 201.186 227.163 201.2C226.933 201.232 226.727 201.283 226.545 201.354C226.364 201.425 226.22 201.524 226.115 201.652C226.01 201.777 225.957 201.939 225.957 202.138C225.957 202.422 226.061 202.636 226.268 202.781C226.476 202.926 226.74 202.999 227.061 202.999ZM234.097 204.115C233.582 204.115 233.122 203.983 232.716 203.719C232.31 203.455 231.989 203.071 231.753 202.568C231.517 202.065 231.399 201.455 231.399 200.736C231.399 200.009 231.518 199.395 231.757 198.895C231.999 198.392 232.324 198.013 232.733 197.757C233.142 197.499 233.598 197.369 234.101 197.369C234.484 197.369 234.8 197.435 235.047 197.565C235.294 197.693 235.49 197.848 235.635 198.03C235.78 198.209 235.892 198.378 235.972 198.537H236.036V195.273H237.582V204H236.065V202.969H235.972C235.892 203.128 235.777 203.297 235.626 203.476C235.476 203.652 235.277 203.803 235.03 203.928C234.783 204.053 234.472 204.115 234.097 204.115ZM234.527 202.849C234.854 202.849 235.132 202.761 235.362 202.585C235.592 202.406 235.767 202.158 235.886 201.839C236.006 201.521 236.065 201.151 236.065 200.727C236.065 200.304 236.006 199.936 235.886 199.624C235.77 199.311 235.597 199.068 235.366 198.895C235.139 198.722 234.859 198.635 234.527 198.635C234.183 198.635 233.896 198.724 233.666 198.903C233.436 199.082 233.263 199.33 233.146 199.645C233.03 199.96 232.972 200.321 232.972 200.727C232.972 201.136 233.03 201.501 233.146 201.822C233.266 202.141 233.44 202.392 233.67 202.577C233.903 202.759 234.189 202.849 234.527 202.849Z" fill="white" fill-opacity="0.6"></path><path d="M148 206.386H238.439V207.205H148V206.386Z" fill="white" fill-opacity="0.6"></path></g><defs><filter id="filter0_d_206_524" x="0" y="0" width="275" height="112" filterUnits="userSpaceOnUse" color-interpolation-filters="sRGB"><feFlood flood-opacity="0" result="BackgroundImageFix"></feFlood><feColorMatrix in="SourceAlpha" type="matrix" values="0 0 0 0 0 0 0 0 0 0 0 0 0 0 0 0 0 0 127 0" result="hardAlpha"></feColorMatrix><feOffset dy="4"></feOffset><feGaussianBlur stdDeviation="12"></feGaussianBlur><feComposite in2="hardAlpha" operator="out"></feComposite><feColorMatrix type="matrix" values="0 0 0 0 0.0509804 0 0 0 0 0.107843 0 0 0 0 0.14902 0 0 0 0.08 0"></feColorMatrix><feBlend mode="normal" in2="BackgroundImageFix" result="effect1_dropShadow_206_524"></feBlend><feBlend mode="normal" in="SourceGraphic" in2="effect1_dropShadow_206_524" result="shape"></feBlend></filter><filter id="filter1_d_206_524" x="0" y="148" width="275" height="112" filterUnits="userSpaceOnUse" color-interpolation-filters="sRGB"><feFlood flood-opacity="0" result="BackgroundImageFix"></feFlood><feColorMatrix in="SourceAlpha" type="matrix" values="0 0 0 0 0 0 0 0 0 0 0 0 0 0 0 0 0 0 127 0" result="hardAlpha"></feColorMatrix><feOffset dy="4"></feOffset><feGaussianBlur stdDeviation="12"></feGaussianBlur><feComposite in2="hardAlpha" operator="out"></feComposite><feColorMatrix type="matrix" values="0 0 0 0 0.0509804 0 0 0 0 0.107843 0 0 0 0 0.14902 0 0 0 0.08 0"></feColorMatrix><feBlend mode="normal" in2="BackgroundImageFix" result="effect1_dropShadow_206_524"></feBlend><feBlend mode="normal" in="SourceGraphic" in2="effect1_dropShadow_206_524" result="shape"></feBlend></filter><linearGradient id="paint0_linear_206_524" x1="137.5" y1="20" x2="137.5" y2="84" gradientUnits="userSpaceOnUse"><stop stop-color="#1E5151"></stop><stop offset="1" stop-color="#1E7777"></stop></linearGradient><linearGradient id="paint1_linear_206_524" x1="137.5" y1="168" x2="137.5" y2="232" gradientUnits="userSpaceOnUse"><stop stop-color="#1E5151"></stop><stop offset="1" stop-color="#1E7777"></stop></linearGradient><clipPath id="clip0_206_524"><rect width="32" height="24" fill="white" transform="translate(31.9883 40)"></rect></clipPath></defs></svg>