<svg width="100%" height="212" xmlns="http://www.w3.org/2000/svg" fill="none" viewBox="24 20 251 212"><g filter="url(#filter0_d_206_162)"><rect x="24" y="20" width="251" height="44" rx="12" fill="url(#paint0_linear_206_162)" shape-rendering="crispEdges"></rect><mask id="mask0_206_162" style="mask-type:alpha" maskUnits="userSpaceOnUse" x="36" y="30" width="24" height="24"><circle cx="48" cy="42" r="12" fill="#D9D9D9"></circle></mask><g mask="url(#mask0_206_162)"><g clip-path="url(#clip0_206_162)"><path d="M32 30H64V54H32V30Z" fill="#003399"></path><path d="M48.0001 40.9297L47.6445 42.1149L48.2371 42.2334L48.0001 40.9297Z" fill="#FFCC00"></path><path d="M47.9999 40.9297L48.3555 42.1149L47.7629 42.2334L47.9999 40.9297Z" fill="#FFCC00"></path><path d="M49.1275 41.7486L47.8904 41.7766L47.9608 42.3769L49.1275 41.7486Z" fill="#FFCC00"></path><path d="M49.1284 41.7485L48.1111 42.4529L47.8153 41.9259L49.1284 41.7485Z" fill="#FFCC00"></path><path d="M48.6967 43.0737L48.2877 41.9059L47.7387 42.1583L48.6967 43.0737Z" fill="#FFCC00"></path><path d="M48.6959 43.0737L47.7116 42.3239L48.1213 41.8797L48.6959 43.0737Z" fill="#FFCC00"></path><path d="M46.8725 41.7486L48.1096 41.7766L48.0392 42.3769L46.8725 41.7486Z" fill="#FFCC00"></path><path d="M46.8716 41.7485L47.8889 42.4529L48.1847 41.9259L46.8716 41.7485Z" fill="#FFCC00"></path><path d="M47.3033 43.0737L47.7123 41.9059L48.2613 42.1583L47.3033 43.0737Z" fill="#FFCC00"></path><path d="M47.3041 43.0737L48.2884 42.3239L47.8787 41.8797L47.3041 43.0737Z" fill="#FFCC00"></path><path d="M48.0001 40.9297L47.6445 42.1149L48.2371 42.2334L48.0001 40.9297Z" fill="#FFCC00"></path><path d="M47.9999 40.9297L48.3555 42.1149L47.7629 42.2334L47.9999 40.9297Z" fill="#FFCC00"></path><path d="M49.1275 41.7486L47.8904 41.7766L47.9608 42.3769L49.1275 41.7486Z" fill="#FFCC00"></path><path d="M49.1284 41.7485L48.1111 42.4529L47.8153 41.9259L49.1284 41.7485Z" fill="#FFCC00"></path><path d="M48.6967 43.0737L48.2877 41.9059L47.7387 42.1583L48.6967 43.0737Z" fill="#FFCC00"></path><path d="M48.6959 43.0737L47.7116 42.3239L48.1213 41.8797L48.6959 43.0737Z" fill="#FFCC00"></path><path d="M46.8725 41.7486L48.1096 41.7766L48.0392 42.3769L46.8725 41.7486Z" fill="#FFCC00"></path><path d="M46.8716 41.7485L47.8889 42.4529L48.1847 41.9259L46.8716 41.7485Z" fill="#FFCC00"></path><path d="M47.3033 43.0737L47.7123 41.9059L48.2613 42.1583L47.3033 43.0737Z" fill="#FFCC00"></path><path d="M47.3041 43.0737L48.2884 42.3239L47.8787 41.8797L47.3041 43.0737Z" fill="#FFCC00"></path><path d="M48.0001 40.9297L47.6445 42.1149L48.2371 42.2334L48.0001 40.9297Z" fill="#FFCC00"></path><path d="M47.9999 40.9297L48.3555 42.1149L47.7629 42.2334L47.9999 40.9297Z" fill="#FFCC00"></path><path d="M49.1275 41.7486L47.8904 41.7766L47.9608 42.3769L49.1275 41.7486Z" fill="#FFCC00"></path><path d="M49.1284 41.7485L48.1111 42.4529L47.8153 41.9259L49.1284 41.7485Z" fill="#FFCC00"></path><path d="M48.6967 43.0737L48.2877 41.9059L47.7387 42.1583L48.6967 43.0737Z" fill="#FFCC00"></path><path d="M48.6959 43.0737L47.7116 42.3239L48.1213 41.8797L48.6959 43.0737Z" fill="#FFCC00"></path><path d="M46.8725 41.7486L48.1096 41.7766L48.0392 42.3769L46.8725 41.7486Z" fill="#FFCC00"></path><path d="M46.8716 41.7485L47.8889 42.4529L48.1847 41.9259L46.8716 41.7485Z" fill="#FFCC00"></path><path d="M47.3033 43.0737L47.7123 41.9059L48.2613 42.1583L47.3033 43.0737Z" fill="#FFCC00"></path><path d="M47.3041 43.0737L48.2884 42.3239L47.8787 41.8797L47.3041 43.0737Z" fill="#FFCC00"></path><path d="M43.8354 36.9692L44.8197 36.2194L44.4099 35.7752L43.8354 36.9692Z" fill="#FFCC00"></path><path d="M43.8345 36.9692L44.2435 35.8014L44.7926 36.0539L43.8345 36.9692Z" fill="#FFCC00"></path><path d="M43.4048 35.6443L44.4221 36.3487L44.7179 35.8217L43.4048 35.6443Z" fill="#FFCC00"></path><path d="M43.4058 35.6443L44.6428 35.6724L44.5724 36.2726L43.4058 35.6443Z" fill="#FFCC00"></path><path d="M44.5313 34.8252L44.1758 36.0104L44.7684 36.1289L44.5313 34.8252Z" fill="#FFCC00"></path><path d="M44.5312 34.8252L44.8867 36.0104L44.2941 36.1289L44.5312 34.8252Z" fill="#FFCC00"></path><path d="M45.2271 36.969L44.2428 36.2191L44.6526 35.7749L45.2271 36.969Z" fill="#FFCC00"></path><path d="M45.228 36.969L44.819 35.8012L44.2699 36.0536L45.228 36.969Z" fill="#FFCC00"></path><path d="M45.6577 35.644L44.6404 36.3484L44.3446 35.8215L45.6577 35.644Z" fill="#FFCC00"></path><path d="M45.6567 35.6441L44.4197 35.6722L44.4901 36.2724L45.6567 35.6441Z" fill="#FFCC00"></path><path d="M42.5932 39.6055L42.1842 38.4376L41.6351 38.6901L42.5932 39.6055Z" fill="#FFCC00"></path><path d="M42.5923 39.6055L41.6081 38.8556L42.0178 38.4114L42.5923 39.6055Z" fill="#FFCC00"></path><path d="M41.2006 39.6055L42.1849 38.8556L41.7752 38.4114L41.2006 39.6055Z" fill="#FFCC00"></path><path d="M41.1998 39.6055L41.6087 38.4376L42.1578 38.6901L41.1998 39.6055Z" fill="#FFCC00"></path><path d="M40.77 38.2805L41.7873 38.9849L42.0832 38.4579L40.77 38.2805Z" fill="#FFCC00"></path><path d="M40.771 38.2805L42.008 38.3086L41.9376 38.9088L40.771 38.2805Z" fill="#FFCC00"></path><path d="M43.0229 38.2805L42.0056 38.9849L41.7098 38.4579L43.0229 38.2805Z" fill="#FFCC00"></path><path d="M43.022 38.2805L41.7849 38.3086L41.8553 38.9088L43.022 38.2805Z" fill="#FFCC00"></path><path d="M41.8964 37.4614L42.252 38.6466L41.6594 38.7651L41.8964 37.4614Z" fill="#FFCC00"></path><path d="M41.8966 37.4614L41.541 38.6466L42.1336 38.7651L41.8966 37.4614Z" fill="#FFCC00"></path><path d="M43.0239 45.4087L41.7869 45.4368L41.8573 46.037L43.0239 45.4087Z" fill="#FFCC00"></path><path d="M43.0249 45.4087L42.0076 46.1131L41.7117 45.5861L43.0249 45.4087Z" fill="#FFCC00"></path><path d="M42.5932 46.7339L42.1842 45.5661L41.6351 45.8185L42.5932 46.7339Z" fill="#FFCC00"></path><path d="M42.5923 46.7339L41.6081 45.984L42.0178 45.5398L42.5923 46.7339Z" fill="#FFCC00"></path><path d="M41.2006 46.7339L42.1849 45.984L41.7752 45.5398L41.2006 46.7339Z" fill="#FFCC00"></path><path d="M41.1998 46.7339L41.6087 45.5661L42.1578 45.8185L41.1998 46.7339Z" fill="#FFCC00"></path><path d="M41.8984 44.5896L42.2539 45.7748L41.6613 45.8933L41.8984 44.5896Z" fill="#FFCC00"></path><path d="M41.8985 44.5896L41.543 45.7748L42.1356 45.8933L41.8985 44.5896Z" fill="#FFCC00"></path><path d="M40.771 45.4085L42.008 45.4366L41.9376 46.0368L40.771 45.4085Z" fill="#FFCC00"></path><path d="M40.77 45.4084L41.7873 46.1128L42.0832 45.5859L40.77 45.4084Z" fill="#FFCC00"></path><path d="M45.5962 47.7942L44.3592 47.8223L44.4296 48.4225L45.5962 47.7942Z" fill="#FFCC00"></path><path d="M45.5972 47.7942L44.5799 48.4986L44.284 47.9716L45.5972 47.7942Z" fill="#FFCC00"></path><path d="M45.1655 49.1194L44.7565 47.9516L44.2074 48.204L45.1655 49.1194Z" fill="#FFCC00"></path><path d="M45.1646 49.1194L44.1803 48.3695L44.5901 47.9253L45.1646 49.1194Z" fill="#FFCC00"></path><path d="M43.7729 49.1194L44.7572 48.3695L44.3474 47.9253L43.7729 49.1194Z" fill="#FFCC00"></path><path d="M43.772 49.1194L44.181 47.9516L44.7301 48.204L43.772 49.1194Z" fill="#FFCC00"></path><path d="M44.4706 46.9751L44.8262 48.1603L44.2336 48.2788L44.4706 46.9751Z" fill="#FFCC00"></path><path d="M44.4708 46.9751L44.1152 48.1603L44.7078 48.2788L44.4708 46.9751Z" fill="#FFCC00"></path><path d="M43.3433 47.794L44.5803 47.8221L44.5099 48.4223L43.3433 47.794Z" fill="#FFCC00"></path><path d="M43.3423 47.7939L44.3596 48.4983L44.6554 47.9714L43.3423 47.7939Z" fill="#FFCC00"></path><path d="M48.0019 40.9297L48.3574 42.1149L47.7648 42.2334L48.0019 40.9297Z" fill="#FFCC00"></path><path d="M48.002 40.9297L47.6465 42.1149L48.2391 42.2334L48.002 40.9297Z" fill="#FFCC00"></path><path d="M46.8745 41.7486L48.1116 41.7766L48.0411 42.3769L46.8745 41.7486Z" fill="#FFCC00"></path><path d="M46.8735 41.7485L47.8908 42.4529L48.1867 41.9259L46.8735 41.7485Z" fill="#FFCC00"></path><path d="M47.3052 43.0737L47.7142 41.9059L48.2633 42.1583L47.3052 43.0737Z" fill="#FFCC00"></path><path d="M47.3061 43.0737L48.2904 42.3239L47.8806 41.8797L47.3061 43.0737Z" fill="#FFCC00"></path><path d="M49.1294 41.7486L47.8924 41.7766L47.9628 42.3769L49.1294 41.7486Z" fill="#FFCC00"></path><path d="M49.1304 41.7485L48.1131 42.4529L47.8172 41.9259L49.1304 41.7485Z" fill="#FFCC00"></path><path d="M48.6987 43.0737L48.2897 41.9059L47.7406 42.1583L48.6987 43.0737Z" fill="#FFCC00"></path><path d="M48.6978 43.0737L47.7135 42.3239L48.1233 41.8797L48.6978 43.0737Z" fill="#FFCC00"></path><path d="M52.1666 36.9692L51.1823 36.2194L51.592 35.7752L52.1666 36.9692Z" fill="#FFCC00"></path><path d="M52.1674 36.9692L51.7584 35.8014L51.2094 36.0539L52.1674 36.9692Z" fill="#FFCC00"></path><path d="M52.5972 35.6443L51.5799 36.3487L51.284 35.8217L52.5972 35.6443Z" fill="#FFCC00"></path><path d="M52.5962 35.6443L51.3592 35.6724L51.4296 36.2726L52.5962 35.6443Z" fill="#FFCC00"></path><path d="M51.4706 34.8252L51.8262 36.0104L51.2336 36.1289L51.4706 34.8252Z" fill="#FFCC00"></path><path d="M51.4708 34.8252L51.1152 36.0104L51.7078 36.1289L51.4708 34.8252Z" fill="#FFCC00"></path><path d="M50.7748 36.969L51.7591 36.2191L51.3494 35.7749L50.7748 36.969Z" fill="#FFCC00"></path><path d="M50.774 36.969L51.183 35.8012L51.732 36.0536L50.774 36.969Z" fill="#FFCC00"></path><path d="M50.3442 35.644L51.3616 36.3484L51.6574 35.8215L50.3442 35.644Z" fill="#FFCC00"></path><path d="M50.3452 35.6441L51.5823 35.6722L51.5119 36.2724L50.3452 35.6441Z" fill="#FFCC00"></path><path d="M53.4087 39.6055L53.8177 38.4376L54.3668 38.6901L53.4087 39.6055Z" fill="#FFCC00"></path><path d="M53.4096 39.6055L54.3939 38.8556L53.9841 38.4114L53.4096 39.6055Z" fill="#FFCC00"></path><path d="M54.8013 39.6055L53.817 38.8556L54.2268 38.4114L54.8013 39.6055Z" fill="#FFCC00"></path><path d="M54.8022 39.6055L54.3932 38.4376L53.8441 38.6901L54.8022 39.6055Z" fill="#FFCC00"></path><path d="M55.2319 38.2805L54.2146 38.9849L53.9188 38.4579L55.2319 38.2805Z" fill="#FFCC00"></path><path d="M55.231 38.2805L53.9939 38.3086L54.0643 38.9088L55.231 38.2805Z" fill="#FFCC00"></path><path d="M52.979 38.2805L53.9963 38.9849L54.2922 38.4579L52.979 38.2805Z" fill="#FFCC00"></path><path d="M52.98 38.2805L54.217 38.3086L54.1466 38.9088L52.98 38.2805Z" fill="#FFCC00"></path><path d="M54.1056 37.4614L53.75 38.6466L54.3426 38.7651L54.1056 37.4614Z" fill="#FFCC00"></path><path d="M54.1054 37.4614L54.4609 38.6466L53.8683 38.7651L54.1054 37.4614Z" fill="#FFCC00"></path><path d="M52.978 45.4087L54.2151 45.4368L54.1447 46.037L52.978 45.4087Z" fill="#FFCC00"></path><path d="M52.9771 45.4087L53.9944 46.1131L54.2902 45.5861L52.9771 45.4087Z" fill="#FFCC00"></path><path d="M53.4087 46.7339L53.8177 45.5661L54.3668 45.8185L53.4087 46.7339Z" fill="#FFCC00"></path><path d="M53.4096 46.7339L54.3939 45.984L53.9841 45.5398L53.4096 46.7339Z" fill="#FFCC00"></path><path d="M54.8013 46.7339L53.817 45.984L54.2268 45.5398L54.8013 46.7339Z" fill="#FFCC00"></path><path d="M54.8022 46.7339L54.3932 45.5661L53.8441 45.8185L54.8022 46.7339Z" fill="#FFCC00"></path><path d="M54.1036 44.5896L53.748 45.7748L54.3406 45.8933L54.1036 44.5896Z" fill="#FFCC00"></path><path d="M54.1034 44.5896L54.459 45.7748L53.8664 45.8933L54.1034 44.5896Z" fill="#FFCC00"></path><path d="M55.231 45.4085L53.9939 45.4366L54.0643 46.0368L55.231 45.4085Z" fill="#FFCC00"></path><path d="M55.2319 45.4084L54.2146 46.1128L53.9188 45.5859L55.2319 45.4084Z" fill="#FFCC00"></path><path d="M50.4058 47.7942L51.6428 47.8223L51.5724 48.4225L50.4058 47.7942Z" fill="#FFCC00"></path><path d="M50.4048 47.7942L51.4221 48.4986L51.7179 47.9716L50.4048 47.7942Z" fill="#FFCC00"></path><path d="M50.8365 49.1194L51.2455 47.9516L51.7945 48.204L50.8365 49.1194Z" fill="#FFCC00"></path><path d="M50.8373 49.1194L51.8216 48.3695L51.4119 47.9253L50.8373 49.1194Z" fill="#FFCC00"></path><path d="M52.2291 49.1194L51.2448 48.3695L51.6545 47.9253L52.2291 49.1194Z" fill="#FFCC00"></path><path d="M52.2299 49.1194L51.8209 47.9516L51.2719 48.204L52.2299 49.1194Z" fill="#FFCC00"></path><path d="M51.5313 46.9751L51.1758 48.1603L51.7684 48.2788L51.5313 46.9751Z" fill="#FFCC00"></path><path d="M51.5312 46.9751L51.8867 48.1603L51.2941 48.2788L51.5312 46.9751Z" fill="#FFCC00"></path><path d="M52.6587 47.794L51.4217 47.8221L51.4921 48.4223L52.6587 47.794Z" fill="#FFCC00"></path><path d="M52.6597 47.7939L51.6424 48.4983L51.3465 47.9714L52.6597 47.7939Z" fill="#FFCC00"></path></g></g><path d="M72.924 47V37.2H79.224V38.88H74.772V41.218H78.832V42.898H74.772V45.32H79.308V47H72.924ZM83.378 47.112C82.8366 47.112 82.3606 46.9907 81.95 46.748C81.5486 46.496 81.236 46.1507 81.012 45.712C80.788 45.2733 80.676 44.7693 80.676 44.2V40.056H82.44V44.06C82.44 44.5827 82.566 44.9747 82.818 45.236C83.0793 45.4973 83.448 45.628 83.924 45.628C84.4653 45.628 84.8853 45.4507 85.184 45.096C85.4826 44.732 85.632 44.228 85.632 43.584V40.056H87.396V47H85.66V46.09H85.408C85.296 46.3233 85.086 46.552 84.778 46.776C84.47 47 84.0033 47.112 83.378 47.112ZM89.3589 47V40.056H91.0949V40.84H91.3469C91.4496 40.56 91.6176 40.3547 91.8509 40.224C92.0936 40.0933 92.3736 40.028 92.6909 40.028H93.5309V41.596H92.6629C92.2149 41.596 91.8462 41.7173 91.5569 41.96C91.2676 42.1933 91.1229 42.5573 91.1229 43.052V47H89.3589ZM97.9676 47.196C97.2769 47.196 96.6563 47.056 96.1056 46.776C95.5549 46.496 95.1209 46.09 94.8036 45.558C94.4863 45.026 94.3276 44.3867 94.3276 43.64V43.416C94.3276 42.6693 94.4863 42.03 94.8036 41.498C95.1209 40.966 95.5549 40.56 96.1056 40.28C96.6563 40 97.2769 39.86 97.9676 39.86C98.6583 39.86 99.2789 40 99.8296 40.28C100.38 40.56 100.814 40.966 101.132 41.498C101.449 42.03 101.608 42.6693 101.608 43.416V43.64C101.608 44.3867 101.449 45.026 101.132 45.558C100.814 46.09 100.38 46.496 99.8296 46.776C99.2789 47.056 98.6583 47.196 97.9676 47.196ZM97.9676 45.628C98.5089 45.628 98.9569 45.4553 99.3116 45.11C99.6663 44.7553 99.8436 44.2513 99.8436 43.598V43.458C99.8436 42.8047 99.6663 42.3053 99.3116 41.96C98.9663 41.6053 98.5183 41.428 97.9676 41.428C97.4263 41.428 96.9783 41.6053 96.6236 41.96C96.2689 42.3053 96.0916 42.8047 96.0916 43.458V43.598C96.0916 44.2513 96.2689 44.7553 96.6236 45.11C96.9783 45.4553 97.4263 45.628 97.9676 45.628ZM103.236 49.8V40.056H104.972V40.896H105.224C105.383 40.6253 105.63 40.3873 105.966 40.182C106.302 39.9673 106.783 39.86 107.408 39.86C107.968 39.86 108.486 40 108.962 40.28C109.438 40.5507 109.821 40.952 110.11 41.484C110.399 42.016 110.544 42.66 110.544 43.416V43.64C110.544 44.396 110.399 45.04 110.11 45.572C109.821 46.104 109.438 46.51 108.962 46.79C108.486 47.0607 107.968 47.196 107.408 47.196C106.988 47.196 106.633 47.1447 106.344 47.042C106.064 46.9487 105.835 46.8273 105.658 46.678C105.49 46.5193 105.355 46.3607 105.252 46.202H105V49.8H103.236ZM106.876 45.656C107.427 45.656 107.879 45.4833 108.234 45.138C108.598 44.7833 108.78 44.27 108.78 43.598V43.458C108.78 42.786 108.598 42.2773 108.234 41.932C107.87 41.5773 107.417 41.4 106.876 41.4C106.335 41.4 105.882 41.5773 105.518 41.932C105.154 42.2773 104.972 42.786 104.972 43.458V43.598C104.972 44.27 105.154 44.7833 105.518 45.138C105.882 45.4833 106.335 45.656 106.876 45.656ZM115.328 47.196C114.637 47.196 114.026 47.0513 113.494 46.762C112.971 46.4633 112.56 46.048 112.262 45.516C111.972 44.9747 111.828 44.34 111.828 43.612V43.444C111.828 42.716 111.972 42.086 112.262 41.554C112.551 41.0127 112.957 40.5973 113.48 40.308C114.002 40.0093 114.609 39.86 115.3 39.86C115.981 39.86 116.574 40.014 117.078 40.322C117.582 40.6207 117.974 41.0407 118.254 41.582C118.534 42.114 118.674 42.7347 118.674 43.444V44.046H113.62C113.638 44.522 113.816 44.9093 114.152 45.208C114.488 45.5067 114.898 45.656 115.384 45.656C115.878 45.656 116.242 45.5487 116.476 45.334C116.709 45.1193 116.886 44.8813 117.008 44.62L118.45 45.376C118.319 45.6187 118.128 45.8847 117.876 46.174C117.633 46.454 117.306 46.6967 116.896 46.902C116.485 47.098 115.962 47.196 115.328 47.196ZM113.634 42.73H116.882C116.844 42.3287 116.681 42.0067 116.392 41.764C116.112 41.5213 115.743 41.4 115.286 41.4C114.81 41.4 114.432 41.5213 114.152 41.764C113.872 42.0067 113.699 42.3287 113.634 42.73Z" fill="white"></path><path d="M240.792 46V37.6H246.192V39.04H242.376V41.044H245.856V42.484H242.376V44.56H246.264V46H240.792ZM250.677 46.168C249.989 46.168 249.397 46.044 248.901 45.796C248.413 45.54 248.037 45.18 247.773 44.716C247.517 44.244 247.389 43.688 247.389 43.048V37.6H248.973V43.096C248.973 43.608 249.117 44.012 249.405 44.308C249.701 44.604 250.125 44.752 250.677 44.752C251.229 44.752 251.649 44.604 251.937 44.308C252.233 44.012 252.381 43.608 252.381 43.096V37.6H253.965V43.048C253.965 43.688 253.833 44.244 253.569 44.716C253.313 45.18 252.937 45.54 252.441 45.796C251.953 46.044 251.365 46.168 250.677 46.168ZM255.499 46V37.6H259.147C259.675 37.6 260.135 37.692 260.527 37.876C260.919 38.06 261.223 38.32 261.439 38.656C261.655 38.992 261.763 39.388 261.763 39.844V39.988C261.763 40.492 261.643 40.9 261.403 41.212C261.163 41.524 260.867 41.752 260.515 41.896V42.112C260.835 42.128 261.083 42.24 261.259 42.448C261.435 42.648 261.523 42.916 261.523 43.252V46H259.939V43.48C259.939 43.288 259.887 43.132 259.783 43.012C259.687 42.892 259.523 42.832 259.291 42.832H257.083V46H255.499ZM257.083 41.392H258.979C259.355 41.392 259.647 41.292 259.855 41.092C260.071 40.884 260.179 40.612 260.179 40.276V40.156C260.179 39.82 260.075 39.552 259.867 39.352C259.659 39.144 259.363 39.04 258.979 39.04H257.083V41.392Z" fill="white"></path></g><rect x="24" y="76" width="251" height="44" rx="12" fill="#B7E2E0"></rect><g clip-path="url(#clip1_206_162)"><mask id="mask1_206_162" style="mask-type:alpha" maskUnits="userSpaceOnUse" x="36" y="86" width="24" height="24"><circle cx="48" cy="98" r="12" fill="#D9D9D9"></circle></mask><g mask="url(#mask1_206_162)"><g clip-path="url(#clip2_206_162)"><path fill-rule="evenodd" clip-rule="evenodd" d="M31.9863 86H77.5863V87.8469H31.9863V86ZM31.9863 89.6938H77.5863V91.5407H31.9863V89.6938ZM31.9863 93.3828H77.5863V95.2343H31.9863V93.3828ZM31.9863 97.0766H77.5863V98.9234H31.9863V97.0766ZM31.9863 100.77H77.5863V102.617H31.9863V100.77ZM31.9863 104.459H77.5863V106.306H31.9863V104.459ZM31.9863 108.153H77.5863V110H31.9863V108.153Z" fill="#BD3D44"></path><path fill-rule="evenodd" clip-rule="evenodd" d="M31.9863 87.8469H77.5863V89.6938H31.9863V87.8469ZM31.9863 91.5406H77.5863V93.3828H31.9863V91.5406ZM31.9863 95.2297H77.5863V97.0766H31.9863V95.2297ZM31.9863 98.9235H77.5863V100.77H31.9863V98.9235ZM31.9863 102.617H77.5863V104.464H31.9863V102.617ZM31.9863 106.306H77.5863V108.153H31.9863V106.306Z" fill="white"></path><path fill-rule="evenodd" clip-rule="evenodd" d="M31.9863 86H50.2254V98.9234H31.9863V86Z" fill="#4646B4"></path><path fill-rule="evenodd" clip-rule="evenodd" d="M33.5019 86.5532L33.6707 87.0641H34.2051L33.7738 87.3782L33.9379 87.8938L33.5019 87.575L33.0707 87.8891L33.2347 87.3782L32.7988 87.0641H33.3426L33.5019 86.5532ZM36.5441 86.5532L36.7082 87.0641H37.2472L36.8113 87.3782L36.9754 87.8938L36.5441 87.575L36.1082 87.8891L36.2722 87.3782L35.841 87.0641H36.3754L36.5441 86.5532ZM39.5816 86.5532L39.7504 87.0641H40.2801L39.8488 87.3782L40.0128 87.8938L39.5769 87.5751L39.1457 87.8891L39.3097 87.3782L38.8738 87.0641H39.4129L39.5816 86.5532ZM42.6238 86.5532L42.7878 87.0641H43.3269L42.891 87.3782L43.0597 87.8938L42.6238 87.5751L42.1879 87.8891L42.3566 87.3782L41.9207 87.0641H42.4551L42.6238 86.5532ZM45.6613 86.5532L45.8301 87.0641H46.3644L45.9332 87.3782L46.0972 87.8938L45.6613 87.5751L45.23 87.8891L45.3941 87.3782L44.9629 87.0641H45.4972L45.6613 86.5532ZM48.7035 86.5532L48.8675 87.0641H49.4066L48.9707 87.3782L49.1394 87.8938L48.7035 87.5751L48.2675 87.8891L48.4363 87.3782L48.0004 87.0641H48.5394L48.7035 86.5532ZM35.0254 87.8469L35.1894 88.3579H35.7285L35.2925 88.6719L35.4519 89.1829L35.03 88.8688L34.5941 89.1828L34.7488 88.6719L34.3269 88.3578H34.8613L35.0254 87.8469ZM38.0629 87.8469L38.2316 88.3579H38.766L38.33 88.6719L38.4988 89.1829L38.0628 88.8688L37.6269 89.1828L37.7957 88.6719L37.3597 88.3578H37.8988L38.0629 87.8469ZM41.1051 87.8469L41.2691 88.3579H41.8082L41.3722 88.6719L41.5363 89.1829L41.105 88.8688L40.6691 89.1828L40.8332 88.672L40.4019 88.3579H40.9363L41.1051 87.8469ZM44.1426 87.8469L44.3113 88.3579H44.8457L44.4097 88.6719L44.5785 89.1829L44.1425 88.8688L43.7113 89.1828L43.8754 88.6719L43.4394 88.3578H43.9832L44.1426 87.8469ZM47.1847 87.8469L47.3488 88.3579H47.8879L47.4519 88.6719L47.616 89.1829L47.1847 88.8688L46.7488 89.1828L46.9129 88.6719L46.4816 88.3578H47.016L47.1847 87.8469ZM33.5019 89.1361L33.6707 89.6564H34.2051L33.7738 89.9704L33.9379 90.4814L33.5019 90.1626L33.0707 90.4814L33.2347 89.9657L32.7988 89.6517H33.3426L33.5019 89.1361ZM36.5441 89.1361L36.7082 89.6516H37.2472L36.8113 89.9656L36.9754 90.4766L36.5441 90.1578L36.1082 90.4766L36.2722 89.961L35.841 89.6469H36.3754L36.5441 89.1361ZM39.5816 89.1361L39.7504 89.6517H40.2801L39.8488 89.9657L40.0128 90.4767L39.5769 90.1579L39.1457 90.4767L39.3097 89.9611L38.8738 89.647H39.4129L39.5816 89.1361ZM42.6238 89.1361L42.7878 89.6517H43.3269L42.891 89.9657L43.0597 90.4767L42.6238 90.1579L42.1879 90.4767L42.3566 89.9611L41.9207 89.647H42.4551L42.6238 89.1361ZM45.6613 89.1361L45.8301 89.6517H46.3644L45.9332 89.9657L46.0972 90.4767L45.6613 90.1579L45.23 90.4766L45.3941 89.961L44.9629 89.647H45.4972L45.6613 89.1361ZM48.7035 89.1361L48.8675 89.6517H49.4066L48.9707 89.9657L49.1394 90.4767L48.7035 90.1579L48.2675 90.4767L48.4363 89.9611L48.0004 89.647H48.5394L48.7035 89.1361ZM35.0254 90.4298L35.1894 90.9407H35.7285L35.2925 91.2547L35.4566 91.7704L35.0254 91.4516L34.5894 91.7657L34.7535 91.2548L34.3222 90.9407H34.8567L35.0254 90.4298ZM38.0629 90.4298L38.2316 90.9407H38.766L38.33 91.2547L38.4988 91.7704L38.0628 91.4516L37.6269 91.7657L37.7957 91.2548L37.3597 90.9407H37.8988L38.0629 90.4298ZM41.1051 90.4298L41.2691 90.9407H41.8082L41.3722 91.2547L41.5363 91.7704L41.105 91.4516L40.6691 91.7657L40.8332 91.2548L40.4019 90.9407H40.9363L41.1051 90.4298ZM44.1426 90.4298L44.3113 90.9407H44.8457L44.4144 91.2547L44.5785 91.7704L44.1425 91.4516L43.7113 91.7657L43.8754 91.2548L43.4394 90.9407H43.9832L44.1426 90.4298ZM47.1847 90.4298L47.3488 90.9407H47.8879L47.4519 91.2547L47.616 91.7704L47.1847 91.4516L46.7488 91.7657L46.9129 91.2548L46.4816 90.9407H47.016L47.1847 90.4298ZM33.5019 91.7235L33.6707 92.2345H34.2051L33.7738 92.5485L33.9379 93.0641L33.5019 92.7454L33.0707 93.0594L33.2347 92.5485L32.7988 92.2345H33.3426L33.5019 91.7235ZM36.5441 91.7235L36.7082 92.2345H37.2472L36.8113 92.5485L36.9754 93.0595L36.5441 92.7454L36.1082 93.0594L36.2722 92.5485L35.841 92.2345H36.3754L36.5441 91.7235ZM39.5816 91.7235L39.7504 92.2345H40.2801L39.8488 92.5485L40.0128 93.0641L39.5769 92.7454L39.1457 93.0594L39.3097 92.5485L38.8738 92.2345H39.4129L39.5816 91.7235ZM42.6238 91.7235L42.7878 92.2345H43.3269L42.891 92.5485L43.0597 93.0641L42.6238 92.7454L42.1879 93.0594L42.3566 92.5485L41.9207 92.2345H42.4551L42.6238 91.7235ZM45.6613 91.7235L45.8301 92.2345H46.3644L45.9332 92.5485L46.0972 93.0641L45.6613 92.7454L45.23 93.0594L45.3941 92.5485L44.9629 92.2345H45.4972L45.6613 91.7235ZM48.7035 91.7235L48.8675 92.2345H49.4066L48.9707 92.5485L49.1394 93.0641L48.7035 92.7454L48.2675 93.0594L48.4363 92.5485L48.0004 92.2345H48.5394L48.7035 91.7235ZM35.0254 93.0173L35.1894 93.5282H35.7285L35.2925 93.8422L35.4566 94.3532L35.0254 94.0345L34.5894 94.3532L34.7535 93.8376L34.3222 93.5235H34.8567L35.0254 93.0173ZM38.0629 93.0173L38.2316 93.5282H38.766L38.33 93.8422L38.4988 94.3532L38.0628 94.0345L37.6269 94.3532L37.7957 93.8376L37.3597 93.5235H37.8988L38.0629 93.0173ZM41.1051 93.0173L41.2691 93.5282H41.8082L41.3722 93.8422L41.5363 94.3532L41.105 94.0345L40.6691 94.3532L40.8332 93.8376L40.4019 93.5235H40.9363L41.1051 93.0173ZM44.1426 93.0173L44.3113 93.5282H44.8457L44.4144 93.8422L44.5785 94.3532L44.1425 94.0345L43.7113 94.3532L43.8754 93.8376L43.4394 93.5235H43.9832L44.1426 93.0173ZM47.1847 93.0173L47.3488 93.5282H47.8879L47.4519 93.8422L47.616 94.3532L47.1847 94.0345L46.7488 94.3532L46.9129 93.8376L46.4816 93.5235H47.016L47.1847 93.0173ZM33.5019 94.3063L33.6707 94.822H34.2051L33.7738 95.136L33.9379 95.6423L33.5019 95.3282L33.0707 95.6422L33.2347 95.1313L32.7988 94.8173H33.3426L33.5019 94.3063ZM36.5441 94.3063L36.7082 94.822H37.2472L36.8113 95.136L36.9801 95.6423L36.5441 95.3282L36.1082 95.6422L36.2769 95.1313L35.841 94.8173H36.3754L36.5441 94.3063ZM39.5816 94.3063L39.7504 94.822H40.2801L39.8488 95.136L40.0128 95.6423L39.5769 95.3282L39.1457 95.6422L39.3097 95.1313L38.8738 94.8173H39.4129L39.5816 94.3063ZM42.6238 94.3063L42.7878 94.822H43.3269L42.891 95.136L43.0597 95.6423L42.6238 95.3282L42.1879 95.6422L42.3566 95.1313L41.9207 94.8173H42.4551L42.6238 94.3063ZM45.6613 94.3063L45.8301 94.822H46.3644L45.9332 95.136L46.0972 95.6423L45.6613 95.3282L45.23 95.6422L45.3941 95.1313L44.9629 94.8173H45.4972L45.6613 94.3063ZM48.7035 94.3063L48.8675 94.822H49.4066L48.9707 95.136L49.1394 95.6423L48.7035 95.3282L48.2675 95.6422L48.4363 95.1313L48.0004 94.8173H48.5394L48.7035 94.3063ZM35.0254 95.6001L35.1894 96.111H35.7285L35.2925 96.4251L35.4566 96.9407L35.0254 96.622L34.5894 96.936L34.7535 96.4251L34.3222 96.111H34.8567L35.0254 95.6001ZM38.0629 95.6001L38.2316 96.111H38.766L38.33 96.4251L38.4988 96.9407L38.0628 96.622L37.6269 96.936L37.7957 96.4251L37.3597 96.111H37.8988L38.0629 95.6001ZM41.1051 95.6001L41.2691 96.111H41.8082L41.3722 96.4251L41.5363 96.9407L41.105 96.622L40.6691 96.936L40.8332 96.4251L40.4019 96.111H40.9363L41.1051 95.6001ZM44.1426 95.6001L44.3113 96.111H44.8457L44.4144 96.4251L44.5785 96.9407L44.1425 96.622L43.7113 96.936L43.8754 96.4251L43.4394 96.111H43.9832L44.1426 95.6001ZM47.1847 95.6001L47.3488 96.111H47.8879L47.4519 96.4251L47.616 96.9407L47.1847 96.622L46.7488 96.936L46.9129 96.4251L46.4816 96.111H47.016L47.1847 95.6001ZM33.5019 96.8938L33.6707 97.4048H34.2051L33.7738 97.7188L33.9379 98.2298L33.5019 97.9157L33.0707 98.2297L33.2347 97.7141L32.7988 97.4001H33.3426L33.5019 96.8938ZM36.5441 96.8938L36.7082 97.4048H37.2472L36.8113 97.7188L36.9801 98.2298L36.5441 97.9157L36.1082 98.2297L36.2769 97.7141L35.841 97.4001H36.3754L36.5441 96.8938ZM39.5816 96.8938L39.7504 97.4048H40.2801L39.8582 97.7188L40.0222 98.2298L39.5863 97.9157L39.155 98.2297L39.3191 97.7141L38.8832 97.4001H39.4222L39.5816 96.8938ZM42.6238 96.8938L42.7878 97.4048H43.3269L42.891 97.7188L43.0597 98.2298L42.6238 97.9157L42.1879 98.2297L42.3566 97.7141L41.9207 97.4001H42.4551L42.6238 96.8938ZM45.6613 96.8938L45.8301 97.4048H46.3644L45.9332 97.7188L46.0972 98.2298L45.6613 97.9157L45.23 98.2297L45.3941 97.7141L44.9629 97.4001H45.4972L45.6613 96.8938ZM48.7035 96.8938L48.8675 97.4048H49.4066L48.9707 97.7188L49.1394 98.2298L48.7035 97.9157L48.2675 98.2297L48.4363 97.7141L48.0004 97.4001H48.5394L48.7035 96.8938Z" fill="white"></path></g></g></g><path d="M76.704 103.196C75.9013 103.196 75.2107 103.051 74.632 102.762C74.0627 102.463 73.624 102.043 73.316 101.502C73.0173 100.951 72.868 100.303 72.868 99.556V93.2H74.716V99.612C74.716 100.209 74.884 100.681 75.22 101.026C75.5653 101.371 76.06 101.544 76.704 101.544C77.348 101.544 77.838 101.371 78.174 101.026C78.5193 100.681 78.692 100.209 78.692 99.612V93.2H80.54V99.556C80.54 100.303 80.386 100.951 80.078 101.502C79.7793 102.043 79.3407 102.463 78.762 102.762C78.1927 103.051 77.5067 103.196 76.704 103.196ZM85.7323 103.196C84.9763 103.196 84.3089 103.061 83.7303 102.79C83.1516 102.519 82.6989 102.132 82.3723 101.628C82.0456 101.124 81.8823 100.517 81.8823 99.808V99.416H83.7023V99.808C83.7023 100.396 83.8843 100.839 84.2483 101.138C84.6123 101.427 85.1069 101.572 85.7323 101.572C86.3669 101.572 86.8383 101.446 87.1463 101.194C87.4636 100.942 87.6223 100.62 87.6223 100.228C87.6223 99.9573 87.5429 99.738 87.3843 99.57C87.2349 99.402 87.0109 99.2667 86.7123 99.164C86.4229 99.052 86.0683 98.9493 85.6483 98.856L85.3263 98.786C84.6543 98.6367 84.0756 98.45 83.5903 98.226C83.1143 97.9927 82.7456 97.6893 82.4843 97.316C82.2323 96.9427 82.1063 96.4573 82.1063 95.86C82.1063 95.2627 82.2463 94.754 82.5263 94.334C82.8156 93.9047 83.2169 93.578 83.7303 93.354C84.2529 93.1207 84.8643 93.004 85.5643 93.004C86.2643 93.004 86.8849 93.1253 87.4263 93.368C87.9769 93.6013 88.4063 93.956 88.7143 94.432C89.0316 94.8987 89.1903 95.4867 89.1903 96.196V96.616H87.3703V96.196C87.3703 95.8227 87.2956 95.524 87.1463 95.3C87.0063 95.0667 86.8009 94.8987 86.5303 94.796C86.2596 94.684 85.9376 94.628 85.5643 94.628C85.0043 94.628 84.5889 94.7353 84.3183 94.95C84.0569 95.1553 83.9263 95.44 83.9263 95.804C83.9263 96.0467 83.9869 96.252 84.1083 96.42C84.2389 96.588 84.4303 96.728 84.6823 96.84C84.9343 96.952 85.2563 97.05 85.6483 97.134L85.9703 97.204C86.6703 97.3533 87.2769 97.5447 87.7903 97.778C88.3129 98.0113 88.7189 98.3193 89.0083 98.702C89.2976 99.0847 89.4423 99.5747 89.4423 100.172C89.4423 100.769 89.2883 101.297 88.9803 101.754C88.6816 102.202 88.2523 102.557 87.6923 102.818C87.1416 103.07 86.4883 103.196 85.7323 103.196ZM90.1485 103L92.7245 93.2H95.9445L98.5205 103H96.6165L96.0845 100.844H92.5845L92.0525 103H90.1485ZM93.0185 99.136H95.6505L94.4605 94.362H94.2085L93.0185 99.136Z" fill="#04130F"></path><path d="M243.389 102.168C242.701 102.168 242.109 102.044 241.613 101.796C241.125 101.54 240.749 101.18 240.485 100.716C240.229 100.244 240.101 99.688 240.101 99.048V93.6H241.685V99.096C241.685 99.608 241.829 100.012 242.117 100.308C242.413 100.604 242.837 100.752 243.389 100.752C243.941 100.752 244.361 100.604 244.649 100.308C244.945 100.012 245.093 99.608 245.093 99.096V93.6H246.677V99.048C246.677 99.688 246.545 100.244 246.281 100.716C246.025 101.18 245.649 101.54 245.153 101.796C244.665 102.044 244.077 102.168 243.389 102.168ZM251.128 102.168C250.48 102.168 249.908 102.052 249.412 101.82C248.916 101.588 248.528 101.256 248.248 100.824C247.968 100.392 247.828 99.872 247.828 99.264V98.928H249.388V99.264C249.388 99.768 249.544 100.148 249.856 100.404C250.168 100.652 250.592 100.776 251.128 100.776C251.672 100.776 252.076 100.668 252.34 100.452C252.612 100.236 252.748 99.96 252.748 99.624C252.748 99.392 252.68 99.204 252.544 99.06C252.416 98.916 252.224 98.8 251.968 98.712C251.72 98.616 251.416 98.528 251.056 98.448L250.78 98.388C250.204 98.26 249.708 98.1 249.292 97.908C248.884 97.708 248.568 97.448 248.344 97.128C248.128 96.808 248.02 96.392 248.02 95.88C248.02 95.368 248.14 94.932 248.38 94.572C248.628 94.204 248.972 93.924 249.412 93.732C249.86 93.532 250.384 93.432 250.984 93.432C251.584 93.432 252.116 93.536 252.58 93.744C253.052 93.944 253.42 94.248 253.684 94.656C253.956 95.056 254.092 95.56 254.092 96.168V96.528H252.532V96.168C252.532 95.848 252.468 95.592 252.34 95.4C252.22 95.2 252.044 95.056 251.812 94.968C251.58 94.872 251.304 94.824 250.984 94.824C250.504 94.824 250.148 94.916 249.916 95.1C249.692 95.276 249.58 95.52 249.58 95.832C249.58 96.04 249.632 96.216 249.736 96.36C249.848 96.504 250.012 96.624 250.228 96.72C250.444 96.816 250.72 96.9 251.056 96.972L251.332 97.032C251.932 97.16 252.452 97.324 252.892 97.524C253.34 97.724 253.688 97.988 253.936 98.316C254.184 98.644 254.308 99.064 254.308 99.576C254.308 100.088 254.176 100.54 253.912 100.932C253.656 101.316 253.288 101.62 252.808 101.844C252.336 102.06 251.776 102.168 251.128 102.168ZM255.202 102V100.608H256.306V94.992H255.202V93.6H258.658C259.786 93.6 260.642 93.888 261.226 94.464C261.818 95.032 262.114 95.88 262.114 97.008V98.592C262.114 99.72 261.818 100.572 261.226 101.148C260.642 101.716 259.786 102 258.658 102H255.202ZM257.89 100.56H258.682C259.322 100.56 259.79 100.392 260.086 100.056C260.382 99.72 260.53 99.248 260.53 98.64V96.96C260.53 96.344 260.382 95.872 260.086 95.544C259.79 95.208 259.322 95.04 258.682 95.04H257.89V100.56Z" fill="#04130F"></path><g filter="url(#filter1_d_206_162)"><rect x="24" y="132" width="251" height="44" rx="12" fill="url(#paint1_linear_206_162)" shape-rendering="crispEdges"></rect><mask id="mask2_206_162" style="mask-type:alpha" maskUnits="userSpaceOnUse" x="36" y="142" width="24" height="24"><circle cx="48" cy="154" r="12" fill="#D9D9D9"></circle></mask><g mask="url(#mask2_206_162)"><g clip-path="url(#clip3_206_162)"><path d="M32 142H64V166H32V142Z" fill="#012169"></path><path d="M35.75 142L47.95 151.05L60.1 142H64V145.1L52 154.05L64 162.95V166H60L48 157.05L36.05 166H32V163L43.95 154.1L32 145.2V142H35.75Z" fill="white"></path><path d="M53.2 156.05L64 164V166L50.45 156.05H53.2ZM44 157.05L44.3 158.8L34.7 166H32L44 157.05ZM64 142V142.15L51.55 151.55L51.65 149.35L61.5 142H64ZM32 142L43.95 150.8H40.95L32 144.1V142Z" fill="#C8102E"></path><path d="M44.05 142V166H52.05V142H44.05ZM32 150V158H64V150H32Z" fill="white"></path><path d="M32 151.65V156.45H64V151.65H32ZM45.65 142V166H50.45V142H45.65Z" fill="#C8102E"></path></g></g><path d="M76.704 159.196C75.9013 159.196 75.2107 159.051 74.632 158.762C74.0627 158.463 73.624 158.043 73.316 157.502C73.0173 156.951 72.868 156.303 72.868 155.556V149.2H74.716V155.612C74.716 156.209 74.884 156.681 75.22 157.026C75.5653 157.371 76.06 157.544 76.704 157.544C77.348 157.544 77.838 157.371 78.174 157.026C78.5193 156.681 78.692 156.209 78.692 155.612V149.2H80.54V155.556C80.54 156.303 80.386 156.951 80.078 157.502C79.7793 158.043 79.3407 158.463 78.762 158.762C78.1927 159.051 77.5067 159.196 76.704 159.196ZM82.3302 159V149.2H84.1783V153.092H84.4303L87.6083 149.2H89.9743L85.8863 154.03L90.1143 159H87.6783L84.4303 155.024H84.1783V159H82.3302Z" fill="white"></path><path d="M242.696 158.168C242.12 158.168 241.596 158.04 241.124 157.784C240.66 157.52 240.288 157.14 240.008 156.644C239.736 156.14 239.6 155.528 239.6 154.808V152.792C239.6 151.712 239.904 150.884 240.512 150.308C241.12 149.724 241.944 149.432 242.984 149.432C244.016 149.432 244.812 149.708 245.372 150.26C245.94 150.804 246.224 151.544 246.224 152.48V152.528H244.664V152.432C244.664 152.136 244.6 151.868 244.472 151.628C244.352 151.388 244.168 151.2 243.92 151.064C243.672 150.92 243.36 150.848 242.984 150.848C242.424 150.848 241.984 151.02 241.664 151.364C241.344 151.708 241.184 152.176 241.184 152.768V154.832C241.184 155.416 241.344 155.888 241.664 156.248C241.984 156.6 242.432 156.776 243.008 156.776C243.584 156.776 244.004 156.624 244.268 156.32C244.532 156.016 244.664 155.632 244.664 155.168V155.048H242.672V153.704H246.224V158H244.76V157.196H244.544C244.488 157.332 244.396 157.476 244.268 157.628C244.148 157.78 243.964 157.908 243.716 158.012C243.468 158.116 243.128 158.168 242.696 158.168ZM247.497 158V156.608H248.601V150.992H247.497V149.6H251.817C252.329 149.6 252.773 149.688 253.149 149.864C253.533 150.032 253.829 150.276 254.037 150.596C254.253 150.908 254.361 151.284 254.361 151.724V151.844C254.361 152.228 254.289 152.544 254.145 152.792C254.001 153.032 253.829 153.22 253.629 153.356C253.437 153.484 253.253 153.576 253.077 153.632V153.848C253.253 153.896 253.445 153.988 253.653 154.124C253.861 154.252 254.037 154.44 254.181 154.688C254.333 154.936 254.409 155.26 254.409 155.66V155.78C254.409 156.244 254.301 156.644 254.085 156.98C253.869 157.308 253.569 157.56 253.185 157.736C252.809 157.912 252.369 158 251.865 158H247.497ZM250.185 156.56H251.673C252.017 156.56 252.293 156.476 252.501 156.308C252.717 156.14 252.825 155.9 252.825 155.588V155.468C252.825 155.156 252.721 154.916 252.513 154.748C252.305 154.58 252.025 154.496 251.673 154.496H250.185V156.56ZM250.185 153.056H251.649C251.977 153.056 252.245 152.972 252.453 152.804C252.669 152.636 252.777 152.404 252.777 152.108V151.988C252.777 151.684 252.673 151.452 252.465 151.292C252.257 151.124 251.985 151.04 251.649 151.04H250.185V153.056ZM255.706 158V149.6H259.162C259.69 149.6 260.154 149.708 260.554 149.924C260.962 150.132 261.278 150.428 261.502 150.812C261.734 151.196 261.85 151.652 261.85 152.18V152.348C261.85 152.868 261.73 153.324 261.49 153.716C261.258 154.1 260.938 154.4 260.53 154.616C260.13 154.824 259.674 154.928 259.162 154.928H257.29V158H255.706ZM257.29 153.488H259.006C259.382 153.488 259.686 153.384 259.918 153.176C260.15 152.968 260.266 152.684 260.266 152.324V152.204C260.266 151.844 260.15 151.56 259.918 151.352C259.686 151.144 259.382 151.04 259.006 151.04H257.29V153.488Z" fill="white"></path></g><g filter="url(#filter2_d_206_162)"><rect x="24" y="188" width="251" height="44" rx="12" fill="url(#paint2_linear_206_162)" shape-rendering="crispEdges"></rect><rect x="36" y="198" width="24" height="24" rx="12" fill="#112829"></rect><path d="M40.7828 213V208.152H40.6388L39.8868 209.928H38.8148L39.9588 207.4H41.8068V213H40.7828ZM44.7359 213.112C44.3093 213.112 43.9306 213.048 43.5999 212.92C43.2746 212.792 43.0186 212.608 42.8319 212.368C42.6506 212.123 42.5599 211.835 42.5599 211.504V211.408C42.5599 211.152 42.6053 210.941 42.6959 210.776C42.7866 210.605 42.8986 210.472 43.0319 210.376C43.1706 210.28 43.3013 210.213 43.4239 210.176V210.032C43.3013 209.989 43.1786 209.92 43.0559 209.824C42.9333 209.728 42.8319 209.6 42.7519 209.44C42.6773 209.28 42.6399 209.088 42.6399 208.864V208.768C42.6399 208.475 42.7253 208.219 42.8959 208C43.0719 207.776 43.3173 207.603 43.6319 207.48C43.9466 207.352 44.3146 207.288 44.7359 207.288C45.1573 207.288 45.5253 207.352 45.8399 207.48C46.1546 207.603 46.3973 207.776 46.5679 208C46.7439 208.219 46.8319 208.475 46.8319 208.768V208.864C46.8319 209.088 46.7919 209.28 46.7119 209.44C46.6373 209.6 46.5386 209.728 46.4159 209.824C46.2986 209.92 46.1759 209.989 46.0479 210.032V210.176C46.1759 210.213 46.3066 210.28 46.4399 210.376C46.5733 210.472 46.6853 210.605 46.7759 210.776C46.8666 210.941 46.9119 211.152 46.9119 211.408V211.504C46.9119 211.835 46.8186 212.123 46.6319 212.368C46.4506 212.608 46.1946 212.792 45.8639 212.92C45.5386 213.048 45.1626 213.112 44.7359 213.112ZM44.7359 212.2C45.1039 212.2 45.3866 212.131 45.5839 211.992C45.7866 211.848 45.8879 211.659 45.8879 211.424V211.36C45.8879 211.125 45.7893 210.939 45.5919 210.8C45.3999 210.656 45.1146 210.584 44.7359 210.584C44.3626 210.584 44.0773 210.656 43.8799 210.8C43.6826 210.939 43.5839 211.125 43.5839 211.36V211.424C43.5839 211.659 43.6826 211.848 43.8799 211.992C44.0826 212.131 44.3679 212.2 44.7359 212.2ZM44.7359 209.672C45.0773 209.672 45.3413 209.611 45.5279 209.488C45.7146 209.365 45.8079 209.192 45.8079 208.968V208.904C45.8079 208.68 45.7119 208.507 45.5199 208.384C45.3279 208.261 45.0666 208.2 44.7359 208.2C44.4053 208.2 44.1439 208.261 43.9519 208.384C43.7599 208.507 43.6639 208.68 43.6639 208.904V208.968C43.6639 209.192 43.7573 209.365 43.9439 209.488C44.1306 209.611 44.3946 209.672 44.7359 209.672ZM49.7248 213.112C49.0635 213.112 48.5328 212.931 48.1328 212.568C47.7328 212.2 47.5328 211.645 47.5328 210.904V209.496C47.5328 208.776 47.7328 208.229 48.1328 207.856C48.5328 207.477 49.0635 207.288 49.7248 207.288C50.3915 207.288 50.9221 207.477 51.3168 207.856C51.7168 208.229 51.9168 208.776 51.9168 209.496V210.904C51.9168 211.645 51.7168 212.2 51.3168 212.568C50.9221 212.931 50.3915 213.112 49.7248 213.112ZM49.7248 212.2C50.1248 212.2 50.4181 212.091 50.6048 211.872C50.7968 211.653 50.8928 211.341 50.8928 210.936V209.448C50.8928 209.037 50.7861 208.728 50.5728 208.52C50.3648 208.307 50.0821 208.2 49.7248 208.2C49.3568 208.2 49.0688 208.309 48.8608 208.528C48.6581 208.747 48.5568 209.053 48.5568 209.448V210.936C48.5568 211.357 48.6528 211.675 48.8448 211.888C49.0421 212.096 49.3355 212.2 49.7248 212.2ZM54.3283 211.872V210.656H53.1283V209.744H54.3283V208.528H55.2723V209.744H56.4723V210.656H55.2723V211.872H54.3283Z" fill="white"></path><path d="M76.648 215.196C75.4347 215.196 74.4733 214.86 73.764 214.188C73.0547 213.507 72.7 212.536 72.7 211.276V208.924C72.7 207.664 73.0547 206.698 73.764 206.026C74.4733 205.345 75.4347 205.004 76.648 205.004C77.852 205.004 78.7807 205.335 79.434 205.998C80.0967 206.651 80.428 207.552 80.428 208.7V208.784H78.608V208.644C78.608 208.065 78.4447 207.589 78.118 207.216C77.8007 206.843 77.3107 206.656 76.648 206.656C75.9947 206.656 75.4813 206.857 75.108 207.258C74.7347 207.659 74.548 208.205 74.548 208.896V211.304C74.548 211.985 74.7347 212.531 75.108 212.942C75.4813 213.343 75.9947 213.544 76.648 213.544C77.3107 213.544 77.8007 213.357 78.118 212.984C78.4447 212.601 78.608 212.125 78.608 211.556V211.304H80.428V211.5C80.428 212.648 80.0967 213.553 79.434 214.216C78.7807 214.869 77.852 215.196 76.648 215.196ZM85.2938 215.196C84.6031 215.196 83.9824 215.056 83.4318 214.776C82.8811 214.496 82.4471 214.09 82.1298 213.558C81.8124 213.026 81.6538 212.387 81.6538 211.64V211.416C81.6538 210.669 81.8124 210.03 82.1298 209.498C82.4471 208.966 82.8811 208.56 83.4318 208.28C83.9824 208 84.6031 207.86 85.2938 207.86C85.9844 207.86 86.6051 208 87.1558 208.28C87.7064 208.56 88.1404 208.966 88.4578 209.498C88.7751 210.03 88.9338 210.669 88.9338 211.416V211.64C88.9338 212.387 88.7751 213.026 88.4578 213.558C88.1404 214.09 87.7064 214.496 87.1558 214.776C86.6051 215.056 85.9844 215.196 85.2938 215.196ZM85.2938 213.628C85.8351 213.628 86.2831 213.455 86.6378 213.11C86.9924 212.755 87.1698 212.251 87.1698 211.598V211.458C87.1698 210.805 86.9924 210.305 86.6378 209.96C86.2924 209.605 85.8444 209.428 85.2938 209.428C84.7524 209.428 84.3044 209.605 83.9498 209.96C83.5951 210.305 83.4178 210.805 83.4178 211.458V211.598C83.4178 212.251 83.5951 212.755 83.9498 213.11C84.3044 213.455 84.7524 213.628 85.2938 213.628ZM93.208 215.112C92.6667 215.112 92.1907 214.991 91.78 214.748C91.3787 214.496 91.066 214.151 90.842 213.712C90.618 213.273 90.506 212.769 90.506 212.2V208.056H92.27V212.06C92.27 212.583 92.396 212.975 92.648 213.236C92.9094 213.497 93.278 213.628 93.754 213.628C94.2954 213.628 94.7154 213.451 95.014 213.096C95.3127 212.732 95.462 212.228 95.462 211.584V208.056H97.226V215H95.49V214.09H95.238C95.126 214.323 94.916 214.552 94.608 214.776C94.3 215 93.8334 215.112 93.208 215.112ZM99.189 215V208.056H100.925V208.966H101.177C101.289 208.723 101.499 208.495 101.807 208.28C102.115 208.056 102.582 207.944 103.207 207.944C103.748 207.944 104.22 208.07 104.621 208.322C105.032 208.565 105.349 208.905 105.573 209.344C105.797 209.773 105.909 210.277 105.909 210.856V215H104.145V210.996C104.145 210.473 104.014 210.081 103.753 209.82C103.501 209.559 103.137 209.428 102.661 209.428C102.12 209.428 101.7 209.61 101.401 209.974C101.102 210.329 100.953 210.828 100.953 211.472V215H99.189ZM110.285 215C109.827 215 109.454 214.86 109.165 214.58C108.885 214.291 108.745 213.908 108.745 213.432V209.512H107.009V208.056H108.745V205.9H110.509V208.056H112.413V209.512H110.509V213.124C110.509 213.404 110.639 213.544 110.901 213.544H112.245V215H110.285ZM114.009 215V208.056H115.745V208.84H115.997C116.1 208.56 116.268 208.355 116.501 208.224C116.744 208.093 117.024 208.028 117.341 208.028H118.181V209.596H117.313C116.865 209.596 116.497 209.717 116.207 209.96C115.918 210.193 115.773 210.557 115.773 211.052V215H114.009ZM119.56 215V208.056H121.324V215H119.56ZM120.442 207.244C120.125 207.244 119.854 207.141 119.63 206.936C119.415 206.731 119.308 206.46 119.308 206.124C119.308 205.788 119.415 205.517 119.63 205.312C119.854 205.107 120.125 205.004 120.442 205.004C120.769 205.004 121.039 205.107 121.254 205.312C121.469 205.517 121.576 205.788 121.576 206.124C121.576 206.46 121.469 206.731 121.254 206.936C121.039 207.141 120.769 207.244 120.442 207.244ZM126.443 215.196C125.752 215.196 125.141 215.051 124.609 214.762C124.086 214.463 123.675 214.048 123.377 213.516C123.087 212.975 122.943 212.34 122.943 211.612V211.444C122.943 210.716 123.087 210.086 123.377 209.554C123.666 209.013 124.072 208.597 124.595 208.308C125.117 208.009 125.724 207.86 126.415 207.86C127.096 207.86 127.689 208.014 128.193 208.322C128.697 208.621 129.089 209.041 129.369 209.582C129.649 210.114 129.789 210.735 129.789 211.444V212.046H124.735C124.753 212.522 124.931 212.909 125.267 213.208C125.603 213.507 126.013 213.656 126.499 213.656C126.993 213.656 127.357 213.549 127.591 213.334C127.824 213.119 128.001 212.881 128.123 212.62L129.565 213.376C129.434 213.619 129.243 213.885 128.991 214.174C128.748 214.454 128.421 214.697 128.011 214.902C127.6 215.098 127.077 215.196 126.443 215.196ZM124.749 210.73H127.997C127.959 210.329 127.796 210.007 127.507 209.764C127.227 209.521 126.858 209.4 126.401 209.4C125.925 209.4 125.547 209.521 125.267 209.764C124.987 210.007 124.814 210.329 124.749 210.73ZM134.243 215.196C133.338 215.196 132.596 215 132.017 214.608C131.438 214.216 131.088 213.656 130.967 212.928L132.591 212.508C132.656 212.835 132.764 213.091 132.913 213.278C133.072 213.465 133.263 213.6 133.487 213.684C133.72 213.759 133.972 213.796 134.243 213.796C134.654 213.796 134.957 213.726 135.153 213.586C135.349 213.437 135.447 213.255 135.447 213.04C135.447 212.825 135.354 212.662 135.167 212.55C134.98 212.429 134.682 212.331 134.271 212.256L133.879 212.186C133.394 212.093 132.95 211.967 132.549 211.808C132.148 211.64 131.826 211.411 131.583 211.122C131.34 210.833 131.219 210.459 131.219 210.002C131.219 209.311 131.471 208.784 131.975 208.42C132.479 208.047 133.142 207.86 133.963 207.86C134.738 207.86 135.382 208.033 135.895 208.378C136.408 208.723 136.744 209.176 136.903 209.736L135.265 210.24C135.19 209.885 135.036 209.633 134.803 209.484C134.579 209.335 134.299 209.26 133.963 209.26C133.627 209.26 133.37 209.321 133.193 209.442C133.016 209.554 132.927 209.713 132.927 209.918C132.927 210.142 133.02 210.31 133.207 210.422C133.394 210.525 133.646 210.604 133.963 210.66L134.355 210.73C134.878 210.823 135.349 210.949 135.769 211.108C136.198 211.257 136.534 211.477 136.777 211.766C137.029 212.046 137.155 212.429 137.155 212.914C137.155 213.642 136.889 214.207 136.357 214.608C135.834 215 135.13 215.196 134.243 215.196Z" fill="white"></path></g><defs><filter id="filter0_d_206_162" x="0" y="0" width="299" height="92" filterUnits="userSpaceOnUse" color-interpolation-filters="sRGB"><feFlood flood-opacity="0" result="BackgroundImageFix"></feFlood><feColorMatrix in="SourceAlpha" type="matrix" values="0 0 0 0 0 0 0 0 0 0 0 0 0 0 0 0 0 0 127 0" result="hardAlpha"></feColorMatrix><feOffset dy="4"></feOffset><feGaussianBlur stdDeviation="12"></feGaussianBlur><feComposite in2="hardAlpha" operator="out"></feComposite><feColorMatrix type="matrix" values="0 0 0 0 0.0509804 0 0 0 0 0.107843 0 0 0 0 0.14902 0 0 0 0.08 0"></feColorMatrix><feBlend mode="normal" in2="BackgroundImageFix" result="effect1_dropShadow_206_162"></feBlend><feBlend mode="normal" in="SourceGraphic" in2="effect1_dropShadow_206_162" result="shape"></feBlend></filter><filter id="filter1_d_206_162" x="0" y="112" width="299" height="92" filterUnits="userSpaceOnUse" color-interpolation-filters="sRGB"><feFlood flood-opacity="0" result="BackgroundImageFix"></feFlood><feColorMatrix in="SourceAlpha" type="matrix" values="0 0 0 0 0 0 0 0 0 0 0 0 0 0 0 0 0 0 127 0" result="hardAlpha"></feColorMatrix><feOffset dy="4"></feOffset><feGaussianBlur stdDeviation="12"></feGaussianBlur><feComposite in2="hardAlpha" operator="out"></feComposite><feColorMatrix type="matrix" values="0 0 0 0 0.0509804 0 0 0 0 0.107843 0 0 0 0 0.14902 0 0 0 0.08 0"></feColorMatrix><feBlend mode="normal" in2="BackgroundImageFix" result="effect1_dropShadow_206_162"></feBlend><feBlend mode="normal" in="SourceGraphic" in2="effect1_dropShadow_206_162" result="shape"></feBlend></filter><filter id="filter2_d_206_162" x="0" y="168" width="299" height="92" filterUnits="userSpaceOnUse" color-interpolation-filters="sRGB"><feFlood flood-opacity="0" result="BackgroundImageFix"></feFlood><feColorMatrix in="SourceAlpha" type="matrix" values="0 0 0 0 0 0 0 0 0 0 0 0 0 0 0 0 0 0 127 0" result="hardAlpha"></feColorMatrix><feOffset dy="4"></feOffset><feGaussianBlur stdDeviation="12"></feGaussianBlur><feComposite in2="hardAlpha" operator="out"></feComposite><feColorMatrix type="matrix" values="0 0 0 0 0.0509804 0 0 0 0 0.107843 0 0 0 0 0.14902 0 0 0 0.08 0"></feColorMatrix><feBlend mode="normal" in2="BackgroundImageFix" result="effect1_dropShadow_206_162"></feBlend><feBlend mode="normal" in="SourceGraphic" in2="effect1_dropShadow_206_162" result="shape"></feBlend></filter><linearGradient id="paint0_linear_206_162" x1="149.5" y1="20" x2="149.5" y2="64" gradientUnits="userSpaceOnUse"><stop stop-color="#1E5151"></stop><stop offset="1" stop-color="#1E7777"></stop></linearGradient><linearGradient id="paint1_linear_206_162" x1="149.5" y1="132" x2="149.5" y2="176" gradientUnits="userSpaceOnUse"><stop stop-color="#1E5151"></stop><stop offset="1" stop-color="#1E7777"></stop></linearGradient><linearGradient id="paint2_linear_206_162" x1="149.5" y1="188" x2="149.5" y2="232" gradientUnits="userSpaceOnUse"><stop stop-color="#1E5151"></stop><stop offset="1" stop-color="#1E7777" stop-opacity="0"></stop></linearGradient><clipPath id="clip0_206_162"><rect width="32" height="24" fill="white" transform="translate(32 30)"></rect></clipPath><clipPath id="clip1_206_162"><rect x="36" y="86" width="24" height="24" rx="12" fill="white"></rect></clipPath><clipPath id="clip2_206_162"><rect width="32" height="24" fill="white" transform="translate(31.9863 86)"></rect></clipPath><clipPath id="clip3_206_162"><rect width="32" height="24" fill="white" transform="translate(32 142)"></rect></clipPath></defs></svg>